<?xml version="1.0" encoding="utf-8"?>
<!-- Generator: Adobe Illustrator 16.0.0, SVG Export Plug-In . SVG Version: 6.00 Build 0)  -->
<!DOCTYPE svg PUBLIC "-//W3C//DTD SVG 1.1//EN" "http://www.w3.org/Graphics/SVG/1.1/DTD/svg11.dtd">
<svg version="1.1" xmlns="http://www.w3.org/2000/svg" xmlns:xlink="http://www.w3.org/1999/xlink" x="0px" y="0px" width="790px"
	 height="913.109px" viewBox="0 0 790 913.109" enable-background="new 0 0 790 913.109" xml:space="preserve">
<g id="图层_1">
	<polygon fill="#233042" points="272.118,3.903 276.476,313.386 172.859,309.027 172.859,603.537 272.118,603.537 272.118,904.849 
		785.428,904.849 785.428,3.903 	"/>
	<polygon fill="#474443" points="655.672,8.532 783.932,8.532 783.932,315.974 655.672,315.974 	"/>
	<polygon fill="#474443" stroke="#332C2B" stroke-width="1.0188" points="276.476,724.443 141.952,724.443 124.524,724.443 
		124.524,677.605 141.952,677.605 141.952,608.166 276.476,608.166 276.476,677.605 	"/>
	<polygon fill="#727063" points="2.393,3.903 276.476,3.903 276.476,313.386 2.393,313.386 	"/>
	<polygon fill="#FEFEFE" points="522.646,7.851 522.646,95.808 585.143,189.892 649.545,189.892 649.545,194.248 582.828,194.248 
		582.148,193.296 518.563,97.578 518.289,96.488 518.289,7.851 	"/>
	<polygon fill="#FEFEFE" points="781.072,911.386 781.072,3.903 787.607,3.903 787.607,911.386 	"/>
	<path fill="#FEFEFE" d="M234.676,309.027h41.8v4.359h-41.8V309.027z M2.393,309.027h43.57v4.359H2.393V309.027z M77.143,309.027
		h126.624v4.359H77.143V309.027z"/>
	<polygon fill="#FEFEFE" points="272.118,313.386 272.118,3.903 276.476,3.903 276.476,313.386 	"/>
	<g id="_398279808">
		<path fill="#FEFEFE" d="M648.455,8.532h7.217v246.171h11.164v8.713h-18.381v-2.586v-6.127V8.532z M772.357,254.701h13.069v8.715
			h-13.069h-5.445h-18.789v-8.715h18.789H772.357z M706.457,87.502h3.27v167.199h7.353v8.715H698.29v-8.715h8.168L706.457,87.502
			L706.457,87.502z"/>
		<g>
			<polygon fill="#FEFEFE" points="772.357,7.441 781.072,7.441 781.072,255.519 772.357,255.519 			"/>
			<polygon id="_x31_" fill="none" stroke="#FEFEFE" stroke-width="6.3633" points="772.357,7.441 781.072,7.441 781.072,255.519 
				772.357,255.519 			"/>
		</g>
		<g id="_398279904">
			<polygon fill="none" stroke="#FEFEFE" stroke-width="1.0188" points="655.672,87.502 772.357,87.502 772.357,97.578 
				655.672,97.578 			"/>
			<polygon fill="none" stroke="#FEFEFE" stroke-width="1.0188" points="655.672,107.517 772.357,107.517 772.357,97.578 
				655.672,97.578 			"/>
			<polygon fill="none" stroke="#FEFEFE" stroke-width="1.0188" points="655.672,107.517 772.357,107.517 772.357,117.593 
				655.672,117.593 			"/>
			<polygon fill="none" stroke="#FEFEFE" stroke-width="1.0188" points="655.672,127.669 772.357,127.669 772.357,117.593 
				655.672,117.593 			"/>
			<polygon fill="none" stroke="#FEFEFE" stroke-width="1.0188" points="655.672,127.669 772.357,127.669 772.357,137.606 
				655.672,137.606 			"/>
			<polygon fill="none" stroke="#FEFEFE" stroke-width="1.0188" points="655.672,147.684 772.357,147.684 772.357,137.606 
				655.672,137.606 			"/>
			<polygon fill="none" stroke="#FEFEFE" stroke-width="1.0188" points="655.672,147.684 772.357,147.684 772.357,157.759 
				655.672,157.759 			"/>
			<polygon fill="none" stroke="#FEFEFE" stroke-width="1.0188" points="655.672,167.699 772.357,167.699 772.357,157.759 
				655.672,157.759 			"/>
			<polygon fill="none" stroke="#FEFEFE" stroke-width="1.0188" points="655.672,167.699 772.357,167.699 772.357,177.773 
				655.672,177.773 			"/>
			<polygon fill="none" stroke="#FEFEFE" stroke-width="1.0188" points="655.672,187.85 706.867,187.85 706.867,177.773 
				655.672,177.773 			"/>
			<polygon fill="none" stroke="#FEFEFE" stroke-width="1.0188" points="655.672,187.85 706.867,187.85 706.867,197.788 
				655.672,197.788 			"/>
		</g>
	</g>
	<polyline fill="none" points="520.469,7.851 520.469,96.488 583.918,192.069 649.545,192.069 	"/>
	<polygon fill="#FEFEFE" points="730.285,315.974 655.672,315.974 655.672,263.279 648.455,263.279 648.455,320.33 648.455,320.33 
		655.4,320.33 730.285,320.33 	"/>
	<polygon fill="#FEFEFE" points="762.42,320.33 783.932,320.33 783.932,315.974 762.42,315.974 	"/>
	<polygon fill="#5F4C34" points="522.646,8.532 522.646,95.808 585.143,189.892 649.545,189.892 648.455,8.532 	"/>
	<polygon fill="#FEFEFE" points="2.393,309.3 2.393,3.903 6.75,3.903 6.75,309.3 	"/>
	<polygon fill="#CFD0D4" stroke="#8B8B8B" stroke-width="6.6723" points="508.352,297.457 562.949,297.457 562.949,322.916 
		508.352,322.916 	"/>
	<polygon fill="#CFD0D4" stroke="#8B8B8B" stroke-width="6.6723" points="400.648,390.314 509.711,390.314 509.711,383.779 
		400.648,383.779 	"/>
	<polygon fill="#CFD0D4" stroke="#8B8B8B" stroke-width="6.6723" points="696.654,361.041 751.525,361.041 751.525,506.455 
		696.654,506.455 	"/>
	<polygon fill="#CFD0D4" stroke="#8B8B8B" stroke-width="6.6723" points="338.563,885.515 483.977,885.515 483.977,892.05 
		338.563,892.05 	"/>
	<polygon fill="#CFD0D4" stroke="#8B8B8B" stroke-width="6.6723" points="558.32,885.515 740.09,885.515 740.09,892.05 
		558.32,892.05 	"/>
	<polygon fill="#CFD0D4" stroke="#8B8B8B" stroke-width="6.6723" points="415.492,752.628 444.492,752.628 444.492,781.765 
		415.492,781.765 	"/>
	<polygon fill="#CFD0D4" stroke="#8B8B8B" stroke-width="6.6723" points="415.492,686.591 444.492,686.591 444.492,715.728 
		415.492,715.728 	"/>
	<polygon fill="#CFD0D4" stroke="#8B8B8B" stroke-width="6.6723" points="482.889,752.628 511.891,752.628 511.891,781.765 
		482.889,781.765 	"/>
	<polygon fill="#CFD0D4" stroke="#8B8B8B" stroke-width="6.6723" points="482.889,686.591 511.891,686.591 511.891,715.728 
		482.889,715.728 	"/>
	<polygon fill="#CFD0D4" stroke="#8B8B8B" stroke-width="6.6723" points="550.287,752.628 579.287,752.628 579.287,781.765 
		550.287,781.765 	"/>
	<polygon fill="#CFD0D4" stroke="#8B8B8B" stroke-width="6.6723" points="550.287,686.591 579.287,686.591 579.287,715.728 
		550.287,715.728 	"/>
	<polygon fill="#CFD0D4" stroke="#8B8B8B" stroke-width="6.6723" points="617.684,752.628 646.686,752.628 646.686,781.765 
		617.684,781.765 	"/>
	<polygon fill="#CFD0D4" stroke="#8B8B8B" stroke-width="6.6723" points="617.684,686.591 646.686,686.591 646.686,715.728 
		617.684,715.728 	"/>
	<polygon fill="#CFD0D4" stroke="#8B8B8B" stroke-width="6.6723" points="761.873,644.927 768.41,644.927 768.41,863.185 
		761.873,863.185 	"/>
	<polygon fill="#CFD0D4" stroke="#8B8B8B" stroke-width="6.6723" points="400.648,621.507 532.449,621.507 532.449,588.83 
		400.648,588.83 400.648,594.957 	"/>
	<polygon fill="#CFD0D4" stroke="#8B8B8B" stroke-width="6.6723" points="404.326,390.314 437.141,390.314 437.141,588.695 
		404.326,588.695 	"/>
	<polygon fill="#CFD0D4" stroke="#8B8B8B" stroke-width="6.6723" points="437.141,390.314 441.496,390.314 441.496,588.695 
		437.141,588.695 	"/>
	<polygon fill="#CFD0D4" stroke="#8B8B8B" stroke-width="6.6723" points="441.496,390.314 506.852,390.314 506.852,588.695 
		441.496,588.695 	"/>
	<polygon fill="#CFD0D4" stroke="#8B8B8B" stroke-width="6.6723" points="619.725,621.507 532.449,621.507 532.449,588.83 
		619.725,588.83 	"/>
	<polygon fill="#CFD0D4" stroke="#8B8B8B" stroke-width="6.6723" points="744.309,544.851 750.846,544.851 750.846,653.914 
		744.309,653.914 	"/>
	<polygon fill="#CFD0D4" stroke="#8B8B8B" stroke-width="6.6723" points="744.309,562.96 726.201,562.96 726.201,635.669 
		744.309,635.669 	"/>
	<polygon fill="#CFD0D4" stroke="#8B8B8B" stroke-width="6.6723" points="441.496,489.708 509.711,489.708 509.711,483.173 
		441.496,483.173 	"/>
	<polygon fill="#CFD0D4" stroke="#8B8B8B" stroke-width="6.6723" points="286.278,591.689 312.965,655.275 312.965,875.031 
		276.611,875.031 276.611,603.537 173.133,603.537 173.133,577.121 214.796,577.121 	"/>
	<g>
		<path fill="#CFD0D4" stroke="#8B8B8B" stroke-width="6.6723" d="M511.209,146.322c-1.227,57.458-47.518,104.84-105.521,106.746
			c-40.574,1.227-76.929-20.014-96.672-52.42l202.192-54.19V146.322z"/>
		<path fill="#CFD0D4" stroke="#8B8B8B" stroke-width="6.6723" d="M398.744,35.082c60.045-1.906,110.559,45.477,112.465,105.521
			c0,0.137,0,0.273,0,0.544L306.294,196.02c-7.896-14.433-12.526-30.908-13.208-48.472c-1.906-60.046,45.479-110.56,105.521-112.466
			H398.744L398.744,35.082z"/>
		<g id="_398893888">
			<polygon fill="#CFD0D4" stroke="#8B8B8B" stroke-width="6.6723" points="415.492,251.57 443.131,244.083 440.408,233.597 
				412.633,240.951 			"/>
			<polygon fill="#CFD0D4" stroke="#8B8B8B" stroke-width="6.6723" points="415.492,251.57 443.131,244.083 445.99,254.566 
				418.35,262.054 			"/>
			<polygon fill="#CFD0D4" stroke="#8B8B8B" stroke-width="6.6723" points="421.074,272.539 448.852,265.185 445.99,254.566 
				418.35,262.054 			"/>
			<polygon fill="#CFD0D4" stroke="#8B8B8B" stroke-width="6.6723" points="421.074,272.539 448.852,265.185 451.709,275.669 
				423.934,283.158 			"/>
			<polygon fill="#CFD0D4" stroke="#8B8B8B" stroke-width="6.6723" points="426.793,293.644 454.434,286.291 451.709,275.669 
				423.934,283.158 			"/>
			<polygon fill="#CFD0D4" stroke="#8B8B8B" stroke-width="6.6723" points="426.793,293.644 454.434,286.291 457.291,296.775 
				429.516,304.261 			"/>
			<path fill="#CFD0D4" stroke="#8B8B8B" stroke-width="6.6723" d="M327.67,195.611l164.886-44.252
				c-2.723,33.631-24.1,62.497-53.918,75.703l1.771,6.535l-27.775,7.488l-1.771-6.67c-1.906,0.135-3.813,0.27-5.72,0.408
				c-31.859,0.951-60.452-14.705-77.472-39.078L327.67,195.611L327.67,195.611z"/>
		</g>
	</g>
	<polygon fill="#FEFEFE" points="272.118,909.208 272.118,603.537 276.476,603.537 276.476,909.208 	"/>
	<polygon fill="#FEFEFE" points="120.168,728.8 120.168,724.443 120.168,677.605 120.168,673.248 124.524,673.248 141.952,673.248 
		141.952,603.808 146.31,603.808 146.31,677.605 141.952,677.605 124.524,677.605 124.524,724.443 276.476,724.443 276.476,728.8 
		124.524,728.8 	"/>
	<polygon fill="#FEFEFE" points="141.952,603.537 276.476,603.537 276.476,607.892 141.952,607.892 	"/>
	<path fill="#FEFEFE" d="M163.874,603.537V492.705h9.122v110.832H163.874z M163.874,419.996v-110.83h9.122v110.83H163.874z"/>
	<polygon fill="#5F5D5D" points="166.597,385.14 170.137,385.14 170.137,432.796 166.597,432.796 	"/>
	<polygon fill="#5F5D5D" points="166.597,481.13 170.137,481.13 170.137,528.648 166.597,528.648 	"/>
	<polygon fill="#FEFEFE" points="272.118,904.849 785.428,904.849 785.428,911.386 272.118,911.386 	"/>
	<polygon fill="#FEFEFE" points="2.393,1.723 787.607,1.723 787.607,8.258 2.393,8.258 	"/>
</g>
<g id="图层_2_1_">
	<path fill="#FEFEFE" d="M102.331,156.397h10.756v-1.771h-6.127v0.682h-1.77v-5.992h7.896v-2.178h1.771v2.178h7.896v5.992h-1.77
		v-0.682h-6.127v1.771h10.756v1.634H102.33L102.331,156.397L102.331,156.397z M105.735,159.801h16.61v6.128h-1.771v-4.63h-12.935
		v4.766h-1.77v-6.264H105.735L105.735,159.801z M114.858,161.979c0,1.091-0.137,2.18-0.272,2.997
		c3.269,1.089,6.535,2.313,9.803,3.675l-1.089,1.771c-3.131-1.362-6.263-2.588-9.531-3.813c-1.225,1.771-4.491,2.996-9.803,3.813
		c-0.271-0.953-0.544-1.498-0.816-1.771c4.766-0.544,7.76-1.497,8.985-2.858c0.683-0.681,0.954-1.771,0.818-3.54h1.77
		L114.858,161.979z M120.985,150.814h-6.127v2.179h6.127V150.814z M106.96,152.993h6.127v-2.179h-6.127V152.993z M127.792,163.07
		h4.357v-9.531c5.311-0.136,10.074-0.409,14.296-0.953l0.681,1.771c-3.54,0.409-7.897,0.68-13.071,0.815v2.451h15.522v1.635h-5.583
		v3.813h7.08v1.633h-23.283L127.792,163.07L127.792,163.07z M128.746,149.59h10.212c-0.409-0.682-0.681-1.498-1.09-2.18l1.634-0.681
		c0.544,0.954,1.09,1.906,1.635,2.86h9.123v4.356h-1.771v-2.724h-17.836v2.724h-1.771v-4.356L128.746,149.59L128.746,149.59z
		 M133.919,163.07h8.169v-3.813h-8.169V163.07z M141.408,166.744l0.815-1.497c3.133,1.089,5.855,2.18,8.17,3.133l-1.089,1.769
		c-2.724-1.361-5.446-2.45-8.033-3.54L141.408,166.744z M135.826,165.112l1.089,1.497c-2.451,1.226-5.037,2.451-7.896,3.54
		c-0.271-0.544-0.545-1.089-0.952-1.633c2.587-0.953,5.173-2.18,7.761-3.54L135.826,165.112L135.826,165.112z M153.253,167.563
		h10.621v-2.724h-8.441v-1.634h8.441v-2.724c-1.634,0.138-3.268,0.138-4.765,0.272c-0.817,0-1.498,0.137-2.315,0.271l-0.816-1.906
		c0.545-0.271,1.227-0.544,1.906-0.951c1.088-0.817,2.178-1.499,2.995-2.315h-4.221v-1.635h16.61v1.635h-9.53
		c-1.226,0.953-2.724,2.042-4.357,3.267c3.404-0.136,6.808-0.271,10.212-0.406c-0.544-0.409-1.089-0.954-1.634-1.362l1.362-1.227
		c1.905,1.498,3.676,2.995,5.174,4.357l-1.499,1.497c-0.544-0.544-1.088-1.088-1.633-1.633c-1.906,0-3.678,0.136-5.447,0.136v2.724
		h8.442v1.634h-8.442v2.724h10.62v1.633H153.39v-1.633H153.253z M154.07,150.134h10.348c-0.408-0.817-0.953-1.633-1.498-2.45
		l1.634-0.817c0.545,0.817,1.089,1.77,1.635,2.724l-1.226,0.544h10.484v4.222h-1.907v-2.588h-17.699v2.588h-1.907v-4.222
		L154.07,150.134L154.07,150.134z"/>
	<path fill="#233042" d="M346.46,116.91h9.667v-4.083h-7.625v-1.771h7.625v-3.676h-6.808v-1.771h15.521v1.771h-6.808v3.676h7.625
		v1.771h-7.625v4.083h9.667v1.771h-21.378v-1.771H346.46z M358.85,96.896l-0.407,0.544c2.587,3.404,6.127,5.992,10.483,7.761
		c-0.545,0.682-0.953,1.362-1.225,1.906c-4.085-2.042-7.625-4.766-10.349-8.169c-2.451,3.132-5.99,5.992-10.62,8.442
		c-0.272-0.544-0.682-1.091-1.227-1.771c4.902-2.45,8.442-5.311,11.029-8.851h2.451L358.85,96.896z M373.963,97.44h17.292v7.898
		h-1.634v-0.817h-13.888v0.817H374.1V97.44H373.963z M374.372,109.014h16.611v5.446h-1.635v-0.815h-5.719v3.266
		c0,1.636-0.814,2.453-2.45,2.453c-1.09,0-1.906,0-2.588,0c0-0.273-0.136-0.817-0.408-1.906c0.953,0.136,1.771,0.136,2.587,0.136
		c0.817,0,1.09-0.409,1.09-1.227v-2.859h-5.854v0.817h-1.634v-5.446V109.014z M371.785,106.156h9.803
		c-0.136-0.272-0.408-0.681-0.545-0.954l1.635-0.68c0.272,0.544,0.681,1.089,0.952,1.634h9.804v1.497h-21.513v-1.497H371.785z
		 M389.212,110.375h-13.207v1.771h13.207V110.375z M375.598,103.023h13.888v-1.497h-13.888V103.023z M389.485,98.803h-13.888v1.497
		h13.888V98.803z M385.537,116.095l0.817-1.497c2.45,0.953,4.765,1.906,7.08,2.859l-0.816,1.633
		C390.438,118.137,388.124,117.049,385.537,116.095z M378.729,114.598l0.952,1.497c-2.313,1.089-4.629,2.179-6.944,3.269
		c-0.271-0.408-0.543-0.953-0.952-1.499c2.723-1.089,5.038-2.179,6.943-3.131L378.729,114.598L378.729,114.598z M399.289,104.792
		h16.883v6.128h-1.77v-0.818h-13.345l-0.271,2.18h16.475c0,1.089-0.137,2.178-0.137,3.403c-0.137,2.315-1.496,3.54-3.949,3.54
		c-1.36,0-3.131,0-5.311,0c0-0.544-0.136-1.225-0.271-1.906c2.181,0.138,3.949,0.138,5.447,0.273c1.498,0,2.178-0.683,2.314-2.042
		c0-0.409,0-0.953,0.137-1.497h-16.611l0.681-5.311h14.842v-2.315H399.29v-1.497L399.289,104.792L399.289,104.792z M397.246,98.938
		h10.076c-0.273-0.545-0.683-1.089-1.091-1.634l1.771-0.817c0.545,0.953,1.09,1.771,1.363,2.451h9.393v3.813h-1.77v-2.178h-18.107
		v2.178h-1.77v-3.813H397.246z M410.727,101.118c2.724,0.817,5.31,1.497,7.896,2.314l-0.68,1.633
		c-3.134-1.089-5.722-1.905-7.898-2.45l0.682-1.361V101.118z M405.143,100.981l0.953,1.498c-2.178,0.815-4.899,1.633-8.032,2.586
		c-0.271-0.544-0.544-1.089-0.816-1.497c2.723-0.545,5.447-1.362,7.896-2.45V100.981z M422.57,109.287h6.127
		c0.545-0.544,1.09-1.089,1.498-1.635h-3.402v0.546h-1.635v-7.217h16.748v7.217h-1.636v-0.546h-8.168
		c-0.409,0.546-0.817,1.091-1.362,1.635h13.617v1.362h-5.177c1.5,1.089,3.541,2.042,5.992,2.857c-0.41,0.547-0.815,1.091-1.09,1.497
		c-1.225-0.544-2.314-1.089-3.402-1.633v2.451c0,1.497-0.682,2.314-2.18,2.314c-0.816,0-1.633,0-2.723,0
		c0-0.408-0.138-0.953-0.273-1.633c1.09,0.136,1.906,0.136,2.453,0.136c0.68,0,1.088-0.409,1.088-1.089v-1.497h-5.174v5.581h-1.635
		v-5.581h-4.767v4.083h-1.633v-4.901c-1.09,0.68-2.313,1.362-3.541,2.043c-0.271-0.409-0.68-0.954-1.088-1.363
		c2.041-0.952,3.811-1.906,5.445-3.131h-4.492v-1.361L422.57,109.287z M422.299,98.122h6.943v-1.635h1.635v1.635h5.312v-1.635h1.633
		v1.635h6.942v1.362h-6.942v1.089h-1.633v-1.089h-5.312v1.089h-1.635v-1.089h-6.943V98.122z M426.793,106.428h13.479v-1.362h-13.479
		V106.428z M440.271,102.342h-13.479v1.362h13.479V102.342z M426.928,112.692h5.722v-2.042h-3.134
		C428.697,111.329,427.881,112.009,426.928,112.692z M437.277,110.65h-3.134v2.042h5.584c-0.952-0.683-1.77-1.227-2.588-2.042
		H437.277z M379.273,137.881h6.398c-0.271-0.409-0.409-0.818-0.681-1.227l1.09-0.545h-3.813v0.545h-1.634v-7.626h11.71v7.626h-1.634
		v-0.545h-4.084c0.408,0.545,0.682,1.089,0.953,1.771h6.263v1.359H379.41v-1.359L379.273,137.881L379.273,137.881z M380.907,140.603
		h11.029v4.901h-1.635v-0.409h-2.859v3.269c0,1.771-0.816,2.724-2.45,2.724c-0.544,0-1.227,0-2.177,0
		c0-0.544-0.138-1.089-0.274-1.633c0.817,0.136,1.498,0.136,2.042,0.136c0.817,0,1.225-0.409,1.225-1.362v-3.133h-3.268v0.409
		h-1.634L380.907,140.603L380.907,140.603z M392.345,149.998c3.54-2.179,6.536-5.039,8.714-8.442l1.498,1.089
		c-2.45,3.677-5.444,6.536-8.851,8.714c-0.408-0.544-0.816-1.089-1.225-1.36L392.345,149.998L392.345,149.998z M393.162,141.42
		c2.723-1.907,5.174-4.222,7.215-6.943l1.498,1.089c-2.314,2.859-4.9,5.311-7.488,7.217
		C393.978,142.238,393.571,141.828,393.162,141.42z M392.89,134.477c2.314-1.497,4.493-3.542,6.399-5.992l1.498,1.091
		c-1.906,2.586-4.221,4.628-6.672,6.263C393.706,135.292,393.298,134.884,392.89,134.477z M390.166,141.828h-7.76v2.043h7.76
		V141.828z M390.438,130.527h-8.441v1.499h8.441V130.527z M381.997,134.884h8.441v-1.498h-8.441V134.884z M379.001,149.454
		c1.089-0.953,2.315-2.18,3.54-3.541l1.361,0.953c-1.361,1.635-2.586,2.858-3.677,3.677L379.001,149.454z M388.397,146.729
		l1.088-0.952c0.953,0.68,1.905,1.633,2.996,2.586l-1.227,1.227c-0.817-0.954-1.771-1.906-2.857-2.724V146.729z M412.359,141.965
		c0.407,2.994-0.271,4.765-2.179,5.036c-0.682,0.138-1.36,0.138-2.315,0c-0.135-0.68-0.271-1.224-0.543-1.906v5.992h-1.771v-21.649
		h6.537v1.636c-0.682,2.45-1.227,4.628-1.906,6.398c1.226,1.634,1.906,3.131,2.041,4.493H412.359L412.359,141.965z M412.904,140.194
		h14.297v1.635h-4.631v5.991c0,0.682,0.272,1.089,0.817,1.089h1.633c0.546,0,0.818-0.407,0.953-1.089
		c0.138-0.681,0.138-1.77,0.273-3.131c0.545,0.271,1.09,0.406,1.906,0.68c-0.138,1.227-0.273,2.315-0.408,3.133
		c-0.137,1.359-0.953,2.042-2.451,2.042h-2.451c-1.36,0-1.906-0.818-1.906-2.315v-6.534h-2.588c0,2.586-0.405,4.356-1.225,5.581
		c-0.816,1.361-2.451,2.586-4.902,3.813c-0.545-0.817-1.088-1.362-1.225-1.633c2.043-0.818,3.541-1.906,4.494-3.133
		c0.815-1.089,1.088-2.587,1.088-4.766h-3.539v-1.634L412.904,140.194z M413.041,131.074h6.535
		c-0.408-0.683-0.953-1.498-1.361-2.315l1.498-0.818c0.68,0.954,1.225,1.771,1.633,2.587l-1.09,0.547h6.81v3.811h-1.771v-2.179
		h-10.348v2.179h-1.771v-3.811L413.041,131.074L413.041,131.074z M409.637,145.368c1.091-0.273,1.361-1.361,1.091-3.403
		c-0.138-1.089-0.816-2.587-2.044-4.084c0.816-2.997,1.498-5.311,1.906-6.673h-2.996v14.024c0.818,0.271,1.498,0.271,2.181,0.136
		H409.637L409.637,145.368z M413.994,135.701h12.117v1.635h-12.117V135.701z M346.596,145.095c1.227,0.955,2.587,1.5,4.222,1.5
		c1.226,0,2.314-0.273,2.996-0.953c0.681-0.683,1.088-1.498,1.088-2.451c0-2.314-1.634-3.403-4.901-3.403h-1.497v-1.906H350
		c2.86,0,4.357-1.091,4.357-3.27c0-2.041-1.09-2.995-3.404-2.995c-1.226,0-2.451,0.409-3.541,1.226v-2.178
		c1.226-0.682,2.587-1.089,4.221-1.089c1.499,0,2.86,0.407,3.677,1.224c0.954,0.817,1.361,1.906,1.361,3.131
		c0,2.315-1.225,3.951-3.676,4.631l0,0c1.362,0.136,2.314,0.545,3.132,1.361c0.817,0.817,1.088,1.771,1.088,2.995
		c0,1.634-0.544,2.996-1.769,3.949c-1.228,0.953-2.725,1.497-4.767,1.497c-1.77,0-3.132-0.271-4.221-0.953v-2.451L346.596,145.095z
		 M362.798,148.092v-18.245h5.174c2.724,0,5.038,0.817,6.945,2.45c1.769,1.633,2.722,3.813,2.722,6.399
		c0,2.859-0.953,5.038-2.722,6.808c-1.771,1.635-4.222,2.588-7.082,2.588H362.798L362.798,148.092z M365.113,132.026v14.024h2.587
		c2.313,0,4.084-0.682,5.444-1.906c1.362-1.227,1.907-2.997,1.907-5.311s-0.681-3.949-2.042-5.174
		c-1.362-1.089-3.132-1.771-5.31-1.771h-2.724L365.113,132.026z"/>
	<path fill="#FEFEFE" d="M549.742,77.835h8.985V72.66h2.044v5.175h9.12v10.756h-1.905v-1.227h-7.216v8.714h-2.043v-8.714h-7.08
		v1.227h-1.905V77.835L549.742,77.835z M567.986,79.604h-7.216v5.991h7.216V79.604z M551.648,85.596h7.079v-5.991h-7.079V85.596z
		 M573.568,85.323c1.227-0.271,2.313-0.544,3.403-0.815v-5.447h-3.268v-1.634h3.268v-4.628h1.771v4.628h2.449v1.634h-2.449v4.903
		c0.815-0.273,1.633-0.409,2.313-0.682c0,0.682,0.138,1.361,0.138,1.771c-0.816,0.271-1.771,0.544-2.449,0.68v7.217
		c0,1.635-0.683,2.45-2.18,2.45c-0.546,0-1.361,0-2.449,0c0-0.68-0.138-1.225-0.273-1.906c0.953,0.136,1.633,0.136,2.041,0.136
		c0.683,0,1.09-0.407,1.09-1.089v-6.264c-1.09,0.273-2.178,0.682-3.131,0.954l-0.272-2.042L573.568,85.323L573.568,85.323z
		 M582.42,85.731h13.344v1.633h-5.719v5.856h6.943v1.77h-16.066v-1.77h7.353v-5.856h-5.72v-1.633H582.42z M582.01,76.337h6.81
		c-0.545-0.952-1.228-1.771-1.906-2.724l1.498-0.953c0.815,1.089,1.635,2.042,2.18,2.995l-1.227,0.817h6.809v4.222H594.4v-2.451
		h-10.482v2.451h-1.77v-4.222L582.01,76.337z M590.18,80.83l1.226-1.226c2.043,1.498,3.813,2.858,5.311,4.221l-1.359,1.497
		C593.992,83.963,592.223,82.463,590.18,80.83z M588.002,80.83c-1.77,1.633-3.541,3.133-5.174,4.357l-1.228-1.362
		c1.906-1.362,3.679-2.859,5.175-4.357l1.362,1.227L588.002,80.83z M599.303,93.221h10.619v-2.724h-8.438v-1.633h8.438V86.14
		c-1.633,0.135-3.266,0.135-4.764,0.272c-0.818,0-1.498,0.136-2.314,0.271l-0.817-1.906c0.545-0.271,1.227-0.544,1.905-0.953
		c1.091-0.815,2.179-1.498,2.996-2.313h-4.221v-1.635h16.611v1.635h-9.531c-1.228,0.951-2.724,2.042-4.357,3.267
		c3.404-0.136,6.81-0.271,10.211-0.409c-0.543-0.406-1.09-0.953-1.633-1.359l1.361-1.227c1.906,1.498,3.676,2.995,5.174,4.357
		l-1.498,1.497c-0.545-0.544-1.088-1.089-1.635-1.633c-1.904,0-3.674,0.136-5.443,0.136v2.724h8.441v1.633h-8.441v2.724h10.619
		v1.633H599.44v-1.633H599.303z M600.119,75.793h10.35c-0.41-0.817-0.955-1.635-1.5-2.451l1.636-0.817
		c0.545,0.817,1.09,1.771,1.635,2.725l-1.228,0.544h10.484v4.22h-1.906v-2.587h-17.699v2.587h-1.907v-4.22L600.119,75.793
		L600.119,75.793z"/>
	<path fill="#FEFEFE" d="M676.775,306.851h-1.906v-16.477h6.399v-6.672h1.906v6.672h6.263v13.615c0,1.771-0.814,2.725-2.587,2.725
		c-0.952,0-2.313,0-4.084-0.137c-0.137-0.547-0.272-1.227-0.407-1.906c1.496,0.137,2.723,0.137,3.674,0.137
		c0.955,0,1.498-0.408,1.498-1.361v-2.178h-11.027v5.445L676.775,306.851z M676.775,299.634h11.028v-2.859h-11.028V299.634z
		 M687.805,292.146h-11.028v2.859h11.028V292.146z M670.514,296.912c0.681,0.27,1.226,0.545,1.904,0.68
		c-0.816,3.131-1.496,6.127-2.178,9.123l-2.043-0.545c0.817-2.725,1.635-5.855,2.315-9.123L670.514,296.912L670.514,296.912z
		 M685.217,288.333c1.228-1.229,2.314-2.586,3.406-3.949l1.633,1.225c-0.953,1.229-2.18,2.451-3.676,3.949L685.217,288.333z
		 M668.877,290.101c1.228,0.818,2.588,1.906,4.086,3.133c-0.545,0.682-1.088,1.227-1.361,1.498c-1.77-1.635-3.131-2.725-3.946-3.402
		l1.223-1.361L668.877,290.101L668.877,290.101z M669.832,283.976c1.225,0.953,2.586,2.041,4.084,3.404
		c-0.545,0.543-0.953,1.088-1.359,1.498c-1.635-1.637-2.998-2.861-3.813-3.541l1.223-1.227L669.832,283.976z M674.732,285.337
		l1.362-1.09c0.681,0.682,1.904,1.906,3.539,3.813L678,289.287c-1.496-1.906-2.723-3.27-3.402-3.949H674.732z M701.557,287.38h7.078
		c-0.541-0.953-1.223-1.906-1.903-2.859l1.498-0.953c0.815,0.953,1.497,2.041,2.313,3.129l-1.088,0.684h7.354v1.77h-9.668
		c0,1.361,0,2.588-0.137,3.678h7.764c-0.139,3.947-0.274,7.08-0.274,9.396c0,2.586-1.361,3.947-3.812,3.947
		c-1.227,0-2.315,0-3.541,0c-0.137-0.545-0.271-1.361-0.408-2.043c1.363,0.135,2.586,0.271,3.539,0.271
		c1.498,0,2.316-0.816,2.316-2.314c0.135-1.633,0.135-4.084,0.27-7.352h-5.987c-0.273,5.719-2.316,9.938-6.265,12.391
		c-0.271-0.408-0.68-0.953-1.225-1.635c2.447-1.633,3.947-3.539,4.766-5.719c0.681-1.906,1.089-5.447,1.089-10.482h-3.541v-1.771
		L701.557,287.38z M701.42,297.591c0.406,2.996-0.272,4.766-2.178,5.037c-0.683,0.137-1.363,0.137-2.316,0
		c-0.135-0.68-0.271-1.359-0.543-1.906c0.816,0.273,1.496,0.273,2.178,0.137c1.091-0.137,1.498-1.359,1.091-3.402
		c-0.271-1.227-0.953-2.588-2.043-4.086c0.817-2.451,1.362-4.629,1.905-6.674h-3.268v20.018h-1.771v-21.648h6.943v1.633l-1.906,6.4
		c1.226,1.635,1.906,3.131,2.043,4.494h-0.136V297.591z M737.502,295.55v-0.818h-6.127v9.26h6.943v-6.674h1.905v9.396h-1.905v-0.816
		h-17.699v-8.439h2.041v6.67h6.809v-9.258h-8.17v-8.441h2.043v6.67h6.127v-8.85h2.043v8.85h6.125v-6.67h2.044v9.258h-2.044
		L737.502,295.55z M746.486,286.154h18.653v19.744h-2.04v-2.314h-14.567v2.314h-2.045L746.486,286.154L746.486,286.154z
		 M763.1,301.949v-14.023h-14.567v14.023H763.1z"/>
	<path fill="#FEFEFE" d="M349.456,479.359h11.301c-0.816-1.496-1.361-2.586-1.907-3.266l1.771-0.818
		c0.409,0.684,1.089,1.771,2.042,3.27l-1.633,0.814h11.027v1.771h-4.356c-0.817,4.494-2.587,8.035-5.447,10.756
		c2.043,1.5,5.447,2.859,9.94,4.086c-0.682,0.814-1.226,1.498-1.635,2.043c-4.356-1.498-7.625-3.131-9.803-4.766
		c-2.179,1.635-5.447,3.268-10.076,5.037c-0.408-0.545-0.816-1.227-1.361-1.77c4.494-1.363,7.896-2.861,10.077-4.494
		c-2.86-2.994-4.63-6.672-5.447-10.758h-4.493v-1.768V479.359L349.456,479.359z M365.659,481.13h-9.939
		c0.681,3.813,2.45,7.08,5.038,9.531C363.343,488.347,364.978,485.078,365.659,481.13z M382.269,484.533
		c1.498-2.314,2.995-5.443,4.222-9.258l1.771,0.545c-0.409,1.227-0.953,2.451-1.361,3.539h10.213
		c-0.273,6.266-0.545,11.166-0.818,14.434c-0.137,2.588-1.362,3.949-3.812,3.949c-0.817,0-1.907,0-3.133-0.137
		c-0.137-0.545-0.137-1.227-0.271-2.043c1.361,0.137,2.451,0.271,3.268,0.271c1.227,0,1.906-0.68,2.042-2.178
		c0.272-3.268,0.544-7.625,0.816-12.799h-1.77c-0.408,3.949-1.09,7.217-2.043,9.396c-1.226,2.994-3.402,5.58-6.398,7.625
		c-0.409-0.545-0.682-0.953-1.227-1.5c2.996-2.041,4.901-4.492,6.127-7.078c0.954-2.178,1.498-5.037,1.771-8.58h-2.042
		c-0.409,2.998-1.089,5.449-1.905,7.217c-1.09,2.043-2.452,3.949-4.222,5.584c-0.408-0.545-0.816-0.953-1.227-1.361
		c1.771-1.498,3.133-3.131,3.948-4.9c0.817-1.771,1.362-3.949,1.634-6.4h-1.634c-0.815,1.77-1.634,3.27-2.451,4.494
		c-0.408-0.273-0.951-0.545-1.498-0.953V484.533z M374.644,489.3c1.498-0.545,2.996-0.953,4.493-1.498v-5.584h-2.178
		c-0.272,1.5-0.681,2.859-1.089,4.086c-0.545-0.408-0.953-0.682-1.498-1.09c0.817-2.18,1.498-4.766,1.634-7.76l1.634,0.271
		c-0.135,0.953-0.271,1.906-0.408,2.859h1.77v-5.311h1.771v5.311h2.314v1.633h-2.314v4.904c0.816-0.273,1.497-0.547,2.314-0.818
		c0.136,0.68,0.136,1.225,0.271,1.771c-0.817,0.271-1.634,0.543-2.586,0.953v9.395h-1.771v-8.713
		c-1.225,0.408-2.586,0.951-4.083,1.631l-0.409-2.041H374.644L374.644,489.3z"/>
	<path fill="#FEFEFE" d="M207.445,558.603c2.313,2.996,4.221,5.582,5.718,8.033l-1.771,1.225c-0.408-0.682-0.953-1.496-1.361-2.176
		c-5.174,0.271-9.396,0.543-12.662,0.814c-0.544,0-1.362,0.137-2.178,0.408l-1.091-2.041c0.682-0.271,1.361-0.682,1.906-1.229
		c1.771-2.176,3.813-5.309,5.991-9.393l2.042,0.951c-1.906,3.404-4.084,6.4-6.264,9.396c3.269-0.137,6.943-0.273,11.027-0.408
		c-0.952-1.361-1.904-2.723-2.994-4.221l1.498-0.953L207.445,558.603z M205.402,545.941l1.77-0.682
		c1.498,4.086,4.356,7.354,8.442,9.666c-0.409,0.41-0.953,1.09-1.499,1.771c-4.356-2.994-7.216-6.535-8.713-10.895V545.941
		L205.402,545.941z M192.059,555.607c3.54-2.857,6.127-6.262,7.897-10.074l1.907,0.818c-2.181,4.354-4.902,8.031-8.169,10.754
		c-0.409-0.545-0.953-0.951-1.499-1.498H192.059z M220.243,554.792h12.391v8.305H222.15v1.77h-1.906L220.243,554.792
		L220.243,554.792z M219.29,547.439v-1.77h20.288v18.244c0,2.178-0.953,3.402-2.996,3.402c-1.088,0-2.723,0-4.629,0
		c0-0.543-0.137-1.227-0.409-2.041c1.907,0.135,3.405,0.135,4.493,0.135c1.089,0,1.634-0.68,1.634-1.904v-16.066H219.29z
		 M230.727,561.464v-4.904h-8.577v4.904H230.727z M217.928,550.298H235.9v1.768h-17.973V550.298L217.928,550.298z M266.536,564.867
		c-0.545,0.682-1.09,1.225-1.498,1.77c-3.813-1.631-6.945-3.813-9.396-6.807v7.625h-1.77v-7.762
		c-2.314,2.859-5.446,5.313-9.395,7.082c-0.409-0.41-0.816-0.955-1.361-1.637c3.948-1.498,7.081-3.674,9.53-6.4h-8.169v-1.633h9.395
		v-2.994h1.77v2.994h9.531v1.633h-8.306c2.451,2.861,5.719,4.902,9.667,5.992v0.137H266.536z M257.55,544.714h1.77v2.18h5.99v1.635
		h-5.99v2.314h-1.77v-2.314h-5.583v2.314h-1.77v-2.314h-5.855v-1.635h5.855v-2.18h1.77v2.18h5.583V544.714z M244.07,551.523h21.514
		v4.357h-1.906v-2.725h-17.701v2.725h-1.905L244.07,551.523L244.07,551.523z M269.123,548.529h4.766
		c-0.544-0.955-1.089-1.906-1.905-2.996l1.361-0.818c0.817,1.09,1.498,2.045,2.042,2.996l-1.498,0.818h10.213
		c0.952-1.361,1.905-2.727,2.723-4.223l1.771,0.953c-0.953,1.225-1.771,2.314-2.452,3.27h5.311v1.633h-5.991
		c1.907,2.18,4.086,3.676,6.537,4.357c-0.545,0.68-0.953,1.227-1.227,1.635c-1.088-0.408-2.041-0.955-2.995-1.635h-14.704
		c-1.09,0.816-2.18,1.496-3.269,2.178c-0.271-0.271-0.544-0.814-1.225-1.498c2.587-1.225,4.901-2.857,6.672-5.037h-6.128
		L269.123,548.529L269.123,548.529z M272.527,561.326h15.93v6.264h-1.771v-0.953h-12.39v0.953h-1.77V561.326z M286.687,562.687
		h-12.39v2.451h12.39V562.687z M278.654,551.251l1.498-0.682c0.407,0.951,0.815,1.771,1.225,2.449h4.629
		c-0.953-0.814-1.77-1.906-2.451-2.996h-6.398c-0.818,1.09-1.771,2.043-2.588,2.996h5.038
		C279.335,552.476,279.063,551.794,278.654,551.251z M272.799,558.468h15.25v1.361h-15.25V558.468z M272.799,555.744h15.25v1.361
		h-15.25V555.744z M278.382,544.851l1.498-0.68c0.68,1.225,1.227,2.313,1.634,3.402l-1.634,0.682
		c-0.544-1.227-1.089-2.314-1.634-3.404H278.382z"/>
	<path fill="#FEFEFE" d="M509.711,729.072h11.303c-0.817-1.498-1.36-2.588-1.907-3.27l1.771-0.814
		c0.408,0.682,1.09,1.77,2.041,3.268l-1.633,0.816h11.026v1.771h-4.354c-0.818,4.492-2.588,8.031-5.447,10.756
		c2.043,1.498,5.447,2.859,9.939,4.086c-0.681,0.814-1.226,1.496-1.633,2.043c-4.357-1.5-7.625-3.133-9.804-4.768
		c-2.18,1.635-5.446,3.268-10.076,5.037c-0.407-0.545-0.815-1.227-1.362-1.77c4.494-1.361,7.897-2.859,10.078-4.494
		c-2.861-2.996-4.631-6.67-5.447-10.758h-4.494v-1.768V729.072z M525.914,730.841h-9.939c0.683,3.813,2.451,7.08,5.039,9.533
		C523.6,738.058,525.234,734.791,525.914,730.841z M542.525,734.246c1.495-2.314,2.995-5.445,4.221-9.258l1.77,0.543
		c-0.407,1.225-0.95,2.451-1.36,3.539h10.213c-0.271,6.264-0.545,11.164-0.818,14.436c-0.135,2.584-1.36,3.947-3.813,3.947
		c-0.816,0-1.906,0-3.131-0.137c-0.138-0.545-0.138-1.227-0.273-2.041c1.363,0.135,2.453,0.271,3.271,0.271
		c1.225,0,1.905-0.682,2.041-2.178c0.272-3.27,0.545-7.625,0.817-12.801h-1.771c-0.408,3.949-1.088,7.217-2.041,9.396
		c-1.228,2.994-3.404,5.582-6.4,7.623c-0.408-0.543-0.68-0.951-1.227-1.498c2.995-2.041,4.901-4.492,6.129-7.078
		c0.953-2.18,1.498-5.039,1.77-8.578h-2.041c-0.41,2.994-1.09,5.445-1.905,7.215c-1.091,2.043-2.451,3.949-4.224,5.584
		c-0.408-0.545-0.815-0.955-1.225-1.361c1.77-1.496,3.133-3.133,3.948-4.902c0.816-1.77,1.359-3.947,1.634-6.398h-1.634
		c-0.815,1.771-1.635,3.268-2.452,4.494c-0.408-0.271-0.951-0.545-1.496-0.953v0.135H542.525z M534.9,739.011
		c1.498-0.545,2.995-0.953,4.493-1.496v-5.584h-2.18c-0.271,1.496-0.68,2.859-1.09,4.084c-0.543-0.408-0.953-0.682-1.496-1.09
		c0.816-2.178,1.496-4.764,1.633-7.762l1.636,0.273c-0.138,0.953-0.273,1.906-0.408,2.859h1.77v-5.311h1.771v5.311h2.313v1.633
		h-2.313v4.902c0.815-0.271,1.498-0.547,2.313-0.816c0.138,0.68,0.138,1.225,0.271,1.77c-0.814,0.271-1.633,0.545-2.586,0.951v9.396
		h-1.771v-8.713c-1.227,0.408-2.588,0.955-4.086,1.635l-0.406-2.043H534.9L534.9,739.011z"/>
	<path fill="#FEFEFE" d="M672.418,589.103h11.303c-0.817-1.498-1.36-2.588-1.905-3.27l1.768-0.816
		c0.41,0.682,1.09,1.771,2.043,3.268l-1.633,0.818h11.027v1.77h-4.355c-0.816,4.494-2.588,8.033-5.447,10.756
		c2.043,1.5,5.447,2.861,9.939,4.086c-0.68,0.816-1.226,1.498-1.633,2.043c-4.357-1.498-7.625-3.131-9.804-4.768
		c-2.18,1.637-5.446,3.27-10.075,5.039c-0.408-0.545-0.816-1.227-1.361-1.77c4.492-1.363,7.896-2.861,10.076-4.494
		c-2.861-2.996-4.631-6.672-5.447-10.756h-4.494v-1.771L672.418,589.103L672.418,589.103z M688.623,590.873h-9.941
		c0.683,3.813,2.451,7.08,5.039,9.529C686.307,598.087,687.941,594.82,688.623,590.873z M705.232,594.275
		c1.497-2.313,2.995-5.443,4.221-9.258l1.77,0.545c-0.407,1.227-0.952,2.453-1.36,3.541h10.211
		c-0.271,6.264-0.543,11.164-0.816,14.436c-0.135,2.584-1.358,3.945-3.813,3.945c-0.816,0-1.906,0-3.131-0.137
		c-0.138-0.545-0.138-1.225-0.271-2.043c1.359,0.137,2.449,0.273,3.268,0.273c1.226,0,1.906-0.682,2.044-2.18
		c0.271-3.27,0.545-7.625,0.813-12.799h-1.768c-0.408,3.949-1.09,7.217-2.045,9.396c-1.226,2.992-3.402,5.582-6.398,7.625
		c-0.408-0.545-0.68-0.953-1.225-1.498c2.996-2.043,4.901-4.494,6.125-7.08c0.955-2.18,1.498-5.037,1.771-8.58h-2.041
		c-0.41,2.996-1.09,5.447-1.906,7.219c-1.092,2.041-2.45,3.947-4.223,5.582c-0.406-0.545-0.815-0.953-1.225-1.363
		c1.77-1.496,3.131-3.131,3.948-4.9c0.816-1.771,1.359-3.947,1.634-6.398h-1.634c-0.817,1.771-1.635,3.27-2.45,4.494
		c-0.408-0.273-0.953-0.545-1.498-0.955V594.275L705.232,594.275z M697.607,599.042c1.497-0.545,2.995-0.955,4.493-1.498v-5.582
		h-2.178c-0.272,1.496-0.682,2.857-1.092,4.084c-0.543-0.408-0.953-0.682-1.498-1.09c0.818-2.18,1.498-4.766,1.637-7.762
		l1.634,0.273c-0.138,0.953-0.271,1.904-0.408,2.857h1.77v-5.311h1.771v5.311h2.315v1.637h-2.315v4.9
		c0.815-0.273,1.498-0.545,2.315-0.816c0.138,0.68,0.138,1.225,0.271,1.77c-0.816,0.271-1.635,0.543-2.588,0.953v9.396h-1.771
		v-8.717c-1.227,0.408-2.586,0.953-4.086,1.635l-0.406-2.041H697.607L697.607,599.042z"/>
	<path fill="#FEFEFE" d="M387.171,863.457h8.852v-5.037h-7.354v-1.771h7.354v-4.084h1.905v4.084h8.168l-0.407,6.809h3.268
		c0,1.771-0.135,3.541-0.135,5.445c-0.138,2.59-1.361,3.814-3.678,3.814c-1.226,0-2.587,0-3.947-0.135
		c-0.138-0.684-0.138-1.363-0.408-2.041c1.496,0.27,2.857,0.406,4.084,0.406c1.361,0,2.043-0.684,2.043-2.178
		c0-1.09,0.135-2.318,0.135-3.543h-8.985v10.35h-1.906v-10.35h-8.85v-1.77H387.171L387.171,863.457z M404.055,858.419h-6.127v5.037
		h5.717l0.273-5.037H404.055z M403.51,854.064l1.09-1.363c1.634,1.09,3.132,2.182,4.492,3.137l-1.227,1.494
		C406.641,856.242,405.143,855.154,403.51,854.064z M418.35,857.738h11.438v12.803h-1.771v-1.229h-8.032v1.5h-1.771v-13.074H418.35
		L418.35,857.738z M434.146,858.148v17.428h-1.771v-1.227h-18.246v-16.064h1.771v14.568h16.475v-14.568h1.771V858.148z
		 M412.768,853.929h22.604v1.631h-22.604V853.929z M428.018,859.238h-3.131v3.4h3.131V859.238z M419.984,862.638h3.131v-3.4h-3.131
		V862.638z M419.984,867.679h3.131v-3.404h-3.131V867.679z M424.887,867.679h3.131v-3.404h-3.131V867.679z"/>
	<path fill="#FEFEFE" d="M322.497,740.509h8.85v-5.037h-7.353v-1.771h7.353v-4.086h1.906v4.086h8.168l-0.407,6.809h3.269
		c0,1.768-0.136,3.539-0.136,5.445c-0.136,2.586-1.361,3.813-3.678,3.813c-1.225,0-2.586,0-3.948-0.135
		c-0.137-0.684-0.137-1.363-0.407-2.045c1.497,0.271,2.858,0.41,4.083,0.41c1.363,0,2.043-0.682,2.043-2.18
		c0-1.09,0.136-2.313,0.136-3.541h-8.986v10.352h-1.905v-10.352h-8.852v-1.77h-0.135V740.509z M339.38,735.472h-6.127v5.037h5.719
		l0.272-5.037H339.38z M338.835,731.113l1.089-1.359c1.634,1.09,3.131,2.178,4.493,3.131l-1.226,1.498
		C341.967,733.292,340.469,732.205,338.835,731.113z M353.676,734.791h11.438v12.797h-1.771v-1.225h-8.033v1.496h-1.771v-13.068
		H353.676L353.676,734.791z M369.47,735.199v17.43h-1.77V751.4h-18.245v-16.064h1.77v14.568h16.477v-14.568h1.77L369.47,735.199
		L369.47,735.199z M348.093,730.976h22.604v1.635h-22.604V730.976z M363.343,736.287h-3.132v3.404h3.132V736.287z M355.31,739.691
		h3.133v-3.402h-3.133V739.691z M355.31,744.728h3.133v-3.4h-3.133V744.728z M360.211,744.728h3.132v-3.4h-3.132V744.728z"/>
	<path fill="#FEFEFE" d="M625.172,863.457h8.853v-5.037h-7.354v-1.771h7.354v-4.084h1.903v4.084h8.17l-0.407,6.809h3.268
		c0,1.771-0.137,3.541-0.137,5.445c-0.136,2.59-1.361,3.814-3.677,3.814c-1.225,0-2.586,0-3.946-0.135
		c-0.138-0.684-0.138-1.363-0.41-2.041c1.5,0.27,2.858,0.406,4.086,0.406c1.361,0,2.043-0.684,2.043-2.178
		c0-1.09,0.135-2.318,0.135-3.543h-8.986v10.35h-1.905v-10.35h-8.851v-1.77H625.172L625.172,863.457z M642.057,858.419h-6.129v5.037
		h5.72l0.272-5.037H642.057z M641.51,854.064l1.09-1.363c1.636,1.09,3.134,2.182,4.492,3.137l-1.223,1.494
		C644.643,856.242,643.146,855.154,641.51,854.064z M656.352,857.738h11.438v12.803h-1.771v-1.229h-8.034v1.5h-1.769v-13.074
		H656.352L656.352,857.738z M672.146,858.148v17.428h-1.771v-1.227h-18.244v-16.064h1.771v14.568h16.473v-14.568h1.771V858.148z
		 M650.771,853.929h22.602v1.631h-22.602V853.929z M666.021,859.238h-3.134v3.4h3.134V859.238z M657.984,862.638h3.135v-3.4h-3.135
		V862.638z M657.984,867.679h3.135v-3.404h-3.135V867.679z M662.887,867.679h3.134v-3.404h-3.134V867.679z"/>
	<path fill="#FEFEFE" d="M551.92,639.617h8.853v-5.037h-7.354v-1.771h7.354v-4.084h1.905v4.084h8.168l-0.407,6.809h3.268
		c0,1.771-0.137,3.539-0.137,5.445c-0.136,2.588-1.361,3.814-3.677,3.814c-1.225,0-2.586,0-3.948-0.137
		c-0.136-0.682-0.136-1.361-0.408-2.043c1.498,0.271,2.858,0.408,4.086,0.408c1.361,0,2.041-0.682,2.041-2.178
		c0-1.092,0.137-2.316,0.137-3.539h-8.986v10.346h-1.905v-10.346h-8.851v-1.771H551.92L551.92,639.617z M568.805,634.578h-6.127
		v5.037h5.717l0.273-5.037H568.805z M568.26,630.222l1.088-1.361c1.636,1.088,3.134,2.178,4.494,3.131l-1.225,1.498
		C571.391,632.4,569.893,631.312,568.26,630.222z M583.1,633.898h11.438v12.799h-1.771v-1.225h-8.032v1.496h-1.771v-13.07H583.1z
		 M598.896,634.306v17.428h-1.771v-1.225h-18.246v-16.066h1.771v14.568h16.477v-14.568h1.771L598.896,634.306L598.896,634.306z
		 M577.518,630.085h22.603v1.635h-22.603V630.085z M592.768,635.396h-3.131v3.404h3.131V635.396z M584.734,638.8h3.131v-3.404
		h-3.131V638.8z M584.734,643.835h3.131v-3.4h-3.131V643.835z M589.637,643.835h3.131v-3.4h-3.131V643.835z"/>
	<path fill="#FEFEFE" d="M534.629,538.861c0.408,0.137,1.09,0.408,2.041,0.68c-0.271,1.906-0.408,3.27-0.68,3.949
		c-0.271,1.635-2.181,2.588-5.447,2.588h-5.037h-5.582c-2.043,0-3.403-0.682-3.948-1.771c-0.408-1.225,0.137-2.449,1.635-3.676
		c2.858-2.041,6.535-4.084,11.026-6.4h-12.391v-1.633h16.34v1.77c-5.584,2.725-10.076,5.174-13.342,7.488
		c-0.955,0.684-1.363,1.361-1.227,1.771c0.271,0.406,0.952,0.68,2.313,0.816h4.629h4.902c2.586,0,3.947-0.545,4.084-1.771
		c0.137-0.543,0.271-1.771,0.408-3.676L534.629,538.861z M513.934,526.878h6.535v-3.131h1.906v3.131h6.262v-3.131h1.906v3.131h6.537
		v1.77h-6.537v2.59h-1.906v-2.59h-6.262v2.59h-1.906v-2.59h-6.535V526.878z M562.813,542.263c-0.546,0.684-1.089,1.227-1.498,1.908
		c-3.947-2.725-7.08-6.674-9.396-11.711v14.568h-1.906V532.46c-2.18,4.768-5.444,8.715-9.666,12.119
		c-0.407-0.547-0.817-1.09-1.36-1.771c4.221-2.994,7.623-6.809,10.073-11.436h-9.258v-1.771h10.211v-5.719h1.906v5.719h10.213v1.771
		h-9.396c2.588,5.174,5.991,8.85,10.075,11.027L562.813,542.263L562.813,542.263z M554.234,525.38l1.227-1.361
		c1.361,0.953,2.723,1.908,4.084,3.133l-1.361,1.496C556.822,527.425,555.596,526.47,554.234,525.38z M568.396,524.835h16.202v9.26
		h-1.905v-0.816h-12.392v0.816h-1.905V524.835z M577.926,536h8.986v10.895h-1.771v-1.635h-5.444v1.635h-1.771V536z M566.08,536
		h8.986v10.895h-1.771v-1.635h-5.311v1.635h-1.771V536H566.08z M582.691,526.47H570.3v5.311h12.392V526.47z M585.143,537.636h-5.444
		v6.125h5.444V537.636z M573.297,537.636h-5.311v5.99h5.311V537.636z"/>
	<path fill="#FEFEFE" d="M537.352,431.162c-0.407,0.543-0.815,1.088-1.227,1.635c-2.723-1.635-4.766-3.949-6.262-6.811v8.17h-1.771
		v-8.17c-1.496,2.588-3.811,4.902-6.807,6.945c-0.408-0.545-0.816-1.09-1.226-1.637c2.857-1.496,5.175-3.4,6.808-5.58h-5.174v-1.635
		h6.397v-2.449h-3.947v0.953h-1.635v-10.621h12.799v10.621h-1.633v-0.953h-3.949v2.449h6.535v1.635h-5.172
		c1.223,1.906,3.266,3.674,6.262,5.311L537.352,431.162L537.352,431.162z M514.068,417.683v-1.637h6.809v1.637
		c-0.682,1.359-1.498,2.721-2.18,3.947v1.77c0.137,0.139,0.272,0.273,0.408,0.408c0.682-0.814,1.227-1.77,1.907-2.725l1.361,0.955
		c-0.682,0.953-1.498,1.77-2.314,2.723c0.544,0.545,1.226,1.225,1.906,1.77l-1.362,1.227c-0.544-0.818-1.226-1.633-1.906-2.451
		v8.986h-1.771v-10.348c-0.815,0.953-1.496,1.771-2.451,2.588c-0.135-0.547-0.407-1.227-0.682-2.045
		c2.043-1.768,3.678-4.084,5.176-6.941h-5.037L514.068,417.683z M529.727,420.404h3.949v-2.586h-3.949V420.404z M524.146,420.404
		h3.946v-2.586h-3.946V420.404z M533.676,413.867h-3.948v2.453h3.948V413.867z M524.146,416.322h3.946v-2.453h-3.946V416.322z
		 M516.246,412.236l1.635-0.814c0.545,0.951,1.09,2.041,1.771,3.266l-1.636,0.953c-0.545-1.225-1.09-2.314-1.635-3.268
		L516.246,412.236z M561.451,424.353l1.227,1.498c-1.635,0.953-3.27,1.771-4.766,2.588c1.088,1.359,2.721,2.586,4.766,3.539
		c-0.545,0.545-1.09,1.09-1.5,1.633c-4.082-2.586-6.535-5.988-7.487-10.211h-1.904v8.17c0.951-0.408,2.313-1.09,3.947-2.043
		c0,0.682,0.137,1.227,0.272,1.77c-1.635,0.818-2.996,1.637-4.086,2.18c-0.408,0.273-0.815,0.545-1.225,0.953l-1.363-1.771
		c0.41-0.406,0.682-0.951,0.682-1.496v-18.789h10.894v11.709h-1.771v-0.543h-3.676c0.271,1.223,0.953,2.447,1.771,3.811
		c1.36-0.816,2.858-1.77,4.494-2.859L561.451,424.353z M540.893,412.779h6.808v20.424h-1.635v-1.906h-3.402v2.453h-1.635v-20.971
		H540.893z M559,421.767v-3.133h-7.352v3.133H559z M559,414.005h-7.352v3.131H559V414.005z M542.525,429.798h3.403v-4.219h-3.403
		V429.798z M545.93,414.277h-3.403v4.223h3.403V414.277z M542.525,424.082h3.403v-4.223h-3.403V424.082z M564.854,429.119
		c1.227,0.951,2.588,1.496,4.223,1.496c1.225,0,2.178-0.271,2.994-0.951c0.682-0.682,1.09-1.498,1.09-2.451
		c0-2.314-1.633-3.404-4.9-3.404h-1.5v-1.906h1.5c2.857,0,4.357-1.088,4.357-3.268c0-2.043-1.09-2.996-3.271-2.996
		c-1.225,0-2.45,0.408-3.539,1.227v-2.18c1.226-0.68,2.587-1.088,4.084-1.088c1.498,0,2.726,0.408,3.677,1.225
		c0.955,0.816,1.362,1.908,1.362,3.133c0,2.314-1.227,3.947-3.678,4.631l0,0c1.363,0.135,2.314,0.545,3.133,1.359
		c0.816,0.816,1.088,1.771,1.088,2.994c0,1.635-0.543,2.998-1.77,3.951c-1.225,0.953-2.723,1.496-4.629,1.496
		c-1.771,0-3.133-0.271-4.224-0.953v-2.314H564.854z M580.922,432.115v-18.107h5.174c2.724,0,5.037,0.814,6.808,2.449
		s2.725,3.813,2.725,6.398c0,2.859-0.953,5.039-2.725,6.809c-1.771,1.633-4.222,2.588-7.08,2.588h-5.037L580.922,432.115z
		 M583.236,416.046v14.023h2.586c2.315,0,4.086-0.682,5.446-1.904c1.226-1.227,1.904-2.996,1.904-5.311s-0.68-3.949-2.041-5.037
		c-1.361-1.09-3.131-1.771-5.174-1.771H583.236z M518.834,447.226c1.227-0.816,2.314-1.633,3.268-2.449l0.816,0.816
		c-0.816,0.68-1.771,1.363-2.586,2.043h6.127v1.227c-2.043,1.225-3.676,2.313-4.766,3.402c-0.545,0.408-0.681,0.816-0.681,1.09
		c0,0.408,0.406,0.682,1.361,0.682h3.404c0.951,0,1.496-0.41,1.496-1.227c0.137-0.682,0.137-1.227,0.137-2.041
		c0.272,0.135,0.68,0.271,1.09,0.406c-0.137,0.953-0.137,1.635-0.273,2.043c-0.137,1.225-0.952,1.906-2.448,1.906h-4.086
		c-1.361,0-2.041-0.543-2.041-1.498c0-0.682,0.407-1.361,1.225-2.18c1.09-0.951,2.314-1.904,3.949-2.857h-4.631v-0.953
		c-0.271,0.135-0.543,0.408-0.681,0.545L518.834,447.226z M514.068,448.863c0.682-0.139,1.225-0.408,1.905-0.547v-3.4h-1.77v-1.092
		h1.77v-2.859h1.091v2.859h1.497v1.092h-1.497v2.994c0.545-0.139,0.952-0.408,1.497-0.547c0,0.408,0,0.818,0,1.092
		c-0.407,0.135-0.952,0.27-1.497,0.543v4.629c0,0.955-0.408,1.5-1.361,1.5c-0.41,0-0.818,0-1.361,0c0-0.408-0.137-0.818-0.137-1.229
		c0.545,0,0.815,0.139,1.227,0.139c0.406,0,0.543-0.139,0.543-0.545v-4.084c-0.543,0.135-1.09,0.408-1.77,0.545l-0.137-1.229
		V448.863L514.068,448.863z M519.244,442.871h8.983v2.451h-1.09v-1.5h-6.942v1.5h-1.091v-2.588L519.244,442.871z M528.502,447.091
		l-0.815,0.953c-0.955-0.953-2.044-1.771-3.134-2.586l0.683-0.818c1.225,0.818,2.178,1.633,3.131,2.451H528.502z M522.51,441.238
		l0.955-0.545c0.408,0.545,0.816,1.088,1.088,1.496l-0.953,0.682C523.326,442.326,522.918,441.781,522.51,441.238z M535.854,447.226
		c0,3.678-0.683,6.264-2.044,8.17c-0.271-0.27-0.543-0.543-0.815-0.953c1.225-1.496,1.771-3.947,1.771-7.08v-5.99h9.257v3.949
		h-1.089v-0.406h-7.08L535.854,447.226L535.854,447.226z M537.352,453.626h2.314v-3.813h-2.859v-3.406h1.091v2.453h1.77v-3.268h1.09
		v3.268h1.771v-2.453h1.088v3.951h-1.088v-0.545h-1.771v3.813h2.314v-2.725h1.088v4.494h-1.088v-0.68h-6.81v-3.678h1.091v2.725
		L537.352,453.626L537.352,453.626z M529.863,448.724c0.545-0.27,1.227-0.543,1.905-0.814v-3.404h-1.771v-1.09h1.771v-2.723h1.089
		v2.723h1.497v1.09h-1.497v2.857c0.409-0.137,0.817-0.406,1.227-0.68c0,0.408,0.135,0.816,0.135,1.227
		c-0.408,0.271-0.951,0.406-1.36,0.68v4.766c0,1.09-0.408,1.633-1.359,1.633c-0.408,0-0.818,0-1.227,0
		c0-0.404-0.136-0.68-0.136-1.088c0.406,0,0.816,0.137,1.224,0.137c0.409,0,0.545-0.137,0.545-0.682v-4.221
		c-0.545,0.271-1.088,0.545-1.633,0.816l-0.273-1.227H529.863z M542.934,442.46h-7.079v1.635h7.079V442.46z M555.051,443.552h1.228
		v2.449c0,1.225-0.138,2.451-0.271,3.404h0.951v3.813c0,0.545,0.273,0.816,0.818,0.816h0.68c0.545,0,0.953-0.271,0.953-0.816
		c0-0.408,0.137-1.09,0.137-1.906c0.271,0.137,0.682,0.271,1.228,0.408c-0.14,0.816-0.14,1.498-0.273,1.906
		c-0.137,0.955-0.816,1.359-1.906,1.359h-1.088c-1.227,0-1.771-0.543-1.771-1.633v-3.268c-0.138,0.682-0.408,1.361-0.816,1.906
		c-0.816,1.361-2.18,2.588-4.221,3.541c-0.273-0.408-0.545-0.682-0.816-0.953c1.906-0.955,3.267-2.043,4.082-3.27
		c0.682-1.088,1.09-2.723,1.09-5.039v-2.586v-0.133H555.051z M551.92,441.373h7.625v8.986h-1.225v-7.898h-5.312v8.035h-1.225v-9.123
		H551.92z M545.93,452.402c0.681-0.137,1.498-0.408,2.314-0.682v-4.357h-1.906v-1.09h1.906v-3.402h-2.041v-1.09h5.309v1.09h-2.18
		v3.402h1.908v1.09h-1.908v3.949c0.682-0.271,1.498-0.408,2.18-0.682c0,0.41,0,0.816,0.138,1.09
		c-1.771,0.545-3.404,1.09-5.312,1.635l-0.408-1.09V452.402L545.93,452.402z M573.297,442.599h-5.854v-1.092h7.897v1.092
		l-5.854,3.674h6.807c-0.135,2.725-0.271,4.902-0.408,6.4c-0.135,1.498-0.815,2.313-2.041,2.313c-0.408,0-1.09,0-2.043,0
		c-0.137-0.543-0.137-0.951-0.271-1.359c0.68,0.137,1.36,0.137,2.041,0.137c0.682,0,1.09-0.408,1.227-1.227
		c0.137-1.225,0.137-2.994,0.271-5.176h-1.634c-0.407,3.406-2.043,5.992-4.629,7.9c-0.272-0.41-0.545-0.682-0.817-0.955
		c2.45-1.77,3.948-4.084,4.356-7.08h-1.906c-0.545,2.451-2.043,4.492-4.221,6.127c-0.272-0.271-0.545-0.543-0.815-0.816
		c2.041-1.361,3.403-3.131,3.946-5.311h-1.77v-1.088l5.582-3.678L573.297,442.599z M562.133,451.583
		c0.681-0.271,1.498-0.543,2.178-0.953v-5.172h-2.043v-1.09h2.043v-3.678h1.091v3.678h1.77v1.09h-1.77v4.629
		c0.543-0.271,1.088-0.545,1.633-0.816c0,0.406,0,0.816,0.137,1.088c-1.498,0.682-2.996,1.361-4.631,2.18l-0.406-1.09
		L562.133,451.583L562.133,451.583z M578.744,443.96h6.262v-1.637c-1.77,0-3.676,0.137-5.582,0.137c0-0.406-0.137-0.682-0.271-0.953
		c5.037,0,9.121-0.135,12.252-0.408l0.139,0.955c-1.771,0.135-3.541,0.135-5.447,0.271v1.637h6.398v0.953h-5.445
		c1.633,1.225,3.541,2.176,5.854,2.586c-0.271,0.408-0.543,0.814-0.681,1.225c-2.45-0.816-4.491-1.906-6.127-3.402v2.449h-1.09
		v-2.588c-1.498,1.363-3.539,2.588-6.127,3.678c-0.271-0.408-0.545-0.816-0.68-1.09c2.313-0.682,4.221-1.77,5.854-2.857h-5.311
		V443.96z M587.049,450.496l0.816-1.227h-3.812c-0.137,2.996-1.771,5.037-4.631,6.127c-0.271-0.41-0.545-0.68-0.68-0.953
		c2.586-0.953,4.084-2.586,4.221-5.037h-2.18v-0.953h8.578v0.953l-0.816,1.225h2.996c-0.139,0.953-0.139,1.906-0.273,2.588
		c-0.137,1.225-0.815,1.77-2.178,1.77c-0.41,0-1.09,0-2.18,0c-0.137-0.545-0.137-0.953-0.271-1.225c0.951,0,1.771,0.135,2.451,0.135
		s1.088-0.271,1.226-0.951c0-0.273,0.137-0.818,0.137-1.227h-3.133v-0.951L587.049,450.496z"/>
	<path fill="#233042" d="M712.721,394.671h5.445c0-0.408,0-1.771,0-4.357h-4.9v-1.77h3.134c-0.683-1.227-1.498-2.451-2.314-3.813
		l1.359-0.816c0.955,1.361,1.771,2.588,2.453,3.676l-1.363,0.953h3.27c0.953-1.633,1.771-3.131,2.449-4.629l1.771,0.816
		c-0.814,1.496-1.634,2.725-2.313,3.813h3.129v1.77h-5.035c0,2.178,0,3.539,0,4.357h5.58v1.77h-5.717
		c-0.137,0.953-0.272,1.904-0.41,2.725l1.228-0.953c1.496,1.906,2.994,3.813,4.492,5.719l-1.498,1.225
		c-1.634-2.313-2.994-4.221-4.222-5.719c-0.68,2.725-2.584,5.313-5.719,7.764c-0.271-0.41-0.682-0.955-1.225-1.498
		c2.178-1.637,3.813-3.27,4.629-5.039c0.545-1.09,0.817-2.451,1.09-3.949h-5.311v-1.77L712.721,394.671L712.721,394.671z
		 M735.596,398.892c0,2.588-1.09,4.084-3.266,4.355c-0.818,0.137-1.908,0-2.998-0.137c0-0.545-0.137-1.225-0.408-2.178
		c1.088,0.273,2.041,0.408,2.724,0.408c1.362-0.135,2.043-1.088,1.905-2.723c0-1.498-1.09-3.27-3.268-5.037
		c1.09-2.314,2.045-4.357,2.725-6.4h-4.768v19.742h-1.769V385.41h8.576v1.906c-1.09,2.451-1.904,4.357-2.588,5.721
		c2.043,1.906,3.133,3.676,3.133,5.717L735.596,398.892L735.596,398.892z M724.43,412.236h10.349v19.607h-1.904v-2.316h-6.672v2.316
		h-1.906v-19.607H724.43z M732.873,414.005h-6.672v13.889h6.672V414.005z M712.313,425.986c1.771-2.313,3.268-5.037,4.221-7.895
		h-4.086v-1.635h4.494v-3.678c-1.226,0.139-2.451,0.408-3.677,0.545c-0.137-0.545-0.271-1.088-0.545-1.633
		c3.271-0.41,6.4-0.953,9.531-1.635l0.545,1.635c-1.361,0.273-2.588,0.545-3.949,0.816v4.084h4.359v1.637h-4.359v2.994l0.818-0.818
		c1.225,1.09,2.449,2.182,3.676,3.404l-1.362,1.361c-0.951-1.088-2.041-2.176-3.132-3.268v10.895h-1.77v-11.303
		c-0.953,2.314-2.178,4.492-3.678,6.672c-0.271-0.545-0.545-1.227-0.953-2.041L712.313,425.986z M712.586,454.853h10.346v-5.311
		h-8.305v-1.771h8.305v-3.402h-9.258v-1.771h20.562v1.771h-9.261v3.402h8.443v1.771h-8.443v5.311h10.484v1.77h-22.873V454.853z
		 M713.4,437.968h10.215c-0.408-0.816-0.818-1.633-1.363-2.451l1.771-0.814c0.682,0.814,1.227,1.77,1.771,2.723l-1.09,0.545h10.074
		v3.947h-1.904v-2.178h-17.564v2.178H713.4V437.968z M727.834,451.175l1.361-1.088c1.09,1.088,2.043,2.041,2.858,3.131l-1.496,1.225
		C729.74,453.355,728.787,452.265,727.834,451.175z M712.447,470.783h1.771v-7.896h2.588c0.136-0.953,0.271-1.771,0.408-2.588
		l1.771,0.139c-0.273,0.953-0.408,1.77-0.545,2.449h3.539v17.701c0,1.631-0.816,2.449-2.313,2.449c-0.682,0-1.5,0-2.451,0
		c0-0.408-0.137-1.09-0.272-1.771c0.955,0.137,1.77,0.137,2.313,0.137c0.683,0,0.953-0.271,0.953-0.951v-7.896h-4.354
		c0,5.172-0.683,8.85-2.043,11.164c-0.41-0.408-0.816-0.951-1.363-1.5c1.227-2.041,1.771-5.172,1.771-9.664h-1.771v-1.635V470.783
		L712.447,470.783z M723.887,472.824h10.074v10.621h-1.768v-1.77h-6.673v1.77h-1.771v-10.621H723.887z M733.689,469.148
		c0.545,0,1.225,0,2.041,0l-0.271,1.635c-0.815,0-1.635,0-2.449,0c-1.498,0-2.315-0.816-2.315-2.449v-5.041h-3.949v1.771
		c0,3.131-1.223,5.445-3.537,6.943c-0.275-0.682-0.547-1.225-0.818-1.77c1.769-1.092,2.587-2.859,2.587-5.311v-3.404h7.487v6.398
		C732.463,468.74,732.873,469.148,733.689,469.148z M732.193,474.458h-6.673v5.445h6.673V474.458z M720.209,464.384h-4.354v6.398
		h4.354V464.384z M716.533,473.914l1.362-0.545c0.681,1.906,1.226,3.268,1.496,4.223l-1.496,0.543
		C717.486,476.773,717.078,475.412,716.533,473.914z M716.398,465.882l1.36-0.545c0.543,1.359,0.951,2.586,1.361,3.947l-1.498,0.545
		C717.352,468.876,716.941,467.65,716.398,465.882z"/>
	<path fill="#FEFEFE" d="M511.891,270.769h11.302c-0.816-1.498-1.361-2.588-1.906-3.268l1.77-0.818
		c0.41,0.682,1.091,1.771,2.043,3.27l-1.633,0.816h11.027v1.77h-4.355c-0.817,4.492-2.588,8.033-5.446,10.756
		c2.041,1.5,5.446,2.859,9.938,4.086c-0.682,0.816-1.227,1.498-1.635,2.043c-4.357-1.498-7.625-3.131-9.803-4.768
		c-2.179,1.637-5.447,3.27-10.076,5.039c-0.408-0.547-0.816-1.227-1.361-1.771c4.492-1.361,7.898-2.857,10.076-4.492
		c-2.859-2.994-4.631-6.672-5.447-10.756h-4.492v-1.771L511.891,270.769L511.891,270.769z M528.092,272.539h-9.938
		c0.68,3.813,2.448,7.08,5.037,9.531C525.779,279.755,527.412,276.486,528.092,272.539z M544.703,275.943
		c1.5-2.314,2.996-5.445,4.221-9.26l1.771,0.545c-0.408,1.227-0.953,2.449-1.363,3.541h10.213
		c-0.272,6.262-0.545,11.164-0.815,14.432c-0.138,2.588-1.361,3.947-3.813,3.947c-0.815,0-1.906,0-3.131-0.135
		c-0.137-0.545-0.137-1.227-0.273-2.041c1.363,0.135,2.449,0.27,3.269,0.27c1.227,0,1.906-0.68,2.043-2.176
		c0.272-3.27,0.545-7.627,0.815-12.799h-1.77c-0.408,3.947-1.09,7.217-2.043,9.395c-1.226,2.994-3.404,5.58-6.398,7.625
		c-0.409-0.545-0.682-0.953-1.225-1.498c2.994-2.041,4.9-4.494,6.125-7.08c0.953-2.178,1.498-5.037,1.771-8.578h-2.043
		c-0.407,2.996-1.09,5.445-1.905,7.217c-1.091,2.043-2.451,3.947-4.222,5.584c-0.408-0.545-0.815-0.953-1.227-1.363
		c1.771-1.496,3.131-3.131,3.949-4.9c0.815-1.771,1.36-3.947,1.635-6.398h-1.635c-0.818,1.77-1.636,3.268-2.449,4.492
		c-0.41-0.273-0.955-0.545-1.5-0.953L544.703,275.943L544.703,275.943z M537.08,280.708c1.496-0.545,2.996-0.953,4.492-1.498v-5.584
		h-2.179c-0.272,1.5-0.682,2.859-1.09,4.086c-0.545-0.408-0.953-0.682-1.498-1.088c0.816-2.182,1.498-4.768,1.634-7.764l1.637,0.273
		c-0.137,0.951-0.273,1.906-0.41,2.857h1.771v-5.311h1.771v5.311h2.314v1.635h-2.314v4.902c0.814-0.273,1.496-0.545,2.314-0.816
		c0.137,0.68,0.137,1.225,0.271,1.77c-0.815,0.271-1.635,0.545-2.586,0.953v9.396h-1.771v-8.717
		c-1.226,0.41-2.587,0.955-4.084,1.635l-0.408-2.041H537.08z"/>
	<path fill="#FEFEFE" d="M707.955,740.509h8.852v-5.037h-7.354v-1.771h7.354v-4.086h1.904v4.086h8.17l-0.406,6.809h3.267
		c0,1.768-0.135,3.539-0.135,5.445c-0.138,2.586-1.363,3.813-3.679,3.813c-1.225,0-2.586,0-3.948-0.135
		c-0.136-0.684-0.136-1.363-0.406-2.045c1.496,0.271,2.856,0.41,4.084,0.41c1.36,0,2.043-0.682,2.043-2.18
		c0-1.09,0.135-2.313,0.135-3.541h-8.986v10.352h-1.905v-10.352h-8.849v-1.77h-0.14V740.509z M724.838,735.472h-6.127v5.037h5.719
		l0.273-5.037H724.838z M724.295,731.113l1.088-1.359c1.635,1.09,3.133,2.178,4.494,3.131l-1.227,1.498
		C727.428,733.292,725.928,732.205,724.295,731.113z M739.137,734.791h11.437v12.797h-1.769v-1.225h-8.034v1.496h-1.769v-13.068
		H739.137L739.137,734.791z M754.93,735.199v17.43h-1.771V751.4h-18.244v-16.064h1.77v14.568h16.476v-14.568h1.771L754.93,735.199
		L754.93,735.199z M733.553,730.976h22.603v1.635h-22.603V730.976z M748.805,736.287h-3.133v3.404h3.133V736.287z M740.771,739.691
		h3.133v-3.402h-3.133V739.691z M740.771,744.728h3.133v-3.4h-3.133V744.728z M745.672,744.728h3.133v-3.4h-3.133V744.728z"/>
	<path fill="#FEFEFE" d="M190.289,443.96l1.497-1.09c1.77,1.09,3.676,3.813,5.719,8.305c2.996,6.398,6.126,10.348,9.531,11.709
		l-1.634,2.043c-3.404-2.043-6.672-6.4-9.531-12.934c-0.272-0.547-0.409-1.092-0.681-1.498c-1.771,6.264-5.176,11.027-10.077,14.566
		c-0.408-0.68-0.953-1.225-1.497-1.77c5.038-3.268,8.441-8.307,10.212-15.248c-1.227-2.043-2.451-3.404-3.676-4.223L190.289,443.96z
		 M211.528,444.914h18.653v19.74h-2.042v-2.314h-14.568v2.314h-2.042L211.528,444.914L211.528,444.914z M228.14,460.707v-14.023
		h-14.568v14.023H228.14z"/>
</g>
</svg>
