<svg xmlns="http://www.w3.org/2000/svg" viewBox="0 0 486.93 668.38"><defs><style>.cls-1{fill:#7abc9c;stroke:#020202;}.cls-1,.cls-2,.cls-3,.cls-4,.cls-6{stroke-miterlimit:10;}.cls-2{fill:#c8cc75;}.cls-2,.cls-3,.cls-4{stroke:#fff;}.cls-3{fill:#7c9988;}.cls-4{fill:#a1aadb;}.cls-5{fill:#fcfcfc;}.cls-6{fill:none;stroke:#2d52ea;}.cls-7{fill:#2d52ea;}.cls-10,.cls-8{fill:#9e9e9f;}.cls-8,.cls-9{fill-rule:evenodd;}.cls-11,.cls-9{fill:#0f0f0f;}.cls-12{font-size:12.51px;}.cls-12,.cls-13{font-family:FZLTHK--GBK1-0, FZLanTingHei-R-GBK;}.cls-13{font-size:28px;}</style></defs><title>安徽博物院三层</title><g id="图层_3" data-name="图层 3"><rect class="cls-1" x="1.34" y="50.21" width="485.06" height="506.98"/><rect class="cls-1" x="1.34" y="50.21" width="485.06" height="506.98"/><rect class="cls-2" x="2.5" y="51.21" width="482.06" height="98.98"/><rect class="cls-3" x="0.5" y="445.86" width="248.07" height="109.33"/><rect class="cls-4" x="359.7" y="419.94" width="123.86" height="135.25"/><rect class="cls-5" x="134.57" y="225.61" width="166.96" height="149.96"/><polyline class="cls-6" points="295.13 431.04 295.13 482.26 87.36 484.5 87.36 122.9 423.94 120.67 423.94 226.57 332.19 225.32 332.19 468.4 398.89 469.66"/><polygon class="cls-7" points="408.67 469.53 394 474.51 394 464.54 408.67 469.53"/><polygon class="cls-7" points="280.29 391.56 294.96 396.54 294.96 386.57 280.29 391.56"/><polyline class="cls-6" points="397.51 484.5 314.9 484.5 314.9 390.69 290.99 390.69"/><path class="cls-8" d="M201.76,618.86a2,2,0,1,0-2-2,2,2,0,0,0,2,2Zm11.92,13.76-3.46-5.92a1.19,1.19,0,0,0-1-.57h-5.18v-1.81h3.72a.91.91,0,0,0,.92-.89,1,1,0,0,0-.92-1H204l-.13-1.41a2,2,0,0,0-3.93.23l.36,6.1a2.15,2.15,0,0,0,2.07,2H209l2.7,4.47a1.22,1.22,0,0,0,1.63.4,1.17,1.17,0,0,0,.4-1.61Zm-10.62,3.5a5.95,5.95,0,0,1-3.92-10.5l-.11-1.87a7.52,7.52,0,0,0-3.61,6.4,7.64,7.64,0,0,0,14.6,3.07L209,631.38a6,6,0,0,1-5.89,4.74Z" transform="translate(-158.82 -24.01)"/><path class="cls-8" d="M215.09,642.51H192.17c-2.55,0-4.63-2.63-4.63-5.87V615.9c0-3.24,2.08-5.87,4.63-5.87h22.92c2.55,0,4.63,2.63,4.63,5.87v20.74c0,3.24-2.08,5.87-4.63,5.87Zm-22.92-31.3c-2,0-3.7,2.1-3.7,4.69v20.74c0,2.59,1.66,4.69,3.7,4.69h22.92c2,0,3.7-2.1,3.7-4.69V615.9c0-2.59-1.66-4.69-3.7-4.69Z" transform="translate(-158.82 -24.01)"/><path class="cls-9" d="M439.54,484.15a1.15,1.15,0,1,0-1.17-1.15,1.16,1.16,0,0,0,1.17,1.15Zm6.82,7.87-2-3.38a.67.67,0,0,0-.56-.33h-3v-1H443a.52.52,0,0,0,.52-.51.56.56,0,0,0-.52-.56h-2.18l-.07-.8a1.13,1.13,0,0,0-2.25.13l.21,3.49a1.23,1.23,0,0,0,1.18,1.13h3.77l1.54,2.55a.7.7,0,0,0,.93.23.68.68,0,0,0,.24-.92Zm-6.08,2a3.43,3.43,0,0,1-3.45-3.42A3.39,3.39,0,0,1,438,488L438,487a4.3,4.3,0,0,0-2.07,3.66,4.37,4.37,0,0,0,8.35,1.76l-.61-1.06a3.44,3.44,0,0,1-3.37,2.72Z" transform="translate(-158.82 -24.01)"/><path class="cls-9" d="M447.16,497.68H434.05c-1.46,0-2.64-1.51-2.64-3.36V482.46c0-1.85,1.18-3.35,2.64-3.35h13.11c1.46,0,2.65,1.5,2.65,3.35v11.86c0,1.85-1.19,3.36-2.65,3.36Zm-13.11-17.9a2.45,2.45,0,0,0-2.11,2.68v11.86a2.45,2.45,0,0,0,2.11,2.68h13.11a2.45,2.45,0,0,0,2.12-2.68V482.46a2.45,2.45,0,0,0-2.12-2.68Z" transform="translate(-158.82 -24.01)"/><path class="cls-9" d="M496.56,538.48a1.15,1.15,0,1,0-1.16-1.15,1.16,1.16,0,0,0,1.16,1.15Zm6.82,7.87-2-3.38a.67.67,0,0,0-.56-.33h-3v-1H500a.51.51,0,0,0,.52-.5.56.56,0,0,0-.52-.56h-2.18l-.07-.81a1.14,1.14,0,0,0-1.19-1,1.12,1.12,0,0,0-1.06,1.17l.21,3.5a1.22,1.22,0,0,0,1.18,1.13h3.77l1.54,2.55a.7.7,0,0,0,.93.23.67.67,0,0,0,.23-.92Zm-6.07,2a3.42,3.42,0,0,1-3.45-3.41,3.39,3.39,0,0,1,1.21-2.59l-.07-1.07a4.31,4.31,0,0,0,2.31,8,4.37,4.37,0,0,0,4-2.56l-.61-1.06a3.44,3.44,0,0,1-3.37,2.71Z" transform="translate(-158.82 -24.01)"/><path class="cls-9" d="M504.19,552H491.08c-1.46,0-2.64-1.51-2.64-3.36V536.79c0-1.85,1.18-3.36,2.64-3.36h13.11c1.46,0,2.65,1.51,2.65,3.36v11.86c0,1.85-1.19,3.36-2.65,3.36Zm-13.11-17.9a2.45,2.45,0,0,0-2.11,2.68v11.86a2.45,2.45,0,0,0,2.11,2.68h13.11a2.45,2.45,0,0,0,2.12-2.68V536.79a2.45,2.45,0,0,0-2.12-2.68Z" transform="translate(-158.82 -24.01)"/><path class="cls-8" d="M417.25,641.8l-25.42.27a5.4,5.4,0,0,1-5.18-5.57l-.21-19.89a5.4,5.4,0,0,1,5.06-5.68l25.42-.27a5.41,5.41,0,0,1,5.19,5.57l.21,19.89a5.41,5.41,0,0,1-5.07,5.68Zm-25.73-29.74a4.31,4.31,0,0,0-4,4.54l.21,19.88a4.33,4.33,0,0,0,4.15,4.46l25.41-.27a4.33,4.33,0,0,0,4.05-4.54l-.21-19.89a4.32,4.32,0,0,0-4.15-4.45l-25.41.27Z" transform="translate(-158.82 -24.01)"/><path class="cls-8" d="M408.36,631l2,0,.06,6.27c0,.43.5.86.87.76a.86.86,0,0,0,.65-.88V631h.46l.06,6.27a.64.64,0,0,0,.21.54.81.81,0,0,0,.66.12.7.7,0,0,0,.47-.68l-.07-6.26,2,0-2-7.51a.45.45,0,0,1,0-.39.46.46,0,0,1,.19-.2.55.55,0,0,1,.18,0,1,1,0,0,1,.27.17l1.29,4.58a.75.75,0,0,0,.28.28.6.6,0,0,0,.73-.09.81.81,0,0,0,.14-.78l-1.47-4.88a3.09,3.09,0,0,0-.73-1.07,2.55,2.55,0,0,0-1.79-.67l-2,.22a3.14,3.14,0,0,0-.9.23,1.71,1.71,0,0,0-.91.94,2.92,2.92,0,0,0-.22.71l-1.2,4.71a.72.72,0,0,0,.06.62.56.56,0,0,0,.64.26.57.57,0,0,0,.37-.4l1.38-4.52A.26.26,0,0,1,410,623a.22.22,0,0,1,.29.08.39.39,0,0,1,0,.3l-2,7.65Z" transform="translate(-158.82 -24.01)"/><path class="cls-8" d="M393.75,628.9l-.06-5.67h.54l.14,13.8a1,1,0,0,0,.45.75.82.82,0,0,0,.93-.07,1,1,0,0,0,.4-.8l-.09-8h.54l.09,8a1,1,0,0,0,.42.81.78.78,0,0,0,1-.06,1.07,1.07,0,0,0,.39-.77l-.15-13.6h.54l.05,5.46h1.25l-.06-5.77a2.53,2.53,0,0,0-.55-1.56,2.18,2.18,0,0,0-1.44-.76l-3.75,0a2,2,0,0,0-1,.33,2.38,2.38,0,0,0-.81.91,2.35,2.35,0,0,0-.29.93l.06,6.07,1.43,0Z" transform="translate(-158.82 -24.01)"/><path class="cls-8" d="M396.25,620.17a1.8,1.8,0,0,0,1.58-1.27,2.14,2.14,0,0,0-.64-2.28,1.59,1.59,0,0,0-2.25.26,2,2,0,0,0-.18,2.41,1.78,1.78,0,0,0,1.49.88Z" transform="translate(-158.82 -24.01)"/><path class="cls-8" d="M411.81,620.1a1.61,1.61,0,0,0,1.52-1,1.81,1.81,0,0,0-.61-2.18,1.48,1.48,0,0,0-2.05.24,1.88,1.88,0,0,0-.15,2.29,1.48,1.48,0,0,0,1.29.68Z" transform="translate(-158.82 -24.01)"/><polygon class="cls-8" points="243.95 590.06 244.98 590.04 245.24 614.98 244.21 614.99 243.95 590.06 243.95 590.06"/><path class="cls-9" d="M483.75,552l-14.86,0a3.21,3.21,0,0,1-3-3.39l0-12a3.22,3.22,0,0,1,3-3.38l14.87,0a3.2,3.2,0,0,1,3,3.39l0,12a3.21,3.21,0,0,1-3,3.38Zm-14.82-18.08a2.57,2.57,0,0,0-2.4,2.7l0,12a2.55,2.55,0,0,0,2.39,2.7l14.86,0a2.57,2.57,0,0,0,2.41-2.7l0-12a2.56,2.56,0,0,0-2.39-2.7l-14.87,0Z" transform="translate(-158.82 -24.01)"/><path class="cls-9" d="M478.64,545.43h1.15v3.77c0,.25.28.52.5.46a.52.52,0,0,0,.39-.52l.05-3.71H481v3.77a.37.37,0,0,0,.11.32.5.5,0,0,0,.39.09.43.43,0,0,0,.28-.41v-3.77h1.14l-1.13-4.53a.24.24,0,0,1,0-.23.29.29,0,0,1,.1-.12.2.2,0,0,1,.11,0,.54.54,0,0,1,.16.1l.72,2.77a.35.35,0,0,0,.16.16.35.35,0,0,0,.43,0,.53.53,0,0,0,.09-.47l-.83-3a2,2,0,0,0-.41-.65,1.5,1.5,0,0,0-1.05-.41l-1.2.12a1.65,1.65,0,0,0-.53.13,1,1,0,0,0-.54.55,2.13,2.13,0,0,0-.13.43l-.74,2.82a.48.48,0,0,0,0,.37.31.31,0,0,0,.37.16.35.35,0,0,0,.23-.23l.84-2.71c0-.05,0-.1.09-.11a.13.13,0,0,1,.17,0,.23.23,0,0,1,0,.18l-1.21,4.58Z" transform="translate(-158.82 -24.01)"/><path class="cls-9" d="M470.1,544.06v-3.41h.32l0,8.3a.57.57,0,0,0,.25.45.48.48,0,0,0,.55,0,.64.64,0,0,0,.24-.48v-4.82h.32l0,4.82a.64.64,0,0,0,.24.5.47.47,0,0,0,.58,0,.66.66,0,0,0,.23-.46l0-8.18h.31V544h.73v-3.47a1.48,1.48,0,0,0-.31-.94,1.3,1.3,0,0,0-.83-.47h-2.2a1.18,1.18,0,0,0-.59.19,1.33,1.33,0,0,0-.48.54,1.37,1.37,0,0,0-.18.55v3.65Z" transform="translate(-158.82 -24.01)"/><path class="cls-9" d="M471.63,538.83a1,1,0,0,0,.94-.75,1.3,1.3,0,0,0-.36-1.37.91.91,0,0,0-1.32.14,1.25,1.25,0,0,0-.12,1.44,1,1,0,0,0,.86.54Z" transform="translate(-158.82 -24.01)"/><path class="cls-9" d="M480.74,538.91a.91.91,0,0,0,.89-.61,1.09,1.09,0,0,0-.34-1.31.85.85,0,0,0-1.2.13,1.16,1.16,0,0,0-.1,1.37.84.84,0,0,0,.75.42Z" transform="translate(-158.82 -24.01)"/><polygon class="cls-9" points="316.67 511.21 317.27 511.21 317.24 526.2 316.64 526.2 316.67 511.21 316.67 511.21"/><path class="cls-9" d="M197.7,189.07a1.16,1.16,0,1,0-1.16-1.15,1.15,1.15,0,0,0,1.16,1.15Zm6.82,7.87-2-3.39a.66.66,0,0,0-.56-.32h-3v-1h2.13a.53.53,0,0,0,.52-.51.56.56,0,0,0-.52-.55H199l-.07-.81a1.14,1.14,0,0,0-1.19-1,1.12,1.12,0,0,0-1.06,1.17l.21,3.49a1.22,1.22,0,0,0,1.18,1.14h3.77l1.54,2.55a.7.7,0,0,0,.93.23.67.67,0,0,0,.23-.92Zm-6.07,2a3.42,3.42,0,0,1-3.45-3.41,3.39,3.39,0,0,1,1.21-2.59l-.07-1.07a4.3,4.3,0,0,0-2.06,3.66,4.37,4.37,0,0,0,8.35,1.75l-.61-1.05a3.44,3.44,0,0,1-3.37,2.71Z" transform="translate(-158.82 -24.01)"/><path class="cls-9" d="M205.33,202.59H192.22c-1.46,0-2.64-1.5-2.64-3.35V187.38c0-1.85,1.18-3.36,2.64-3.36h13.11c1.46,0,2.65,1.51,2.65,3.36v11.86c0,1.85-1.19,3.35-2.65,3.35ZM192.22,184.7a2.45,2.45,0,0,0-2.11,2.68v11.86a2.45,2.45,0,0,0,2.11,2.68h13.11a2.44,2.44,0,0,0,2.11-2.68V187.38a2.44,2.44,0,0,0-2.11-2.68Z" transform="translate(-158.82 -24.01)"/><path class="cls-9" d="M184.89,202.59l-14.87,0a3.21,3.21,0,0,1-3-3.39l0-11.95a3.22,3.22,0,0,1,3-3.38l14.87,0a3.22,3.22,0,0,1,3,3.39l0,12a3.21,3.21,0,0,1-3,3.38Zm-14.82-18.08a2.58,2.58,0,0,0-2.41,2.7l0,11.95a2.56,2.56,0,0,0,2.39,2.71l14.86,0a2.58,2.58,0,0,0,2.41-2.7l0-12a2.58,2.58,0,0,0-2.4-2.71l-14.86,0Z" transform="translate(-158.82 -24.01)"/><path class="cls-9" d="M179.78,196h1.15v3.76c0,.26.28.52.5.47a.52.52,0,0,0,.38-.53l.06-3.7h.27v3.77a.37.37,0,0,0,.11.32.46.46,0,0,0,.39.08.42.42,0,0,0,.28-.4V196h1.14l-1.13-4.53a.26.26,0,0,1,0-.23.43.43,0,0,1,.11-.12.2.2,0,0,1,.11,0,.31.31,0,0,1,.15.1L184,194a.38.38,0,0,0,.16.17.33.33,0,0,0,.42,0,.49.49,0,0,0,.09-.48l-.82-2.94a2,2,0,0,0-.41-.65,1.45,1.45,0,0,0-1-.41l-1.2.11a2,2,0,0,0-.53.13,1.06,1.06,0,0,0-.54.56,2.13,2.13,0,0,0-.13.43l-.74,2.82a.48.48,0,0,0,0,.37.31.31,0,0,0,.37.16.35.35,0,0,0,.23-.23l.84-2.71c0-.06,0-.1.09-.11a.12.12,0,0,1,.17,0,.23.23,0,0,1,0,.18L179.78,196Z" transform="translate(-158.82 -24.01)"/><path class="cls-9" d="M171.24,194.65v-3.41h.32l0,8.29a.61.61,0,0,0,.25.46.48.48,0,0,0,.55,0,.64.64,0,0,0,.24-.48v-4.82h.32l0,4.82a.65.65,0,0,0,.24.5.47.47,0,0,0,.58,0,.68.68,0,0,0,.23-.47l0-8.17h.31v3.29H175v-3.47a1.48,1.48,0,0,0-.31-.94,1.26,1.26,0,0,0-.83-.47h-2.2a1.1,1.1,0,0,0-.59.2,1.3,1.3,0,0,0-.48.53,1.42,1.42,0,0,0-.18.56v3.65Z" transform="translate(-158.82 -24.01)"/><path class="cls-9" d="M172.77,189.42a1,1,0,0,0,.94-.75,1.3,1.3,0,0,0-.36-1.37.91.91,0,0,0-1.32.14,1.25,1.25,0,0,0-.12,1.44,1,1,0,0,0,.86.54Z" transform="translate(-158.82 -24.01)"/><path class="cls-9" d="M181.88,189.5a.91.91,0,0,0,.89-.61,1.09,1.09,0,0,0-.34-1.31.86.86,0,0,0-1.2.12,1.17,1.17,0,0,0-.1,1.38.84.84,0,0,0,.75.42Z" transform="translate(-158.82 -24.01)"/><polygon class="cls-9" points="17.81 161.79 18.41 161.8 18.38 176.78 17.78 176.78 17.81 161.79 17.81 161.79"/><path class="cls-8" d="M216.37,691.48l-22.92.24c-2.55,0-4.66-2.58-4.69-5.81l-.22-20.75c0-3.23,2-5.89,4.56-5.91L216,659c2.55,0,4.65,2.59,4.69,5.82l.22,20.74c0,3.24-2,5.89-4.57,5.92Zm-23.25-31.05c-2,0-3.68,2.14-3.65,4.72l.22,20.75c0,2.58,1.71,4.67,3.75,4.65l22.92-.25c2,0,3.67-2.14,3.65-4.73l-.22-20.74c0-2.58-1.71-4.67-3.75-4.65l-22.92.25Z" transform="translate(-158.82 -24.01)"/><path class="cls-10" d="M204.33,667.34a1.57,1.57,0,1,1-1.59-1.52A1.55,1.55,0,0,1,204.33,667.34Z" transform="translate(-158.82 -24.01)"/><path class="cls-10" d="M204.34,671.29v-.66a1.54,1.54,0,0,0-3.07,0l0,3.52s0,.09,0,.13Z" transform="translate(-158.82 -24.01)"/><path class="cls-10" d="M214.48,667.91a2.28,2.28,0,1,1,.05,4.55l-2.71,0L201.28,683a2.47,2.47,0,0,1-.53.49,2.54,2.54,0,0,1-1.24.46l-.33,0-4,0a2.3,2.3,0,1,1,0-4.55l3.19,0,10.78-10.74,0,0h0l.15-.13.07-.06.11-.07.15-.1,0,0a2.7,2.7,0,0,1,1.17-.3l3.61,0m0-1-3.61,0a3.49,3.49,0,0,0-1.67.43l-.06,0-.21.13-.13.09h0l0,0-.09.06c-.06.06-.13.11-.2.19h0l-.07.06L197.9,678.4l-2.76,0a3.32,3.32,0,1,0,.07,6.6l4,0,.42,0a3.56,3.56,0,0,0,1.75-.65,3.35,3.35,0,0,0,.71-.64l10.2-10.16,2.27,0a3.3,3.3,0,1,0-.07-6.6Z" transform="translate(-158.82 -24.01)"/><path class="cls-9" d="M483.61,382.15l-16.65.17c-1.85,0-3.38-1.87-3.4-4.22L463.4,363c0-2.35,1.46-4.28,3.31-4.3l16.65-.18c1.85,0,3.38,1.88,3.4,4.23l.16,15.06c0,2.35-1.46,4.28-3.31,4.3ZM466.72,359.6c-1.48,0-2.67,1.55-2.65,3.43l.16,15.06c0,1.88,1.24,3.39,2.72,3.38l16.65-.18c1.48,0,2.67-1.56,2.65-3.43l-.16-15.07c0-1.87-1.24-3.39-2.72-3.37l-16.65.18Z" transform="translate(-158.82 -24.01)"/><path class="cls-11" d="M474.86,364.61a1.14,1.14,0,1,1-1.15-1.1A1.13,1.13,0,0,1,474.86,364.61Z" transform="translate(-158.82 -24.01)"/><path class="cls-11" d="M474.87,367.48V367a1.12,1.12,0,0,0-2.23,0l0,2.55v.1Z" transform="translate(-158.82 -24.01)"/><path class="cls-11" d="M482.24,365a1.66,1.66,0,1,1,0,3.31l-2,0L472.65,376a2.25,2.25,0,0,1-.39.36,1.86,1.86,0,0,1-.9.33h-.24l-2.89,0a1.67,1.67,0,1,1,0-3.3l2.32,0,7.82-7.8,0,0h0a.52.52,0,0,0,.11-.1l.06,0,.07-.06.12-.07h0a1.73,1.73,0,0,1,.85-.22l2.63,0m0-.74-2.62,0a2.57,2.57,0,0,0-1.22.31l0,0-.15.09-.1.07h0l-.06.05-.15.13h0a.12.12,0,0,0-.05.05l-7.61,7.57-2,0a2.41,2.41,0,1,0,.05,4.79l2.89,0,.31,0a2.49,2.49,0,0,0,1.26-.47,2.56,2.56,0,0,0,.52-.46l7.41-7.38,1.65,0a2.4,2.4,0,1,0,0-4.79Z" transform="translate(-158.82 -24.01)"/><path class="cls-9" d="M432.42,426.84l-16.65.17c-1.85,0-3.37-1.87-3.4-4.22l-.16-15.06c0-2.35,1.46-4.28,3.31-4.3l16.65-.18c1.85,0,3.38,1.88,3.41,4.23l.16,15.06c0,2.35-1.47,4.28-3.32,4.3Zm-16.88-22.55c-1.48,0-2.67,1.55-2.65,3.43l.16,15.06c0,1.88,1.24,3.39,2.72,3.38l16.64-.18c1.48,0,2.67-1.56,2.65-3.43l-.16-15.07c0-1.87-1.24-3.39-2.72-3.37l-16.64.18Z" transform="translate(-158.82 -24.01)"/><path class="cls-11" d="M423.68,409.31a1.13,1.13,0,0,1-1.13,1.12,1.12,1.12,0,1,1,0-2.23A1.14,1.14,0,0,1,423.68,409.31Z" transform="translate(-158.82 -24.01)"/><path class="cls-11" d="M423.68,412.18v-.49a1.12,1.12,0,0,0-2.23,0l0,2.55s0,.07,0,.1Z" transform="translate(-158.82 -24.01)"/><path class="cls-11" d="M431.05,409.72a1.66,1.66,0,1,1,0,3.31l-2,0-7.65,7.62a2.22,2.22,0,0,1-.39.36,1.9,1.9,0,0,1-.9.33h-.24l-2.89,0a1.67,1.67,0,1,1,0-3.3l2.32,0,7.83-7.8,0,0h0l.11-.09.05,0,.08-.06.11-.07h0a1.73,1.73,0,0,1,.85-.22l2.62,0m0-.74-2.62,0a2.56,2.56,0,0,0-1.21.31l0,0-.15.09-.09.07h0l-.06.05-.16.13h0l-.06.05-7.6,7.57-2,0a2.41,2.41,0,1,0,.05,4.79l2.89,0,.31,0a2.52,2.52,0,0,0,1.27-.47,2.56,2.56,0,0,0,.52-.46l7.4-7.38,1.65,0a2.4,2.4,0,1,0,0-4.79Z" transform="translate(-158.82 -24.01)"/><path class="cls-8" d="M567,692.13H544.1c-2.55,0-4.62-2.63-4.62-5.87V665.52c0-3.24,2.07-5.87,4.62-5.87H567c2.55,0,4.63,2.63,4.63,5.87v20.74c0,3.24-2.08,5.87-4.63,5.87Zm-22.92-31.3c-2,0-3.7,2.1-3.7,4.69v20.74c0,2.59,1.66,4.69,3.7,4.69H567c2,0,3.7-2.1,3.7-4.69V665.52c0-2.59-1.66-4.69-3.7-4.69Z" transform="translate(-158.82 -24.01)"/><path class="cls-10" d="M549.92,667.3a1.82,1.82,0,1,0-2-1.82A1.89,1.89,0,0,0,549.92,667.3Z" transform="translate(-158.82 -24.01)"/><path class="cls-10" d="M547.74,671.18v5.57h0s0,.11,0,.16v8.42c0,.42.16.78.36.78h1.27c.19,0,.35-.36.35-.78v-8.42a.86.86,0,0,0,0-.16h.42s0,.11,0,.16v2.32l1.94,4.22c.23.15,1.58-.32,1.62-.77-.51-.91-1.07-2.55-1.58-3.45v-2.48h0v-5.57h.31v5c0,.3.17.54.36.54H554c.19,0,.36-.24.36-.54v-6.84a1.51,1.51,0,0,0-1.5-1.51H547a1.52,1.52,0,0,0-1.51,1.51v6.84c0,.3.16.54.35.54h1.27c.2,0,.36-.24.36-.54v-5Z" transform="translate(-158.82 -24.01)"/><polygon class="cls-10" points="408.87 648.4 405.87 648.4 403.89 648.4 403.89 650.23 403.89 651.17 402.87 651.17 400.89 651.17 400.89 653.01 400.89 653.94 399.88 653.94 397.9 653.94 397.9 655.77 397.9 656.71 396.88 656.71 394.9 656.71 394.9 658.55 394.9 659.49 393.9 659.49 391.91 659.49 391.91 661.32 391.91 662.26 388.92 662.26 388.92 664.1 391.91 664.1 392.66 664.1 393.9 664.1 393.9 661.32 394.9 661.32 396.88 661.32 396.88 659.49 396.88 658.55 397.9 658.55 399.87 658.55 399.88 658.55 399.88 655.77 400.89 655.77 402.87 655.77 402.87 653.94 402.87 653.01 403.89 653.01 405.87 653.01 405.87 651.17 405.87 650.23 408.87 650.23 408.87 648.4"/><path class="cls-9" d="M507.12,225.37H491.61c-1.72,0-3.13-1.78-3.13-4v-14c0-2.19,1.41-4,3.13-4h15.51c1.72,0,3.13,1.78,3.13,4v14c0,2.19-1.41,4-3.13,4ZM491.61,204.2c-1.38,0-2.5,1.42-2.5,3.17v14c0,1.75,1.12,3.17,2.5,3.17h15.51c1.38,0,2.5-1.42,2.5-3.17v-14c0-1.75-1.12-3.17-2.5-3.17Z" transform="translate(-158.82 -24.01)"/><path class="cls-11" d="M495.54,208.57a1.23,1.23,0,1,0-1.32-1.23A1.28,1.28,0,0,0,495.54,208.57Z" transform="translate(-158.82 -24.01)"/><path class="cls-11" d="M494.07,211.19V215h0a.45.45,0,0,0,0,.11v5.7c0,.28.11.52.24.52h.86c.13,0,.24-.24.24-.52V215h.28s0,.08,0,.11v1.57l1.32,2.85c.14.11,1.06-.21,1.09-.51-.35-.62-.73-1.73-1.07-2.34V215h0v-3.77h.21v3.41c0,.2.11.36.24.36h.86c.13,0,.24-.16.24-.36V210a1,1,0,0,0-1-1h-4a1,1,0,0,0-1,1v4.63c0,.2.11.36.24.36h.86c.13,0,.24-.16.24-.36v-3.41Z" transform="translate(-158.82 -24.01)"/><polygon class="cls-11" points="348.74 188.02 346.71 188.02 345.37 188.02 345.37 189.26 345.37 189.9 344.69 189.9 343.35 189.9 343.35 191.13 343.35 191.77 342.66 191.77 341.32 191.77 341.32 193.01 341.32 193.64 340.63 193.64 339.3 193.64 339.3 194.88 339.3 195.52 338.62 195.52 337.27 195.52 337.27 196.76 337.27 197.39 335.25 197.39 335.25 198.64 337.27 198.64 337.78 198.64 338.62 198.64 338.62 196.76 339.3 196.76 340.63 196.76 340.63 195.52 340.63 194.88 341.32 194.88 342.66 194.88 342.66 194.88 342.66 193.01 343.35 193.01 344.69 193.01 344.69 191.77 344.69 191.13 345.37 191.13 346.71 191.13 346.71 189.9 346.71 189.26 348.74 189.26 348.74 188.02"/><path class="cls-9" d="M206.87,272.55H191.36c-1.72,0-3.13-1.78-3.13-4v-14c0-2.19,1.41-4,3.13-4h15.51c1.72,0,3.13,1.78,3.13,4v14c0,2.19-1.41,4-3.13,4Zm-15.5-21.17c-1.38,0-2.51,1.42-2.51,3.17v14c0,1.75,1.13,3.17,2.51,3.17h15.5c1.38,0,2.5-1.42,2.5-3.17v-14c0-1.75-1.12-3.17-2.5-3.17Z" transform="translate(-158.82 -24.01)"/><path class="cls-11" d="M195.3,255.76a1.23,1.23,0,1,0-1.33-1.23A1.28,1.28,0,0,0,195.3,255.76Z" transform="translate(-158.82 -24.01)"/><path class="cls-11" d="M193.82,258.38v3.77h0s0,.07,0,.11V268c0,.29.11.53.25.53h.85c.14,0,.24-.24.24-.53v-5.8h.28v1.67l1.31,2.86c.15.1,1.06-.22,1.09-.52-.34-.62-.72-1.72-1.07-2.34v-1.67h0v-3.77H197v3.4c0,.21.12.37.24.37h.86c.13,0,.24-.16.24-.37v-4.63a1,1,0,0,0-1-1h-4a1,1,0,0,0-1,1v4.63c0,.21.11.37.24.37h.86c.13,0,.24-.16.24-.37v-3.4Z" transform="translate(-158.82 -24.01)"/><polygon class="cls-11" points="48.49 235.2 46.46 235.2 45.13 235.2 45.13 236.44 45.13 237.08 44.44 237.08 43.1 237.08 43.1 238.32 43.1 238.95 42.42 238.95 41.07 238.95 41.07 240.19 41.07 240.83 40.39 240.83 39.05 240.83 39.05 242.07 39.05 242.71 38.37 242.71 37.03 242.71 37.03 243.94 37.03 244.58 35 244.58 35 245.82 37.03 245.82 37.53 245.82 38.37 245.82 38.37 243.94 39.05 243.94 40.39 243.94 40.39 242.71 40.39 242.07 41.07 242.07 42.41 242.07 42.42 242.07 42.42 240.19 43.1 240.19 44.44 240.19 44.44 238.95 44.44 238.32 45.13 238.32 46.46 238.32 46.46 237.08 46.46 236.44 48.49 236.44 48.49 235.2"/><path class="cls-8" d="M416.27,692.39H393.34c-2.55,0-4.62-2.63-4.62-5.87V665.78c0-3.24,2.07-5.87,4.62-5.87h22.93c2.55,0,4.63,2.63,4.63,5.87v20.74c0,3.24-2.08,5.87-4.63,5.87Zm-22.92-31.3c-2,0-3.7,2.1-3.7,4.69v20.74c0,2.59,1.66,4.69,3.7,4.69h22.92c2,0,3.7-2.1,3.7-4.69V665.78c0-2.59-1.66-4.69-3.7-4.69Z" transform="translate(-158.82 -24.01)"/><polygon class="cls-8" points="245.02 639.39 245.03 640.37 245.73 639.57 245.73 641.83 246.22 641.82 246.24 639.67 246.95 640.39 246.94 639.35 245.99 638.47 245.02 639.39"/><path class="cls-8" d="M400.85,671.64a1.26,1.26,0,0,1,.91-.8,10.79,10.79,0,0,1,4.16,0,1,1,0,0,1,.8.74l.77,2.15,2.23-1.41c.58-.26.93.27.54.73l-2.47,1.5a.79.79,0,0,1-1.1-.18l-.64-1.57a.59.59,0,0,0-.47,0v11.26c-.21.49-1.14.49-1.29,0v-6.38a1.17,1.17,0,0,0-.74,0v6.36a.72.72,0,0,1-1.24.06V672.82a.65.65,0,0,0-.51,0l0,4.93a.62.62,0,0,1-.87,0v-6.1Zm3.06-3.8a1.16,1.16,0,1,1-1.27,1.15A1.21,1.21,0,0,1,403.91,667.84Z" transform="translate(-158.82 -24.01)"/><polygon class="cls-8" points="245.02 664.89 245.03 663.91 245.73 664.71 245.73 662.45 246.22 662.47 246.24 664.61 246.95 663.89 246.94 664.93 245.99 665.81 245.02 664.89"/><rect class="cls-10" x="257.46" y="640.74" width="0.66" height="23.02"/><rect class="cls-10" x="233.85" y="640.96" width="0.66" height="23.02"/><path class="cls-8" d="M396.45,666.24h16.72v19.82H396.45V666.24Zm.32.32v19.18h16.07V666.56Z" transform="translate(-158.82 -24.01)"/><path class="cls-9" d="M427,498.17H413.58c-1.49,0-2.7-1.54-2.7-3.43V482.61c0-1.89,1.21-3.43,2.7-3.43H427c1.49,0,2.7,1.54,2.7,3.43v12.13c0,1.89-1.21,3.43-2.7,3.43Zm-13.4-18.3a2.5,2.5,0,0,0-2.16,2.74v12.13a2.5,2.5,0,0,0,2.16,2.74H427a2.51,2.51,0,0,0,2.16-2.74V482.61a2.51,2.51,0,0,0-2.16-2.74Z" transform="translate(-158.82 -24.01)"/><polygon class="cls-9" points="260.9 457.22 260.9 457.79 261.32 457.32 261.32 458.64 261.6 458.63 261.61 457.38 262.02 457.8 262.02 457.19 261.47 456.68 260.9 457.22"/><path class="cls-9" d="M418,486a.76.76,0,0,1,.54-.47,6.41,6.41,0,0,1,2.43,0,.58.58,0,0,1,.46.43l.45,1.26,1.31-.82c.34-.16.54.16.31.42l-1.44.88a.45.45,0,0,1-.64-.11l-.38-.91a.32.32,0,0,0-.27,0v6.58c-.13.29-.67.29-.76,0v-3.73a.66.66,0,0,0-.44,0v3.72a.42.42,0,0,1-.73,0v-6.61a.37.37,0,0,0-.29,0l0,2.88a.35.35,0,0,1-.51,0V486Zm1.79-2.22a.67.67,0,1,1-.74.67A.71.71,0,0,1,419.76,483.82Z" transform="translate(-158.82 -24.01)"/><polygon class="cls-9" points="260.9 472.12 260.9 471.55 261.32 472.01 261.32 470.69 261.6 470.7 261.61 471.96 262.02 471.54 262.02 472.15 261.47 472.66 260.9 472.12"/><rect class="cls-11" x="268.17" y="458" width="0.38" height="13.45"/><rect class="cls-11" x="254.37" y="458.13" width="0.38" height="13.45"/><path class="cls-9" d="M415.4,482.88h9.77v11.59H415.4V482.88Zm.19.19v11.21H425V483.07Z" transform="translate(-158.82 -24.01)"/><path class="cls-9" d="M238.2,227.69H224.8c-1.49,0-2.7-1.57-2.7-3.5V211.85c0-1.93,1.21-3.5,2.7-3.5h13.4c1.49,0,2.71,1.57,2.71,3.5v12.34c0,1.93-1.22,3.5-2.71,3.5Zm-13.4-18.64c-1.19,0-2.16,1.26-2.16,2.8v12.34c0,1.54,1,2.79,2.16,2.79h13.4c1.19,0,2.16-1.25,2.16-2.79V211.85c0-1.54-1-2.8-2.16-2.8Z" transform="translate(-158.82 -24.01)"/><polygon class="cls-9" points="72.12 186.42 72.12 187 72.53 186.53 72.53 187.87 72.82 187.87 72.83 186.59 73.24 187.02 73.24 186.4 72.68 185.87 72.12 186.42"/><path class="cls-9" d="M229.19,215.34a.74.74,0,0,1,.53-.48,6,6,0,0,1,2.43,0,.57.57,0,0,1,.47.44l.45,1.28,1.3-.84c.34-.16.55.16.32.43l-1.44.9a.46.46,0,0,1-.65-.11l-.37-.94a.32.32,0,0,0-.27,0v6.7c-.13.29-.67.29-.76,0V219a.66.66,0,0,0-.44,0v3.78a.42.42,0,0,1-.73,0V216a.37.37,0,0,0-.29,0l0,2.93c-.2.14-.37.14-.51,0v-3.62Zm1.79-2.27a.69.69,0,1,1,0,1.37.69.69,0,1,1,0-1.37Z" transform="translate(-158.82 -24.01)"/><polygon class="cls-9" points="72.12 201.6 72.12 201.02 72.53 201.49 72.53 200.15 72.82 200.16 72.83 201.43 73.24 201.01 73.24 201.63 72.68 202.15 72.12 201.6"/><rect class="cls-11" x="79.39" y="187.22" width="0.38" height="13.7"/><rect class="cls-11" x="65.59" y="187.35" width="0.38" height="13.7"/><path class="cls-9" d="M226.62,212.12h9.77v11.8h-9.77v-11.8Zm.19.19v11.42h9.39V212.31Z" transform="translate(-158.82 -24.01)"/><path class="cls-8" d="M566.78,642.51H543.86c-2.55,0-4.63-2.63-4.63-5.87V615.9c0-3.24,2.08-5.87,4.63-5.87h22.92c2.55,0,4.63,2.63,4.63,5.87v20.74c0,3.24-2.08,5.87-4.63,5.87Zm-22.92-31.3c-2,0-3.7,2.1-3.7,4.69v20.74c0,2.59,1.66,4.69,3.7,4.69h22.92c2,0,3.7-2.1,3.7-4.69V615.9c0-2.59-1.66-4.69-3.7-4.69Z" transform="translate(-158.82 -24.01)"/><path class="cls-10" d="M553.49,623.75a1,1,0,0,1-1.15-.81,1.12,1.12,0,0,1,.7-1.34,1,1,0,0,1,1.15.81A1.13,1.13,0,0,1,553.49,623.75Z" transform="translate(-158.82 -24.01)"/><path class="cls-10" d="M550.89,627.18h1.61l0-2.82,2.59-.87,1.75.07,2,1.66s.41.59,0,.91-1-.19-1.13-.33l-1.39-1.2-.37.08,0,.23,2,3,.65,2.52h3c.69-.19.94,1.38.13,1.61l-3.83.06s-.4.1-.6-.68a23.26,23.26,0,0,0-.82-2.21,13.7,13.7,0,0,0-1.12,1.7c-.18,1.64,0,3.86-.12,4.26a.64.64,0,0,1-1,.49,1,1,0,0,1-.33-1l-.16-4,1.16-1.84-1.45-2.2v1.82h0v0l-.89,0h-1.76a.58.58,0,0,1-.53-.61A.57.57,0,0,1,550.89,627.18Z" transform="translate(-158.82 -24.01)"/><rect class="cls-10" x="387.7" y="592.78" width="17.59" height="1.46"/><rect class="cls-10" x="387.7" y="593.74" width="2.9" height="17.58"/><rect class="cls-10" x="403.48" y="594.16" width="1.82" height="17.58"/><path class="cls-9" d="M271.9,465H256.39c-1.72,0-3.12-1.78-3.12-4V447c0-2.19,1.4-4,3.12-4H271.9c1.73,0,3.13,1.78,3.13,4v14c0,2.19-1.4,4-3.13,4Zm-15.5-21.17c-1.38,0-2.5,1.42-2.5,3.17v14c0,1.75,1.12,3.17,2.5,3.17h15.5c1.38,0,2.5-1.42,2.5-3.17V447c0-1.75-1.12-3.17-2.5-3.17Z" transform="translate(-158.82 -24.01)"/><path class="cls-11" d="M262.91,452.33a.64.64,0,0,1-.78-.55.76.76,0,0,1,.47-.9.64.64,0,0,1,.78.55A.76.76,0,0,1,262.91,452.33Z" transform="translate(-158.82 -24.01)"/><path class="cls-11" d="M261.15,454.65h1.09v-1.91l1.76-.59,1.18.05,1.36,1.13s.28.39,0,.61-.66-.13-.77-.22l-.94-.81-.25,0,0,.16,1.35,2,.44,1.7h2.06c.46-.12.63.94.08,1.09l-2.58,0s-.27.07-.41-.46A15.25,15.25,0,0,0,265,456a9.2,9.2,0,0,0-.75,1.15c-.12,1.1,0,2.61-.08,2.88a.44.44,0,0,1-.67.33.64.64,0,0,1-.22-.71l-.11-2.72.78-1.24-1-1.49v1.23h0v0h-1.79a.42.42,0,0,1,0-.82Z" transform="translate(-158.82 -24.01)"/><rect class="cls-11" x="99.38" y="423.62" width="11.9" height="0.99"/><rect class="cls-11" x="99.38" y="424.26" width="1.96" height="11.89"/><rect class="cls-11" x="110.04" y="424.55" width="1.23" height="11.89"/><path class="cls-9" d="M358.37,466.77H342.86c-1.72,0-3.12-1.78-3.12-4v-14c0-2.19,1.4-4,3.12-4h15.51c1.73,0,3.13,1.78,3.13,4v14c0,2.19-1.4,4-3.13,4Zm-15.5-21.17c-1.38,0-2.5,1.42-2.5,3.17v14c0,1.75,1.12,3.17,2.5,3.17h15.5c1.38,0,2.5-1.42,2.5-3.17v-14c0-1.75-1.12-3.17-2.5-3.17Z" transform="translate(-158.82 -24.01)"/><path class="cls-11" d="M349.38,454.08a.64.64,0,0,1-.78-.55.78.78,0,0,1,.47-.91.64.64,0,0,1,.78.55A.77.77,0,0,1,349.38,454.08Z" transform="translate(-158.82 -24.01)"/><path class="cls-11" d="M347.62,456.4h1.09v-1.91l1.76-.59,1.18.05,1.36,1.12s.28.4,0,.62-.66-.13-.76-.23l-.94-.81-.25.05,0,.16,1.35,2,.44,1.71h2.06c.46-.13.63.93.08,1.09l-2.58,0s-.28.06-.41-.46a14.75,14.75,0,0,0-.56-1.5,10.6,10.6,0,0,0-.76,1.16c-.11,1.1,0,2.61-.07,2.88a.44.44,0,0,1-.67.33.64.64,0,0,1-.22-.71l-.11-2.72.78-1.24-1-1.49v1.22h0v0l-.6,0h-1.19a.42.42,0,0,1,0-.82Z" transform="translate(-158.82 -24.01)"/><rect class="cls-11" x="185.85" y="425.36" width="11.9" height="0.99"/><rect class="cls-11" x="185.85" y="426.01" width="1.96" height="11.89"/><rect class="cls-11" x="196.51" y="426.29" width="1.23" height="11.89"/><path class="cls-9" d="M217.45,227.69H203.9c-1.5,0-2.73-1.57-2.73-3.5V211.85c0-1.93,1.23-3.5,2.73-3.5h13.55c1.51,0,2.74,1.57,2.74,3.5v12.34c0,1.93-1.23,3.5-2.74,3.5Zm-13.54-18.64c-1.21,0-2.19,1.26-2.19,2.8v12.34a2.55,2.55,0,0,0,2.19,2.79h13.54a2.55,2.55,0,0,0,2.19-2.79V211.85c0-1.54-1-2.8-2.19-2.8Z" transform="translate(-158.82 -24.01)"/><path class="cls-11" d="M209.6,216.52a.56.56,0,0,1-.68-.48.66.66,0,0,1,.41-.8.56.56,0,0,1,.68.48A.68.68,0,0,1,209.6,216.52Z" transform="translate(-158.82 -24.01)"/><path class="cls-11" d="M208.06,218.56H209v-1.68l1.54-.52,1,0,1.19,1s.24.36,0,.55-.58-.12-.67-.2l-.82-.71-.22,0,0,.14,1.19,1.78.38,1.5h1.8c.41-.11.55.82.07,1l-2.26,0s-.24.06-.36-.4a13.87,13.87,0,0,0-.48-1.32,8.79,8.79,0,0,0-.66,1c-.11,1,0,2.3-.07,2.53a.39.39,0,0,1-.58.3.58.58,0,0,1-.2-.63l-.09-2.4.68-1.09-.85-1.31v1.08h0v0h-1.56a.35.35,0,0,1-.31-.37A.34.34,0,0,1,208.06,218.56Z" transform="translate(-158.82 -24.01)"/><rect class="cls-11" x="46.66" y="188.37" width="10.4" height="0.87"/><rect class="cls-11" x="46.66" y="188.94" width="1.71" height="10.47"/><rect class="cls-11" x="55.98" y="189.19" width="1.08" height="10.47"/><path class="cls-9" d="M513.06,467.83H497.55c-1.72,0-3.13-1.78-3.13-4v-14c0-2.19,1.41-4,3.13-4h15.51c1.72,0,3.13,1.78,3.13,4v14c0,2.19-1.41,4-3.13,4Zm-15.51-21.17c-1.38,0-2.5,1.42-2.5,3.17v14c0,1.75,1.12,3.17,2.5,3.17h15.51c1.38,0,2.5-1.42,2.5-3.17v-14c0-1.75-1.12-3.17-2.5-3.17Z" transform="translate(-158.82 -24.01)"/><path class="cls-11" d="M504.06,455.14a.63.63,0,0,1-.77-.55.75.75,0,0,1,.47-.9.64.64,0,0,1,.78.55A.76.76,0,0,1,504.06,455.14Z" transform="translate(-158.82 -24.01)"/><path class="cls-11" d="M502.3,457.46h1.1v-1.91l1.75-.59,1.19.05,1.36,1.13s.28.39,0,.61-.66-.13-.77-.22l-.94-.81-.25,0,0,.16,1.36,2,.44,1.7h2c.47-.12.64.94.09,1.1l-2.59,0s-.27.07-.41-.46-.55-1.49-.55-1.49a9,9,0,0,0-.76,1.15c-.12,1.1,0,2.61-.08,2.88a.43.43,0,0,1-.66.33.65.65,0,0,1-.23-.7l-.1-2.73.78-1.24-1-1.49v1.23h0v0h-1.8a.42.42,0,0,1,0-.83Z" transform="translate(-158.82 -24.01)"/><rect class="cls-11" x="340.53" y="426.43" width="11.9" height="0.99"/><rect class="cls-11" x="340.53" y="427.08" width="1.96" height="11.89"/><rect class="cls-11" x="351.2" y="427.36" width="1.23" height="11.89"/><path class="cls-9" d="M541.68,204.2H526.17c-1.72,0-3.13-1.79-3.13-4v-14c0-2.19,1.41-4,3.13-4h15.51c1.72,0,3.13,1.78,3.13,4v14c0,2.18-1.41,4-3.13,4ZM526.17,183c-1.38,0-2.5,1.42-2.5,3.17v14c0,1.75,1.12,3.17,2.5,3.17h15.51c1.38,0,2.5-1.42,2.5-3.17v-14c0-1.75-1.12-3.17-2.5-3.17Z" transform="translate(-158.82 -24.01)"/><path class="cls-11" d="M532.68,191.51a.64.64,0,0,1-.77-.55.76.76,0,0,1,.47-.91.64.64,0,0,1,.78.55A.77.77,0,0,1,532.68,191.51Z" transform="translate(-158.82 -24.01)"/><path class="cls-11" d="M530.93,193.83H532v-1.91l1.75-.59,1.19,0,1.36,1.12s.28.4,0,.62-.66-.13-.77-.23l-.94-.81-.25,0,0,.16,1.36,2,.44,1.71h2.06c.46-.13.63.93.08,1.09l-2.59,0s-.27.06-.41-.46a15.59,15.59,0,0,0-.55-1.5,9.28,9.28,0,0,0-.76,1.16c-.12,1.1,0,2.61-.08,2.88a.44.44,0,0,1-.66.33.66.66,0,0,1-.23-.71l-.1-2.72.78-1.24-1-1.49v1.22h0v0l-.6,0h-1.19a.41.41,0,0,1,0-.82Z" transform="translate(-158.82 -24.01)"/><rect class="cls-11" x="369.15" y="162.79" width="11.9" height="0.99"/><rect class="cls-11" x="369.15" y="163.44" width="1.96" height="11.89"/><rect class="cls-11" x="379.82" y="163.72" width="1.23" height="11.89"/></g><g id="图层_2" data-name="图层 2"><text class="cls-12" transform="matrix(1, -0.01, 0.01, 1, 72.69, 655.27)">扶梯</text><text class="cls-12" transform="translate(70.35 606.28)">无障碍通道</text><text class="cls-12" transform="translate(272.86 656.41)">电梯</text><text class="cls-12" transform="translate(274.53 606.28)">洗手间</text><text class="cls-12" transform="translate(423.87 606.53)">安全出口</text><text class="cls-12" transform="translate(423.94 656.15)">楼梯</text><text class="cls-12" transform="translate(191.8 104.7)">安徽文明史陈列（三）</text><text class="cls-12" transform="translate(52.45 508.7)">安徽文明史陈列（二）</text><text class="cls-12" transform="translate(361.85 507.04)">安徽文明史陈列（四）</text><text class="cls-12" transform="translate(202.53 305.63)">中庭</text><text class="cls-13" transform="translate(205.78 24.06) scale(1.07 1)">三层</text></g></svg>