<?xml version="1.0" encoding="utf-8"?>
<!-- Generator: Adobe Illustrator 22.0.0, SVG Export Plug-In . SVG Version: 6.00 Build 0)  -->
<svg version="1.0" xmlns="http://www.w3.org/2000/svg" xmlns:xlink="http://www.w3.org/1999/xlink" x="0px" y="0px"
	 width="790.697px" height="724.407px" viewBox="0 0 790.697 724.407" enable-background="new 0 0 790.697 724.407"
	 xml:space="preserve">
<g id="图层_2">
	<rect x="155.899" y="59.549" fill="#D6AEA1" stroke="#0F0E0E" stroke-miterlimit="10" width="487.182" height="511.373"/>
	<g>
		<g>
			<path fill-rule="evenodd" clip-rule="evenodd" fill="#9E9E9F" d="M191.801,604.093c1.123,0,2.031-0.914,2.031-2.012
				c0-1.123-0.908-2.019-2.031-2.019c-1.123,0-2.036,0.895-2.036,2.019C189.765,603.179,190.678,604.093,191.801,604.093
				L191.801,604.093z M203.728,617.856l-3.466-5.921c-0.215-0.356-0.593-0.559-0.982-0.571h-5.175l0.009-1.809h3.725
				c0.503-0.03,0.917-0.379,0.917-0.889c0-0.503-0.402-0.952-0.917-0.971h-3.804l-0.129-1.41c-0.077-1.057-0.993-1.882-2.074-1.828
				c-1.086,0.062-1.908,0.987-1.853,2.055l0.357,6.105c0.088,1.073,0.993,1.982,2.067,1.982h6.596l2.694,4.465
				c0.318,0.522,1.067,0.737,1.631,0.4C203.881,619.132,204.047,618.438,203.728,617.856L203.728,617.856z M193.108,621.358
				c-3.337,0-6.043-2.668-6.043-5.975c0-1.809,0.831-3.423,2.119-4.523l-0.11-1.87c-2.159,1.337-3.607,3.687-3.607,6.393
				c0,4.172,3.418,7.565,7.641,7.565c3.107,0,5.765-1.853,6.957-4.491l-1.074-1.84C198.415,619.322,196.01,621.358,193.108,621.358
				L193.108,621.358z"/>
		</g>
		<path fill-rule="evenodd" clip-rule="evenodd" fill="#9E9E9F" d="M205.139,627.745h-22.927c-2.55,0-4.626-2.632-4.626-5.868
			v-20.742c0-3.235,2.076-5.868,4.626-5.868h22.927c2.55,0,4.63,2.633,4.63,5.868v20.742
			C209.769,625.112,207.689,627.745,205.139,627.745L205.139,627.745z M182.216,596.446c-2.04,0-3.698,2.103-3.698,4.688v20.742
			c0,2.586,1.658,4.689,3.698,4.689h22.924c2.038,0,3.698-2.103,3.698-4.689v-20.742c0-2.585-1.66-4.688-3.698-4.688H182.216
			L182.216,596.446z"/>
	</g>
	<g>
		<path fill-rule="evenodd" clip-rule="evenodd" fill="#9E9E9F" d="M407.292,627.034l-25.414,0.27
			c-2.827,0.03-5.154-2.469-5.187-5.572l-0.211-19.887c-0.033-3.102,2.241-5.651,5.067-5.681l25.414-0.27
			c2.826-0.03,5.158,2.47,5.191,5.572l0.211,19.887C412.397,624.455,410.118,627.004,407.292,627.034L407.292,627.034z
			 M381.564,597.295c-2.261,0.024-4.078,2.06-4.051,4.538l0.211,19.887c0.026,2.479,1.886,4.476,4.147,4.452l25.409-0.27
			c2.259-0.024,4.077-2.06,4.051-4.539l-0.211-19.887c-0.026-2.478-1.888-4.475-4.146-4.451L381.564,597.295L381.564,597.295z"/>
		<path fill-rule="evenodd" clip-rule="evenodd" fill="#9E9E9F" d="M398.409,616.23l1.963-0.021l0.067,6.269
			c0.005,0.424,0.493,0.858,0.866,0.756c0.399-0.109,0.647-0.426,0.649-0.875l0.017-6.167l0.453-0.005l0.067,6.269
			c0.003,0.235,0.023,0.373,0.205,0.537c0.166,0.147,0.459,0.176,0.664,0.128c0.266-0.067,0.469-0.388,0.466-0.683l-0.066-6.264
			l1.96-0.021l-2.04-7.511c-0.047-0.142-0.084-0.233-0.01-0.383c0.041-0.092,0.11-0.149,0.185-0.205
			c0.063-0.001,0.122,0.003,0.187,0.026c0.099,0.037,0.182,0.096,0.261,0.168l1.294,4.584c0.081,0.119,0.163,0.211,0.285,0.274
			c0.23,0.123,0.533,0.124,0.722-0.086c0.191-0.223,0.226-0.5,0.143-0.786l-1.474-4.877c-0.1-0.336-0.461-0.817-0.722-1.072
			c-0.421-0.407-1.215-0.726-1.793-0.664l-2.053,0.22c-0.307,0.036-0.613,0.099-0.902,0.227c-0.444,0.19-0.664,0.472-0.907,0.941
			c-0.122,0.232-0.157,0.459-0.219,0.713l-1.2,4.703c-0.056,0.218-0.071,0.426,0.06,0.623c0.145,0.224,0.396,0.338,0.639,0.257
			c0.176-0.053,0.318-0.206,0.374-0.397l1.378-4.515c0.033-0.098,0.064-0.167,0.158-0.195c0.104-0.038,0.235-0.03,0.291,0.079
			c0.052,0.107,0.031,0.194,0.003,0.3L398.409,616.23L398.409,616.23L398.409,616.23z"/>
		<path fill-rule="evenodd" clip-rule="evenodd" fill="#9E9E9F" d="M383.792,614.138l-0.06-5.673l0.539-0.006l0.146,13.792
			c0.003,0.299,0.215,0.611,0.448,0.751c0.302,0.181,0.647,0.145,0.927-0.065c0.231-0.169,0.407-0.489,0.404-0.798l-0.085-8.026
			l0.539-0.006l0.085,8.026c0.003,0.322,0.177,0.649,0.421,0.817c0.313,0.218,0.696,0.177,0.984-0.061
			c0.209-0.174,0.387-0.48,0.383-0.775l-0.144-13.597l0.534-0.006l0.058,5.468l1.243-0.013l-0.061-5.769
			c-0.006-0.581-0.191-1.129-0.549-1.559c-0.311-0.37-0.951-0.77-1.434-0.765l-3.748,0.04c-0.353,0.004-0.713,0.141-1.014,0.334
			c-0.334,0.216-0.621,0.532-0.807,0.904c-0.126,0.245-0.301,0.654-0.298,0.93l0.064,6.07L383.792,614.138L383.792,614.138
			L383.792,614.138z"/>
		<path fill-rule="evenodd" clip-rule="evenodd" fill="#9E9E9F" d="M386.29,605.406c0.694-0.031,1.355-0.541,1.581-1.273
			c0.256-0.816,0.015-1.773-0.638-2.274c-0.73-0.56-1.637-0.444-2.252,0.259c-0.573,0.663-0.645,1.65-0.181,2.403
			C385.117,605.04,385.708,605.43,386.29,605.406L386.29,605.406L386.29,605.406z"/>
		<path fill-rule="evenodd" clip-rule="evenodd" fill="#9E9E9F" d="M401.854,605.336c0.682-0.016,1.219-0.34,1.521-1.031
			c0.345-0.801,0.058-1.712-0.614-2.177c-0.672-0.478-1.485-0.395-2.048,0.234c-0.566,0.629-0.619,1.586-0.151,2.292
			C400.867,605.107,401.345,605.351,401.854,605.336L401.854,605.336L401.854,605.336z"/>
		<polygon fill-rule="evenodd" clip-rule="evenodd" fill="#9E9E9F" points="392.813,599.3 393.843,599.289 394.108,624.221 
			393.078,624.232 392.813,599.3 		"/>
	</g>
	<g>
		<path fill-rule="evenodd" clip-rule="evenodd" fill="#9E9E9F" d="M206.417,676.717l-22.926,0.243
			c-2.55,0.027-4.653-2.583-4.688-5.819l-0.22-20.741c-0.034-3.235,2.013-5.89,4.563-5.917l22.926-0.243
			c2.55-0.027,4.657,2.584,4.692,5.819l0.22,20.741C211.018,674.036,208.966,676.69,206.417,676.717L206.417,676.717z
			 M183.162,645.663c-2.04,0.022-3.675,2.142-3.648,4.727l0.22,20.741c0.027,2.586,1.708,4.671,3.748,4.65l22.922-0.243
			c2.038-0.022,3.675-2.142,3.648-4.728l-0.22-20.741c-0.027-2.585-1.71-4.67-3.747-4.649L183.162,645.663L183.162,645.663z"/>
		<g>
			<path fill="#9E9E9F" d="M194.374,652.576c0.009,0.846-0.687,1.54-1.555,1.549c-0.868,0.009-1.578-0.669-1.587-1.516
				c-0.009-0.846,0.687-1.54,1.555-1.549C193.654,651.051,194.365,651.73,194.374,652.576z"/>
			<path fill="#9E9E9F" d="M194.381,656.528l-0.007-0.662c-0.009-0.827-0.704-1.491-1.552-1.482
				c-0.848,0.009-1.529,0.687-1.52,1.514l0.037,3.516c0,0.046,0.004,0.091,0.008,0.136L194.381,656.528z"/>
			<path fill="#9E9E9F" d="M204.529,653.151c1.336-0.014,2.43,0.993,2.444,2.249c0.013,1.256-1.059,2.286-2.395,2.3l-2.71,0.029
				l-10.54,10.499c-0.15,0.185-0.332,0.35-0.537,0.488c-0.372,0.268-0.802,0.42-1.239,0.455c-0.108,0.013-0.218,0.022-0.33,0.024
				l-3.979,0.042c-1.442,0.015-2.622-0.991-2.636-2.247c-0.013-1.256,1.145-2.287,2.587-2.302l3.193-0.034l10.78-10.738
				c0.014-0.014,0.03-0.027,0.045-0.041c0.003-0.003,0.007-0.006,0.01-0.009c0.05-0.046,0.1-0.092,0.153-0.133
				c0.023-0.019,0.048-0.035,0.072-0.053c0.036-0.026,0.071-0.053,0.107-0.077c0.05-0.033,0.102-0.063,0.154-0.092
				c0.012-0.007,0.024-0.015,0.036-0.021c0.347-0.187,0.746-0.296,1.174-0.3L204.529,653.151 M204.518,652.125l-3.611,0.038
				c-0.584,0.006-1.162,0.154-1.67,0.428c-0.022,0.012-0.043,0.024-0.063,0.036c-0.061,0.035-0.134,0.077-0.209,0.126
				c-0.042,0.027-0.086,0.059-0.129,0.092l-0.02,0.015l-0.02,0.015c-0.029,0.021-0.058,0.042-0.086,0.065
				c-0.065,0.052-0.132,0.11-0.209,0.181l-0.008,0.007l-0.003,0.002c-0.026,0.023-0.05,0.045-0.073,0.068l-10.475,10.434
				l-2.758,0.029c-2.02,0.021-3.647,1.519-3.628,3.339c0.019,1.82,1.678,3.282,3.698,3.261l3.979-0.042
				c0.134-0.001,0.27-0.011,0.427-0.029c0.629-0.054,1.231-0.275,1.743-0.642c0.27-0.184,0.509-0.399,0.712-0.64l10.2-10.16
				l2.274-0.024c1.914-0.02,3.455-1.517,3.436-3.337C208.004,653.569,206.431,652.105,204.518,652.125L204.518,652.125z"/>
		</g>
	</g>
	<g>
		<path fill-rule="evenodd" clip-rule="evenodd" fill="#9E9E9F" d="M557.074,677.365h-22.927c-2.55,0-4.626-2.632-4.626-5.868
			v-20.742c0-3.235,2.076-5.868,4.626-5.868h22.927c2.55,0,4.63,2.633,4.63,5.868v20.742
			C561.704,674.732,559.624,677.365,557.074,677.365L557.074,677.365z M534.151,646.066c-2.04,0-3.698,2.103-3.698,4.688v20.742
			c0,2.586,1.658,4.689,3.698,4.689h22.924c2.038,0,3.698-2.103,3.698-4.689v-20.742c0-2.585-1.66-4.688-3.698-4.688H534.151
			L534.151,646.066z"/>
		<g>
			<path fill="#9E9E9F" d="M539.964,652.536c1.084,0,1.963-0.814,1.963-1.817c0-0.996-0.878-1.809-1.963-1.809
				c-1.077,0-1.955,0.813-1.955,1.809C538.009,651.722,538.887,652.536,539.964,652.536z"/>
			<path fill="#9E9E9F" d="M537.787,656.411v5.575h0.008c-0.005,0.052-0.008,0.106-0.008,0.161v8.417
				c0,0.425,0.158,0.776,0.356,0.776h1.266c0.198,0,0.356-0.352,0.356-0.776v-8.417c0-0.055-0.002-0.109-0.007-0.161h0.419
				c-0.005,0.052-0.008,0.106-0.008,0.161v2.315l1.939,4.22c0.222,0.154,1.575-0.315,1.615-0.762
				c-0.507-0.915-1.069-2.549-1.575-3.457v-2.315c0-0.055-0.003-0.109-0.008-0.161h0.008v-5.575h0.309v5.033
				c0,0.3,0.166,0.542,0.356,0.542h1.266c0.19,0,0.356-0.242,0.356-0.542v-5.033v-0.798v-1.011c0-0.828-0.681-1.509-1.504-1.509
				h-5.928c-0.831,0-1.512,0.681-1.512,1.509v1.011v0.798v5.033c0,0.3,0.158,0.542,0.356,0.542h1.267
				c0.198,0,0.356-0.242,0.356-0.542v-5.033H537.787z"/>
			<polygon fill="#9E9E9F" points="557.733,657.642 554.733,657.642 552.754,657.642 552.754,659.473 552.754,660.418 
				551.741,660.418 549.762,660.418 549.762,662.249 549.762,663.187 548.749,663.187 546.763,663.187 546.763,665.019 
				546.763,665.956 545.75,665.956 543.771,665.956 543.771,667.795 543.771,668.733 542.766,668.733 540.779,668.733 
				540.779,670.565 540.779,671.502 537.787,671.502 537.787,673.34 540.779,673.34 541.523,673.34 542.766,673.34 542.766,670.565 
				543.771,670.565 545.75,670.565 545.75,668.733 545.75,667.795 546.763,667.795 548.741,667.795 548.749,667.795 
				548.749,665.019 549.762,665.019 551.741,665.019 551.741,663.187 551.741,662.249 552.754,662.249 554.733,662.249 
				554.733,660.418 554.733,659.473 557.733,659.473 			"/>
		</g>
	</g>
	<g>
		<path fill-rule="evenodd" clip-rule="evenodd" fill="#9E9E9F" d="M406.314,677.624h-22.927c-2.55,0-4.626-2.632-4.626-5.868
			v-20.742c0-3.235,2.076-5.868,4.626-5.868h22.927c2.55,0,4.63,2.633,4.63,5.868v20.742
			C410.943,674.991,408.863,677.624,406.314,677.624L406.314,677.624z M383.39,646.325c-2.04,0-3.698,2.103-3.698,4.688v20.742
			c0,2.586,1.658,4.689,3.698,4.689h22.924c2.038,0,3.698-2.103,3.698-4.689v-20.742c0-2.585-1.66-4.688-3.698-4.688H383.39
			L383.39,646.325z"/>
		<g>
			<g>
				<polygon fill-rule="evenodd" clip-rule="evenodd" fill="#9E9E9F" points="393.89,648.637 393.896,649.61 394.601,648.817 
					394.601,651.074 395.086,651.06 395.105,648.915 395.813,649.633 395.808,648.59 394.855,647.715 				"/>
				<path fill-rule="evenodd" clip-rule="evenodd" fill="#9E9E9F" d="M390.898,656.877c0.072-0.352,0.473-0.682,0.911-0.805
					c1.544-0.275,2.551-0.225,4.158,0.036c0.419,0.112,0.755,0.383,0.793,0.735l0.775,2.156l2.228-1.415
					c0.58-0.258,0.936,0.275,0.544,0.727l-2.474,1.508c-0.296,0.231-0.879,0.201-1.098-0.186l-0.64-1.568
					c-0.157-0.071-0.313-0.074-0.468-0.011l-0.001,11.261c-0.213,0.492-1.146,0.49-1.291,0.006l-0.006-6.376
					c-0.338-0.082-0.412-0.082-0.748-0.001l-0.002,6.359c-0.17,0.487-1.064,0.532-1.244,0.056l0.001-11.304
					c-0.169-0.069-0.337-0.07-0.506-0.004l-0.05,4.929c-0.331,0.235-0.621,0.231-0.869-0.011L390.898,656.877L390.898,656.877z
					 M393.952,653.073c0.697,0,1.263,0.515,1.263,1.15c0,0.635-0.566,1.15-1.263,1.15c-0.697,0-1.263-0.515-1.263-1.15
					C392.689,653.588,393.255,653.073,393.952,653.073z"/>
				<polygon fill-rule="evenodd" clip-rule="evenodd" fill="#9E9E9F" points="393.89,674.131 393.896,673.158 394.601,673.951 
					394.601,671.695 395.086,671.708 395.105,673.853 395.813,673.135 395.808,674.178 394.855,675.053 				"/>
				<g>
					<rect x="406.327" y="649.983" fill-rule="evenodd" clip-rule="evenodd" fill="#9E9E9F" width="0.656" height="23.016"/>
					<rect x="382.721" y="650.203" fill-rule="evenodd" clip-rule="evenodd" fill="#9E9E9F" width="0.656" height="23.016"/>
				</g>
				<path fill-rule="evenodd" clip-rule="evenodd" fill="#9E9E9F" d="M386.491,651.474h16.721v19.82h-16.721V651.474
					L386.491,651.474z M386.819,651.794v19.18h16.065v-19.18H386.819z"/>
			</g>
		</g>
	</g>
	<g>
		<path fill-rule="evenodd" clip-rule="evenodd" fill="#9E9E9F" d="M556.829,627.745h-22.927c-2.55,0-4.626-2.632-4.626-5.868
			v-20.742c0-3.235,2.076-5.868,4.626-5.868h22.927c2.55,0,4.63,2.633,4.63,5.868v20.742
			C561.459,625.112,559.379,627.745,556.829,627.745L556.829,627.745z M533.906,596.446c-2.04,0-3.698,2.103-3.698,4.688v20.742
			c0,2.586,1.658,4.689,3.698,4.689h22.924c2.038,0,3.698-2.103,3.698-4.689v-20.742c0-2.585-1.66-4.688-3.698-4.688H533.906
			L533.906,596.446z"/>
		<g>
			<g>
				<path fill="#9E9E9F" d="M543.532,608.987c-0.511,0.146-1.027-0.218-1.151-0.813c-0.124-0.595,0.19-1.195,0.702-1.34
					c0.511-0.146,1.027,0.218,1.151,0.813C544.358,608.241,544.043,608.841,543.532,608.987z"/>
				<path fill="#9E9E9F" d="M540.931,612.414h1.617l0.018-2.818l2.593-0.874l1.749,0.073l2.011,1.661c0,0,0.41,0.59-0.054,0.912
					c-0.521,0.362-0.975-0.195-1.133-0.331l-1.391-1.2l-0.369,0.075l0.045,0.236l2.003,2.989l0.645,2.517l3.045,0.004
					c0.688-0.188,0.937,1.379,0.124,1.613l-3.823,0.056c0,0-0.401,0.095-0.606-0.68c-0.204-0.775-0.822-2.213-0.822-2.213
					c-0.029,0.141-0.864,1.051-1.117,1.705c-0.177,1.633-0.035,3.86-0.117,4.258c-0.124,0.604-0.649,0.69-0.982,0.494
					c-0.294-0.174-0.413-0.566-0.331-1.048l-0.156-4.029l1.154-1.833l-1.449-2.199v1.811l-0.001,0l0,0.031l-0.884,0.021
					c-0.035,0.002-0.071-0.002-0.108-0.01h-1.659c-0.288,0-0.522-0.273-0.522-0.61C540.409,612.687,540.643,612.414,540.931,612.414
					z"/>
			</g>
			<rect x="536.571" y="602.026" fill-rule="evenodd" clip-rule="evenodd" fill="#9E9E9F" width="17.592" height="1.458"/>
			<rect x="536.571" y="602.985" fill-rule="evenodd" clip-rule="evenodd" fill="#9E9E9F" width="2.896" height="17.583"/>
			<rect x="552.342" y="603.401" fill-rule="evenodd" clip-rule="evenodd" fill="#9E9E9F" width="1.821" height="17.583"/>
		</g>
	</g>
	<rect x="156.899" y="60.549" fill="#B595C6" stroke="#FFFFFF" stroke-miterlimit="10" width="134.855" height="106"/>
	<rect x="516.567" y="60.549" fill="#85937B" stroke="#FFFFFF" stroke-miterlimit="10" width="125.514" height="106"/>
	<rect x="531.313" y="266.272" fill="#ADAEBF" stroke="#FFFFFF" stroke-miterlimit="10" width="110.769" height="101.277"/>
	<rect x="535.088" y="443.355" fill="#B5C69E" stroke="#FFFFFF" stroke-miterlimit="10" width="106.993" height="126.194"/>
	<rect x="334.526" y="460.549" fill="#8CAFA8" stroke="#FFFFFF" stroke-miterlimit="10" width="101.555" height="86.402"/>
	<rect x="156.899" y="276.549" fill="#9E8F74" stroke="#FFFFFF" stroke-miterlimit="10" width="86.182" height="270.402"/>
	<rect x="312.197" y="215.118" fill="#FFFFFF" width="165" height="153.431"/>
	<polyline fill="none" stroke="#2D52EA" stroke-miterlimit="10" points="288.872,233.951 270.088,233.951 270.088,489.406 
		226.361,489.406 	"/>
	<polygon fill="#2D52EA" points="284.185,144.519 289.169,159.186 279.201,159.186 	"/>
	<polygon fill="#2D52EA" points="270.088,198.65 275.072,183.983 265.104,183.983 	"/>
	<polygon fill="#2D52EA" points="212.366,489.406 227.033,494.39 227.033,484.422 	"/>
	<g>
		<g>
			<path fill-rule="evenodd" clip-rule="evenodd" fill="#636363" d="M468.954,475.392c0.642,0,1.161-0.523,1.161-1.151
				c0-0.642-0.519-1.154-1.161-1.154c-0.642,0-1.164,0.512-1.164,1.154C467.79,474.869,468.312,475.392,468.954,475.392
				L468.954,475.392z M475.774,483.261l-1.982-3.386c-0.123-0.203-0.339-0.319-0.561-0.327h-2.959l0.005-1.035h2.13
				c0.288-0.017,0.525-0.217,0.525-0.508c0-0.288-0.23-0.544-0.525-0.555h-2.175l-0.074-0.806c-0.044-0.604-0.568-1.076-1.186-1.045
				c-0.621,0.035-1.091,0.564-1.059,1.175l0.204,3.491c0.05,0.613,0.568,1.133,1.182,1.133h3.771l1.54,2.553
				c0.182,0.298,0.61,0.422,0.933,0.229C475.862,483.991,475.957,483.594,475.774,483.261L475.774,483.261z M469.701,485.264
				c-1.908,0-3.456-1.526-3.456-3.417c0-1.035,0.475-1.957,1.212-2.586l-0.063-1.069c-1.235,0.764-2.063,2.108-2.063,3.655
				c0,2.386,1.954,4.326,4.369,4.326c1.777,0,3.296-1.06,3.978-2.568l-0.614-1.052C472.736,484.1,471.361,485.264,469.701,485.264
				L469.701,485.264z"/>
		</g>
		<path fill-rule="evenodd" clip-rule="evenodd" fill="#636363" d="M476.581,488.916h-13.11c-1.458,0-2.645-1.505-2.645-3.356V473.7
			c0-1.85,1.187-3.356,2.645-3.356h13.11c1.458,0,2.647,1.506,2.647,3.356v11.861C479.229,487.411,478.039,488.916,476.581,488.916
			L476.581,488.916z M463.473,471.019c-1.166,0-2.115,1.203-2.115,2.681v11.861c0,1.479,0.948,2.681,2.115,2.681h13.108
			c1.165,0,2.114-1.203,2.114-2.681V473.7c0-1.478-0.949-2.681-2.114-2.681H463.473L463.473,471.019z"/>
	</g>
	<g>
		<g>
			<path fill-rule="evenodd" clip-rule="evenodd" fill="#636363" d="M520.983,509.721c0.642,0,1.161-0.523,1.161-1.151
				c0-0.642-0.519-1.154-1.161-1.154c-0.642,0-1.164,0.512-1.164,1.154C519.818,509.198,520.341,509.721,520.983,509.721
				L520.983,509.721z M527.803,517.59l-1.982-3.386c-0.123-0.203-0.339-0.319-0.561-0.327H522.3l0.005-1.035h2.13
				c0.288-0.017,0.525-0.217,0.525-0.508c0-0.288-0.23-0.544-0.525-0.555h-2.175l-0.074-0.806c-0.044-0.604-0.568-1.076-1.186-1.045
				c-0.621,0.035-1.091,0.564-1.06,1.175l0.204,3.491c0.05,0.613,0.568,1.133,1.182,1.133h3.771l1.54,2.553
				c0.182,0.298,0.61,0.422,0.933,0.229C527.891,518.32,527.985,517.923,527.803,517.59L527.803,517.59z M521.73,519.593
				c-1.908,0-3.456-1.526-3.456-3.417c0-1.035,0.475-1.957,1.212-2.586l-0.063-1.069c-1.235,0.764-2.063,2.108-2.063,3.655
				c0,2.386,1.954,4.326,4.369,4.326c1.777,0,3.296-1.06,3.978-2.568l-0.614-1.052C524.765,518.429,523.39,519.593,521.73,519.593
				L521.73,519.593z"/>
		</g>
		<path fill-rule="evenodd" clip-rule="evenodd" fill="#636363" d="M528.61,523.245H515.5c-1.458,0-2.645-1.505-2.645-3.356v-11.861
			c0-1.85,1.187-3.356,2.645-3.356h13.11c1.458,0,2.647,1.506,2.647,3.356v11.861C531.257,521.74,530.068,523.245,528.61,523.245
			L528.61,523.245z M515.502,505.348c-1.166,0-2.115,1.203-2.115,2.681v11.861c0,1.479,0.948,2.681,2.115,2.681h13.108
			c1.165,0,2.114-1.203,2.114-2.681v-11.861c0-1.478-0.949-2.681-2.114-2.681H515.502L515.502,505.348z"/>
	</g>
	<g>
		<path fill-rule="evenodd" clip-rule="evenodd" fill="#636363" d="M508.172,523.237l-14.868-0.034
			c-1.654-0.004-2.996-1.524-2.992-3.39l0.028-11.957c0.004-1.865,1.354-3.38,3.007-3.376l14.868,0.034
			c1.653,0.004,2.999,1.525,2.994,3.39l-0.028,11.957C511.178,521.727,509.826,523.241,508.172,523.237L508.172,523.237z
			 M493.348,505.161c-1.323-0.003-2.401,1.207-2.404,2.697l-0.028,11.957c-0.003,1.491,1.069,2.706,2.392,2.709l14.865,0.034
			c1.321,0.003,2.401-1.207,2.404-2.698l0.028-11.957c0.003-1.49-1.07-2.705-2.392-2.708L493.348,505.161L493.348,505.161z"/>
		<path fill-rule="evenodd" clip-rule="evenodd" fill="#636363" d="M503.058,516.674l1.148,0.003l-0.009,3.769
			c-0.001,0.255,0.282,0.52,0.501,0.461c0.234-0.063,0.382-0.251,0.386-0.521l0.057-3.707l0.265,0.001l-0.009,3.769
			c0,0.141,0.011,0.224,0.116,0.324c0.096,0.09,0.267,0.109,0.387,0.082c0.156-0.038,0.277-0.23,0.278-0.407l0.009-3.766
			l1.147,0.003l-1.136-4.531c-0.027-0.086-0.047-0.141-0.003-0.23c0.025-0.055,0.065-0.089,0.11-0.122
			c0.037,0,0.072,0.003,0.109,0.017c0.058,0.023,0.106,0.059,0.151,0.103l0.722,2.766c0.047,0.072,0.094,0.128,0.164,0.167
			c0.134,0.076,0.311,0.079,0.423-0.046c0.114-0.133,0.136-0.299,0.09-0.471l-0.825-2.943c-0.056-0.203-0.264-0.494-0.414-0.65
			c-0.243-0.248-0.705-0.446-1.044-0.413l-1.202,0.116c-0.18,0.019-0.359,0.055-0.53,0.129c-0.261,0.111-0.392,0.279-0.538,0.559
			c-0.073,0.138-0.095,0.275-0.134,0.427l-0.737,2.818c-0.035,0.131-0.045,0.255,0.03,0.375c0.083,0.136,0.229,0.206,0.372,0.159
			c0.103-0.031,0.188-0.122,0.222-0.236l0.84-2.703c0.02-0.059,0.039-0.1,0.094-0.116c0.061-0.022,0.138-0.016,0.17,0.05
			c0.029,0.065,0.017,0.117,0,0.18L503.058,516.674L503.058,516.674L503.058,516.674z"/>
		<path fill-rule="evenodd" clip-rule="evenodd" fill="#636363" d="M494.523,515.303l0.008-3.411l0.315,0.001l-0.019,8.292
			c0,0.18,0.121,0.369,0.256,0.455c0.175,0.111,0.378,0.092,0.543-0.032c0.137-0.1,0.242-0.291,0.242-0.477l0.011-4.826l0.315,0.001
			l-0.011,4.826c0,0.194,0.098,0.391,0.24,0.494c0.182,0.133,0.406,0.112,0.576-0.029c0.123-0.103,0.23-0.286,0.23-0.463
			l0.019-8.175l0.312,0.001l-0.008,3.288l0.727,0.002l0.008-3.468c0.001-0.35-0.103-0.68-0.309-0.942
			c-0.179-0.225-0.55-0.47-0.833-0.471l-2.193-0.005c-0.207,0-0.418,0.079-0.596,0.193c-0.197,0.127-0.367,0.315-0.479,0.537
			c-0.075,0.146-0.181,0.391-0.181,0.557l-0.008,3.65L494.523,515.303L494.523,515.303L494.523,515.303z"/>
		<path fill-rule="evenodd" clip-rule="evenodd" fill="#636363" d="M496.051,510.073c0.406-0.013,0.797-0.315,0.934-0.753
			c0.156-0.488,0.022-1.066-0.356-1.372c-0.423-0.342-0.954-0.279-1.319,0.138c-0.341,0.394-0.39,0.987-0.124,1.443
			C495.368,509.844,495.711,510.083,496.051,510.073L496.051,510.073L496.051,510.073z"/>
		<path fill-rule="evenodd" clip-rule="evenodd" fill="#636363" d="M505.156,510.152c0.399-0.004,0.716-0.195,0.897-0.608
			c0.208-0.479,0.047-1.029-0.343-1.314c-0.389-0.292-0.865-0.249-1.2,0.125c-0.336,0.374-0.374,0.949-0.106,1.376
			C504.58,510.006,504.858,510.157,505.156,510.152L505.156,510.152L505.156,510.152z"/>
		<polygon fill-rule="evenodd" clip-rule="evenodd" fill="#636363" points="499.913,506.453 500.516,506.454 500.481,521.444 
			499.879,521.443 499.913,506.453 		"/>
	</g>
	<g>
		<g>
			<path fill-rule="evenodd" clip-rule="evenodd" fill="#636363" d="M212.788,178.263c0.642,0,1.161-0.523,1.161-1.151
				c0-0.642-0.519-1.154-1.161-1.154c-0.642,0-1.164,0.512-1.164,1.154C211.623,177.74,212.146,178.263,212.788,178.263
				L212.788,178.263z M219.608,186.132l-1.982-3.386c-0.123-0.203-0.339-0.319-0.561-0.327h-2.959l0.005-1.035h2.13
				c0.288-0.017,0.525-0.217,0.525-0.508c0-0.288-0.23-0.544-0.525-0.555h-2.175l-0.074-0.806c-0.044-0.604-0.568-1.076-1.186-1.045
				c-0.621,0.035-1.091,0.564-1.06,1.175l0.204,3.491c0.05,0.613,0.568,1.133,1.182,1.133h3.771l1.54,2.553
				c0.182,0.298,0.61,0.422,0.933,0.229C219.695,186.862,219.79,186.465,219.608,186.132L219.608,186.132z M213.535,188.135
				c-1.908,0-3.456-1.526-3.456-3.417c0-1.035,0.475-1.957,1.212-2.586l-0.063-1.069c-1.235,0.764-2.063,2.108-2.063,3.655
				c0,2.386,1.954,4.326,4.369,4.326c1.777,0,3.296-1.06,3.978-2.568l-0.614-1.052C216.57,186.971,215.195,188.135,213.535,188.135
				L213.535,188.135z"/>
		</g>
		<path fill-rule="evenodd" clip-rule="evenodd" fill="#636363" d="M220.415,191.787h-13.11c-1.458,0-2.645-1.505-2.645-3.356
			v-11.861c0-1.85,1.187-3.356,2.645-3.356h13.11c1.458,0,2.647,1.506,2.647,3.356v11.861
			C223.062,190.282,221.873,191.787,220.415,191.787L220.415,191.787z M207.307,173.89c-1.166,0-2.115,1.203-2.115,2.681v11.861
			c0,1.479,0.948,2.681,2.115,2.681h13.108c1.165,0,2.114-1.203,2.114-2.681v-11.861c0-1.478-0.949-2.681-2.114-2.681H207.307
			L207.307,173.89z"/>
	</g>
	<g>
		<path fill-rule="evenodd" clip-rule="evenodd" fill="#636363" d="M199.977,191.78l-14.868-0.034
			c-1.654-0.004-2.996-1.524-2.992-3.39l0.028-11.957c0.004-1.865,1.354-3.38,3.007-3.376l14.868,0.034
			c1.653,0.004,2.999,1.525,2.994,3.39l-0.028,11.957C202.983,190.269,201.63,191.783,199.977,191.78L199.977,191.78z
			 M185.153,173.703c-1.323-0.003-2.401,1.207-2.404,2.697l-0.028,11.957c-0.003,1.491,1.069,2.706,2.392,2.709l14.865,0.034
			c1.321,0.003,2.401-1.207,2.404-2.698l0.028-11.957c0.003-1.49-1.07-2.705-2.392-2.708L185.153,173.703L185.153,173.703z"/>
		<path fill-rule="evenodd" clip-rule="evenodd" fill="#636363" d="M194.863,185.216l1.148,0.003l-0.009,3.769
			c-0.001,0.255,0.282,0.52,0.501,0.461c0.234-0.063,0.382-0.251,0.386-0.521l0.057-3.707l0.265,0.001l-0.009,3.769
			c0,0.141,0.011,0.224,0.116,0.324c0.096,0.09,0.267,0.11,0.387,0.082c0.156-0.038,0.277-0.23,0.278-0.407l0.009-3.766l1.147,0.003
			l-1.136-4.531c-0.027-0.086-0.047-0.141-0.003-0.23c0.025-0.055,0.065-0.089,0.11-0.122c0.037,0,0.072,0.003,0.109,0.017
			c0.058,0.023,0.106,0.059,0.151,0.103l0.722,2.766c0.047,0.072,0.094,0.128,0.165,0.167c0.134,0.076,0.311,0.079,0.423-0.046
			c0.114-0.133,0.136-0.299,0.09-0.471l-0.825-2.943c-0.056-0.203-0.264-0.494-0.414-0.65c-0.243-0.248-0.705-0.446-1.044-0.413
			l-1.202,0.116c-0.18,0.019-0.359,0.055-0.53,0.129c-0.261,0.111-0.392,0.279-0.538,0.559c-0.073,0.138-0.095,0.275-0.134,0.427
			l-0.737,2.818c-0.035,0.131-0.045,0.255,0.03,0.375c0.083,0.136,0.229,0.206,0.372,0.159c0.103-0.031,0.188-0.122,0.222-0.236
			l0.84-2.703c0.02-0.059,0.039-0.1,0.094-0.116c0.061-0.022,0.138-0.016,0.17,0.05c0.029,0.065,0.017,0.117,0,0.18L194.863,185.216
			L194.863,185.216L194.863,185.216z"/>
		<path fill-rule="evenodd" clip-rule="evenodd" fill="#636363" d="M186.328,183.845l0.008-3.411l0.315,0.001l-0.019,8.292
			c0,0.18,0.121,0.369,0.256,0.455c0.175,0.111,0.378,0.092,0.543-0.032c0.137-0.1,0.242-0.291,0.242-0.477l0.011-4.826l0.315,0.001
			l-0.011,4.826c0,0.194,0.098,0.391,0.24,0.494c0.182,0.133,0.406,0.112,0.576-0.029c0.123-0.103,0.23-0.286,0.23-0.463
			l0.019-8.175l0.312,0.001l-0.008,3.288l0.727,0.002l0.008-3.468c0.001-0.35-0.103-0.68-0.309-0.942
			c-0.179-0.225-0.55-0.47-0.833-0.471l-2.193-0.005c-0.207,0-0.418,0.079-0.596,0.193c-0.197,0.127-0.367,0.315-0.479,0.537
			c-0.075,0.146-0.181,0.391-0.181,0.557l-0.008,3.65L186.328,183.845L186.328,183.845L186.328,183.845z"/>
		<path fill-rule="evenodd" clip-rule="evenodd" fill="#636363" d="M187.856,178.616c0.406-0.013,0.797-0.315,0.934-0.753
			c0.156-0.488,0.022-1.066-0.356-1.372c-0.423-0.342-0.954-0.279-1.319,0.138c-0.34,0.394-0.39,0.987-0.124,1.443
			C187.172,178.386,187.516,178.626,187.856,178.616L187.856,178.616L187.856,178.616z"/>
		<path fill-rule="evenodd" clip-rule="evenodd" fill="#636363" d="M196.961,178.694c0.399-0.004,0.716-0.195,0.897-0.608
			c0.208-0.479,0.047-1.029-0.343-1.314c-0.389-0.292-0.865-0.249-1.2,0.125c-0.336,0.374-0.374,0.949-0.106,1.376
			C196.385,178.549,196.663,178.699,196.961,178.694L196.961,178.694L196.961,178.694z"/>
		<polygon fill-rule="evenodd" clip-rule="evenodd" fill="#636363" points="191.718,174.995 192.321,174.997 192.286,189.987 
			191.684,189.985 191.718,174.995 		"/>
	</g>
	<g>
		<path fill-rule="evenodd" clip-rule="evenodd" fill="#636363" d="M297.617,266.024l-16.648,0.177
			c-1.852,0.02-3.379-1.876-3.404-4.225l-0.16-15.061c-0.025-2.349,1.462-4.277,3.314-4.297l16.648-0.177
			c1.851-0.02,3.382,1.877,3.407,4.226l0.16,15.061C300.958,264.077,299.468,266.004,297.617,266.024L297.617,266.024z
			 M280.731,243.474c-1.481,0.016-2.669,1.556-2.649,3.433l0.16,15.061c0.02,1.878,1.24,3.392,2.721,3.376l16.645-0.177
			c1.48-0.016,2.669-1.556,2.649-3.433l-0.16-15.061c-0.02-1.877-1.241-3.391-2.721-3.376L280.731,243.474L280.731,243.474z"/>
		<g>
			<path fill="#636363" d="M288.872,248.494c0.007,0.615-0.499,1.118-1.129,1.125c-0.63,0.007-1.146-0.486-1.153-1.101
				c-0.007-0.615,0.499-1.118,1.129-1.125C288.349,247.386,288.865,247.879,288.872,248.494z"/>
			<path fill="#636363" d="M288.877,251.364l-0.005-0.481c-0.006-0.601-0.511-1.083-1.127-1.076c-0.616,0.007-1.11,0.499-1.104,1.1
				l0.027,2.553c0,0.033,0.003,0.066,0.006,0.099L288.877,251.364z"/>
			<path fill="#636363" d="M296.246,248.911c0.97-0.01,1.765,0.721,1.774,1.633c0.01,0.912-0.769,1.66-1.739,1.67l-1.968,0.021
				l-7.654,7.624c-0.109,0.135-0.241,0.254-0.39,0.355c-0.27,0.195-0.582,0.305-0.899,0.33c-0.079,0.009-0.158,0.016-0.24,0.017
				l-2.889,0.031c-1.047,0.011-1.904-0.719-1.914-1.632c-0.01-0.912,0.832-1.661,1.879-1.672l2.319-0.025l7.828-7.797
				c0.011-0.01,0.022-0.019,0.033-0.029c0.002-0.002,0.005-0.004,0.007-0.007c0.036-0.034,0.073-0.066,0.111-0.097
				c0.017-0.013,0.035-0.026,0.052-0.038c0.026-0.019,0.051-0.039,0.078-0.056c0.036-0.024,0.074-0.045,0.112-0.067
				c0.009-0.005,0.018-0.011,0.026-0.016c0.252-0.135,0.542-0.215,0.852-0.218L296.246,248.911 M296.238,248.166l-2.622,0.028
				c-0.424,0.005-0.843,0.112-1.213,0.311c-0.016,0.009-0.031,0.017-0.046,0.026c-0.045,0.025-0.097,0.056-0.152,0.092
				c-0.031,0.02-0.062,0.043-0.094,0.067l-0.015,0.011l-0.015,0.011c-0.021,0.015-0.042,0.031-0.063,0.047
				c-0.047,0.038-0.096,0.08-0.152,0.132l-0.006,0.005l-0.002,0.002c-0.019,0.017-0.036,0.032-0.053,0.049l-7.607,7.577
				l-2.002,0.021c-1.467,0.016-2.648,1.103-2.634,2.425c0.014,1.321,1.219,2.384,2.685,2.368l2.889-0.031
				c0.098-0.001,0.196-0.008,0.31-0.021c0.457-0.039,0.894-0.2,1.266-0.466c0.196-0.133,0.369-0.29,0.517-0.465l7.407-7.378
				l1.651-0.018c1.39-0.015,2.509-1.102,2.495-2.423S297.628,248.152,296.238,248.166L296.238,248.166z"/>
		</g>
	</g>
	<g>
		<path fill-rule="evenodd" clip-rule="evenodd" fill="#636363" d="M221.954,261.744h-15.507c-1.725,0-3.129-1.78-3.129-3.969
			v-14.029c0-2.188,1.404-3.969,3.129-3.969h15.507c1.725,0,3.131,1.781,3.131,3.969v14.029
			C225.085,259.964,223.679,261.744,221.954,261.744L221.954,261.744z M206.449,240.575c-1.38,0-2.501,1.422-2.501,3.171v14.029
			c0,1.749,1.122,3.172,2.501,3.172h15.505c1.378,0,2.501-1.423,2.501-3.172v-14.029c0-1.748-1.123-3.171-2.501-3.171H206.449
			L206.449,240.575z"/>
		<g>
			<path fill="#636363" d="M210.381,244.951c0.733,0,1.328-0.55,1.328-1.229c0-0.674-0.594-1.224-1.328-1.224
				c-0.728,0-1.322,0.55-1.322,1.224C209.059,244.401,209.653,244.951,210.381,244.951z"/>
			<path fill="#636363" d="M208.909,247.572v3.771h0.005c-0.003,0.035-0.005,0.072-0.005,0.109v5.693
				c0,0.287,0.107,0.525,0.241,0.525h0.857c0.134,0,0.241-0.238,0.241-0.525v-5.693c0-0.037-0.002-0.074-0.005-0.109h0.283
				c-0.003,0.035-0.005,0.072-0.005,0.109v1.566l1.312,2.854c0.15,0.104,1.065-0.213,1.092-0.516
				c-0.343-0.619-0.723-1.724-1.065-2.339v-1.566c0-0.037-0.002-0.074-0.005-0.109h0.005v-3.771h0.209v3.404
				c0,0.203,0.112,0.367,0.241,0.367h0.857c0.129,0,0.241-0.164,0.241-0.367v-3.404v-0.54v-0.684c0-0.56-0.46-1.021-1.017-1.021
				h-4.01c-0.562,0-1.022,0.461-1.022,1.021v0.684v0.54v3.404c0,0.203,0.107,0.367,0.241,0.367h0.857
				c0.134,0,0.241-0.164,0.241-0.367v-3.404H208.909z"/>
			<polygon fill="#636363" points="222.4,248.404 220.371,248.404 219.032,248.404 219.032,249.643 219.032,250.282 
				218.347,250.282 217.009,250.282 217.009,251.521 217.009,252.155 216.324,252.155 214.98,252.155 214.98,253.394 
				214.98,254.028 214.295,254.028 212.956,254.028 212.956,255.272 212.956,255.906 212.276,255.906 210.933,255.906 
				210.933,257.145 210.933,257.779 208.909,257.779 208.909,259.022 210.933,259.022 211.436,259.022 212.276,259.022 
				212.276,257.145 212.956,257.145 214.295,257.145 214.295,255.906 214.295,255.272 214.98,255.272 216.318,255.272 
				216.324,255.272 216.324,253.394 217.009,253.394 218.347,253.394 218.347,252.155 218.347,251.521 219.032,251.521 
				220.371,251.521 220.371,250.282 220.371,249.643 222.4,249.643 			"/>
		</g>
	</g>
	<g>
		<path fill-rule="evenodd" clip-rule="evenodd" fill="#636363" d="M456.404,489.406h-13.4c-1.49,0-2.704-1.539-2.704-3.43v-12.123
			c0-1.891,1.213-3.43,2.704-3.43h13.4c1.49,0,2.706,1.539,2.706,3.43v12.123C459.11,487.868,457.894,489.406,456.404,489.406
			L456.404,489.406z M443.006,471.113c-1.192,0-2.161,1.229-2.161,2.74v12.123c0,1.511,0.969,2.741,2.161,2.741h13.398
			c1.191,0,2.161-1.229,2.161-2.741v-12.123c0-1.511-0.97-2.74-2.161-2.74H443.006L443.006,471.113z"/>
		<g>
			<g>
				<polygon fill-rule="evenodd" clip-rule="evenodd" fill="#636363" points="449.143,472.465 449.146,473.033 449.558,472.57 
					449.558,473.889 449.842,473.88 449.853,472.627 450.267,473.047 450.264,472.437 449.707,471.926 				"/>
				<path fill-rule="evenodd" clip-rule="evenodd" fill="#636363" d="M447.394,477.28c0.042-0.206,0.277-0.399,0.532-0.47
					c0.902-0.161,1.491-0.131,2.43,0.021c0.245,0.065,0.442,0.224,0.464,0.429l0.453,1.26l1.302-0.827
					c0.339-0.151,0.547,0.16,0.318,0.425L451.447,479c-0.173,0.135-0.514,0.117-0.642-0.109l-0.374-0.916
					c-0.092-0.041-0.183-0.043-0.273-0.006l-0.001,6.582c-0.125,0.288-0.67,0.286-0.755,0.004l-0.004-3.727
					c-0.197-0.048-0.241-0.048-0.437-0.001l-0.001,3.717c-0.099,0.285-0.622,0.311-0.727,0.033l0-6.607
					c-0.099-0.04-0.197-0.041-0.296-0.002l-0.029,2.881c-0.193,0.137-0.363,0.135-0.508-0.006L447.394,477.28L447.394,477.28z
					 M449.179,475.057c0.407,0,0.738,0.301,0.738,0.672c0,0.371-0.331,0.672-0.738,0.672c-0.407,0-0.738-0.301-0.738-0.672
					C448.441,475.358,448.771,475.057,449.179,475.057z"/>
				<polygon fill-rule="evenodd" clip-rule="evenodd" fill="#636363" points="449.143,487.365 449.146,486.796 449.558,487.26 
					449.558,485.941 449.842,485.949 449.853,487.203 450.267,486.783 450.264,487.392 449.707,487.904 				"/>
				<g>
					<rect x="456.412" y="473.251" fill-rule="evenodd" clip-rule="evenodd" fill="#636363" width="0.383" height="13.452"/>
					<rect x="442.614" y="473.379" fill-rule="evenodd" clip-rule="evenodd" fill="#636363" width="0.383" height="13.452"/>
				</g>
				<path fill-rule="evenodd" clip-rule="evenodd" fill="#636363" d="M444.818,474.123h9.773v11.584h-9.773V474.123L444.818,474.123
					z M445.01,474.309v11.21h9.39v-11.21H445.01z"/>
			</g>
		</g>
	</g>
	<g>
		<path fill-rule="evenodd" clip-rule="evenodd" fill="#636363" d="M253.287,216.88h-13.4c-1.49,0-2.704-1.567-2.704-3.493v-12.348
			c0-1.926,1.213-3.494,2.704-3.494h13.4c1.49,0,2.706,1.568,2.706,3.494v12.348C255.993,215.313,254.777,216.88,253.287,216.88
			L253.287,216.88z M239.889,198.248c-1.192,0-2.161,1.252-2.161,2.791v12.348c0,1.539,0.969,2.792,2.161,2.792h13.398
			c1.191,0,2.161-1.252,2.161-2.792v-12.348c0-1.539-0.97-2.791-2.161-2.791H239.889L239.889,198.248z"/>
		<g>
			<g>
				<polygon fill-rule="evenodd" clip-rule="evenodd" fill="#636363" points="246.026,199.624 246.029,200.203 246.441,199.731 
					246.441,201.075 246.725,201.066 246.736,199.789 247.149,200.217 247.147,199.596 246.59,199.075 				"/>
				<path fill-rule="evenodd" clip-rule="evenodd" fill="#636363" d="M244.277,204.529c0.042-0.209,0.277-0.406,0.532-0.479
					c0.902-0.164,1.491-0.134,2.43,0.022c0.245,0.066,0.442,0.228,0.464,0.437l0.453,1.284l1.302-0.842
					c0.339-0.154,0.547,0.163,0.318,0.433l-1.446,0.898c-0.173,0.138-0.514,0.119-0.642-0.111l-0.374-0.933
					c-0.092-0.042-0.183-0.044-0.273-0.006l-0.001,6.704c-0.125,0.293-0.67,0.292-0.755,0.004l-0.004-3.796
					c-0.197-0.049-0.241-0.049-0.437-0.001l-0.001,3.786c-0.099,0.29-0.622,0.317-0.727,0.033l0-6.729
					c-0.099-0.041-0.197-0.042-0.296-0.003l-0.029,2.934c-0.193,0.14-0.363,0.138-0.508-0.006L244.277,204.529L244.277,204.529z
					 M246.062,202.265c0.407,0,0.738,0.307,0.738,0.685c0,0.378-0.331,0.685-0.738,0.685c-0.407,0-0.738-0.307-0.738-0.685
					C245.324,202.571,245.654,202.265,246.062,202.265z"/>
				<polygon fill-rule="evenodd" clip-rule="evenodd" fill="#636363" points="246.026,214.801 246.029,214.222 246.441,214.694 
					246.441,213.35 246.725,213.359 246.736,214.636 247.149,214.208 247.147,214.829 246.59,215.35 				"/>
				<g>
					<rect x="253.295" y="200.425" fill-rule="evenodd" clip-rule="evenodd" fill="#636363" width="0.383" height="13.702"/>
					<rect x="239.497" y="200.556" fill-rule="evenodd" clip-rule="evenodd" fill="#636363" width="0.383" height="13.702"/>
				</g>
				<path fill-rule="evenodd" clip-rule="evenodd" fill="#636363" d="M241.701,201.313h9.773v11.799h-9.773V201.313L241.701,201.313
					z M241.893,201.503v11.418h9.39v-11.418H241.893z"/>
			</g>
		</g>
	</g>
	<g>
		<path fill-rule="evenodd" clip-rule="evenodd" fill="#636363" d="M232.539,216.88h-13.552c-1.507,0-2.734-1.567-2.734-3.493
			v-12.348c0-1.926,1.227-3.494,2.734-3.494h13.552c1.507,0,2.736,1.568,2.736,3.494v12.348
			C235.276,215.313,234.046,216.88,232.539,216.88L232.539,216.88z M218.99,198.248c-1.206,0-2.186,1.252-2.186,2.791v12.348
			c0,1.539,0.98,2.792,2.186,2.792h13.549c1.204,0,2.186-1.252,2.186-2.792v-12.348c0-1.539-0.981-2.791-2.186-2.791H218.99
			L218.99,198.248z"/>
		<g>
			<g>
				<path fill="#636363" d="M224.68,205.713c-0.302,0.087-0.607-0.13-0.68-0.484c-0.073-0.354,0.112-0.711,0.415-0.798
					c0.302-0.087,0.607,0.13,0.68,0.484C225.168,205.269,224.982,205.627,224.68,205.713z"/>
				<path fill="#636363" d="M223.142,207.753h0.956l0.01-1.678l1.532-0.52l1.034,0.043l1.189,0.989c0,0,0.242,0.351-0.032,0.543
					c-0.308,0.215-0.576-0.116-0.67-0.197l-0.822-0.714l-0.218,0.045l0.027,0.141l1.184,1.779l0.381,1.498l1.8,0.003
					c0.406-0.112,0.554,0.821,0.073,0.96l-2.26,0.033c0,0-0.237,0.057-0.358-0.405c-0.121-0.462-0.486-1.317-0.486-1.317
					c-0.017,0.084-0.511,0.626-0.66,1.015c-0.105,0.972-0.021,2.298-0.069,2.535c-0.074,0.359-0.384,0.411-0.581,0.294
					c-0.174-0.103-0.244-0.337-0.196-0.624l-0.092-2.399l0.682-1.091l-0.856-1.309v1.078l-0.001,0l0,0.019l-0.523,0.012
					c-0.021,0.001-0.042-0.001-0.064-0.006h-0.98c-0.17,0-0.308-0.163-0.308-0.363C222.834,207.916,222.972,207.753,223.142,207.753
					z"/>
			</g>
			<rect x="220.566" y="201.569" fill-rule="evenodd" clip-rule="evenodd" fill="#636363" width="10.398" height="0.868"/>
			<rect x="220.566" y="202.14" fill-rule="evenodd" clip-rule="evenodd" fill="#636363" width="1.712" height="10.468"/>
			<rect x="229.887" y="202.388" fill-rule="evenodd" clip-rule="evenodd" fill="#636363" width="1.077" height="10.468"/>
		</g>
	</g>
	<g>
		<path fill-rule="evenodd" clip-rule="evenodd" fill="#636363" d="M527.756,470.217h-13.552c-1.507,0-2.734-1.567-2.734-3.493
			v-12.348c0-1.926,1.227-3.494,2.734-3.494h13.552c1.507,0,2.736,1.568,2.736,3.494v12.348
			C530.492,468.649,529.263,470.217,527.756,470.217L527.756,470.217z M514.207,451.584c-1.206,0-2.186,1.252-2.186,2.791v12.348
			c0,1.539,0.98,2.792,2.186,2.792h13.549c1.204,0,2.185-1.252,2.185-2.792v-12.348c0-1.539-0.981-2.791-2.185-2.791H514.207
			L514.207,451.584z"/>
		<g>
			<g>
				<path fill="#636363" d="M519.896,459.05c-0.302,0.087-0.607-0.13-0.68-0.484c-0.073-0.354,0.112-0.711,0.415-0.798
					c0.302-0.087,0.607,0.13,0.68,0.484C520.384,458.606,520.199,458.963,519.896,459.05z"/>
				<path fill="#636363" d="M518.359,461.09h0.956l0.01-1.678l1.532-0.52l1.034,0.043l1.189,0.989c0,0,0.242,0.351-0.032,0.543
					c-0.308,0.215-0.576-0.116-0.67-0.197l-0.822-0.714l-0.218,0.045l0.027,0.141l1.184,1.779l0.381,1.498l1.8,0.003
					c0.406-0.112,0.554,0.821,0.073,0.96l-2.26,0.033c0,0-0.237,0.057-0.358-0.405c-0.121-0.462-0.486-1.317-0.486-1.317
					c-0.017,0.084-0.511,0.626-0.66,1.015c-0.105,0.972-0.021,2.298-0.069,2.535c-0.074,0.359-0.384,0.411-0.581,0.294
					c-0.174-0.103-0.244-0.337-0.196-0.624l-0.092-2.399l0.682-1.091l-0.856-1.309v1.078l-0.001,0l0,0.019l-0.523,0.012
					c-0.021,0.001-0.042-0.001-0.064-0.006h-0.98c-0.17,0-0.308-0.163-0.308-0.363S518.189,461.09,518.359,461.09z"/>
			</g>
			<rect x="515.782" y="454.906" fill-rule="evenodd" clip-rule="evenodd" fill="#636363" width="10.398" height="0.868"/>
			<rect x="515.782" y="455.477" fill-rule="evenodd" clip-rule="evenodd" fill="#636363" width="1.712" height="10.468"/>
			<rect x="525.104" y="455.725" fill-rule="evenodd" clip-rule="evenodd" fill="#636363" width="1.077" height="10.468"/>
		</g>
	</g>
	<g>
		<path fill-rule="evenodd" clip-rule="evenodd" fill="#636363" d="M509.791,189.574h-13.552c-1.507,0-2.734-1.567-2.734-3.493
			v-12.348c0-1.926,1.227-3.494,2.734-3.494h13.552c1.507,0,2.736,1.568,2.736,3.494v12.348
			C512.527,188.007,511.298,189.574,509.791,189.574L509.791,189.574z M496.242,170.942c-1.206,0-2.186,1.252-2.186,2.791v12.348
			c0,1.539,0.98,2.792,2.186,2.792h13.549c1.204,0,2.186-1.252,2.186-2.792v-12.348c0-1.539-0.981-2.791-2.186-2.791H496.242
			L496.242,170.942z"/>
		<g>
			<g>
				<path fill="#636363" d="M501.932,178.407c-0.302,0.087-0.607-0.13-0.68-0.484c-0.073-0.354,0.112-0.711,0.415-0.798
					c0.302-0.087,0.607,0.13,0.68,0.484C502.419,177.964,502.234,178.321,501.932,178.407z"/>
				<path fill="#636363" d="M500.394,180.447h0.956l0.01-1.678l1.532-0.52l1.034,0.043l1.189,0.989c0,0,0.242,0.351-0.032,0.543
					c-0.308,0.215-0.576-0.116-0.67-0.197l-0.822-0.714l-0.218,0.045l0.027,0.141l1.184,1.779l0.381,1.498l1.8,0.003
					c0.406-0.112,0.554,0.821,0.073,0.96l-2.26,0.033c0,0-0.237,0.057-0.358-0.405c-0.121-0.462-0.486-1.317-0.486-1.317
					c-0.017,0.084-0.511,0.626-0.66,1.015c-0.105,0.972-0.021,2.298-0.069,2.535c-0.074,0.359-0.384,0.411-0.581,0.294
					c-0.174-0.103-0.244-0.337-0.196-0.624l-0.092-2.399l0.682-1.091l-0.856-1.309v1.078l-0.001,0l0,0.019l-0.523,0.012
					c-0.021,0.001-0.042-0.001-0.064-0.006h-0.98c-0.17,0-0.308-0.163-0.308-0.363S500.224,180.447,500.394,180.447z"/>
			</g>
			<rect x="497.817" y="174.264" fill-rule="evenodd" clip-rule="evenodd" fill="#636363" width="10.398" height="0.868"/>
			<rect x="497.817" y="174.834" fill-rule="evenodd" clip-rule="evenodd" fill="#636363" width="1.712" height="10.468"/>
			<rect x="507.139" y="175.082" fill-rule="evenodd" clip-rule="evenodd" fill="#636363" width="1.077" height="10.468"/>
		</g>
	</g>
	<polyline fill="none" stroke="#2D52EA" stroke-miterlimit="10" points="225.764,536.951 547.76,536.951 547.76,147.951 
		312.197,147.951 312.197,185.054 284.088,185.054 284.088,152.284 	"/>
	<line fill="none" stroke="#2D52EA" stroke-miterlimit="10" x1="270.088" y1="151.853" x2="270.088" y2="188.872"/>
</g>
<g id="图层_3">
	<g>
		<path d="M384.232,287.327h4.593v-2.589h0.977v2.589h4.593v5.375h-0.928v-0.635h-3.665v4.349h-0.977v-4.349h-3.665v0.635h-0.928
			V287.327z M385.16,288.207v2.98h3.665v-2.98H385.16z M393.467,288.207h-3.665v2.98h3.665V288.207z"/>
		<path d="M401.723,284.884l0.88-0.195c0.031,0.13,0.098,0.342,0.195,0.635c0.13,0.359,0.228,0.635,0.293,0.831h4.397v0.782h-9.675
			v2.882c0,1.792-0.081,3.111-0.244,3.958c-0.13,0.815-0.439,1.662-0.928,2.541c-0.229-0.261-0.473-0.489-0.733-0.684
			c0.423-0.716,0.7-1.449,0.831-2.199c0.13-0.782,0.195-2.003,0.195-3.665v-3.615h5.228
			C402.033,285.764,401.886,285.341,401.723,284.884z M399.134,292.018c0.228,0.586,0.489,1.075,0.782,1.466
			c0.293-0.651,0.488-1.335,0.586-2.052h-2.003v-0.684l1.856-2.052h-1.808v-0.831h2.883v0.831l-1.759,1.954h1.661v0.782
			c-0.195,1.238-0.489,2.15-0.88,2.736c0.685,0.586,1.727,0.896,3.127,0.928c0.814,0,1.531,0,2.15,0
			c0.684,0,1.351-0.017,2.003-0.049c-0.033,0.228-0.131,0.521-0.293,0.879c-1.271,0-2.574,0-3.909,0
			c-1.466,0-2.639-0.359-3.518-1.075c-0.391,0.456-0.945,0.96-1.661,1.515c-0.098-0.131-0.293-0.342-0.587-0.635
			c0.032-0.033,0.098-0.098,0.196-0.195c0.716-0.554,1.204-0.993,1.466-1.319c-0.392-0.489-0.718-1.107-0.978-1.856L399.134,292.018
			z M401.772,293.19h2.297v-1.906h-2.004v-0.782h2.004v-1.661c-0.652,0.033-1.319,0.049-2.004,0.049c0-0.26-0.032-0.521-0.098-0.782
			c1.954-0.065,3.567-0.146,4.837-0.244l0.146,0.782c-0.228,0-0.554,0.017-0.977,0.049c-0.457,0.033-0.799,0.065-1.026,0.098v1.71
			H407v0.782h-2.052v1.906h2.297v0.782h-5.473V293.19z"/>
	</g>
	<g>
		<path d="M566.208,115.962c0.65,0.391,1.448,0.928,2.394,1.612l-0.635,0.782c-0.033-0.032-0.082-0.065-0.146-0.098
			c-1.011-0.749-1.728-1.253-2.15-1.515L566.208,115.962z M567.722,119.382c0.26,0.164,0.569,0.342,0.928,0.538
			c-0.488,1.206-1.043,2.655-1.661,4.349l-0.978-0.586C566.533,122.673,567.103,121.239,567.722,119.382z M566.843,112.933
			c0.488,0.326,1.254,0.912,2.297,1.759l-0.636,0.782c-0.978-0.847-1.727-1.449-2.247-1.808L566.843,112.933z M568.845,122.607
			h3.812v-7.769h-3.078v-0.879h7.329v0.879h-3.323v7.769h3.812v0.782h-8.551V122.607z"/>
		<path d="M578.129,116.744l0.587-0.684c0.65,0.489,1.27,0.977,1.856,1.466l-0.636,0.733c-0.032-0.032-0.065-0.065-0.098-0.098
			C579.122,117.51,578.552,117.037,578.129,116.744z M578.422,123.877c0.358-0.782,0.847-2.248,1.466-4.397
			c0.294,0.131,0.587,0.261,0.88,0.391c-0.098,0.261-0.244,0.717-0.439,1.368c-0.457,1.499-0.766,2.508-0.929,3.029L578.422,123.877
			z M578.618,113.617l0.586-0.635c0.911,0.717,1.579,1.287,2.003,1.71l-0.684,0.684
			C579.773,114.627,579.138,114.041,578.618,113.617z M580.719,117.672c1.075-1.237,1.971-2.866,2.688-4.886l0.83,0.293
			c-0.195,0.554-0.456,1.124-0.781,1.71h6.254v0.831h-2.883v1.808h2.59v0.831h-2.59v1.808h2.59v0.831h-2.59v1.808h3.029v0.733
			h-6.645v0.928h-0.929v-7.476c-0.131,0.261-0.342,0.603-0.635,1.026c-0.131,0.164-0.229,0.293-0.294,0.391
			C581.158,118.08,580.946,117.868,580.719,117.672z M583.211,115.62v1.808h2.735v-1.808H583.211z M583.211,118.259v1.808h2.735
			v-1.808H583.211z M583.211,120.897v1.808h2.735v-1.808H583.211z M585.409,113.177l0.781-0.488
			c0.163,0.228,0.392,0.554,0.685,0.977c0.162,0.228,0.276,0.391,0.342,0.489l-0.781,0.488
			C586.174,114.22,585.832,113.731,585.409,113.177z"/>
		<path d="M590.636,118.894c0.456-0.098,0.896-0.228,1.319-0.391v-2.687h-1.222v-0.831h1.222v-2.101h0.782v2.101h0.977v0.831h-0.977
			v2.443c0.129-0.032,0.309-0.098,0.537-0.195c0.228-0.065,0.391-0.114,0.488-0.147c0,0.261,0,0.538,0,0.831
			c-0.326,0.13-0.668,0.244-1.025,0.342v3.811c0.064,0.912-0.277,1.351-1.026,1.319c-0.424,0-0.733,0-0.929,0
			c0-0.293-0.017-0.604-0.049-0.929c0.358,0.032,0.636,0.049,0.831,0.049c0.293,0.032,0.423-0.18,0.391-0.635v-3.323
			c-0.391,0.098-0.781,0.229-1.173,0.391L590.636,118.894z M594.008,117.086h1.319v-1.808h-1.466v-0.782h1.466v-1.661h0.733v1.661
			h1.563v0.782h-1.563v1.808h1.271v0.831h-3.323V117.086z M594.056,119.333h3.127v3.909h-2.394v0.88h-0.733V119.333z
			 M594.79,120.115v2.492h1.661v-2.492H594.79z M599.627,117.331h0.782c0,0.782-0.018,1.531-0.049,2.248
			c-0.033,0.945-0.164,1.759-0.392,2.443l0.44-0.391c0.716,0.619,1.417,1.287,2.101,2.003l-0.635,0.586
			c-0.489-0.554-1.141-1.222-1.955-2.003c-0.358,0.782-1.059,1.515-2.101,2.199c-0.065-0.13-0.195-0.326-0.391-0.586
			c-0.033-0.033-0.066-0.065-0.098-0.098c1.563-0.717,2.328-2.117,2.296-4.202C599.627,118.78,599.627,118.047,599.627,117.331z
			 M597.966,115.767h1.271l0.195-1.466h-1.808v-0.782h4.739v0.782h-2.15l-0.195,1.466h2.004v6.156h-0.733v-5.375h-2.54v5.375h-0.782
			V115.767z"/>
		<path d="M603.388,117.721h1.563v-3.029h-1.661v-0.831h4.251v0.831h-1.661v3.029h1.417v0.831h-1.417v3.176
			c0.618-0.098,1.188-0.228,1.71-0.391c0,0.261,0.017,0.57,0.049,0.928c-0.326,0.066-0.961,0.195-1.905,0.391
			c-1.107,0.228-1.873,0.391-2.297,0.488l-0.244-0.879c0.098,0,0.228-0.016,0.392-0.049c0.586-0.13,1.042-0.228,1.367-0.293v-3.372
			h-1.563V117.721z M611.597,112.787c-0.033,0.033-0.065,0.098-0.098,0.195c-0.066,0.098-0.115,0.179-0.146,0.244
			c0.847,1.336,2.052,2.411,3.615,3.225c-0.033,0.033-0.065,0.082-0.098,0.146c-0.131,0.163-0.311,0.391-0.537,0.684
			c-1.466-0.944-2.623-2.036-3.47-3.274c-0.749,1.173-1.841,2.313-3.273,3.42c-0.131-0.163-0.358-0.407-0.684-0.733
			c1.726-1.107,2.947-2.459,3.664-4.055L611.597,112.787z M614.48,120.506c-1.923,1.889-4.3,3.192-7.134,3.909
			c-0.131-0.359-0.261-0.635-0.391-0.831c2.801-0.651,5.081-1.873,6.84-3.665L614.48,120.506z M607.591,118.698
			c1.466-0.749,2.688-1.612,3.665-2.589l0.684,0.586c-1.271,1.141-2.558,2.052-3.86,2.736
			C607.916,119.171,607.754,118.927,607.591,118.698z M607.786,121.044c1.791-0.814,3.339-1.84,4.642-3.079l0.733,0.586
			c-1.499,1.368-3.127,2.443-4.886,3.225c-0.033-0.064-0.115-0.195-0.245-0.391C607.932,121.223,607.851,121.109,607.786,121.044z"
			/>
	</g>
	<g>
		<path d="M553.199,311.969h0.879v9.186h-0.879V311.969z M555.3,310.797h0.88v11.482h-0.88V310.797z M556.57,314.95
			c1.173-1.237,2.052-2.654,2.639-4.25l0.879,0.293c-0.195,0.489-0.424,0.977-0.684,1.466h4.886v0.831h-5.326
			c-0.488,0.782-1.059,1.563-1.71,2.345c-0.098-0.13-0.276-0.309-0.537-0.538C556.651,315.032,556.602,314.982,556.57,314.95z
			 M557.498,316.123h6.304v6.107h-0.88v-0.831h-4.544v0.831h-0.88V316.123z M558.378,316.953v3.713h1.856v-3.713H558.378z
			 M560.088,313.533c0.456,0.326,1.091,0.864,1.905,1.612l-0.684,0.733c-0.619-0.684-1.238-1.27-1.856-1.759L560.088,313.533z
			 M562.922,316.953h-1.856v3.713h1.856V316.953z"/>
		<path d="M565.56,311.872h4.104v9.577h-0.928v-0.929h-2.199v1.026h-0.977V311.872z M566.537,312.751v2.98h2.199v-2.98H566.537z
			 M566.537,316.562v3.078h2.199v-3.078H566.537z M574.257,310.699h0.929v2.638h1.661v0.879h-1.661v6.254
			c0.064,1.107-0.488,1.645-1.661,1.613c-0.164,0-0.489,0.016-0.978,0.049c-0.456,0-0.75,0-0.879,0
			c-0.033-0.196-0.099-0.505-0.196-0.929c-0.032-0.065-0.049-0.114-0.049-0.146c0.228,0.032,0.863,0.049,1.906,0.049
			c0.684,0.065,0.993-0.211,0.928-0.831v-6.059h-4.202v-0.879h4.202V310.699z M571.374,315.341c0.294,0.554,0.766,1.482,1.417,2.785
			c-0.293,0.098-0.603,0.261-0.928,0.489c-0.521-1.173-0.962-2.117-1.319-2.834L571.374,315.341z"/>
		<path d="M584.273,320.422c0,0.164,0,0.44,0,0.831c-0.098,0.032-0.245,0.081-0.44,0.147c-0.879,0.293-1.434,0.488-1.661,0.586
			c-0.195,0.065-0.488,0.179-0.879,0.342l-0.538-0.684c0.228-0.098,0.325-0.391,0.293-0.879v-2.59h-1.367
			c-0.066,1.597-0.538,2.98-1.417,4.153c-0.033-0.033-0.082-0.098-0.146-0.195c-0.229-0.261-0.408-0.44-0.538-0.538
			c0.521-0.619,0.863-1.319,1.026-2.101c0.162-0.716,0.244-1.873,0.244-3.469v-4.74h9.674v2.736h-8.794v1.563
			c0,0.684,0,1.303,0,1.856h2.442v-1.319h-1.954v-0.782h1.954v-1.026h0.831v1.026h2.442v-1.026h0.88v1.026h2.247v0.782h-2.247v1.319
			h2.785v0.733h-4.984c0.358,0.619,0.782,1.141,1.271,1.563c0.521-0.26,1.222-0.618,2.102-1.075
			c0.162-0.098,0.276-0.163,0.342-0.195l0.488,0.733c-0.261,0.13-0.994,0.473-2.198,1.026c0.716,0.424,1.791,0.749,3.225,0.977
			c-0.163,0.163-0.375,0.44-0.636,0.831c-2.703-0.586-4.543-1.873-5.521-3.86h-1.271v2.932c0.065-0.033,0.244-0.082,0.537-0.146
			C583.116,320.797,583.719,320.618,584.273,320.422z M579.729,312.067v1.173h7.915v-1.173H579.729z M583.003,316.123v1.319h2.442
			v-1.319H583.003z"/>
		<path d="M592.384,315.487c0,1.825-0.115,3.16-0.343,4.006c-0.195,0.913-0.618,1.824-1.27,2.736
			c-0.229-0.164-0.506-0.359-0.831-0.586c0.651-0.912,1.059-1.742,1.222-2.492c0.195-0.716,0.293-1.906,0.293-3.567v-4.055h10.31
			v0.879h-9.381V315.487z M592.872,314.413h8.893v0.831h-3.566v5.228c0.031,1.042-0.538,1.58-1.711,1.613c-0.554,0-1.123,0-1.71,0
			c0-0.033-0.017-0.115-0.049-0.245c-0.098-0.424-0.163-0.684-0.195-0.782c0.325,0.032,0.896,0.049,1.71,0.049
			c0.685,0.032,1.01-0.244,0.978-0.831v-5.032h-4.349V314.413z"/>
		<path d="M608.019,316.562c0.032-2.214,0.83-4.299,2.394-6.254h0.88c-1.499,1.955-2.248,4.04-2.248,6.254
			c-0.032,2.248,0.717,4.284,2.248,6.107h-0.929C608.866,320.878,608.084,318.842,608.019,316.562z"/>
		<path d="M615.299,320.031h11.385v0.879h-11.385V320.031z M616.178,312.263h9.674v1.026h-9.674V312.263z"/>
		<path d="M632.986,316.562c0-2.214-0.75-4.299-2.248-6.254h0.929c1.53,1.955,2.313,4.04,2.345,6.254
			c-0.065,2.28-0.847,4.316-2.345,6.107h-0.88C632.285,320.813,633.018,318.778,632.986,316.562z"/>
	</g>
	<g>
		<path d="M182.533,106.608h0.879v9.186h-0.879V106.608z M184.634,105.436h0.88v11.482h-0.88V105.436z M185.905,109.588
			c1.173-1.237,2.052-2.654,2.639-4.25l0.879,0.293c-0.195,0.489-0.424,0.977-0.684,1.466h4.886v0.831h-5.326
			c-0.488,0.782-1.059,1.563-1.71,2.345c-0.098-0.13-0.276-0.309-0.537-0.538C185.986,109.67,185.937,109.621,185.905,109.588z
			 M186.832,110.761h6.304v6.107h-0.88v-0.831h-4.544v0.831h-0.88V110.761z M187.712,111.592v3.713h1.856v-3.713H187.712z
			 M189.422,108.171c0.456,0.326,1.091,0.864,1.905,1.612l-0.684,0.733c-0.619-0.684-1.238-1.27-1.856-1.759L189.422,108.171z
			 M192.256,111.592H190.4v3.713h1.856V111.592z"/>
		<path d="M194.895,106.51h4.104v9.577h-0.928v-0.929h-2.199v1.026h-0.977V106.51z M195.871,107.39v2.98h2.199v-2.98H195.871z
			 M195.871,111.201v3.078h2.199v-3.078H195.871z M203.591,105.338h0.929v2.638h1.661v0.879h-1.661v6.254
			c0.064,1.107-0.488,1.645-1.661,1.613c-0.164,0-0.489,0.016-0.978,0.049c-0.456,0-0.75,0-0.879,0
			c-0.033-0.196-0.099-0.505-0.196-0.929c-0.032-0.065-0.049-0.114-0.049-0.146c0.228,0.032,0.863,0.049,1.906,0.049
			c0.684,0.065,0.993-0.211,0.928-0.831v-6.059h-4.202v-0.879h4.202V105.338z M200.708,109.979c0.294,0.554,0.766,1.482,1.417,2.785
			c-0.293,0.098-0.603,0.261-0.928,0.489c-0.521-1.173-0.962-2.117-1.319-2.834L200.708,109.979z"/>
		<path d="M213.608,115.061c0,0.164,0,0.44,0,0.831c-0.098,0.032-0.245,0.081-0.44,0.147c-0.879,0.293-1.434,0.488-1.661,0.586
			c-0.195,0.065-0.488,0.179-0.879,0.342l-0.538-0.684c0.228-0.098,0.325-0.391,0.293-0.879v-2.59h-1.367
			c-0.066,1.597-0.538,2.98-1.417,4.153c-0.033-0.033-0.082-0.098-0.146-0.195c-0.229-0.261-0.408-0.44-0.538-0.538
			c0.521-0.619,0.863-1.319,1.026-2.101c0.162-0.716,0.244-1.873,0.244-3.469v-4.74h9.674v2.736h-8.794v1.563
			c0,0.684,0,1.303,0,1.856h2.442v-1.319h-1.954v-0.782h1.954v-1.026h0.831v1.026h2.442v-1.026h0.88v1.026h2.247v0.782h-2.247v1.319
			h2.785v0.733h-4.984c0.358,0.619,0.782,1.141,1.271,1.563c0.521-0.26,1.222-0.618,2.102-1.075
			c0.162-0.098,0.276-0.163,0.342-0.195l0.488,0.733c-0.261,0.13-0.994,0.473-2.198,1.026c0.716,0.424,1.791,0.749,3.225,0.977
			c-0.163,0.163-0.375,0.44-0.636,0.831c-2.703-0.586-4.543-1.873-5.521-3.86h-1.271v2.932c0.065-0.033,0.244-0.082,0.537-0.146
			C212.45,115.436,213.053,115.256,213.608,115.061z M209.064,106.706v1.173h7.915v-1.173H209.064z M212.337,110.761v1.319h2.442
			v-1.319H212.337z"/>
		<path d="M221.718,110.126c0,1.825-0.115,3.16-0.343,4.006c-0.195,0.913-0.618,1.824-1.27,2.736
			c-0.229-0.164-0.506-0.359-0.831-0.586c0.651-0.912,1.059-1.742,1.222-2.492c0.195-0.716,0.293-1.906,0.293-3.567v-4.055h10.31
			v0.879h-9.381V110.126z M222.206,109.051h8.893v0.831h-3.566v5.228c0.031,1.042-0.538,1.58-1.711,1.613c-0.554,0-1.123,0-1.71,0
			c0-0.033-0.017-0.115-0.049-0.245c-0.098-0.424-0.163-0.684-0.195-0.782c0.325,0.032,0.896,0.049,1.71,0.049
			c0.685,0.032,1.01-0.244,0.978-0.831v-5.032h-4.349V109.051z"/>
		<path d="M237.354,111.201c0.032-2.214,0.83-4.299,2.394-6.254h0.88c-1.499,1.955-2.248,4.04-2.248,6.254
			c-0.032,2.248,0.717,4.284,2.248,6.107h-0.929C238.2,115.517,237.418,113.481,237.354,111.201z"/>
		<path d="M244.487,110.321h11.727v1.026h-11.727V110.321z"/>
		<path d="M262.321,111.201c0-2.214-0.75-4.299-2.248-6.254h0.929c1.53,1.955,2.313,4.04,2.345,6.254
			c-0.065,2.28-0.847,4.316-2.345,6.107h-0.88C261.619,115.452,262.353,113.417,262.321,111.201z"/>
	</g>
	<g>
		<path d="M553.949,501.969h0.879v9.186h-0.879V501.969z M556.05,500.797h0.88v11.481h-0.88V500.797z M557.32,504.95
			c1.173-1.237,2.052-2.654,2.639-4.25l0.879,0.293c-0.195,0.488-0.424,0.977-0.684,1.466h4.886v0.83h-5.326
			c-0.488,0.782-1.059,1.563-1.71,2.346c-0.098-0.13-0.276-0.31-0.537-0.538C557.401,505.032,557.352,504.983,557.32,504.95z
			 M558.248,506.123h6.304v6.107h-0.88v-0.83h-4.544v0.83h-0.88V506.123z M559.128,506.954v3.713h1.856v-3.713H559.128z
			 M560.838,503.533c0.456,0.326,1.091,0.864,1.905,1.612l-0.684,0.733c-0.619-0.684-1.238-1.271-1.856-1.759L560.838,503.533z
			 M563.672,506.954h-1.856v3.713h1.856V506.954z"/>
		<path d="M566.31,501.872h4.104v9.577h-0.928v-0.929h-2.199v1.026h-0.977V501.872z M567.287,502.751v2.98h2.199v-2.98H567.287z
			 M567.287,506.562v3.078h2.199v-3.078H567.287z M575.007,500.7h0.929v2.638h1.661v0.88h-1.661v6.254
			c0.064,1.106-0.488,1.645-1.661,1.612c-0.164,0-0.489,0.016-0.978,0.049c-0.456,0-0.75,0-0.879,0
			c-0.033-0.195-0.099-0.505-0.196-0.929c-0.032-0.065-0.049-0.114-0.049-0.146c0.228,0.032,0.863,0.049,1.906,0.049
			c0.684,0.065,0.993-0.211,0.928-0.83v-6.059h-4.202v-0.88h4.202V500.7z M572.124,505.341c0.294,0.554,0.766,1.482,1.417,2.784
			c-0.293,0.098-0.603,0.262-0.928,0.489c-0.521-1.173-0.962-2.117-1.319-2.834L572.124,505.341z"/>
		<path d="M585.023,510.422c0,0.163,0,0.439,0,0.83c-0.098,0.032-0.245,0.081-0.44,0.147c-0.879,0.293-1.434,0.488-1.661,0.586
			c-0.195,0.064-0.488,0.179-0.879,0.342l-0.538-0.684c0.228-0.098,0.325-0.392,0.293-0.88v-2.59h-1.367
			c-0.066,1.597-0.538,2.98-1.417,4.153c-0.033-0.032-0.082-0.098-0.146-0.195c-0.229-0.261-0.408-0.439-0.538-0.537
			c0.521-0.619,0.863-1.319,1.026-2.102c0.162-0.716,0.244-1.872,0.244-3.469v-4.739h9.674v2.736h-8.794v1.563
			c0,0.684,0,1.303,0,1.856h2.442v-1.319h-1.954v-0.781h1.954v-1.026h0.831v1.026h2.442v-1.026h0.88v1.026h2.247v0.781h-2.247v1.319
			h2.785v0.732h-4.984c0.358,0.619,0.782,1.141,1.271,1.563c0.521-0.26,1.222-0.618,2.102-1.074
			c0.162-0.098,0.276-0.163,0.342-0.195l0.488,0.732c-0.261,0.131-0.994,0.473-2.198,1.026c0.716,0.424,1.791,0.749,3.225,0.977
			c-0.163,0.163-0.375,0.44-0.636,0.831c-2.703-0.586-4.543-1.873-5.521-3.86h-1.271v2.932c0.065-0.032,0.244-0.081,0.537-0.146
			C583.866,510.797,584.469,510.618,585.023,510.422z M580.479,502.067v1.173h7.915v-1.173H580.479z M583.753,506.123v1.319h2.442
			v-1.319H583.753z"/>
		<path d="M593.134,505.488c0,1.824-0.115,3.159-0.343,4.006c-0.195,0.913-0.618,1.824-1.27,2.736
			c-0.229-0.163-0.506-0.358-0.831-0.586c0.651-0.912,1.059-1.742,1.222-2.492c0.195-0.716,0.293-1.905,0.293-3.566v-4.056h10.31
			v0.88h-9.381V505.488z M593.622,504.413h8.893v0.831h-3.566v5.228c0.031,1.042-0.538,1.579-1.711,1.612c-0.554,0-1.123,0-1.71,0
			c0-0.033-0.017-0.114-0.049-0.244c-0.098-0.424-0.163-0.685-0.195-0.782c0.325,0.032,0.896,0.049,1.71,0.049
			c0.685,0.032,1.01-0.244,0.978-0.83v-5.032h-4.349V504.413z"/>
		<path d="M608.769,506.562c0.032-2.214,0.83-4.299,2.394-6.254h0.88c-1.499,1.955-2.248,4.04-2.248,6.254
			c-0.032,2.248,0.717,4.284,2.248,6.107h-0.929C609.616,510.878,608.834,508.842,608.769,506.562z"/>
		<path d="M616.049,510.52h11.434v0.88h-11.434V510.52z M616.782,501.92h9.918v1.026h-9.918V501.92z M617.319,505.976h8.844v1.026
			h-8.844V505.976z"/>
		<path d="M633.736,506.562c0-2.214-0.75-4.299-2.248-6.254h0.929c1.53,1.955,2.313,4.04,2.345,6.254
			c-0.065,2.28-0.847,4.316-2.345,6.107h-0.88C633.035,510.813,633.768,508.778,633.736,506.562z"/>
	</g>
	<g>
		<path d="M349.949,501.774h4.983v0.879h-4.153v7.573h3.909v0.782h-4.739V501.774z M351.121,503.777l0.685-0.439
			c0.488,0.749,0.928,1.466,1.319,2.149c0.391-0.781,0.732-1.547,1.025-2.296l0.782,0.342c-0.521,1.205-0.961,2.118-1.319,2.736
			c0.163,0.261,0.391,0.635,0.684,1.123c0.392,0.652,0.7,1.141,0.929,1.466l-0.781,0.538c-0.164-0.325-0.424-0.798-0.782-1.417
			c-0.229-0.358-0.391-0.636-0.488-0.831c-0.424,0.814-0.863,1.597-1.319,2.346c-0.229-0.195-0.473-0.358-0.733-0.488
			c0.587-0.88,1.107-1.775,1.563-2.688c-0.163-0.293-0.423-0.717-0.781-1.271C351.577,504.461,351.318,504.038,351.121,503.777z
			 M357.375,503.826h0.88c0,0.587-0.017,1.141-0.049,1.661c0.293,2.932,1.271,4.919,2.932,5.961
			c-0.261,0.261-0.488,0.521-0.685,0.782c-1.4-1.141-2.264-2.622-2.589-4.446c-0.262,1.727-1.287,3.24-3.078,4.544
			c-0.033-0.066-0.098-0.146-0.195-0.244c-0.066-0.099-0.213-0.277-0.44-0.538c2.053-1.271,3.127-3.191,3.225-5.766
			C357.375,505.162,357.375,504.51,357.375,503.826z M359.233,505.682l0.781-2.394h-3.371c-0.293,0.912-0.635,1.808-1.026,2.688
			c-0.261-0.099-0.537-0.228-0.83-0.392c0.749-1.628,1.286-3.24,1.612-4.837l0.879,0.195c-0.098,0.489-0.228,0.978-0.391,1.466
			h4.007v0.929l-0.831,2.639c-0.098-0.032-0.229-0.081-0.391-0.147C359.477,505.764,359.33,505.715,359.233,505.682z"/>
		<path d="M362.066,501.627h5.375c-0.033-0.293-0.098-0.587-0.195-0.88l0.879-0.049c0.032,0.326,0.098,0.636,0.195,0.929h5.082
			v0.635h-11.336V501.627z M362.262,509.982c2.084-0.456,3.745-1.058,4.983-1.808l-0.342-0.293
			c-0.913,0.358-2.265,0.781-4.056,1.271c-0.131-0.261-0.277-0.505-0.439-0.733c1.856-0.358,3.306-0.749,4.348-1.173h-2.784v-0.635
			h7.524v0.635h-3.274c-0.065,0.033-0.163,0.082-0.293,0.146c-0.163,0.066-0.277,0.115-0.342,0.147
			c0.391,0.423,0.716,0.847,0.978,1.27c1.497-0.65,2.557-1.123,3.176-1.417l0.391,0.685c-0.652,0.293-1.319,0.586-2.003,0.879
			c0.749,1.108,1.872,1.76,3.371,1.955c-0.065,0.098-0.146,0.228-0.244,0.391c-0.131,0.228-0.229,0.374-0.294,0.439
			c-1.629-0.456-2.817-1.286-3.566-2.491l-0.537,0.244c0.098,0.326,0.146,0.684,0.146,1.075c0.032,1.042-0.506,1.579-1.612,1.612
			c-0.391,0-0.912,0-1.563,0c-0.033-0.262-0.098-0.538-0.195-0.831c0.032,0,0.098,0,0.195,0c0.651,0.064,1.155,0.081,1.515,0.049
			c0.586,0,0.879-0.277,0.879-0.83c0-0.13-0.032-0.325-0.098-0.587c0.065,0.163,0.065,0.131,0-0.098
			c-0.912,0.652-2.704,1.384-5.374,2.199c-0.131-0.229-0.293-0.457-0.488-0.685c2.214-0.521,4.104-1.237,5.667-2.149
			c-0.032-0.065-0.081-0.163-0.146-0.294c-0.065-0.098-0.114-0.178-0.146-0.244c-1.205,0.685-2.834,1.336-4.886,1.955
			c-0.033-0.032-0.065-0.065-0.098-0.098C362.555,510.439,362.424,510.244,362.262,509.982z M362.408,505.34h10.7v1.71h-0.831
			v-1.074h-9.039v1.074h-0.83V505.34z M363.825,502.848h7.866v1.955h-7.866V502.848z M364.656,503.484v0.684h6.205v-0.684H364.656z"
			/>
		<path d="M374.525,504.901c1.205-1.14,2.134-2.557,2.785-4.251l0.978,0.244c-0.065,0.131-0.146,0.326-0.244,0.587
			c-0.131,0.261-0.229,0.456-0.294,0.586h7.867v0.88h-4.202v2.052h4.006v0.879h-4.006v2.492h4.739v0.88h-4.739v3.078h-0.929v-3.078
			h-6.059v-0.88h1.906v-3.371h4.152v-2.052h-3.273c-0.554,0.944-1.205,1.808-1.954,2.589c-0.033-0.032-0.163-0.146-0.391-0.342
			C374.671,505.032,374.557,504.933,374.525,504.901z M377.261,505.877v2.492h3.225v-2.492H377.261z"/>
		<path d="M398.612,511.301c-0.033,0.064-0.114,0.179-0.244,0.342c-0.164,0.261-0.311,0.472-0.44,0.636
			c-2.67-0.521-4.396-1.531-5.178-3.029c-0.652,1.531-2.411,2.572-5.276,3.127c-0.164-0.262-0.359-0.555-0.587-0.88
			c2.769-0.391,4.414-1.188,4.935-2.394h-4.69v-0.831h5.033c0.098-0.293,0.162-0.603,0.195-0.929h0.928
			c-0.032,0.131-0.065,0.311-0.098,0.538c-0.065,0.163-0.098,0.293-0.098,0.391h5.326v0.831h-4.836
			C394.491,510.341,396.169,511.073,398.612,511.301z M387.961,504.363h4.349v-1.074h-5.082v-0.831h3.86
			c-0.195-0.162-0.506-0.391-0.929-0.684c-0.293-0.228-0.521-0.407-0.684-0.538l0.537-0.635c0.587,0.391,1.173,0.799,1.759,1.222
			l-0.684,0.635h3.176l-0.439-0.586c0.586-0.325,1.14-0.733,1.661-1.222l0.683,0.685c-0.619,0.488-1.156,0.863-1.612,1.123h3.762
			v0.831h-5.082v1.074h4.446v0.782h-4.446v1.124h5.326v0.83h-11.58v-0.83h5.326v-1.124h-4.349V504.363z"/>
		<path d="M399.297,510.324c2.117-1.399,3.729-3.354,4.837-5.862h-4.495v-0.831h5.18v-2.883h0.928v2.883h5.18v0.831h-4.544
			c1.14,2.442,2.752,4.283,4.837,5.521c-0.033,0.033-0.098,0.098-0.195,0.195c-0.229,0.293-0.408,0.538-0.538,0.733
			c-2.149-1.531-3.729-3.616-4.739-6.254v7.671h-0.928v-7.671c-0.945,2.638-2.558,4.771-4.837,6.4
			c-0.066-0.065-0.164-0.146-0.294-0.244C399.524,510.585,399.394,510.421,399.297,510.324z M407.016,501.383l0.685-0.538
			c0.586,0.555,1.172,1.173,1.759,1.856l-0.782,0.587c-0.098-0.098-0.228-0.244-0.391-0.44
			C407.765,502.165,407.342,501.676,407.016,501.383z"/>
		<path d="M411.804,505.243c0.716-1.237,1.222-2.688,1.515-4.349l0.929,0.195c-0.033,0.131-0.082,0.294-0.146,0.489
			c-0.066,0.358-0.195,0.798-0.392,1.319h2.199v0.732l-0.685,2.101c-0.293-0.098-0.554-0.162-0.781-0.195l0.586-1.856h-1.563
			c-0.293,0.814-0.651,1.597-1.074,2.346C412.26,505.764,412.065,505.503,411.804,505.243z M413.319,504.852h0.831v5.276
			c0.228-0.228,0.651-0.618,1.271-1.173c-0.457,0.392-0.408,0.343,0.146-0.146c0.031,0.131,0.064,0.326,0.098,0.587
			c0.064,0.163,0.098,0.293,0.098,0.391c-0.065,0.033-0.146,0.098-0.244,0.195c-0.587,0.555-1.043,0.944-1.368,1.173
			c-0.033,0.032-0.098,0.098-0.195,0.195c-0.196,0.228-0.326,0.374-0.392,0.439l-0.635-0.781c0.293-0.163,0.423-0.489,0.391-0.978
			V504.852z M419.134,500.894l0.88-0.244c0.031,0.098,0.08,0.244,0.146,0.439c0.064,0.195,0.179,0.604,0.342,1.222h2.883v1.808
			h-0.782v-1.025h-5.521v1.025h-0.831v-1.808h3.322C419.443,501.757,419.296,501.285,419.134,500.894z M416.935,504.314h5.472v2.883
			h-4.642v1.222h5.032v3.763h-0.83v-0.685h-4.202v0.782h-0.83V504.314z M417.765,505.096v1.368h3.812v-1.368H417.765z
			 M421.968,509.201h-4.202v1.612h4.202V509.201z"/>
	</g>
	<g>
		<path d="M164.415,405.959c0.228-0.325,0.602-0.911,1.123-1.759h-3.176v-0.88h3.714c0.391-0.684,0.765-1.399,1.123-2.149
			l0.929,0.391c-0.163,0.229-0.391,0.619-0.684,1.173c-0.164,0.261-0.277,0.457-0.343,0.586h6.987v0.88h-2.541
			c-0.424,1.271-1.107,2.296-2.052,3.078c0.26,0.098,0.635,0.261,1.124,0.488c0.586,0.262,1.466,0.636,2.638,1.124l-0.488,0.88
			c-0.326-0.131-0.766-0.343-1.319-0.636c-1.205-0.554-2.134-0.96-2.785-1.222c-1.238,0.782-3.029,1.434-5.374,1.955
			c-0.033-0.066-0.082-0.164-0.146-0.294c-0.065-0.098-0.18-0.325-0.342-0.684c2.116-0.293,3.762-0.765,4.935-1.417
			c-0.521-0.228-1.336-0.603-2.443-1.124C164.904,406.188,164.611,406.057,164.415,405.959z M167.347,398.63l0.83-0.488
			c0.064,0.131,0.179,0.31,0.342,0.537c0.325,0.457,0.554,0.814,0.685,1.075l-0.489,0.293h4.838v2.248h-0.929v-1.417h-8.746v1.417
			h-0.928v-2.248h5.276C167.9,399.396,167.607,398.924,167.347,398.63z M165.685,405.667c0.261,0.131,0.7,0.31,1.319,0.537
			c0.685,0.293,1.205,0.521,1.563,0.685c0.978-0.749,1.645-1.645,2.004-2.688h-4.007
			C166.272,404.689,165.979,405.178,165.685,405.667z"/>
		<path d="M174.773,405.227c0.814-0.88,1.563-2.15,2.248-3.812l0.732,0.439c-0.098,0.196-0.244,0.489-0.439,0.88
			c-0.195,0.326-0.326,0.57-0.391,0.732v6.401h-0.831v-4.984c-0.293,0.424-0.604,0.848-0.929,1.271
			C175.033,405.862,174.903,405.552,174.773,405.227z M174.919,401.464c0.88-0.911,1.612-1.986,2.199-3.225l0.732,0.488
			c-0.717,1.336-1.547,2.525-2.491,3.567C175.229,402.002,175.082,401.726,174.919,401.464z M178.438,407.035l0.635,0.439
			c-0.195,0.293-0.488,0.685-0.88,1.173c-0.163,0.195-0.276,0.342-0.342,0.439c-0.195-0.163-0.407-0.31-0.635-0.439
			c0.293-0.293,0.667-0.765,1.124-1.417C178.371,407.132,178.405,407.067,178.438,407.035z M181.075,405.178l0.587-0.343
			c0.423,0.489,0.911,1.092,1.466,1.809l-0.636,0.439c-0.032-0.065-0.081-0.163-0.146-0.293c-0.098-0.098-0.163-0.179-0.195-0.244
			c-0.424,0-0.912,0.017-1.466,0.049v1.856c0.032,0.847-0.358,1.253-1.173,1.222c-0.488,0-0.798,0-0.928,0
			c-0.033-0.229-0.082-0.521-0.146-0.88c0.325,0.064,0.602,0.098,0.83,0.098c0.456,0.032,0.667-0.163,0.636-0.586v-1.661
			c-0.489,0-0.962,0.032-1.417,0.098c-0.294,0-0.521,0.032-0.685,0.098l-0.244-0.733h0.049c0.13-0.032,0.293-0.113,0.488-0.244
			c0.587-0.293,1.173-0.667,1.76-1.124c-0.489,0-0.945,0.033-1.368,0.098c-0.326,0.033-0.521,0.066-0.587,0.098l-0.293-0.684h0.049
			c0.228-0.098,0.423-0.212,0.586-0.342c0.489-0.358,0.896-0.716,1.222-1.075h-1.515V402.1h4.495v0.732h-1.954
			c-0.521,0.488-1.059,0.929-1.612,1.319c0.521,0,1.091-0.016,1.71-0.049c0.13-0.098,0.325-0.261,0.586-0.488
			c0.163-0.163,0.276-0.276,0.343-0.343l0.635,0.44c-0.912,0.781-1.938,1.547-3.078,2.296c1.009-0.032,1.873-0.064,2.59-0.098
			c-0.033-0.064-0.098-0.146-0.195-0.244C181.336,405.471,181.205,405.308,181.075,405.178z M179.904,398.337h0.732v2.395h1.026
			v-1.661h0.781v2.345h-4.349v-2.345h0.782v1.661h1.026V398.337z M181.124,407.425l0.636-0.439c0.357,0.391,0.7,0.814,1.025,1.271
			l-0.635,0.439C181.727,408.142,181.385,407.718,181.124,407.425z M184.056,398.337l0.782,0.098
			c-0.195,0.782-0.391,1.482-0.587,2.102h2.395v0.781h-0.586c-0.196,2.443-0.555,4.251-1.075,5.424
			c0.423,0.912,0.977,1.645,1.661,2.198c-0.131,0.261-0.277,0.521-0.439,0.782c-0.782-0.815-1.336-1.531-1.661-2.15
			c-0.424,0.685-1.06,1.449-1.906,2.297c-0.13-0.195-0.293-0.408-0.488-0.636c0.944-0.847,1.612-1.677,2.003-2.491
			c-0.456-1.075-0.766-2.28-0.928-3.616c-0.131,0.359-0.293,0.685-0.489,0.978c-0.163-0.228-0.358-0.423-0.586-0.586
			C182.933,402.117,183.568,400.389,184.056,398.337z M183.909,401.611c0.032,1.661,0.244,3.029,0.636,4.104
			c0.325-0.847,0.553-2.313,0.684-4.397h-1.222C183.942,401.416,183.909,401.513,183.909,401.611z"/>
		<path d="M187.573,400.34h5.668c-0.098-0.129-0.407-0.684-0.929-1.661l0.88-0.439c0.228,0.326,0.554,0.88,0.978,1.661l-0.831,0.439
			h5.57v0.88h-2.199c-0.424,2.28-1.336,4.088-2.735,5.424c1.074,0.814,2.768,1.482,5.081,2.003c-0.065,0.13-0.146,0.309-0.244,0.537
			c-0.131,0.228-0.229,0.391-0.293,0.489c-2.509-0.815-4.268-1.613-5.277-2.395c-1.01,0.75-2.753,1.579-5.228,2.492
			c-0.195-0.359-0.375-0.668-0.538-0.929c2.378-0.684,4.056-1.417,5.033-2.198c-1.435-1.466-2.346-3.274-2.736-5.424h-2.199V400.34z
			 M193.29,406.008c1.303-1.271,2.101-2.866,2.395-4.788H190.7C191.059,403.077,191.922,404.673,193.29,406.008z"/>
		<path d="M205.359,398.484l0.781-0.342c0.032,0.098,0.114,0.244,0.244,0.439c0.228,0.457,0.358,0.733,0.392,0.831l-0.587,0.244
			h4.593v2.834h-8.696v1.417c0,1.531-0.115,2.704-0.343,3.518c-0.195,0.782-0.619,1.58-1.27,2.395
			c-0.195-0.131-0.44-0.343-0.733-0.636c0.587-0.717,0.961-1.417,1.124-2.101c0.195-0.685,0.293-1.742,0.293-3.176v-4.251h4.739
			c-0.032-0.098-0.114-0.293-0.244-0.586C205.521,398.777,205.423,398.582,205.359,398.484z M202.085,400.439v1.27h7.769v-1.27
			H202.085z M206.14,402.686l0.88-0.146c0,0.065,0.016,0.146,0.049,0.244c0.064,0.195,0.162,0.488,0.293,0.88h4.153v0.83h-6.01
			c0,0.163-0.017,0.375-0.049,0.636c0,0.261,0,0.439,0,0.537h4.837c0,0.391-0.049,1.124-0.146,2.198
			c-0.065,1.173-0.717,1.742-1.954,1.71c-0.652,0-1.222,0-1.71,0c-0.099-0.488-0.18-0.814-0.245-0.977
			c0.196,0.032,0.798,0.049,1.809,0.049c0.781,0.064,1.172-0.244,1.172-0.929c0.065-0.455,0.098-0.879,0.098-1.271h-3.957
			c-0.163,1.337-1.043,2.492-2.639,3.47c-0.098-0.195-0.293-0.457-0.586-0.782c1.042-0.586,1.693-1.173,1.954-1.759
			c0.325-0.554,0.488-1.515,0.488-2.883h-2.101v-0.83h3.958C206.335,403.37,206.238,403.044,206.14,402.686z"/>
		<path d="M213.323,399.168h10.162v10.651h-0.928v-0.733h-8.307v0.733h-0.928V399.168z M220.994,405.081c0.554,0,0.993,0,1.319,0
			l-0.146,0.928h-1.271c-1.141,0.033-1.694-0.505-1.661-1.612v-4.349h-1.71c0,0.521,0,1.011,0,1.466
			c-0.033,1.563-0.213,2.688-0.538,3.371c-0.293,0.685-0.945,1.353-1.954,2.004c-0.195-0.228-0.424-0.472-0.684-0.733
			c0.944-0.554,1.53-1.106,1.759-1.661c0.293-0.554,0.455-1.547,0.488-2.98c0-0.455,0-0.944,0-1.466h-2.346v8.258h8.307v-8.258
			h-2.395v4.3C220.098,404.902,220.375,405.146,220.994,405.081z"/>
		<path d="M226.124,404.933h4.153v-1.759h-4.544v-0.879h9.918v0.879h-4.446v1.759h4.202v0.831h-4.202v2.639h5.326v0.781H225v-0.781
			h5.277v-2.639h-4.153V404.933z M229.837,398.63l0.88-0.391c0.358,0.488,0.635,0.945,0.831,1.368l-0.538,0.293h5.131v2.003h-0.978
			v-1.123h-8.795v1.123h-0.977v-2.003h5.179c-0.033-0.064-0.098-0.179-0.195-0.342C230.147,399.136,229.967,398.826,229.837,398.63z
			 M232.671,406.644l0.685-0.538c0.423,0.391,0.896,0.912,1.417,1.563l-0.733,0.587
			C233.811,407.962,233.356,407.425,232.671,406.644z"/>
	</g>
	<g>
		<path fill="#A6A6A6" d="M221.891,660.248c0.364-0.076,1.018-0.266,1.963-0.567l-0.031-2.898l-1.75,0.019l-0.01-0.93l1.75-0.019
			l-0.028-2.625l1.039-0.011l0.028,2.625l1.641-0.018l0.01,0.93l-1.641,0.018l0.028,2.625c0.508-0.188,0.999-0.356,1.472-0.508
			c0.004,0.438,0.026,0.783,0.065,1.038c-0.4,0.113-0.909,0.283-1.526,0.509l0.042,3.938c0.083,0.983-0.386,1.48-1.406,1.491
			c-0.583,0.006-0.984,0.011-1.203,0.013c0-0.037-0.001-0.092-0.002-0.164c-0.039-0.218-0.115-0.528-0.229-0.927
			c0.109-0.002,0.31-0.004,0.602-0.007c0.292,0.033,0.511,0.049,0.657,0.048c0.365,0.032,0.545-0.152,0.541-0.553l-0.037-3.5
			c-0.254,0.076-0.636,0.208-1.145,0.395c-0.327,0.113-0.563,0.189-0.708,0.227L221.891,660.248z M229.964,653.052l1.094-0.012
			l0.025,2.352l3.335-0.036l0.01,0.93l-3.39,0.036l0.012,1.148c0.006,0.584-0.007,1.077-0.039,1.478l3.992-0.042l0.01,0.93
			l-3.773,0.04c0.573,2.4,1.866,4.046,3.88,4.936c-0.072,0.073-0.36,0.404-0.864,0.993c-1.835-1.111-3.056-2.774-3.663-4.992
			c-0.416,2.046-1.765,3.773-4.047,5.184c-0.221-0.253-0.462-0.542-0.72-0.867c2.248-1.19,3.579-2.937,3.992-5.238l-3.063,0.032
			l-0.01-0.93l3.172-0.033c0.067-0.511,0.098-1.04,0.093-1.587c-0.004-0.364-0.008-0.711-0.011-1.039l-2.844,0.03l-0.01-0.93
			l2.844-0.03C229.973,653.946,229.965,653.162,229.964,653.052z"/>
		<path fill="#A6A6A6" d="M235.796,661.522c0.932-1.504,1.607-3.152,2.026-4.943l-1.641,0.017l-0.009-0.875l1.641-0.017
			l-0.029-2.734l0.984-0.011l0.029,2.734l1.531-0.017l0.009,0.875l-1.531,0.017l0.016,1.531l0.325-0.332
			c0.221,0.181,0.534,0.487,0.939,0.92c0.258,0.253,0.442,0.433,0.552,0.541l-0.703,0.664c-0.222-0.289-0.536-0.668-0.942-1.139
			c-0.074-0.071-0.129-0.125-0.166-0.162l0.078,7.328l-0.984,0.011l-0.074-6.945c-0.387,1.354-0.885,2.508-1.495,3.461
			C236.203,662.083,236.018,661.776,235.796,661.522z M240.813,654.96l1.859-0.02c0-0.036-0.02-0.072-0.056-0.109
			c-0.372-0.688-0.706-1.177-1-1.466l0.815-0.501c0.555,0.76,0.925,1.285,1.111,1.574l-0.76,0.501l2.133-0.023
			c0.215-0.293,0.538-0.808,0.968-1.541c0.143-0.257,0.25-0.44,0.322-0.551l0.99,0.481c-0.216,0.259-0.468,0.606-0.754,1.048
			c-0.18,0.258-0.306,0.44-0.377,0.551l2.023-0.021l0.036,3.445l-3.227,0.034l0.017,1.586l3.937-0.042
			c0.002,0.219-0.013,0.511-0.045,0.876c-0.029,0.693-0.094,1.368-0.197,2.025c-0.099,0.949-0.696,1.412-1.79,1.387
			c-0.401,0.004-0.857,0.009-1.367,0.015c-0.04-0.328-0.099-0.673-0.175-1.038c0.182-0.002,0.438-0.004,0.766-0.008
			c0.329,0.033,0.565,0.049,0.711,0.047c0.547,0.031,0.837-0.173,0.869-0.61c0.069-0.329,0.136-0.895,0.201-1.698
			c0-0.036,0-0.072-0.001-0.109l-2.898,0.031l0.053,5.031l-0.93,0.01l-0.045-4.266c-1.007,1.36-2.308,2.485-3.902,3.378
			c-0.222-0.326-0.462-0.579-0.719-0.758c1.813-0.895,3.205-2.021,4.175-3.381l-2.734,0.029l0.402-3.341l2.734-0.029l-0.018-1.695
			l-3.117,0.033L240.813,654.96z M241.85,659.981l2.133-0.022l-0.017-1.586l-1.914,0.021L241.85,659.981z M247.166,655.768
			l-2.297,0.024l0.018,1.695l2.297-0.024L247.166,655.768z"/>
	</g>
	<g>
		<path fill="#A6A6A6" d="M220.855,605.185h10.773v0.93h-4.977c-0.037,1.203-0.146,2.261-0.328,3.172h6.289v0.984h-5.141v4.266
			c-0.037,0.766,0.31,1.13,1.039,1.094h1.859c0.729,0.036,1.112-0.236,1.148-0.82c0-0.146,0.018-0.346,0.055-0.602
			c0.036-0.474,0.073-0.875,0.109-1.203c0.109,0.037,0.292,0.092,0.547,0.164c0.219,0.109,0.383,0.183,0.492,0.219
			c-0.037,0.729-0.109,1.331-0.219,1.805c-0.073,1.021-0.766,1.494-2.078,1.422h-2.133c-1.276,0.036-1.896-0.602-1.859-1.914v-4.43
			h-0.328c-0.62,2.881-2.516,5.195-5.688,6.945c-0.183-0.328-0.438-0.656-0.766-0.984c2.953-1.422,4.739-3.408,5.359-5.961h-5.141
			v-0.984h5.359c0.219-0.911,0.328-1.969,0.328-3.172h-4.703V605.185z"/>
		<path fill="#A6A6A6" d="M237.918,611.748c0.255,1.678-0.146,2.644-1.203,2.898c-0.037,0-0.128,0-0.273,0
			c-0.365,0.037-0.693,0.037-0.984,0c-0.037-0.219-0.109-0.474-0.219-0.766c-0.037-0.146-0.055-0.236-0.055-0.273
			c0.036,0,0.073,0,0.109,0c0.364,0.073,0.711,0.092,1.039,0.055c0.583-0.109,0.802-0.729,0.656-1.859
			c-0.183-0.729-0.583-1.477-1.203-2.242c0.182-0.51,0.419-1.33,0.711-2.461c0.182-0.656,0.31-1.094,0.383-1.313h-1.695v11.266
			h-0.984v-12.141h3.719v0.875c-0.073,0.292-0.292,0.967-0.656,2.023c-0.219,0.766-0.383,1.295-0.492,1.586
			C237.426,610.271,237.808,611.055,237.918,611.748z M237.699,614.537h4.047v-0.984h-2.953v-4.266h6.945v4.266h-3.008v0.984h4.102
			v0.82h-4.102v1.805h-0.984v-1.805h-4.047V614.537z M241.308,604.31l0.875-0.328c0.219,0.438,0.438,0.857,0.656,1.258l-0.438,0.164
			h3.992v0.82h-6.18c0.401,0.401,0.766,0.82,1.094,1.258l-0.383,0.273h2.352c0.073-0.109,0.182-0.273,0.328-0.492
			c0.328-0.438,0.547-0.766,0.656-0.984l0.93,0.492c-0.073,0.073-0.164,0.183-0.273,0.328c-0.255,0.292-0.438,0.511-0.547,0.656
			h2.406v0.82h-9.023v-0.82h2.57c-0.255-0.4-0.529-0.747-0.82-1.039l0.602-0.492h-1.805v-0.82h3.555
			c-0.073-0.182-0.183-0.4-0.328-0.656C241.418,604.566,241.344,604.419,241.308,604.31z M239.722,610.107v0.93h5.086v-0.93H239.722
			z M239.722,611.802v0.984h5.086v-0.984H239.722z"/>
		<path fill="#A6A6A6" d="M247.926,605.294h4.703v0.875h-1.914c-0.219,0.984-0.511,1.951-0.875,2.898h2.188v7h-0.875v-0.984h-1.367
			v1.094h-0.93v-4.977c-0.219,0.438-0.456,0.857-0.711,1.258c-0.146-0.182-0.365-0.419-0.656-0.711
			c1.021-1.677,1.768-3.536,2.242-5.578h-1.805V605.294z M249.785,609.943v4.266h1.367v-4.266H249.785z M252.902,610.599h7.602
			v0.875h-1.641v1.094h1.969v0.875h-1.969v1.859c0.036,1.057-0.529,1.586-1.695,1.586c-0.766,0-1.294,0-1.586,0
			c-0.037-0.438-0.109-0.803-0.219-1.094c0.109,0,0.237,0.018,0.383,0.055c0.438,0.036,0.838,0.055,1.203,0.055
			c0.656,0.036,0.966-0.273,0.93-0.93v-1.531h-5.469v-0.875h5.469v-1.094h-4.977V610.599z M253.34,604.748h6.563v4.867h-6.563
			V604.748z M253.449,614.044l0.711-0.547c0.692,0.693,1.167,1.222,1.422,1.586l-0.82,0.492
			C254.36,615.102,253.923,614.591,253.449,614.044z M254.269,605.568v1.203h4.703v-1.203H254.269z M254.269,607.537v1.258h4.703
			v-1.258H254.269z"/>
		<path fill="#A6A6A6" d="M267.011,615.74c0.802,0.036,2.133,0.036,3.992,0c2.078,0,3.336-0.019,3.773-0.055
			c-0.109,0.291-0.237,0.638-0.383,1.039c-0.511,0.036-1.586,0.036-3.227,0c-1.896,0-3.318-0.019-4.266-0.055
			c-1.167,0-2.206-0.492-3.117-1.477c-0.365,0.292-0.912,0.875-1.641,1.75l-0.656-0.93c0.364-0.365,0.966-0.947,1.805-1.75v-4.43
			h-1.586v-0.984h2.625v5.469C264.988,615.193,265.881,615.667,267.011,615.74z M263.238,604.419
			c0.547,0.656,1.167,1.495,1.859,2.516c-0.292,0.183-0.602,0.401-0.93,0.656c-0.802-1.239-1.386-2.114-1.75-2.625L263.238,604.419z
			 M266.683,606.552l0.547-0.656c1.167,0.584,2.005,1.021,2.516,1.313l2.352-1.477h-6.344v-0.875h7.984v0.93l-3.117,1.859h3.227
			v5.852c0.036,1.058-0.456,1.604-1.477,1.641c-0.693,0.037-1.167,0.037-1.422,0c0-0.036-0.019-0.091-0.055-0.164
			c-0.037-0.438-0.091-0.729-0.164-0.875c0.036,0,0.073,0,0.109,0c0.474,0.073,0.875,0.109,1.203,0.109
			c0.62,0.037,0.911-0.273,0.875-0.93v-0.492h-2.57v2.133h-0.93v-2.133h-2.516v2.297h-0.93v-7.438h3.008
			C268.543,607.427,267.777,607.063,266.683,606.552z M266.902,608.466v1.367h2.516v-1.367H266.902z M266.902,610.654v1.313h2.516
			v-1.313H266.902z M272.918,608.466h-2.57v1.367h2.57V608.466z M270.347,610.654v1.313h2.57v-1.313H270.347z"/>
		<path fill="#A6A6A6" d="M281.449,615.794c0.948,0.036,2.242,0.055,3.883,0.055c1.458-0.037,2.625-0.073,3.5-0.109
			c-0.219,0.438-0.365,0.783-0.438,1.039c-3.609,0-5.943-0.019-7-0.055c-1.75,0.072-2.972-0.42-3.664-1.477
			c-0.365,0.291-0.875,0.856-1.531,1.695l-0.547-1.039c0.51-0.474,1.057-1.002,1.641-1.586v-4.484h-1.531v-0.984h2.516v5.578
			C278.897,615.339,279.954,615.794,281.449,615.794z M276.91,604.474c0.875,1.094,1.458,1.859,1.75,2.297l-0.875,0.602
			c-0.401-0.656-0.966-1.439-1.695-2.352L276.91,604.474z M280.136,607.865h2.734l0.219-1.148h-3.719v-0.875h2.57
			c-0.219-0.328-0.547-0.729-0.984-1.203l0.766-0.602c0.51,0.547,0.911,1.003,1.203,1.367l-0.656,0.438h2.406
			c0.328-0.4,0.729-1.002,1.203-1.805l1.039,0.547c-0.328,0.401-0.693,0.82-1.094,1.258h2.844v0.875h-4.484l-0.383,1.148h3.883
			v6.836h-7.547V607.865z M281.121,608.74v1.148h5.578v-1.148H281.121z M281.121,610.708v1.148h5.578v-1.148H281.121z
			 M281.121,612.677v1.203h5.578v-1.203H281.121z"/>
	</g>
	<g>
		<path fill="#A6A6A6" d="M427.746,654.275h1.039v1.75h4.867v7.438h-4.867v1.367c-0.073,0.656,0.328,0.966,1.203,0.93h2.625
			c0.766,0.036,1.203-0.182,1.313-0.656c0.109-0.291,0.183-0.856,0.219-1.695c0.438,0.109,0.802,0.219,1.094,0.328
			c-0.073,0.693-0.183,1.295-0.328,1.805c-0.183,0.838-0.911,1.239-2.188,1.203h-3.008c-1.386,0.072-2.042-0.547-1.969-1.859v-1.422
			h-3.883v0.93h-0.984v-8.367h4.867V654.275z M423.863,657.009v2.297h3.883v-2.297H423.863z M423.863,660.181v2.297h3.883v-2.297
			H423.863z M432.613,657.009h-3.828v2.297h3.828V657.009z M428.785,662.478h3.828v-2.297h-3.828V662.478z"/>
		<path fill="#A6A6A6" d="M436.004,662.806c0.948-1.494,1.641-3.135,2.078-4.922h-1.641v-0.875h1.641v-2.734h0.984v2.734h1.531
			v0.875h-1.531v1.531l0.328-0.328c0.219,0.183,0.528,0.492,0.93,0.93c0.255,0.256,0.438,0.438,0.547,0.547l-0.711,0.656
			c-0.219-0.291-0.528-0.674-0.93-1.148c-0.073-0.072-0.128-0.127-0.164-0.164v7.328h-0.984v-6.945
			c-0.401,1.35-0.911,2.498-1.531,3.445C436.405,663.372,436.222,663.062,436.004,662.806z M441.09,656.298h1.859
			c0-0.036-0.019-0.072-0.055-0.109c-0.364-0.692-0.692-1.185-0.984-1.477l0.82-0.492c0.547,0.766,0.911,1.295,1.094,1.586
			l-0.766,0.492h2.133c0.219-0.291,0.547-0.802,0.984-1.531c0.146-0.255,0.255-0.438,0.328-0.547l0.984,0.492
			c-0.219,0.256-0.474,0.602-0.766,1.039c-0.183,0.256-0.31,0.438-0.383,0.547h2.023v3.445h-3.227v1.586h3.938
			c0,0.219-0.019,0.511-0.055,0.875c-0.036,0.693-0.109,1.367-0.219,2.023c-0.109,0.948-0.711,1.404-1.805,1.367
			c-0.401,0-0.856,0-1.367,0c-0.036-0.328-0.091-0.674-0.164-1.039c0.183,0,0.438,0,0.766,0c0.328,0.037,0.565,0.055,0.711,0.055
			c0.547,0.037,0.839-0.164,0.875-0.602c0.073-0.328,0.146-0.893,0.219-1.695c0-0.036,0-0.072,0-0.109h-2.898v5.031h-0.93v-4.266
			c-1.021,1.35-2.333,2.461-3.938,3.336c-0.219-0.328-0.456-0.584-0.711-0.766c1.823-0.875,3.227-1.986,4.211-3.336h-2.734
			l0.438-3.336h2.734v-1.695h-3.117V656.298z M442.074,661.33h2.133v-1.586h-1.914L442.074,661.33z M447.433,657.173h-2.297v1.695
			h2.297V657.173z"/>
	</g>
	<g>
		<path fill="#A6A6A6" d="M424.491,607.864c0.692,0.512,1.458,1.094,2.297,1.75c-0.328,0.365-0.584,0.656-0.766,0.875
			c-1.131-1.02-1.859-1.641-2.188-1.859L424.491,607.864z M425.366,611.692c0.364,0.146,0.711,0.273,1.039,0.383
			c-0.073,0.256-0.183,0.748-0.328,1.477c-0.438,1.678-0.711,2.826-0.82,3.445l-1.148-0.328
			C424.582,615.247,425.001,613.588,425.366,611.692z M424.983,604.473c0.802,0.621,1.549,1.258,2.242,1.914
			c-0.292,0.293-0.547,0.547-0.766,0.766c-0.839-0.801-1.55-1.457-2.133-1.969L424.983,604.473z M431.655,604.2h1.039v2.516h3.5
			v0.93h-3.5v2.625h4.211v0.93h-3.227v3.828c-0.037,0.51,0.236,0.748,0.82,0.711h0.602c0.438,0,0.711-0.182,0.82-0.547
			c0.036-0.254,0.091-0.82,0.164-1.695c0.291,0.146,0.619,0.273,0.984,0.383c0,0.074-0.019,0.164-0.055,0.273
			c-0.037,0.656-0.092,1.113-0.164,1.367c-0.183,0.729-0.656,1.111-1.422,1.148h-1.258c-0.984,0-1.477-0.529-1.477-1.586V611.2
			h-1.914c0,2.918-1.186,4.904-3.555,5.961c-0.219-0.291-0.438-0.584-0.656-0.875c2.188-0.801,3.244-2.496,3.172-5.086h-2.625v-0.93
			h4.539v-2.625h-2.406c-0.256,0.656-0.547,1.277-0.875,1.859c-0.475-0.291-0.803-0.455-0.984-0.492
			c0.729-1.166,1.313-2.57,1.75-4.211l1.039,0.219c-0.073,0.219-0.183,0.547-0.328,0.984c-0.109,0.328-0.183,0.566-0.219,0.711
			h2.023V604.2z"/>
		<path fill="#A6A6A6" d="M438.764,606.168c0-0.328-0.037-0.674-0.109-1.039c4.083-0.072,7.729-0.236,10.938-0.492l0.164,1.094
			c-1.531,0.109-3.136,0.184-4.813,0.219v2.461h4.867v1.039h-4.867v2.352h6.016v1.094h-6.016v2.297
			c0.072,1.131-0.475,1.678-1.641,1.641c-0.438,0.037-1.186,0.055-2.242,0.055c-0.073-0.4-0.164-0.803-0.273-1.203
			c0.619,0.037,1.33,0.055,2.133,0.055c0.729,0.037,1.057-0.219,0.984-0.766v-2.078h-6.016v-1.094h6.016v-2.352h-5.086v-1.039h5.086
			v-2.406C441.535,606.079,439.821,606.133,438.764,606.168z"/>
		<path fill="#A6A6A6" d="M452.491,606.715h1.039v10.281h-1.039V606.715z M453.202,604.747l0.766-0.656
			c1.021,0.984,1.641,1.605,1.859,1.859l-0.875,0.766C454.222,605.877,453.639,605.221,453.202,604.747z M455.553,607.645h5.633
			v6.727h-5.633V607.645z M456.483,608.575v1.914h3.773v-1.914H456.483z M456.483,611.473v1.969h3.773v-1.969H456.483z
			 M456.702,605.95v-1.039h7.656v10.063c0.072,1.422-0.565,2.096-1.914,2.023c-0.511,0.037-1.186,0.037-2.023,0
			c-0.037-0.256-0.092-0.619-0.164-1.094c0.692,0.037,1.367,0.055,2.023,0.055c0.729,0.072,1.075-0.273,1.039-1.039v-8.969H456.702z
			"/>
	</g>
	<g>
		<path fill="#A6A6A6" d="M575.471,612.982c0.255-0.364,0.675-1.021,1.258-1.969h-3.555v-0.984h4.156
			c0.438-0.766,0.856-1.567,1.258-2.406l1.039,0.438c-0.183,0.256-0.438,0.693-0.766,1.313c-0.183,0.292-0.31,0.511-0.383,0.656
			h7.82v0.984h-2.844c-0.474,1.422-1.239,2.57-2.297,3.445c0.292,0.109,0.711,0.292,1.258,0.547
			c0.656,0.292,1.641,0.711,2.953,1.258l-0.547,0.984c-0.364-0.146-0.856-0.383-1.477-0.711c-1.349-0.62-2.388-1.075-3.117-1.367
			c-1.386,0.875-3.391,1.604-6.016,2.188c-0.036-0.073-0.091-0.183-0.164-0.328c-0.073-0.109-0.2-0.365-0.383-0.766
			c2.37-0.328,4.211-0.856,5.523-1.586c-0.583-0.255-1.495-0.674-2.734-1.258C576.018,613.238,575.69,613.091,575.471,612.982z
			 M578.753,604.779l0.93-0.547c0.073,0.146,0.2,0.347,0.383,0.602c0.364,0.511,0.62,0.912,0.766,1.203l-0.547,0.328h5.414v2.516
			h-1.039v-1.586h-9.789v1.586h-1.039v-2.516h5.906C579.373,605.636,579.045,605.107,578.753,604.779z M576.893,612.654
			c0.292,0.146,0.784,0.347,1.477,0.602c0.766,0.328,1.349,0.584,1.75,0.766c1.094-0.838,1.841-1.841,2.242-3.008h-4.484
			C577.55,611.56,577.221,612.107,576.893,612.654z"/>
		<path fill="#A6A6A6" d="M593.573,604.232l1.094,0.273c-0.036,0.037-0.073,0.109-0.109,0.219c-0.073,0.073-0.128,0.146-0.164,0.219
			c1.714,2.006,3.7,3.428,5.961,4.266c-0.255,0.401-0.492,0.766-0.711,1.094c-0.474-0.219-0.984-0.492-1.531-0.82v0.93h-3.828v2.023
			h4.32v0.984h-4.32v2.352h5.469v0.875h-12.031v-0.875h5.469v-2.352h-4.266v-0.984h4.266v-2.023h-3.773v-0.875
			c-0.073,0.037-0.183,0.109-0.328,0.219c-0.547,0.328-0.984,0.565-1.313,0.711c-0.183-0.291-0.401-0.619-0.656-0.984
			C589.964,608.06,592.115,606.31,593.573,604.232z M593.792,605.708c-1.094,1.35-2.516,2.607-4.266,3.773h8.586
			C596.362,608.352,594.922,607.094,593.792,605.708z"/>
		<path fill="#A6A6A6" d="M602.542,610.521v-4.758h1.039v3.773h3.609v-4.977h1.039v4.977h3.609v-3.773h1.039v4.758h-4.648v5.195
			h3.992v-3.773h1.039v5.141h-1.039v-0.438h-10.008v-4.703h1.039v3.773h3.938v-5.195H602.542z"/>
		<path fill="#A6A6A6" d="M616.432,605.708h10.555v11.102h-1.094v-1.203h-8.367v1.203h-1.094V605.708z M617.526,606.748v7.875h8.367
			v-7.875H617.526z"/>
	</g>
	<g>
		<path fill="#A6A6A6" d="M573.245,662.329c0.947-1.531,1.604-3.099,1.969-4.703h-1.695v-0.875h1.695v-2.734h0.93v2.734h1.531v0.875
			h-1.531v1.148l0.547-0.438c0.072,0.073,0.2,0.183,0.383,0.328c0.547,0.511,0.856,0.784,0.93,0.82l-0.711,0.602
			c-0.037-0.036-0.092-0.109-0.164-0.219c-0.438-0.438-0.766-0.747-0.984-0.93v8.039h-0.93v-7.055
			c-0.401,1.386-0.93,2.57-1.586,3.555C573.518,663.04,573.39,662.657,573.245,662.329z M578.44,663.969
			c0.109-0.146,0.328-0.419,0.656-0.82c0.182-0.219,0.328-0.4,0.438-0.547h-2.023v-0.875h2.625c0.219-0.328,0.438-0.656,0.656-0.984
			l0.93,0.383c-0.109,0.183-0.256,0.383-0.438,0.602h4.977v0.875h-1.859c-0.365,0.875-0.875,1.623-1.531,2.242
			c0.255,0.109,0.638,0.256,1.148,0.438c0.51,0.146,1.185,0.4,2.023,0.766l-0.602,0.875c-0.803-0.438-1.933-0.948-3.391-1.531
			c-1.021,0.692-2.553,1.221-4.594,1.586c-0.256-0.511-0.42-0.82-0.492-0.93c1.75-0.292,3.099-0.639,4.047-1.039
			c-0.292-0.109-0.766-0.291-1.422-0.547C579.078,664.243,578.695,664.079,578.44,663.969z M581.448,653.961h0.93v3.172h3.609v0.875
			h-2.898c0.802,0.875,1.896,1.586,3.281,2.133c0,0.037-0.037,0.073-0.109,0.109c-0.256,0.328-0.42,0.565-0.492,0.711
			c-1.568-0.802-2.698-1.695-3.391-2.68v2.516h-0.93v-2.516c-0.984,1.24-2.115,2.188-3.391,2.844
			c-0.037-0.036-0.092-0.109-0.164-0.219c-0.146-0.182-0.311-0.364-0.492-0.547c1.313-0.619,2.424-1.403,3.336-2.352h-2.625v-0.875
			h3.336V653.961z M578.276,655.11l0.656-0.547c0.583,0.475,1.166,1.003,1.75,1.586l-0.766,0.656
			C579.442,656.222,578.895,655.657,578.276,655.11z M579.862,663.586c0.109,0.037,0.255,0.092,0.438,0.164
			c0.4,0.146,0.93,0.383,1.586,0.711c0.583-0.438,1.075-1.057,1.477-1.859h-2.734c-0.109,0.146-0.273,0.347-0.492,0.602
			C580.026,663.386,579.934,663.514,579.862,663.586z M585.604,655.055c-0.365,0.401-0.967,0.984-1.805,1.75l-0.656-0.602
			c0.146-0.146,0.4-0.383,0.766-0.711c0.438-0.438,0.766-0.766,0.984-0.984L585.604,655.055z"/>
		<path fill="#A6A6A6" d="M587.081,662.547c0.947-1.494,1.641-3.135,2.078-4.922h-1.641v-0.875h1.641v-2.734h0.984v2.734h1.531
			v0.875h-1.531v1.531l0.328-0.328c0.219,0.183,0.528,0.492,0.93,0.93c0.255,0.256,0.438,0.438,0.547,0.547l-0.711,0.656
			c-0.219-0.291-0.529-0.674-0.93-1.148c-0.073-0.072-0.128-0.127-0.164-0.164v7.328h-0.984v-6.945
			c-0.401,1.35-0.912,2.498-1.531,3.445C587.481,663.113,587.3,662.803,587.081,662.547z M592.167,656.04h1.859
			c0-0.036-0.019-0.072-0.055-0.109c-0.365-0.692-0.693-1.185-0.984-1.477l0.82-0.492c0.547,0.766,0.911,1.295,1.094,1.586
			l-0.766,0.492h2.133c0.219-0.291,0.547-0.802,0.984-1.531c0.146-0.255,0.255-0.438,0.328-0.547l0.984,0.492
			c-0.219,0.256-0.475,0.602-0.766,1.039c-0.183,0.256-0.311,0.438-0.383,0.547h2.023v3.445h-3.227v1.586h3.938
			c0,0.219-0.019,0.511-0.055,0.875c-0.037,0.693-0.109,1.367-0.219,2.023c-0.109,0.948-0.711,1.404-1.805,1.367
			c-0.401,0-0.857,0-1.367,0c-0.037-0.328-0.092-0.674-0.164-1.039c0.182,0,0.438,0,0.766,0c0.328,0.037,0.564,0.055,0.711,0.055
			c0.547,0.037,0.838-0.164,0.875-0.602c0.072-0.328,0.146-0.893,0.219-1.695c0-0.036,0-0.072,0-0.109h-2.898v5.031h-0.93v-4.266
			c-1.021,1.35-2.334,2.461-3.938,3.336c-0.219-0.328-0.456-0.584-0.711-0.766c1.822-0.875,3.227-1.986,4.211-3.336h-2.734
			l0.438-3.336h2.734v-1.695h-3.117V656.04z M593.151,661.071h2.133v-1.586h-1.914L593.151,661.071z M598.51,656.915h-2.297v1.695
			h2.297V656.915z"/>
	</g>
</g>
</svg>
