<?xml version="1.0" encoding="utf-8"?>
<!-- Generator: Adobe Illustrator 22.0.0, SVG Export Plug-In . SVG Version: 6.00 Build 0)  -->
<svg version="1.0" xmlns="http://www.w3.org/2000/svg" xmlns:xlink="http://www.w3.org/1999/xlink" x="0px" y="0px"
	 width="790.697px" height="724.407px" viewBox="0 0 790.697 724.407" enable-background="new 0 0 790.697 724.407"
	 xml:space="preserve">
<g id="图层_2">
	<rect x="147.184" y="51.227" fill="#7ABC9C" stroke="#020202" stroke-miterlimit="10" width="485.061" height="506.98"/>
	<rect x="147.184" y="51.227" fill="#7ABC9C" stroke="#020202" stroke-miterlimit="10" width="485.061" height="506.98"/>
	<rect x="148.346" y="52.227" fill="#C8CC75" stroke="#FFFFFF" stroke-miterlimit="10" width="482.061" height="98.98"/>
	<rect x="146.346" y="446.874" fill="#7C9988" stroke="#FFFFFF" stroke-miterlimit="10" width="248.066" height="109.333"/>
	<rect x="505.548" y="420.957" fill="#A1AADB" stroke="#FFFFFF" stroke-miterlimit="10" width="123.859" height="135.25"/>
	<rect x="280.418" y="226.628" fill="#FCFCFC" width="166.961" height="149.964"/>
	<polyline fill="none" stroke="#2D52EA" stroke-miterlimit="10" points="440.973,432.057 440.973,483.279 233.211,485.515 
		233.211,123.92 569.786,121.684 569.786,227.591 478.035,226.341 478.035,469.422 544.739,470.672 	"/>
	<polygon fill="#2D52EA" points="554.517,470.542 539.85,475.526 539.85,465.558 	"/>
	<polygon fill="#2D52EA" points="426.138,392.572 440.805,397.556 440.805,387.588 	"/>
	<polyline fill="none" stroke="#2D52EA" stroke-miterlimit="10" points="543.355,485.515 460.745,485.515 460.745,391.709 
		436.834,391.709 	"/>
	<g>
		<g>
			<path fill-rule="evenodd" clip-rule="evenodd" fill="#9E9E9F" d="M188.78,595.866c1.123,0,2.031-0.914,2.031-2.012
				c0-1.123-0.908-2.018-2.031-2.018c-1.123,0-2.036,0.895-2.036,2.018C186.744,594.952,187.657,595.866,188.78,595.866
				L188.78,595.866z M200.707,609.628l-3.466-5.921c-0.215-0.356-0.593-0.559-0.982-0.571h-5.175l0.009-1.809h3.725
				c0.503-0.03,0.917-0.379,0.917-0.889c0-0.503-0.402-0.952-0.917-0.971h-3.804l-0.129-1.41c-0.077-1.057-0.994-1.882-2.074-1.828
				c-1.086,0.062-1.908,0.987-1.853,2.055l0.357,6.105c0.088,1.073,0.993,1.982,2.067,1.982h6.596l2.694,4.465
				c0.318,0.522,1.067,0.737,1.631,0.4C200.86,610.904,201.026,610.211,200.707,609.628L200.707,609.628z M190.087,613.131
				c-3.337,0-6.043-2.668-6.043-5.975c0-1.809,0.831-3.423,2.119-4.523l-0.11-1.87c-2.159,1.337-3.607,3.687-3.607,6.393
				c0,4.172,3.418,7.565,7.641,7.565c3.107,0,5.765-1.853,6.957-4.491l-1.074-1.84C195.394,611.095,192.989,613.131,190.087,613.131
				L190.087,613.131z"/>
		</g>
		<path fill-rule="evenodd" clip-rule="evenodd" fill="#9E9E9F" d="M202.118,619.517h-22.927c-2.55,0-4.626-2.632-4.626-5.868
			v-20.742c0-3.235,2.076-5.868,4.626-5.868h22.927c2.55,0,4.63,2.633,4.63,5.868v20.742
			C206.748,616.885,204.668,619.517,202.118,619.517L202.118,619.517z M179.195,588.219c-2.04,0-3.698,2.103-3.698,4.688v20.742
			c0,2.586,1.658,4.689,3.698,4.689h22.924c2.038,0,3.698-2.103,3.698-4.689v-20.742c0-2.585-1.66-4.688-3.698-4.688H179.195
			L179.195,588.219z"/>
	</g>
	<g>
		<g>
			<path fill-rule="evenodd" clip-rule="evenodd" fill="#0F0F0F" d="M426.559,461.161c0.642,0,1.161-0.523,1.161-1.151
				c0-0.642-0.519-1.154-1.161-1.154c-0.642,0-1.164,0.512-1.164,1.154C425.395,460.639,425.917,461.161,426.559,461.161
				L426.559,461.161z M433.379,469.031l-1.982-3.386c-0.123-0.203-0.339-0.319-0.561-0.327h-2.959l0.005-1.035h2.13
				c0.288-0.017,0.525-0.217,0.525-0.508c0-0.288-0.23-0.544-0.525-0.555h-2.175l-0.074-0.806c-0.044-0.604-0.568-1.076-1.186-1.045
				c-0.621,0.035-1.091,0.564-1.06,1.175l0.204,3.491c0.05,0.614,0.568,1.133,1.182,1.133h3.771l1.54,2.553
				c0.182,0.298,0.61,0.422,0.933,0.229C433.467,469.76,433.562,469.364,433.379,469.031L433.379,469.031z M427.306,471.034
				c-1.908,0-3.456-1.526-3.456-3.417c0-1.035,0.475-1.957,1.212-2.586L425,463.962c-1.235,0.764-2.063,2.108-2.063,3.655
				c0,2.386,1.954,4.326,4.369,4.326c1.777,0,3.296-1.06,3.978-2.568l-0.614-1.052C430.341,469.869,428.966,471.034,427.306,471.034
				L427.306,471.034z"/>
		</g>
		<path fill-rule="evenodd" clip-rule="evenodd" fill="#0F0F0F" d="M434.186,474.686h-13.11c-1.458,0-2.645-1.505-2.645-3.356
			v-11.861c0-1.85,1.187-3.356,2.645-3.356h13.11c1.458,0,2.647,1.506,2.647,3.356v11.861
			C436.834,473.18,435.644,474.686,434.186,474.686L434.186,474.686z M421.078,456.789c-1.166,0-2.115,1.203-2.115,2.681v11.861
			c0,1.479,0.948,2.681,2.115,2.681h13.108c1.165,0,2.114-1.203,2.114-2.681v-11.861c0-1.478-0.949-2.681-2.114-2.681H421.078
			L421.078,456.789z"/>
	</g>
	<g>
		<g>
			<path fill-rule="evenodd" clip-rule="evenodd" fill="#0F0F0F" d="M483.588,515.49c0.642,0,1.161-0.523,1.161-1.151
				c0-0.642-0.519-1.154-1.161-1.154c-0.642,0-1.164,0.512-1.164,1.154C482.423,514.967,482.946,515.49,483.588,515.49
				L483.588,515.49z M490.408,523.359l-1.982-3.386c-0.123-0.203-0.339-0.319-0.561-0.327h-2.959l0.005-1.035h2.13
				c0.288-0.017,0.525-0.217,0.525-0.508c0-0.288-0.23-0.544-0.525-0.555h-2.175l-0.074-0.806c-0.044-0.604-0.568-1.076-1.186-1.045
				c-0.621,0.035-1.091,0.564-1.059,1.175l0.204,3.491c0.05,0.614,0.568,1.133,1.182,1.133h3.771l1.54,2.553
				c0.182,0.298,0.61,0.422,0.933,0.228C490.496,524.089,490.59,523.693,490.408,523.359L490.408,523.359z M484.335,525.362
				c-1.908,0-3.456-1.526-3.456-3.417c0-1.035,0.475-1.957,1.212-2.586l-0.063-1.069c-1.235,0.764-2.063,2.108-2.063,3.655
				c0,2.386,1.954,4.326,4.369,4.326c1.777,0,3.296-1.06,3.978-2.568l-0.614-1.052C487.37,524.198,485.995,525.362,484.335,525.362
				L484.335,525.362z"/>
		</g>
		<path fill-rule="evenodd" clip-rule="evenodd" fill="#0F0F0F" d="M491.215,529.014h-13.11c-1.458,0-2.645-1.505-2.645-3.356
			v-11.861c0-1.85,1.187-3.356,2.645-3.356h13.11c1.458,0,2.647,1.506,2.647,3.356v11.861
			C493.862,527.509,492.673,529.014,491.215,529.014L491.215,529.014z M478.107,511.117c-1.166,0-2.115,1.203-2.115,2.681v11.861
			c0,1.479,0.948,2.681,2.115,2.681h13.108c1.165,0,2.114-1.203,2.114-2.681v-11.861c0-1.478-0.949-2.681-2.114-2.681H478.107
			L478.107,511.117z"/>
	</g>
	<g>
		<path fill-rule="evenodd" clip-rule="evenodd" fill="#9E9E9F" d="M404.271,618.806l-25.414,0.27
			c-2.827,0.03-5.154-2.469-5.187-5.572l-0.211-19.887c-0.033-3.102,2.241-5.651,5.067-5.681l25.414-0.27
			c2.826-0.03,5.158,2.47,5.191,5.572l0.211,19.887C409.376,616.228,407.098,618.776,404.271,618.806L404.271,618.806z
			 M378.544,589.068c-2.261,0.024-4.078,2.06-4.051,4.538l0.211,19.887c0.026,2.479,1.886,4.476,4.147,4.452l25.409-0.27
			c2.259-0.024,4.077-2.06,4.051-4.539l-0.211-19.887c-0.026-2.478-1.888-4.475-4.146-4.451L378.544,589.068L378.544,589.068z"/>
		<path fill-rule="evenodd" clip-rule="evenodd" fill="#9E9E9F" d="M395.388,608.002l1.963-0.021l0.067,6.269
			c0.004,0.424,0.493,0.858,0.866,0.756c0.399-0.11,0.647-0.426,0.649-0.875l0.017-6.167l0.453-0.005l0.067,6.269
			c0.003,0.235,0.023,0.373,0.205,0.537c0.166,0.147,0.459,0.176,0.664,0.128c0.266-0.067,0.469-0.388,0.466-0.683l-0.066-6.264
			l1.96-0.021l-2.04-7.511c-0.047-0.142-0.084-0.233-0.01-0.383c0.041-0.092,0.11-0.149,0.185-0.205
			c0.063-0.001,0.122,0.003,0.187,0.026c0.099,0.037,0.182,0.096,0.261,0.168l1.294,4.584c0.081,0.119,0.163,0.211,0.285,0.274
			c0.23,0.123,0.533,0.124,0.722-0.086c0.191-0.223,0.226-0.5,0.143-0.786l-1.474-4.877c-0.1-0.336-0.461-0.817-0.722-1.072
			c-0.421-0.407-1.215-0.726-1.793-0.664l-2.053,0.22c-0.307,0.036-0.613,0.099-0.902,0.227c-0.444,0.19-0.664,0.472-0.907,0.941
			c-0.122,0.232-0.157,0.459-0.219,0.713l-1.2,4.703c-0.056,0.218-0.071,0.426,0.06,0.623c0.145,0.224,0.396,0.338,0.639,0.257
			c0.176-0.053,0.318-0.206,0.375-0.397l1.378-4.515c0.033-0.098,0.064-0.167,0.158-0.195c0.104-0.038,0.235-0.03,0.291,0.079
			c0.052,0.107,0.031,0.194,0.003,0.3L395.388,608.002L395.388,608.002L395.388,608.002z"/>
		<path fill-rule="evenodd" clip-rule="evenodd" fill="#9E9E9F" d="M380.771,605.91l-0.06-5.673l0.539-0.006l0.146,13.792
			c0.003,0.299,0.215,0.611,0.448,0.751c0.302,0.181,0.647,0.145,0.927-0.065c0.231-0.169,0.407-0.489,0.404-0.798l-0.085-8.026
			l0.539-0.006l0.085,8.026c0.003,0.322,0.177,0.649,0.421,0.817c0.313,0.218,0.696,0.177,0.984-0.061
			c0.209-0.174,0.387-0.48,0.383-0.775l-0.144-13.597l0.534-0.006l0.058,5.468l1.243-0.013l-0.061-5.769
			c-0.006-0.581-0.191-1.129-0.549-1.559c-0.311-0.37-0.951-0.77-1.434-0.765l-3.748,0.04c-0.353,0.004-0.713,0.141-1.014,0.334
			c-0.334,0.216-0.621,0.532-0.806,0.904c-0.126,0.245-0.301,0.654-0.298,0.93l0.064,6.07L380.771,605.91L380.771,605.91
			L380.771,605.91z"/>
		<path fill-rule="evenodd" clip-rule="evenodd" fill="#9E9E9F" d="M383.269,597.178c0.694-0.031,1.355-0.541,1.581-1.273
			c0.256-0.816,0.015-1.773-0.638-2.274c-0.73-0.56-1.637-0.444-2.252,0.259c-0.574,0.663-0.645,1.65-0.181,2.403
			C382.096,596.812,382.687,597.203,383.269,597.178L383.269,597.178L383.269,597.178z"/>
		<path fill-rule="evenodd" clip-rule="evenodd" fill="#9E9E9F" d="M398.833,597.109c0.682-0.016,1.219-0.34,1.521-1.031
			c0.345-0.801,0.057-1.712-0.614-2.177c-0.672-0.478-1.485-0.395-2.048,0.234c-0.566,0.629-0.619,1.586-0.151,2.292
			C397.846,596.879,398.324,597.124,398.833,597.109L398.833,597.109L398.833,597.109z"/>
		<polygon fill-rule="evenodd" clip-rule="evenodd" fill="#9E9E9F" points="389.792,591.072 390.822,591.061 391.087,615.993 
			390.057,616.004 389.792,591.072 		"/>
	</g>
	<g>
		<path fill-rule="evenodd" clip-rule="evenodd" fill="#0F0F0F" d="M470.777,529.007l-14.868-0.034
			c-1.654-0.004-2.996-1.524-2.992-3.39l0.028-11.957c0.004-1.865,1.354-3.38,3.007-3.376l14.868,0.034
			c1.653,0.004,2.999,1.525,2.994,3.39l-0.028,11.957C473.783,527.496,472.431,529.011,470.777,529.007L470.777,529.007z
			 M455.953,510.931c-1.323-0.003-2.401,1.207-2.404,2.697l-0.028,11.957c-0.003,1.491,1.069,2.706,2.392,2.709l14.865,0.034
			c1.321,0.003,2.401-1.207,2.404-2.698l0.028-11.957c0.003-1.49-1.07-2.705-2.392-2.708L455.953,510.931L455.953,510.931z"/>
		<path fill-rule="evenodd" clip-rule="evenodd" fill="#0F0F0F" d="M465.663,522.443l1.148,0.003l-0.009,3.769
			c-0.001,0.255,0.282,0.52,0.501,0.461c0.234-0.063,0.382-0.251,0.386-0.521l0.057-3.707l0.265,0.001l-0.009,3.769
			c0,0.141,0.011,0.224,0.116,0.324c0.096,0.09,0.267,0.109,0.387,0.082c0.156-0.038,0.277-0.23,0.278-0.407l0.009-3.766
			l1.147,0.003l-1.136-4.531c-0.027-0.086-0.047-0.141-0.003-0.23c0.025-0.055,0.065-0.089,0.11-0.122
			c0.037,0,0.072,0.003,0.109,0.017c0.058,0.023,0.106,0.059,0.151,0.103l0.722,2.766c0.047,0.072,0.094,0.128,0.164,0.167
			c0.134,0.076,0.311,0.079,0.423-0.046c0.114-0.133,0.136-0.299,0.09-0.471l-0.825-2.943c-0.056-0.203-0.264-0.494-0.414-0.65
			c-0.243-0.248-0.705-0.446-1.044-0.413l-1.202,0.116c-0.18,0.019-0.359,0.055-0.53,0.129c-0.261,0.111-0.392,0.279-0.538,0.559
			c-0.073,0.138-0.095,0.275-0.134,0.427l-0.737,2.818c-0.035,0.131-0.045,0.255,0.03,0.375c0.083,0.136,0.229,0.206,0.372,0.159
			c0.103-0.031,0.188-0.122,0.222-0.236l0.84-2.703c0.02-0.059,0.039-0.1,0.094-0.116c0.061-0.022,0.138-0.016,0.17,0.05
			c0.029,0.065,0.017,0.117,0,0.18L465.663,522.443L465.663,522.443L465.663,522.443z"/>
		<path fill-rule="evenodd" clip-rule="evenodd" fill="#0F0F0F" d="M457.128,521.073l0.008-3.411l0.315,0.001l-0.019,8.292
			c0,0.18,0.121,0.369,0.256,0.455c0.175,0.111,0.378,0.092,0.543-0.032c0.137-0.1,0.242-0.291,0.242-0.477l0.011-4.826l0.315,0.001
			l-0.011,4.826c0,0.194,0.098,0.391,0.24,0.494c0.182,0.133,0.406,0.112,0.576-0.029c0.123-0.103,0.23-0.286,0.23-0.463
			l0.019-8.175l0.312,0.001l-0.008,3.288l0.727,0.002l0.008-3.468c0.001-0.35-0.103-0.68-0.309-0.942
			c-0.179-0.224-0.55-0.47-0.833-0.471l-2.193-0.005c-0.207,0-0.418,0.079-0.596,0.193c-0.197,0.127-0.367,0.315-0.479,0.537
			c-0.075,0.146-0.181,0.391-0.181,0.557l-0.008,3.65L457.128,521.073L457.128,521.073L457.128,521.073z"/>
		<path fill-rule="evenodd" clip-rule="evenodd" fill="#0F0F0F" d="M458.656,515.843c0.406-0.013,0.797-0.315,0.934-0.753
			c0.156-0.488,0.022-1.066-0.356-1.372c-0.423-0.342-0.954-0.279-1.319,0.138c-0.341,0.394-0.39,0.987-0.124,1.443
			C457.973,515.614,458.316,515.853,458.656,515.843L458.656,515.843L458.656,515.843z"/>
		<path fill-rule="evenodd" clip-rule="evenodd" fill="#0F0F0F" d="M467.761,515.921c0.399-0.004,0.716-0.195,0.897-0.608
			c0.208-0.479,0.047-1.029-0.343-1.314c-0.389-0.292-0.865-0.249-1.2,0.125c-0.336,0.374-0.374,0.949-0.106,1.376
			C467.185,515.776,467.463,515.926,467.761,515.921L467.761,515.921L467.761,515.921z"/>
		<polygon fill-rule="evenodd" clip-rule="evenodd" fill="#0F0F0F" points="462.518,512.223 463.121,512.224 463.086,527.214 
			462.484,527.212 462.518,512.223 		"/>
	</g>
	<g>
		<g>
			<path fill-rule="evenodd" clip-rule="evenodd" fill="#0F0F0F" d="M184.727,166.078c0.642,0,1.161-0.523,1.161-1.151
				c0-0.642-0.519-1.154-1.161-1.154c-0.642,0-1.164,0.512-1.164,1.154C183.563,165.555,184.085,166.078,184.727,166.078
				L184.727,166.078z M191.547,173.947l-1.982-3.386c-0.123-0.203-0.339-0.319-0.561-0.327h-2.959l0.005-1.035h2.13
				c0.288-0.017,0.525-0.217,0.525-0.508c0-0.288-0.23-0.544-0.525-0.555h-2.175l-0.074-0.806c-0.044-0.604-0.568-1.076-1.186-1.045
				c-0.621,0.035-1.091,0.564-1.059,1.175l0.204,3.491c0.05,0.614,0.568,1.133,1.182,1.133h3.771l1.54,2.553
				c0.182,0.298,0.61,0.422,0.933,0.229C191.635,174.677,191.73,174.28,191.547,173.947L191.547,173.947z M185.474,175.95
				c-1.908,0-3.456-1.526-3.456-3.417c0-1.035,0.475-1.957,1.212-2.586l-0.063-1.069c-1.235,0.764-2.063,2.108-2.063,3.655
				c0,2.386,1.954,4.326,4.369,4.326c1.777,0,3.296-1.06,3.978-2.568l-0.614-1.052C188.509,174.786,187.134,175.95,185.474,175.95
				L185.474,175.95z"/>
		</g>
		<path fill-rule="evenodd" clip-rule="evenodd" fill="#0F0F0F" d="M192.354,179.602h-13.11c-1.458,0-2.645-1.505-2.645-3.356
			v-11.861c0-1.85,1.187-3.356,2.645-3.356h13.11c1.458,0,2.647,1.506,2.647,3.356v11.861
			C195.002,178.097,193.812,179.602,192.354,179.602L192.354,179.602z M179.246,161.705c-1.166,0-2.115,1.203-2.115,2.681v11.861
			c0,1.479,0.948,2.681,2.115,2.681h13.108c1.165,0,2.114-1.203,2.114-2.681v-11.861c0-1.478-0.949-2.681-2.114-2.681H179.246
			L179.246,161.705z"/>
	</g>
	<g>
		<path fill-rule="evenodd" clip-rule="evenodd" fill="#0F0F0F" d="M171.916,179.595l-14.868-0.034
			c-1.654-0.004-2.996-1.524-2.992-3.39l0.028-11.957c0.004-1.865,1.354-3.38,3.007-3.376l14.868,0.034
			c1.653,0.004,2.999,1.525,2.994,3.39l-0.028,11.957C174.922,178.084,173.57,179.598,171.916,179.595L171.916,179.595z
			 M157.093,161.518c-1.323-0.003-2.401,1.207-2.404,2.697l-0.028,11.957c-0.003,1.491,1.069,2.706,2.392,2.709l14.865,0.034
			c1.321,0.003,2.401-1.207,2.404-2.697l0.028-11.957c0.003-1.49-1.07-2.705-2.392-2.708L157.093,161.518L157.093,161.518z"/>
		<path fill-rule="evenodd" clip-rule="evenodd" fill="#0F0F0F" d="M166.802,173.031l1.148,0.003l-0.009,3.769
			c-0.001,0.255,0.282,0.52,0.501,0.461c0.234-0.063,0.382-0.251,0.386-0.521l0.057-3.707l0.265,0.001l-0.009,3.769
			c0,0.141,0.011,0.224,0.116,0.324c0.096,0.09,0.267,0.11,0.387,0.082c0.156-0.038,0.277-0.23,0.278-0.407l0.009-3.766l1.147,0.003
			l-1.136-4.531c-0.027-0.086-0.047-0.141-0.003-0.23c0.025-0.055,0.065-0.089,0.11-0.122c0.037,0,0.072,0.003,0.109,0.017
			c0.058,0.023,0.106,0.059,0.151,0.103l0.722,2.766c0.047,0.072,0.094,0.128,0.165,0.167c0.134,0.076,0.311,0.079,0.423-0.046
			c0.114-0.133,0.136-0.299,0.09-0.471l-0.825-2.943c-0.056-0.203-0.264-0.494-0.414-0.65c-0.243-0.248-0.705-0.446-1.044-0.413
			l-1.202,0.116c-0.18,0.019-0.359,0.055-0.53,0.129c-0.261,0.111-0.392,0.279-0.538,0.559c-0.073,0.138-0.095,0.275-0.134,0.427
			l-0.737,2.818c-0.035,0.131-0.045,0.255,0.03,0.375c0.083,0.136,0.229,0.206,0.372,0.159c0.103-0.031,0.188-0.122,0.222-0.236
			l0.84-2.703c0.02-0.059,0.039-0.1,0.094-0.116c0.061-0.022,0.138-0.016,0.17,0.05c0.029,0.065,0.017,0.117,0,0.18L166.802,173.031
			L166.802,173.031L166.802,173.031z"/>
		<path fill-rule="evenodd" clip-rule="evenodd" fill="#0F0F0F" d="M158.268,171.66l0.008-3.411l0.315,0.001l-0.019,8.292
			c0,0.18,0.121,0.369,0.256,0.455c0.175,0.111,0.377,0.092,0.543-0.032c0.137-0.1,0.242-0.291,0.242-0.477l0.011-4.826l0.315,0.001
			l-0.011,4.826c0,0.194,0.098,0.391,0.24,0.494c0.182,0.133,0.406,0.112,0.576-0.029c0.123-0.103,0.23-0.286,0.23-0.463
			l0.019-8.175l0.312,0.001l-0.008,3.288l0.727,0.002l0.008-3.468c0.001-0.35-0.103-0.68-0.309-0.942
			c-0.179-0.225-0.55-0.47-0.833-0.471l-2.193-0.005c-0.207,0-0.418,0.079-0.596,0.193c-0.197,0.127-0.367,0.315-0.479,0.537
			c-0.075,0.146-0.181,0.391-0.181,0.557l-0.008,3.65L158.268,171.66L158.268,171.66L158.268,171.66z"/>
		<path fill-rule="evenodd" clip-rule="evenodd" fill="#0F0F0F" d="M159.796,166.431c0.406-0.013,0.797-0.315,0.934-0.753
			c0.156-0.488,0.022-1.066-0.356-1.372c-0.423-0.342-0.954-0.279-1.319,0.138c-0.34,0.394-0.39,0.987-0.124,1.443
			C159.112,166.201,159.455,166.441,159.796,166.431L159.796,166.431L159.796,166.431z"/>
		<path fill-rule="evenodd" clip-rule="evenodd" fill="#0F0F0F" d="M168.9,166.509c0.399-0.004,0.716-0.195,0.897-0.608
			c0.208-0.479,0.047-1.029-0.343-1.314c-0.389-0.292-0.865-0.249-1.2,0.125c-0.336,0.374-0.374,0.949-0.106,1.376
			C168.325,166.364,168.602,166.514,168.9,166.509L168.9,166.509L168.9,166.509z"/>
		<polygon fill-rule="evenodd" clip-rule="evenodd" fill="#0F0F0F" points="163.658,162.81 164.26,162.812 164.226,177.802 
			163.623,177.8 163.658,162.81 		"/>
	</g>
	<g>
		<path fill-rule="evenodd" clip-rule="evenodd" fill="#9E9E9F" d="M203.396,668.49l-22.926,0.243
			c-2.55,0.027-4.653-2.583-4.688-5.819l-0.22-20.741c-0.034-3.235,2.013-5.89,4.563-5.917l22.926-0.243
			c2.55-0.027,4.657,2.584,4.692,5.819l0.22,20.741C207.997,665.808,205.945,668.462,203.396,668.49L203.396,668.49z
			 M180.141,637.436c-2.04,0.022-3.675,2.142-3.648,4.727l0.22,20.741c0.027,2.586,1.708,4.671,3.748,4.65l22.922-0.243
			c2.038-0.022,3.675-2.142,3.648-4.728l-0.22-20.741c-0.027-2.585-1.71-4.67-3.747-4.649L180.141,637.436L180.141,637.436z"/>
		<g>
			<path fill="#9E9E9F" d="M191.353,644.349c0.009,0.846-0.687,1.54-1.555,1.549c-0.868,0.009-1.578-0.669-1.587-1.516
				c-0.009-0.846,0.687-1.54,1.555-1.549C190.633,642.824,191.344,643.502,191.353,644.349z"/>
			<path fill="#9E9E9F" d="M191.36,648.301l-0.007-0.662c-0.009-0.827-0.704-1.491-1.552-1.482c-0.848,0.009-1.529,0.687-1.52,1.515
				l0.037,3.516c0,0.046,0.004,0.091,0.008,0.136L191.36,648.301z"/>
			<path fill="#9E9E9F" d="M201.508,644.923c1.336-0.014,2.43,0.993,2.443,2.249c0.013,1.256-1.059,2.286-2.395,2.3l-2.71,0.029
				L188.306,660c-0.15,0.185-0.332,0.35-0.537,0.488c-0.372,0.268-0.802,0.42-1.239,0.455c-0.108,0.013-0.218,0.022-0.33,0.024
				l-3.979,0.042c-1.442,0.015-2.622-0.991-2.636-2.247c-0.013-1.256,1.145-2.287,2.587-2.302l3.193-0.034l10.78-10.738
				c0.015-0.014,0.03-0.027,0.045-0.041c0.003-0.003,0.007-0.006,0.01-0.009c0.05-0.047,0.1-0.092,0.153-0.133
				c0.023-0.018,0.048-0.035,0.072-0.053c0.036-0.026,0.071-0.053,0.107-0.077c0.05-0.033,0.102-0.063,0.154-0.092
				c0.012-0.007,0.024-0.015,0.036-0.021c0.347-0.187,0.746-0.296,1.174-0.3L201.508,644.923 M201.497,643.898l-3.611,0.038
				c-0.584,0.006-1.162,0.154-1.67,0.428c-0.022,0.012-0.043,0.024-0.063,0.036c-0.061,0.035-0.134,0.077-0.209,0.126
				c-0.042,0.027-0.086,0.059-0.129,0.092l-0.02,0.015l-0.02,0.015c-0.029,0.021-0.058,0.042-0.086,0.065
				c-0.065,0.052-0.132,0.11-0.209,0.181l-0.008,0.007l-0.003,0.002c-0.026,0.023-0.05,0.045-0.073,0.068l-10.475,10.434
				l-2.758,0.029c-2.02,0.021-3.647,1.519-3.628,3.339c0.019,1.82,1.678,3.282,3.698,3.261l3.979-0.042
				c0.134-0.001,0.27-0.011,0.427-0.029c0.629-0.054,1.231-0.276,1.743-0.642c0.27-0.184,0.509-0.399,0.712-0.64l10.2-10.16
				l2.274-0.024c1.914-0.02,3.455-1.517,3.436-3.337C204.983,645.341,203.41,643.878,201.497,643.898L201.497,643.898z"/>
		</g>
	</g>
	<g>
		<path fill-rule="evenodd" clip-rule="evenodd" fill="#0F0F0F" d="M470.631,359.154l-16.648,0.177
			c-1.852,0.02-3.379-1.876-3.404-4.225l-0.16-15.061c-0.025-2.349,1.462-4.277,3.314-4.297l16.648-0.177
			c1.851-0.02,3.382,1.877,3.407,4.225l0.16,15.061C473.973,357.206,472.483,359.134,470.631,359.154L470.631,359.154z
			 M453.745,336.604c-1.481,0.016-2.669,1.556-2.649,3.433l0.16,15.061c0.02,1.878,1.24,3.392,2.721,3.376l16.645-0.177
			c1.48-0.016,2.669-1.556,2.649-3.433l-0.16-15.061c-0.02-1.877-1.241-3.391-2.721-3.376L453.745,336.604L453.745,336.604z"/>
		<g>
			<path fill="#0F0F0F" d="M461.886,341.623c0.007,0.615-0.499,1.118-1.129,1.125c-0.63,0.007-1.146-0.486-1.153-1.101
				c-0.007-0.615,0.499-1.118,1.129-1.125C461.363,340.516,461.879,341.009,461.886,341.623z"/>
			<path fill="#0F0F0F" d="M461.891,344.493l-0.005-0.481c-0.006-0.601-0.511-1.083-1.127-1.076c-0.616,0.007-1.11,0.499-1.104,1.1
				l0.027,2.553c0,0.033,0.003,0.066,0.006,0.099L461.891,344.493z"/>
			<path fill="#0F0F0F" d="M469.26,342.041c0.97-0.01,1.765,0.721,1.774,1.633c0.01,0.912-0.769,1.66-1.739,1.67l-1.968,0.021
				l-7.654,7.624c-0.109,0.134-0.241,0.254-0.39,0.355c-0.27,0.195-0.582,0.305-0.899,0.331c-0.079,0.009-0.158,0.016-0.24,0.017
				l-2.889,0.031c-1.047,0.011-1.904-0.719-1.914-1.632c-0.01-0.912,0.832-1.661,1.879-1.672l2.319-0.025l7.828-7.797
				c0.011-0.01,0.022-0.019,0.033-0.029c0.002-0.002,0.005-0.004,0.007-0.007c0.036-0.034,0.073-0.066,0.111-0.097
				c0.017-0.013,0.035-0.026,0.052-0.038c0.026-0.019,0.051-0.039,0.078-0.056c0.036-0.024,0.074-0.045,0.112-0.067
				c0.009-0.005,0.018-0.011,0.026-0.016c0.252-0.135,0.542-0.215,0.852-0.218L469.26,342.041 M469.252,341.296l-2.622,0.028
				c-0.424,0.005-0.843,0.112-1.213,0.311c-0.016,0.009-0.031,0.017-0.046,0.026c-0.045,0.025-0.097,0.056-0.152,0.092
				c-0.031,0.02-0.062,0.043-0.094,0.066l-0.015,0.011l-0.015,0.011c-0.021,0.015-0.042,0.031-0.063,0.047
				c-0.047,0.038-0.096,0.08-0.152,0.132l-0.006,0.005l-0.002,0.002c-0.019,0.017-0.036,0.032-0.053,0.049l-7.607,7.577
				l-2.002,0.021c-1.467,0.016-2.648,1.103-2.634,2.425c0.014,1.321,1.219,2.384,2.685,2.368l2.889-0.031
				c0.098-0.001,0.196-0.008,0.31-0.021c0.457-0.039,0.894-0.2,1.266-0.466c0.196-0.133,0.369-0.29,0.517-0.465l7.407-7.378
				l1.651-0.018c1.39-0.015,2.509-1.102,2.495-2.423C471.784,342.344,470.642,341.281,469.252,341.296L469.252,341.296z"/>
		</g>
	</g>
	<g>
		<path fill-rule="evenodd" clip-rule="evenodd" fill="#0F0F0F" d="M419.447,403.844l-16.648,0.177
			c-1.852,0.02-3.379-1.876-3.404-4.225l-0.16-15.061c-0.025-2.349,1.462-4.277,3.314-4.297l16.648-0.177
			c1.851-0.02,3.382,1.877,3.407,4.225l0.16,15.061C422.788,401.897,421.298,403.824,419.447,403.844L419.447,403.844z
			 M402.56,381.294c-1.481,0.016-2.669,1.556-2.649,3.433l0.16,15.061c0.02,1.878,1.24,3.392,2.721,3.376l16.645-0.177
			c1.48-0.016,2.669-1.556,2.649-3.433l-0.16-15.061c-0.02-1.877-1.241-3.391-2.721-3.376L402.56,381.294L402.56,381.294z"/>
		<g>
			<path fill="#0F0F0F" d="M410.701,386.314c0.007,0.615-0.499,1.118-1.129,1.125c-0.63,0.007-1.146-0.486-1.153-1.1
				c-0.007-0.615,0.499-1.118,1.129-1.125C410.179,385.206,410.695,385.699,410.701,386.314z"/>
			<path fill="#0F0F0F" d="M410.706,389.184l-0.005-0.481c-0.006-0.601-0.511-1.083-1.127-1.076c-0.616,0.007-1.11,0.499-1.104,1.1
				l0.027,2.553c0,0.033,0.003,0.066,0.006,0.098L410.706,389.184z"/>
			<path fill="#0F0F0F" d="M418.075,386.731c0.97-0.01,1.765,0.721,1.774,1.633c0.01,0.912-0.769,1.66-1.739,1.67l-1.968,0.021
				l-7.654,7.624c-0.109,0.134-0.241,0.254-0.39,0.355c-0.27,0.195-0.582,0.305-0.899,0.331c-0.079,0.009-0.158,0.016-0.24,0.017
				l-2.889,0.031c-1.047,0.011-1.904-0.719-1.914-1.632c-0.01-0.912,0.832-1.661,1.879-1.672l2.319-0.025l7.828-7.797
				c0.011-0.01,0.022-0.019,0.033-0.029c0.002-0.002,0.005-0.004,0.007-0.007c0.036-0.034,0.073-0.066,0.111-0.097
				c0.017-0.013,0.035-0.026,0.052-0.038c0.026-0.019,0.051-0.039,0.078-0.056c0.036-0.024,0.074-0.045,0.112-0.067
				c0.009-0.005,0.018-0.011,0.027-0.016c0.252-0.135,0.542-0.215,0.852-0.218L418.075,386.731 M418.067,385.987l-2.622,0.028
				c-0.424,0.005-0.843,0.112-1.213,0.311c-0.016,0.009-0.031,0.017-0.046,0.026c-0.045,0.025-0.097,0.056-0.152,0.092
				c-0.031,0.02-0.062,0.043-0.094,0.066l-0.015,0.011l-0.015,0.011c-0.021,0.015-0.042,0.031-0.063,0.047
				c-0.047,0.038-0.096,0.08-0.152,0.132l-0.006,0.005l-0.002,0.002c-0.019,0.017-0.036,0.032-0.053,0.049l-7.607,7.577
				l-2.002,0.021c-1.467,0.016-2.648,1.103-2.634,2.425c0.014,1.321,1.219,2.384,2.685,2.368l2.889-0.031
				c0.097-0.001,0.196-0.008,0.31-0.021c0.457-0.039,0.894-0.2,1.266-0.466c0.196-0.133,0.369-0.29,0.517-0.465l7.407-7.378
				l1.651-0.018c1.39-0.015,2.509-1.102,2.495-2.423C420.599,387.035,419.457,385.972,418.067,385.987L418.067,385.987z"/>
		</g>
	</g>
	<g>
		<path fill-rule="evenodd" clip-rule="evenodd" fill="#9E9E9F" d="M554.053,669.137h-22.927c-2.55,0-4.626-2.632-4.626-5.868
			v-20.742c0-3.235,2.076-5.868,4.626-5.868h22.927c2.55,0,4.63,2.633,4.63,5.868v20.742
			C558.683,666.505,556.603,669.137,554.053,669.137L554.053,669.137z M531.13,637.838c-2.04,0-3.698,2.103-3.698,4.688v20.742
			c0,2.586,1.658,4.689,3.698,4.689h22.924c2.038,0,3.698-2.103,3.698-4.689v-20.742c0-2.585-1.66-4.688-3.698-4.688H531.13
			L531.13,637.838z"/>
		<g>
			<path fill="#9E9E9F" d="M536.943,644.309c1.084,0,1.963-0.814,1.963-1.817c0-0.996-0.878-1.809-1.963-1.809
				c-1.077,0-1.955,0.813-1.955,1.809C534.988,643.495,535.866,644.309,536.943,644.309z"/>
			<path fill="#9E9E9F" d="M534.766,648.183v5.575h0.008c-0.005,0.052-0.008,0.106-0.008,0.161v8.417
				c0,0.425,0.158,0.776,0.356,0.776h1.266c0.198,0,0.356-0.352,0.356-0.776v-8.417c0-0.055-0.002-0.109-0.007-0.161h0.419
				c-0.005,0.052-0.008,0.106-0.008,0.161v2.315l1.939,4.22c0.222,0.154,1.575-0.315,1.615-0.762
				c-0.507-0.915-1.069-2.549-1.575-3.458v-2.315c0-0.055-0.003-0.109-0.008-0.161h0.008v-5.575h0.309v5.033
				c0,0.301,0.166,0.542,0.356,0.542h1.266c0.19,0,0.356-0.242,0.356-0.542v-5.033v-0.798v-1.011c0-0.828-0.681-1.509-1.504-1.509
				h-5.928c-0.831,0-1.512,0.681-1.512,1.509v1.011v0.798v5.033c0,0.301,0.158,0.542,0.356,0.542h1.267
				c0.198,0,0.356-0.242,0.356-0.542v-5.033H534.766z"/>
			<polygon fill="#9E9E9F" points="554.712,649.415 551.712,649.415 549.733,649.415 549.733,651.246 549.733,652.191 
				548.72,652.191 546.741,652.191 546.741,654.022 546.741,654.96 545.729,654.96 543.742,654.96 543.742,656.791 543.742,657.729 
				542.729,657.729 540.75,657.729 540.75,659.568 540.75,660.506 539.745,660.506 537.758,660.506 537.758,662.337 
				537.758,663.275 534.766,663.275 534.766,665.113 537.758,665.113 538.502,665.113 539.745,665.113 539.745,662.337 
				540.75,662.337 542.729,662.337 542.729,660.506 542.729,659.568 543.742,659.568 545.721,659.568 545.729,659.568 
				545.729,656.791 546.741,656.791 548.72,656.791 548.72,654.96 548.72,654.022 549.733,654.022 551.712,654.022 551.712,652.191 
				551.712,651.246 554.712,651.246 			"/>
		</g>
	</g>
	<g>
		<path fill-rule="evenodd" clip-rule="evenodd" fill="#0F0F0F" d="M494.141,202.374h-15.507c-1.725,0-3.129-1.78-3.129-3.969
			v-14.029c0-2.188,1.404-3.969,3.129-3.969h15.507c1.724,0,3.131,1.781,3.131,3.969v14.029
			C497.272,200.593,495.865,202.374,494.141,202.374L494.141,202.374z M478.636,181.205c-1.38,0-2.501,1.422-2.501,3.171v14.029
			c0,1.749,1.122,3.172,2.501,3.172h15.505c1.378,0,2.501-1.423,2.501-3.172v-14.029c0-1.748-1.123-3.171-2.501-3.171H478.636
			L478.636,181.205z"/>
		<g>
			<path fill="#0F0F0F" d="M482.568,185.581c0.733,0,1.328-0.55,1.328-1.229c0-0.674-0.594-1.224-1.328-1.224
				c-0.728,0-1.322,0.55-1.322,1.224C481.246,185.03,481.84,185.581,482.568,185.581z"/>
			<path fill="#0F0F0F" d="M481.096,188.202v3.771h0.005c-0.003,0.035-0.005,0.072-0.005,0.109v5.693
				c0,0.287,0.107,0.525,0.241,0.525h0.857c0.134,0,0.241-0.238,0.241-0.525v-5.693c0-0.037-0.002-0.074-0.005-0.109h0.283
				c-0.003,0.035-0.005,0.072-0.005,0.109v1.566l1.312,2.854c0.15,0.104,1.065-0.213,1.092-0.516
				c-0.343-0.619-0.723-1.724-1.065-2.339v-1.566c0-0.037-0.002-0.074-0.005-0.109h0.005v-3.771h0.209v3.404
				c0,0.203,0.112,0.367,0.241,0.367h0.857c0.129,0,0.241-0.164,0.241-0.367v-3.404v-0.54v-0.684c0-0.56-0.46-1.021-1.017-1.021
				h-4.01c-0.562,0-1.022,0.461-1.022,1.021v0.684v0.54v3.404c0,0.203,0.107,0.367,0.241,0.367h0.857
				c0.134,0,0.241-0.164,0.241-0.367v-3.404H481.096z"/>
			<polygon fill="#0F0F0F" points="494.586,189.034 492.557,189.034 491.219,189.034 491.219,190.273 491.219,190.912 
				490.534,190.912 489.195,190.912 489.195,192.15 489.195,192.785 488.51,192.785 487.167,192.785 487.167,194.024 
				487.167,194.658 486.481,194.658 485.143,194.658 485.143,195.901 485.143,196.536 484.463,196.536 483.119,196.536 
				483.119,197.775 483.119,198.409 481.096,198.409 481.096,199.652 483.119,199.652 483.623,199.652 484.463,199.652 
				484.463,197.775 485.143,197.775 486.481,197.775 486.481,196.536 486.481,195.901 487.167,195.901 488.505,195.901 
				488.51,195.901 488.51,194.024 489.195,194.024 490.534,194.024 490.534,192.785 490.534,192.15 491.219,192.15 492.557,192.15 
				492.557,190.912 492.557,190.273 494.586,190.273 			"/>
		</g>
	</g>
	<g>
		<path fill-rule="evenodd" clip-rule="evenodd" fill="#0F0F0F" d="M193.894,249.559h-15.507c-1.725,0-3.129-1.78-3.129-3.969
			v-14.029c0-2.188,1.404-3.969,3.129-3.969h15.507c1.725,0,3.131,1.781,3.131,3.969v14.029
			C197.025,247.779,195.618,249.559,193.894,249.559L193.894,249.559z M178.389,228.39c-1.38,0-2.501,1.422-2.501,3.171v14.029
			c0,1.749,1.122,3.172,2.501,3.172h15.505c1.378,0,2.501-1.423,2.501-3.172v-14.029c0-1.748-1.123-3.171-2.501-3.171H178.389
			L178.389,228.39z"/>
		<g>
			<path fill="#0F0F0F" d="M182.321,232.766c0.733,0,1.328-0.55,1.328-1.229c0-0.674-0.594-1.224-1.328-1.224
				c-0.728,0-1.322,0.55-1.322,1.224C180.999,232.216,181.593,232.766,182.321,232.766z"/>
			<path fill="#0F0F0F" d="M180.849,235.387v3.771h0.005c-0.003,0.035-0.005,0.072-0.005,0.109v5.693
				c0,0.287,0.107,0.525,0.241,0.525h0.857c0.134,0,0.241-0.238,0.241-0.525v-5.693c0-0.037-0.002-0.074-0.005-0.109h0.283
				c-0.003,0.035-0.005,0.072-0.005,0.109v1.566l1.312,2.854c0.15,0.104,1.065-0.213,1.092-0.516
				c-0.343-0.619-0.723-1.724-1.065-2.339v-1.566c0-0.037-0.002-0.074-0.005-0.109h0.005v-3.771h0.209v3.404
				c0,0.203,0.112,0.367,0.241,0.367h0.857c0.129,0,0.241-0.164,0.241-0.367v-3.404v-0.54v-0.684c0-0.56-0.46-1.02-1.017-1.02h-4.01
				c-0.562,0-1.022,0.461-1.022,1.02v0.684v0.54v3.404c0,0.203,0.107,0.367,0.241,0.367h0.857c0.134,0,0.241-0.164,0.241-0.367
				v-3.404H180.849z"/>
			<polygon fill="#0F0F0F" points="194.339,236.219 192.31,236.219 190.972,236.219 190.972,237.458 190.972,238.097 
				190.287,238.097 188.948,238.097 188.948,239.336 188.948,239.97 188.263,239.97 186.919,239.97 186.919,241.209 
				186.919,241.843 186.234,241.843 184.896,241.843 184.896,243.087 184.896,243.721 184.216,243.721 182.872,243.721 
				182.872,244.96 182.872,245.594 180.849,245.594 180.849,246.837 182.872,246.837 183.375,246.837 184.216,246.837 
				184.216,244.96 184.896,244.96 186.234,244.96 186.234,243.721 186.234,243.087 186.919,243.087 188.258,243.087 
				188.263,243.087 188.263,241.209 188.948,241.209 190.287,241.209 190.287,239.97 190.287,239.336 190.972,239.336 
				192.31,239.336 192.31,238.097 192.31,237.458 194.339,237.458 			"/>
		</g>
	</g>
	<g>
		<path fill-rule="evenodd" clip-rule="evenodd" fill="#9E9E9F" d="M403.293,669.396h-22.927c-2.55,0-4.626-2.632-4.626-5.868
			v-20.742c0-3.235,2.076-5.868,4.626-5.868h22.927c2.55,0,4.63,2.633,4.63,5.868v20.742
			C407.922,666.764,405.842,669.396,403.293,669.396L403.293,669.396z M380.369,638.097c-2.04,0-3.698,2.103-3.698,4.688v20.742
			c0,2.586,1.658,4.689,3.698,4.689h22.924c2.038,0,3.698-2.103,3.698-4.689v-20.742c0-2.585-1.66-4.688-3.698-4.688H380.369
			L380.369,638.097z"/>
		<g>
			<g>
				<polygon fill-rule="evenodd" clip-rule="evenodd" fill="#9E9E9F" points="390.869,640.41 390.875,641.382 391.58,640.59 
					391.58,642.846 392.065,642.832 392.084,640.687 392.792,641.406 392.787,640.363 391.834,639.488 				"/>
				<path fill-rule="evenodd" clip-rule="evenodd" fill="#9E9E9F" d="M387.877,648.649c0.072-0.352,0.473-0.682,0.911-0.805
					c1.544-0.275,2.551-0.225,4.158,0.036c0.419,0.112,0.755,0.383,0.793,0.735l0.775,2.156l2.228-1.415
					c0.58-0.258,0.936,0.275,0.544,0.727l-2.474,1.508c-0.296,0.231-0.879,0.201-1.098-0.186l-0.64-1.567
					c-0.157-0.071-0.313-0.074-0.468-0.011l-0.001,11.261c-0.213,0.492-1.146,0.49-1.291,0.006l-0.006-6.376
					c-0.338-0.082-0.412-0.082-0.748-0.001l-0.002,6.359c-0.17,0.487-1.064,0.532-1.244,0.056l0.001-11.304
					c-0.169-0.069-0.337-0.07-0.506-0.004l-0.05,4.929c-0.331,0.235-0.621,0.231-0.869-0.011L387.877,648.649L387.877,648.649z
					 M390.931,644.845c0.697,0,1.263,0.515,1.263,1.15c0,0.635-0.566,1.15-1.263,1.15c-0.697,0-1.263-0.515-1.263-1.15
					C389.668,645.36,390.234,644.845,390.931,644.845z"/>
				<polygon fill-rule="evenodd" clip-rule="evenodd" fill="#9E9E9F" points="390.869,665.903 390.875,664.931 391.58,665.723 
					391.58,663.467 392.065,663.481 392.084,665.626 392.792,664.907 392.787,665.95 391.834,666.826 				"/>
				<g>
					<rect x="403.306" y="641.756" fill-rule="evenodd" clip-rule="evenodd" fill="#9E9E9F" width="0.656" height="23.016"/>
					<rect x="379.7" y="641.975" fill-rule="evenodd" clip-rule="evenodd" fill="#9E9E9F" width="0.656" height="23.016"/>
				</g>
				<path fill-rule="evenodd" clip-rule="evenodd" fill="#9E9E9F" d="M383.47,643.247h16.721v19.82H383.47V643.247L383.47,643.247z
					 M383.798,643.566v19.18h16.065v-19.18H383.798z"/>
			</g>
		</g>
	</g>
	<g>
		<path fill-rule="evenodd" clip-rule="evenodd" fill="#0F0F0F" d="M414.009,475.176h-13.401c-1.49,0-2.704-1.539-2.704-3.43
			v-12.123c0-1.891,1.213-3.43,2.704-3.43h13.401c1.49,0,2.706,1.539,2.706,3.43v12.123
			C416.715,473.637,415.499,475.176,414.009,475.176L414.009,475.176z M400.611,456.883c-1.192,0-2.161,1.229-2.161,2.74v12.123
			c0,1.511,0.969,2.741,2.161,2.741h13.398c1.191,0,2.161-1.229,2.161-2.741v-12.123c0-1.511-0.97-2.74-2.161-2.74H400.611
			L400.611,456.883z"/>
		<g>
			<g>
				<polygon fill-rule="evenodd" clip-rule="evenodd" fill="#0F0F0F" points="406.748,458.234 406.751,458.802 407.163,458.339 
					407.163,459.658 407.447,459.65 407.458,458.396 407.872,458.816 407.869,458.206 407.312,457.695 				"/>
				<path fill-rule="evenodd" clip-rule="evenodd" fill="#0F0F0F" d="M404.999,463.05c0.042-0.206,0.277-0.399,0.532-0.47
					c0.902-0.161,1.491-0.131,2.43,0.021c0.245,0.065,0.442,0.224,0.464,0.429l0.453,1.26l1.302-0.827
					c0.339-0.151,0.547,0.16,0.318,0.425l-1.446,0.881c-0.173,0.135-0.514,0.117-0.642-0.109l-0.374-0.916
					c-0.092-0.041-0.183-0.043-0.273-0.006l-0.001,6.582c-0.125,0.288-0.67,0.286-0.755,0.004l-0.004-3.727
					c-0.197-0.048-0.241-0.048-0.437-0.001l-0.001,3.717c-0.099,0.285-0.622,0.311-0.727,0.033l0-6.607
					c-0.099-0.04-0.197-0.041-0.296-0.002l-0.029,2.881c-0.193,0.137-0.363,0.135-0.508-0.006L404.999,463.05L404.999,463.05z
					 M406.784,460.826c0.408,0,0.738,0.301,0.738,0.672c0,0.371-0.331,0.672-0.738,0.672c-0.407,0-0.738-0.301-0.738-0.672
					C406.046,461.127,406.376,460.826,406.784,460.826z"/>
				<polygon fill-rule="evenodd" clip-rule="evenodd" fill="#0F0F0F" points="406.748,473.134 406.751,472.566 407.163,473.029 
					407.163,471.71 407.447,471.718 407.458,472.972 407.872,472.552 407.869,473.162 407.312,473.673 				"/>
				<g>
					<rect x="414.017" y="459.021" fill-rule="evenodd" clip-rule="evenodd" fill="#0F0F0F" width="0.383" height="13.452"/>
					<rect x="400.219" y="459.149" fill-rule="evenodd" clip-rule="evenodd" fill="#0F0F0F" width="0.383" height="13.452"/>
				</g>
				<path fill-rule="evenodd" clip-rule="evenodd" fill="#0F0F0F" d="M402.423,459.892h9.773v11.584h-9.773V459.892L402.423,459.892
					z M402.615,460.079v11.21h9.39v-11.21H402.615z"/>
			</g>
		</g>
	</g>
	<g>
		<path fill-rule="evenodd" clip-rule="evenodd" fill="#0F0F0F" d="M225.226,204.695h-13.4c-1.49,0-2.704-1.567-2.704-3.493v-12.348
			c0-1.926,1.213-3.494,2.704-3.494h13.4c1.49,0,2.706,1.568,2.706,3.494v12.348C227.932,203.128,226.716,204.695,225.226,204.695
			L225.226,204.695z M211.828,186.063c-1.192,0-2.161,1.252-2.161,2.791v12.348c0,1.539,0.969,2.792,2.161,2.792h13.398
			c1.191,0,2.161-1.252,2.161-2.792v-12.348c0-1.539-0.97-2.791-2.161-2.791H211.828L211.828,186.063z"/>
		<g>
			<g>
				<polygon fill-rule="evenodd" clip-rule="evenodd" fill="#0F0F0F" points="217.965,187.439 217.968,188.018 218.38,187.546 
					218.38,188.89 218.664,188.881 218.675,187.604 219.089,188.032 219.086,187.411 218.529,186.89 				"/>
				<path fill-rule="evenodd" clip-rule="evenodd" fill="#0F0F0F" d="M216.216,192.344c0.042-0.209,0.277-0.406,0.532-0.479
					c0.902-0.164,1.491-0.134,2.43,0.022c0.245,0.066,0.442,0.228,0.464,0.437l0.453,1.284l1.302-0.842
					c0.339-0.154,0.547,0.163,0.318,0.433l-1.446,0.898c-0.173,0.138-0.514,0.119-0.642-0.111l-0.374-0.933
					c-0.092-0.042-0.183-0.044-0.273-0.006l-0.001,6.704c-0.125,0.293-0.67,0.292-0.755,0.004l-0.004-3.796
					c-0.197-0.049-0.241-0.049-0.437-0.001l-0.001,3.786c-0.099,0.29-0.622,0.317-0.727,0.033l0-6.729
					c-0.099-0.041-0.197-0.042-0.296-0.002l-0.029,2.934c-0.193,0.14-0.363,0.138-0.508-0.006L216.216,192.344L216.216,192.344z
					 M218.001,190.08c0.407,0,0.738,0.307,0.738,0.685c0,0.378-0.331,0.685-0.738,0.685c-0.407,0-0.738-0.307-0.738-0.685
					C217.263,190.386,217.594,190.08,218.001,190.08z"/>
				<polygon fill-rule="evenodd" clip-rule="evenodd" fill="#0F0F0F" points="217.965,202.616 217.968,202.037 218.38,202.509 
					218.38,201.165 218.664,201.174 218.675,202.451 219.089,202.023 219.086,202.644 218.529,203.165 				"/>
				<g>
					<rect x="225.234" y="188.24" fill-rule="evenodd" clip-rule="evenodd" fill="#0F0F0F" width="0.383" height="13.702"/>
					<rect x="211.437" y="188.371" fill-rule="evenodd" clip-rule="evenodd" fill="#0F0F0F" width="0.383" height="13.702"/>
				</g>
				<path fill-rule="evenodd" clip-rule="evenodd" fill="#0F0F0F" d="M213.641,189.128h9.773v11.799h-9.773V189.128L213.641,189.128
					z M213.832,189.318v11.418h9.39v-11.418H213.832z"/>
			</g>
		</g>
	</g>
	<g>
		<path fill-rule="evenodd" clip-rule="evenodd" fill="#9E9E9F" d="M553.808,619.517h-22.927c-2.55,0-4.626-2.632-4.626-5.868
			v-20.742c0-3.235,2.076-5.868,4.626-5.868h22.927c2.55,0,4.63,2.633,4.63,5.868v20.742
			C558.438,616.885,556.358,619.517,553.808,619.517L553.808,619.517z M530.885,588.219c-2.04,0-3.698,2.103-3.698,4.688v20.742
			c0,2.586,1.658,4.689,3.698,4.689h22.924c2.038,0,3.698-2.103,3.698-4.689v-20.742c0-2.585-1.66-4.688-3.698-4.688H530.885
			L530.885,588.219z"/>
		<g>
			<g>
				<path fill="#9E9E9F" d="M540.511,600.76c-0.511,0.146-1.027-0.218-1.151-0.813c-0.124-0.595,0.19-1.195,0.702-1.34
					c0.512-0.146,1.027,0.218,1.151,0.813C541.337,600.014,541.023,600.614,540.511,600.76z"/>
				<path fill="#9E9E9F" d="M537.91,604.186h1.617l0.018-2.818l2.593-0.874l1.749,0.073l2.012,1.661c0,0,0.41,0.59-0.054,0.912
					c-0.521,0.361-0.975-0.196-1.133-0.332l-1.391-1.2l-0.369,0.075l0.045,0.236l2.003,2.989l0.645,2.517l3.045,0.004
					c0.688-0.188,0.937,1.379,0.124,1.613l-3.823,0.056c0,0-0.401,0.095-0.606-0.68c-0.204-0.775-0.822-2.213-0.822-2.213
					c-0.029,0.141-0.864,1.051-1.117,1.705c-0.177,1.633-0.035,3.86-0.117,4.258c-0.124,0.604-0.649,0.69-0.982,0.494
					c-0.294-0.174-0.413-0.566-0.331-1.048l-0.156-4.029l1.154-1.833l-1.449-2.199v1.811l-0.001,0l0,0.031l-0.884,0.021
					c-0.035,0.002-0.071-0.002-0.108-0.01h-1.659c-0.288,0-0.522-0.273-0.522-0.61C537.388,604.459,537.622,604.186,537.91,604.186z
					"/>
			</g>
			<rect x="533.551" y="593.799" fill-rule="evenodd" clip-rule="evenodd" fill="#9E9E9F" width="17.592" height="1.458"/>
			<rect x="533.551" y="594.757" fill-rule="evenodd" clip-rule="evenodd" fill="#9E9E9F" width="2.896" height="17.583"/>
			<rect x="549.321" y="595.174" fill-rule="evenodd" clip-rule="evenodd" fill="#9E9E9F" width="1.821" height="17.583"/>
		</g>
	</g>
	<g>
		<path fill-rule="evenodd" clip-rule="evenodd" fill="#0F0F0F" d="M258.926,442.027h-15.507c-1.725,0-3.129-1.78-3.129-3.969
			v-14.029c0-2.188,1.404-3.969,3.129-3.969h15.507c1.725,0,3.131,1.781,3.131,3.969v14.029
			C262.057,440.247,260.65,442.027,258.926,442.027L258.926,442.027z M243.421,420.858c-1.38,0-2.501,1.422-2.501,3.171v14.029
			c0,1.749,1.122,3.172,2.501,3.172h15.505c1.378,0,2.501-1.423,2.501-3.172v-14.029c0-1.748-1.123-3.171-2.501-3.171H243.421
			L243.421,420.858z"/>
		<g>
			<g>
				<path fill="#0F0F0F" d="M249.932,429.34c-0.346,0.099-0.694-0.148-0.778-0.55c-0.084-0.402,0.129-0.808,0.474-0.907
					c0.346-0.099,0.694,0.148,0.778,0.55C250.49,428.836,250.278,429.242,249.932,429.34z"/>
				<path fill="#0F0F0F" d="M248.173,431.658h1.094l0.012-1.906l1.754-0.591l1.183,0.049l1.361,1.124c0,0,0.277,0.399-0.037,0.617
					c-0.352,0.245-0.66-0.132-0.766-0.224l-0.941-0.812l-0.25,0.051l0.03,0.16l1.355,2.021l0.436,1.702l2.059,0.003
					c0.465-0.127,0.634,0.933,0.084,1.091l-2.586,0.038c0,0-0.271,0.064-0.41-0.46c-0.138-0.524-0.556-1.496-0.556-1.496
					c-0.02,0.095-0.584,0.711-0.755,1.153c-0.12,1.105-0.024,2.611-0.079,2.88c-0.084,0.408-0.439,0.467-0.664,0.334
					c-0.199-0.117-0.28-0.383-0.224-0.709l-0.106-2.725l0.78-1.24l-0.98-1.488v1.225l-0.001,0l0,0.021l-0.598,0.014
					c-0.024,0.001-0.048-0.001-0.073-0.007h-1.122c-0.195,0-0.353-0.185-0.353-0.413
					C247.82,431.843,247.978,431.658,248.173,431.658z"/>
			</g>
			<rect x="245.224" y="424.632" fill-rule="evenodd" clip-rule="evenodd" fill="#0F0F0F" width="11.899" height="0.986"/>
			<rect x="245.224" y="425.28" fill-rule="evenodd" clip-rule="evenodd" fill="#0F0F0F" width="1.959" height="11.893"/>
			<rect x="255.891" y="425.562" fill-rule="evenodd" clip-rule="evenodd" fill="#0F0F0F" width="1.232" height="11.893"/>
		</g>
	</g>
	<g>
		<path fill-rule="evenodd" clip-rule="evenodd" fill="#0F0F0F" d="M345.395,443.774h-15.507c-1.725,0-3.129-1.78-3.129-3.969
			v-14.029c0-2.188,1.404-3.969,3.129-3.969h15.507c1.725,0,3.131,1.781,3.131,3.969v14.029
			C348.526,441.994,347.12,443.774,345.395,443.774L345.395,443.774z M329.89,422.605c-1.38,0-2.501,1.422-2.501,3.171v14.029
			c0,1.749,1.122,3.172,2.501,3.172h15.505c1.378,0,2.501-1.423,2.501-3.172v-14.029c0-1.748-1.123-3.171-2.501-3.171H329.89
			L329.89,422.605z"/>
		<g>
			<g>
				<path fill="#0F0F0F" d="M336.401,431.087c-0.346,0.099-0.694-0.148-0.778-0.55c-0.084-0.402,0.129-0.808,0.474-0.907
					c0.346-0.099,0.694,0.148,0.778,0.55C336.96,430.583,336.747,430.988,336.401,431.087z"/>
				<path fill="#0F0F0F" d="M334.642,433.405h1.094l0.012-1.906l1.754-0.591l1.183,0.049l1.361,1.124c0,0,0.277,0.399-0.037,0.617
					c-0.352,0.245-0.66-0.132-0.766-0.224l-0.941-0.812l-0.25,0.051l0.03,0.16l1.355,2.021l0.436,1.702l2.059,0.003
					c0.465-0.127,0.634,0.933,0.084,1.091l-2.586,0.038c0,0-0.271,0.064-0.41-0.46c-0.138-0.524-0.556-1.496-0.556-1.496
					c-0.02,0.095-0.584,0.711-0.755,1.153c-0.12,1.105-0.024,2.611-0.079,2.88c-0.084,0.408-0.439,0.467-0.664,0.334
					c-0.199-0.117-0.28-0.383-0.224-0.709l-0.106-2.725l0.78-1.24l-0.98-1.488v1.225l-0.001,0l0,0.021l-0.598,0.014
					c-0.024,0.001-0.048-0.001-0.073-0.007h-1.122c-0.195,0-0.353-0.185-0.353-0.413
					C334.289,433.589,334.447,433.405,334.642,433.405z"/>
			</g>
			<rect x="331.693" y="426.379" fill-rule="evenodd" clip-rule="evenodd" fill="#0F0F0F" width="11.899" height="0.986"/>
			<rect x="331.693" y="427.027" fill-rule="evenodd" clip-rule="evenodd" fill="#0F0F0F" width="1.959" height="11.893"/>
			<rect x="342.36" y="427.309" fill-rule="evenodd" clip-rule="evenodd" fill="#0F0F0F" width="1.232" height="11.893"/>
		</g>
	</g>
	<g>
		<path fill-rule="evenodd" clip-rule="evenodd" fill="#0F0F0F" d="M204.479,204.695h-13.552c-1.507,0-2.734-1.567-2.734-3.493
			v-12.348c0-1.926,1.227-3.494,2.734-3.494h13.552c1.507,0,2.736,1.568,2.736,3.494v12.348
			C207.215,203.128,205.986,204.695,204.479,204.695L204.479,204.695z M190.929,186.063c-1.206,0-2.186,1.252-2.186,2.791v12.348
			c0,1.539,0.98,2.792,2.186,2.792h13.549c1.204,0,2.186-1.252,2.186-2.792v-12.348c0-1.539-0.981-2.791-2.186-2.791H190.929
			L190.929,186.063z"/>
		<g>
			<g>
				<path fill="#0F0F0F" d="M196.619,193.528c-0.302,0.087-0.607-0.13-0.68-0.484c-0.073-0.354,0.112-0.711,0.415-0.798
					c0.302-0.087,0.607,0.13,0.68,0.484C197.107,193.084,196.921,193.442,196.619,193.528z"/>
				<path fill="#0F0F0F" d="M195.082,195.568h0.956l0.01-1.678l1.532-0.52l1.034,0.043l1.189,0.989c0,0,0.242,0.351-0.032,0.543
					c-0.308,0.215-0.576-0.116-0.67-0.197l-0.822-0.714l-0.218,0.045l0.027,0.141l1.184,1.779l0.381,1.498l1.8,0.003
					c0.406-0.112,0.554,0.821,0.073,0.96l-2.26,0.033c0,0-0.237,0.057-0.358-0.405c-0.121-0.462-0.486-1.317-0.486-1.317
					c-0.017,0.084-0.511,0.626-0.66,1.015c-0.105,0.972-0.021,2.298-0.069,2.535c-0.074,0.359-0.384,0.411-0.581,0.294
					c-0.174-0.103-0.244-0.337-0.196-0.624l-0.092-2.399l0.682-1.091l-0.856-1.309v1.078l-0.001,0l0,0.019l-0.523,0.012
					c-0.021,0.001-0.042-0.001-0.064-0.006h-0.98c-0.17,0-0.308-0.163-0.308-0.363S194.911,195.568,195.082,195.568z"/>
			</g>
			<rect x="192.505" y="189.384" fill-rule="evenodd" clip-rule="evenodd" fill="#0F0F0F" width="10.398" height="0.868"/>
			<rect x="192.505" y="189.955" fill-rule="evenodd" clip-rule="evenodd" fill="#0F0F0F" width="1.712" height="10.468"/>
			<rect x="201.827" y="190.203" fill-rule="evenodd" clip-rule="evenodd" fill="#0F0F0F" width="1.077" height="10.468"/>
		</g>
	</g>
	<g>
		<path fill-rule="evenodd" clip-rule="evenodd" fill="#0F0F0F" d="M500.082,444.838h-15.507c-1.725,0-3.129-1.78-3.129-3.969
			V426.84c0-2.188,1.404-3.969,3.129-3.969h15.507c1.725,0,3.131,1.781,3.131,3.969v14.029
			C503.213,443.058,501.806,444.838,500.082,444.838L500.082,444.838z M484.577,423.669c-1.38,0-2.501,1.422-2.501,3.171v14.029
			c0,1.749,1.122,3.172,2.501,3.172h15.505c1.378,0,2.501-1.423,2.501-3.172V426.84c0-1.748-1.123-3.171-2.501-3.171H484.577
			L484.577,423.669z"/>
		<g>
			<g>
				<path fill="#0F0F0F" d="M491.088,432.151c-0.346,0.099-0.694-0.148-0.778-0.55c-0.084-0.402,0.129-0.808,0.475-0.907
					c0.346-0.099,0.694,0.148,0.778,0.55C491.646,431.647,491.434,432.053,491.088,432.151z"/>
				<path fill="#0F0F0F" d="M489.329,434.469h1.094l0.012-1.906l1.754-0.591l1.183,0.049l1.361,1.124c0,0,0.277,0.399-0.037,0.617
					c-0.352,0.245-0.66-0.132-0.766-0.224l-0.941-0.812l-0.25,0.051l0.03,0.16l1.355,2.021l0.436,1.702l2.059,0.003
					c0.465-0.127,0.634,0.933,0.084,1.091l-2.586,0.038c0,0-0.271,0.064-0.41-0.46c-0.138-0.524-0.556-1.496-0.556-1.496
					c-0.02,0.095-0.584,0.711-0.755,1.153c-0.12,1.105-0.024,2.611-0.079,2.88c-0.084,0.408-0.439,0.467-0.664,0.334
					c-0.199-0.117-0.28-0.383-0.224-0.709l-0.106-2.725l0.78-1.24l-0.98-1.488v1.225l-0.001,0l0,0.021l-0.598,0.014
					c-0.024,0.001-0.048-0.001-0.073-0.007h-1.122c-0.195,0-0.353-0.185-0.353-0.413
					C488.976,434.654,489.134,434.469,489.329,434.469z"/>
			</g>
			<rect x="486.38" y="427.443" fill-rule="evenodd" clip-rule="evenodd" fill="#0F0F0F" width="11.899" height="0.986"/>
			<rect x="486.38" y="428.091" fill-rule="evenodd" clip-rule="evenodd" fill="#0F0F0F" width="1.959" height="11.893"/>
			<rect x="497.047" y="428.373" fill-rule="evenodd" clip-rule="evenodd" fill="#0F0F0F" width="1.232" height="11.893"/>
		</g>
	</g>
	<g>
		<path fill-rule="evenodd" clip-rule="evenodd" fill="#0F0F0F" d="M528.702,181.204h-15.507c-1.725,0-3.129-1.78-3.129-3.969
			v-14.029c0-2.188,1.404-3.969,3.129-3.969h15.507c1.724,0,3.131,1.781,3.131,3.969v14.029
			C531.833,179.423,530.426,181.204,528.702,181.204L528.702,181.204z M513.197,160.034c-1.38,0-2.501,1.422-2.501,3.171v14.029
			c0,1.749,1.122,3.172,2.501,3.172h15.505c1.378,0,2.501-1.423,2.501-3.172v-14.029c0-1.748-1.123-3.171-2.501-3.171H513.197
			L513.197,160.034z"/>
		<g>
			<g>
				<path fill="#0F0F0F" d="M519.708,168.517c-0.346,0.099-0.694-0.148-0.778-0.55c-0.084-0.402,0.129-0.808,0.475-0.907
					c0.346-0.099,0.694,0.148,0.778,0.55C520.266,168.012,520.054,168.418,519.708,168.517z"/>
				<path fill="#0F0F0F" d="M517.949,170.834h1.094l0.012-1.906l1.754-0.591l1.183,0.049l1.36,1.124c0,0,0.277,0.399-0.037,0.617
					c-0.352,0.245-0.66-0.132-0.766-0.224l-0.941-0.812l-0.25,0.051l0.03,0.16l1.355,2.021l0.436,1.702l2.059,0.003
					c0.465-0.127,0.634,0.933,0.084,1.091l-2.586,0.038c0,0-0.271,0.064-0.41-0.46c-0.138-0.524-0.556-1.497-0.556-1.497
					c-0.02,0.095-0.584,0.711-0.755,1.153c-0.12,1.105-0.024,2.611-0.079,2.88c-0.084,0.408-0.439,0.467-0.664,0.334
					c-0.199-0.117-0.28-0.383-0.224-0.709l-0.106-2.725l0.78-1.24l-0.98-1.488v1.225l-0.001,0l0,0.021l-0.598,0.014
					c-0.024,0.001-0.048-0.001-0.073-0.007h-1.122c-0.195,0-0.353-0.185-0.353-0.413S517.754,170.834,517.949,170.834z"/>
			</g>
			<rect x="515" y="163.809" fill-rule="evenodd" clip-rule="evenodd" fill="#0F0F0F" width="11.899" height="0.986"/>
			<rect x="515" y="164.457" fill-rule="evenodd" clip-rule="evenodd" fill="#0F0F0F" width="1.959" height="11.893"/>
			<rect x="525.667" y="164.739" fill-rule="evenodd" clip-rule="evenodd" fill="#0F0F0F" width="1.232" height="11.893"/>
		</g>
	</g>
</g>
<g id="图层_3">
	<g>
		<g>
			<path d="M218.835,652.477c0.325-0.069,0.909-0.237,1.754-0.508l-0.027-2.589l-1.563,0.017l-0.009-0.831l1.563-0.017l-0.025-2.346
				l0.928-0.01l0.025,2.346l1.466-0.016l0.009,0.831l-1.466,0.015l0.025,2.346c0.454-0.167,0.892-0.319,1.315-0.454
				c0.004,0.391,0.023,0.7,0.059,0.928c-0.358,0.102-0.813,0.253-1.364,0.454l0.038,3.518c0.074,0.88-0.344,1.323-1.256,1.333
				c-0.521,0.006-0.879,0.01-1.075,0.012c0-0.033-0.001-0.082-0.002-0.146c-0.035-0.195-0.103-0.472-0.204-0.829
				c0.098-0.001,0.276-0.003,0.537-0.006c0.261,0.029,0.457,0.044,0.587,0.043c0.326,0.028,0.488-0.135,0.484-0.493l-0.033-3.127
				c-0.228,0.067-0.568,0.186-1.023,0.353c-0.292,0.101-0.503,0.168-0.633,0.202L218.835,652.477z M226.047,646.047l0.977-0.011
				l0.022,2.102l2.98-0.031l0.009,0.83l-3.029,0.031l0.011,1.026c0.005,0.521-0.006,0.962-0.035,1.32l3.566-0.038l0.009,0.83
				l-3.371,0.036c0.512,2.146,1.667,3.615,3.467,4.41c-0.065,0.065-0.322,0.361-0.772,0.888c-1.64-0.992-2.73-2.479-3.272-4.461
				c-0.372,1.828-1.577,3.372-3.616,4.632c-0.198-0.227-0.413-0.483-0.644-0.775c2.008-1.063,3.197-2.623,3.566-4.68l-2.736,0.028
				l-0.009-0.83l2.834-0.029c0.06-0.457,0.087-0.93,0.083-1.418c-0.003-0.325-0.007-0.636-0.01-0.929l-2.541,0.026l-0.009-0.83
				l2.541-0.026C226.055,646.846,226.048,646.145,226.047,646.047z"/>
			<path d="M231.258,653.615c0.833-1.344,1.436-2.816,1.81-4.417l-1.466,0.016l-0.008-0.781l1.466-0.016l-0.026-2.443l0.879-0.01
				l0.026,2.443l1.368-0.015l0.008,0.781l-1.368,0.015l0.015,1.368l0.29-0.296c0.198,0.161,0.477,0.435,0.84,0.822
				c0.229,0.225,0.395,0.387,0.494,0.482l-0.629,0.593c-0.198-0.257-0.479-0.596-0.841-1.017c-0.066-0.064-0.116-0.112-0.148-0.145
				l0.07,6.547l-0.879,0.01l-0.066-6.205c-0.346,1.208-0.792,2.239-1.335,3.092C231.621,654.117,231.456,653.841,231.258,653.615z
				 M235.74,647.752l1.661-0.018c0-0.032-0.017-0.065-0.05-0.098c-0.332-0.615-0.63-1.051-0.894-1.31l0.729-0.448
				c0.496,0.68,0.826,1.149,0.992,1.407l-0.679,0.447l1.905-0.02c0.193-0.264,0.481-0.723,0.865-1.378
				c0.127-0.229,0.223-0.395,0.288-0.492l0.884,0.431c-0.193,0.229-0.418,0.542-0.674,0.936c-0.161,0.229-0.273,0.394-0.337,0.492
				l1.808-0.019l0.033,3.078l-2.883,0.03l0.015,1.416l3.518-0.037c0.002,0.196-0.012,0.457-0.041,0.782
				c-0.026,0.62-0.084,1.223-0.176,1.81c-0.088,0.849-0.622,1.262-1.599,1.239c-0.359,0.004-0.766,0.008-1.221,0.013
				c-0.036-0.292-0.088-0.602-0.157-0.927c0.163-0.002,0.391-0.004,0.684-0.008c0.293,0.03,0.505,0.044,0.636,0.043
				c0.489,0.027,0.748-0.155,0.776-0.546c0.062-0.294,0.122-0.799,0.179-1.517c0-0.032,0-0.064-0.001-0.098l-2.589,0.027
				l0.048,4.495l-0.831,0.009l-0.041-3.812c-0.899,1.216-2.061,2.222-3.486,3.018c-0.199-0.291-0.414-0.517-0.643-0.677
				c1.62-0.799,2.864-1.806,3.73-3.021l-2.442,0.026l0.359-2.984l2.442-0.026l-0.016-1.515l-2.785,0.029L235.74,647.752z
				 M236.667,652.238l1.905-0.021l-0.015-1.416l-1.709,0.019L236.667,652.238z M241.415,648.474l-2.052,0.021l0.016,1.515
				l2.052-0.021L241.415,648.474z"/>
		</g>
	</g>
	<g>
		<g>
			<path d="M217.66,598.059h9.625v0.831h-4.446c-0.033,1.074-0.131,2.02-0.293,2.833h5.619v0.88h-4.593v3.811
				c-0.033,0.685,0.276,1.01,0.928,0.978h1.661c0.651,0.032,0.993-0.211,1.026-0.732c0-0.13,0.016-0.31,0.049-0.538
				c0.032-0.423,0.065-0.781,0.098-1.074c0.098,0.032,0.26,0.081,0.488,0.146c0.195,0.098,0.342,0.163,0.44,0.195
				c-0.033,0.651-0.098,1.189-0.196,1.612c-0.065,0.911-0.684,1.335-1.856,1.271h-1.905c-1.141,0.031-1.694-0.538-1.662-1.71v-3.958
				h-0.293c-0.554,2.573-2.248,4.642-5.082,6.205c-0.163-0.293-0.391-0.586-0.684-0.88c2.638-1.27,4.234-3.045,4.788-5.325h-4.593
				v-0.88h4.788c0.195-0.813,0.293-1.759,0.293-2.833h-4.202V598.059z"/>
			<path d="M232.904,603.922c0.228,1.498-0.13,2.362-1.075,2.589c-0.033,0-0.114,0-0.244,0c-0.326,0.033-0.619,0.033-0.879,0
				c-0.033-0.195-0.098-0.423-0.196-0.684c-0.033-0.13-0.049-0.212-0.049-0.244c0.032,0,0.065,0,0.098,0
				c0.325,0.065,0.635,0.082,0.929,0.049c0.521-0.098,0.716-0.651,0.586-1.661c-0.163-0.651-0.521-1.319-1.075-2.003
				c0.163-0.456,0.374-1.189,0.635-2.199c0.163-0.586,0.276-0.978,0.342-1.173h-1.515v10.065h-0.879v-10.847h3.322v0.781
				c-0.065,0.262-0.261,0.863-0.586,1.809c-0.196,0.684-0.342,1.156-0.44,1.416C232.464,602.603,232.806,603.304,232.904,603.922z
				 M232.708,606.414h3.616v-0.879h-2.638v-3.812h6.205v3.812h-2.688v0.879h3.665v0.733h-3.665v1.612h-0.879v-1.612h-3.616V606.414z
				 M235.933,597.277l0.782-0.293c0.196,0.392,0.391,0.766,0.586,1.124l-0.391,0.146h3.566v0.733h-5.521
				c0.358,0.358,0.684,0.732,0.977,1.123l-0.342,0.244h2.101c0.065-0.098,0.163-0.244,0.293-0.439
				c0.293-0.391,0.489-0.684,0.586-0.879l0.831,0.439c-0.065,0.065-0.146,0.163-0.244,0.293c-0.229,0.261-0.391,0.457-0.489,0.586
				h2.15v0.733h-8.062v-0.733h2.296c-0.228-0.357-0.473-0.667-0.733-0.928l0.538-0.439h-1.612v-0.733h3.176
				c-0.065-0.162-0.164-0.358-0.293-0.586C236.031,597.505,235.965,597.375,235.933,597.277z M234.516,602.457v0.83h4.544v-0.83
				H234.516z M234.516,603.971v0.879h4.544v-0.879H234.516z"/>
			<path d="M241.845,598.157h4.202v0.782h-1.71c-0.195,0.879-0.457,1.742-0.782,2.589h1.955v6.254h-0.782v-0.879h-1.222v0.977
				h-0.831v-4.446c-0.195,0.392-0.408,0.767-0.635,1.124c-0.13-0.162-0.326-0.374-0.586-0.635c0.912-1.498,1.58-3.159,2.003-4.983
				h-1.612V598.157z M243.507,602.31v3.811h1.222v-3.811H243.507z M246.292,602.896h6.791v0.782h-1.465v0.977h1.759v0.782h-1.759
				v1.661c0.032,0.944-0.473,1.417-1.515,1.417c-0.684,0-1.157,0-1.417,0c-0.033-0.391-0.098-0.717-0.195-0.978
				c0.098,0,0.211,0.017,0.342,0.049c0.391,0.032,0.749,0.049,1.075,0.049c0.586,0.032,0.863-0.244,0.831-0.83v-1.368h-4.886v-0.782
				h4.886v-0.977h-4.446V602.896z M246.682,597.668h5.863v4.349h-5.863V597.668z M246.78,605.974l0.635-0.488
				c0.619,0.619,1.042,1.092,1.271,1.417l-0.733,0.439C247.594,606.919,247.203,606.462,246.78,605.974z M247.513,598.401v1.075
				h4.202v-1.075H247.513z M247.513,600.16v1.124h4.202v-1.124H247.513z"/>
			<path d="M258.897,607.489c0.716,0.032,1.905,0.032,3.566,0c1.857,0,2.98-0.017,3.372-0.049c-0.098,0.261-0.212,0.569-0.342,0.929
				c-0.457,0.032-1.417,0.032-2.882,0c-1.694,0-2.964-0.017-3.811-0.049c-1.043,0-1.971-0.44-2.785-1.319
				c-0.326,0.261-0.814,0.781-1.466,1.563l-0.586-0.831c0.325-0.326,0.863-0.847,1.612-1.563v-3.957h-1.417v-0.88h2.345v4.886
				C257.089,607,257.887,607.423,258.897,607.489z M255.526,597.375c0.489,0.586,1.042,1.336,1.662,2.247
				c-0.261,0.163-0.538,0.358-0.831,0.586c-0.717-1.106-1.238-1.889-1.563-2.345L255.526,597.375z M258.604,599.281l0.489-0.587
				c1.042,0.521,1.791,0.913,2.248,1.173l2.101-1.319h-5.668v-0.781h7.134v0.83l-2.785,1.661h2.883v5.229
				c0.032,0.945-0.408,1.434-1.319,1.466c-0.619,0.032-1.043,0.032-1.271,0c0-0.032-0.017-0.081-0.049-0.146
				c-0.033-0.392-0.082-0.651-0.146-0.782c0.032,0,0.065,0,0.098,0c0.423,0.065,0.782,0.098,1.075,0.098
				c0.553,0.033,0.813-0.244,0.782-0.83v-0.44h-2.296v1.906h-0.831v-1.906H258.8v2.053h-0.831v-6.646h2.687
				C260.265,600.062,259.581,599.737,258.604,599.281z M258.8,600.991v1.222h2.248v-1.222H258.8z M258.8,602.945v1.173h2.248v-1.173
				H258.8z M264.174,600.991h-2.296v1.222h2.296V600.991z M261.878,602.945v1.173h2.296v-1.173H261.878z"/>
			<path d="M271.796,607.538c0.847,0.032,2.003,0.049,3.469,0.049c1.302-0.032,2.345-0.065,3.127-0.098
				c-0.195,0.391-0.326,0.7-0.391,0.929c-3.225,0-5.31-0.017-6.254-0.049c-1.563,0.064-2.655-0.375-3.273-1.319
				c-0.326,0.26-0.782,0.765-1.368,1.515l-0.488-0.929c0.456-0.423,0.944-0.896,1.465-1.417v-4.006h-1.368v-0.88h2.248v4.983
				C269.515,607.13,270.46,607.538,271.796,607.538z M267.74,597.424c0.782,0.977,1.302,1.661,1.563,2.052l-0.782,0.537
				c-0.359-0.586-0.863-1.286-1.515-2.101L267.74,597.424z M270.623,600.454h2.443l0.195-1.026h-3.322v-0.782h2.296
				c-0.195-0.293-0.489-0.65-0.879-1.074l0.684-0.538c0.456,0.489,0.813,0.896,1.075,1.222l-0.586,0.391h2.15
				c0.293-0.357,0.651-0.896,1.075-1.612l0.929,0.489c-0.293,0.358-0.619,0.732-0.978,1.123h2.541v0.782h-4.007l-0.342,1.026h3.469
				v6.107h-6.743V600.454z M271.503,601.235v1.026h4.983v-1.026H271.503z M271.503,602.994v1.026h4.983v-1.026H271.503z
				 M271.503,604.752v1.075h4.983v-1.075H271.503z"/>
		</g>
	</g>
	<g>
		<g>
			<path d="M424.084,647.259h0.928v1.563h4.349v6.646h-4.349v1.222c-0.065,0.586,0.294,0.862,1.075,0.83h2.346
				c0.684,0.032,1.074-0.162,1.172-0.586c0.098-0.261,0.163-0.766,0.195-1.515c0.392,0.098,0.717,0.195,0.978,0.293
				c-0.065,0.619-0.163,1.156-0.293,1.612c-0.163,0.749-0.814,1.106-1.954,1.075h-2.688c-1.238,0.064-1.824-0.489-1.759-1.661
				v-1.271h-3.47v0.83h-0.879v-7.476h4.349V647.259z M420.614,649.703v2.052h3.47v-2.052H420.614z M420.614,652.537v2.052h3.47
				v-2.052H420.614z M428.432,649.703h-3.421v2.052h3.421V649.703z M425.011,654.588h3.421v-2.052h-3.421V654.588z"/>
			<path d="M431.461,654.881c0.847-1.335,1.466-2.801,1.857-4.397h-1.466v-0.781h1.466v-2.443h0.879v2.443h1.368v0.781h-1.368v1.368
				l0.293-0.293c0.196,0.163,0.473,0.439,0.831,0.831c0.228,0.228,0.391,0.391,0.488,0.488l-0.635,0.586
				c-0.195-0.26-0.473-0.602-0.831-1.025c-0.065-0.065-0.114-0.114-0.146-0.146v6.547h-0.879v-6.205
				c-0.359,1.205-0.815,2.231-1.368,3.078C431.819,655.387,431.657,655.11,431.461,654.881z M436.005,649.068h1.661
				c0-0.032-0.017-0.065-0.049-0.099c-0.325-0.618-0.619-1.058-0.879-1.318l0.732-0.44c0.489,0.685,0.814,1.157,0.978,1.417
				l-0.684,0.44h1.905c0.195-0.261,0.488-0.717,0.879-1.368c0.13-0.228,0.228-0.392,0.294-0.489l0.879,0.44
				c-0.195,0.228-0.424,0.537-0.684,0.928c-0.164,0.229-0.277,0.391-0.343,0.489h1.809v3.078h-2.883v1.416h3.518
				c0,0.196-0.017,0.457-0.049,0.782c-0.033,0.619-0.098,1.222-0.195,1.808c-0.098,0.848-0.636,1.255-1.612,1.222
				c-0.359,0-0.766,0-1.222,0c-0.033-0.293-0.082-0.603-0.146-0.929c0.162,0,0.391,0,0.684,0c0.294,0.033,0.505,0.049,0.636,0.049
				c0.488,0.033,0.749-0.146,0.781-0.537c0.065-0.293,0.13-0.798,0.195-1.515c0-0.032,0-0.064,0-0.098h-2.589v4.495h-0.831v-3.812
				c-0.912,1.206-2.085,2.199-3.518,2.98c-0.195-0.293-0.408-0.521-0.636-0.684c1.629-0.782,2.883-1.775,3.763-2.98h-2.443
				l0.392-2.98h2.442v-1.515h-2.785V649.068z M436.885,653.562h1.905v-1.416h-1.71L436.885,653.562z M441.673,649.849h-2.052v1.515
				h2.052V649.849z"/>
		</g>
	</g>
	<g>
		<g>
			<path d="M421.352,600.454c0.619,0.456,1.303,0.977,2.053,1.563c-0.293,0.325-0.521,0.586-0.685,0.781
				c-1.01-0.911-1.661-1.466-1.954-1.661L421.352,600.454z M422.135,603.874c0.325,0.13,0.635,0.244,0.929,0.342
				c-0.066,0.229-0.164,0.668-0.294,1.319c-0.391,1.498-0.635,2.523-0.732,3.078l-1.026-0.293
				C421.433,607.049,421.808,605.567,422.135,603.874z M421.793,597.424c0.716,0.554,1.384,1.123,2.003,1.71
				c-0.261,0.261-0.488,0.488-0.684,0.684c-0.75-0.716-1.386-1.303-1.906-1.759L421.793,597.424z M427.754,597.179h0.928v2.248
				h3.127v0.83h-3.127v2.346h3.763v0.83h-2.883v3.421c-0.033,0.455,0.211,0.667,0.732,0.635h0.538c0.391,0,0.635-0.163,0.732-0.488
				c0.032-0.228,0.081-0.733,0.146-1.515c0.261,0.13,0.554,0.244,0.88,0.342c0,0.065-0.017,0.146-0.049,0.244
				c-0.033,0.587-0.082,0.994-0.146,1.222c-0.164,0.651-0.587,0.993-1.271,1.026h-1.124c-0.88,0-1.319-0.473-1.319-1.417v-3.47
				h-1.71c0,2.606-1.059,4.381-3.176,5.326c-0.195-0.261-0.391-0.521-0.586-0.782c1.954-0.716,2.898-2.23,2.833-4.544h-2.345v-0.83
				h4.056v-2.346h-2.15c-0.229,0.587-0.488,1.141-0.781,1.661c-0.424-0.26-0.717-0.406-0.88-0.439
				c0.651-1.042,1.173-2.296,1.563-3.762l0.929,0.195c-0.066,0.195-0.164,0.488-0.293,0.879c-0.099,0.294-0.164,0.506-0.196,0.636
				h1.809V597.179z"/>
			<path d="M434.105,598.939c0-0.294-0.033-0.603-0.099-0.929c3.648-0.065,6.905-0.212,9.772-0.439l0.146,0.977
				c-1.368,0.098-2.802,0.164-4.3,0.195v2.199h4.349v0.928h-4.349v2.102h5.375v0.977h-5.375V607
				c0.065,1.009-0.424,1.498-1.466,1.466c-0.391,0.032-1.059,0.049-2.003,0.049c-0.065-0.359-0.146-0.717-0.244-1.075
				c0.553,0.032,1.188,0.049,1.905,0.049c0.651,0.032,0.944-0.195,0.88-0.684v-1.857h-5.375v-0.977h5.375v-2.102h-4.544v-0.928
				h4.544v-2.15C436.58,598.858,435.05,598.907,434.105,598.939z"/>
			<path d="M446.369,599.427h0.928v9.186h-0.928V599.427z M447.004,597.668l0.685-0.587c0.911,0.88,1.466,1.434,1.661,1.661
				l-0.782,0.685C447.916,598.678,447.395,598.092,447.004,597.668z M449.105,600.257h5.032v6.01h-5.032V600.257z M449.935,601.088
				v1.71h3.371v-1.71H449.935z M449.935,603.678v1.759h3.371v-1.759H449.935z M450.131,598.743v-0.928h6.841v8.99
				c0.064,1.271-0.506,1.872-1.71,1.808c-0.457,0.032-1.06,0.032-1.808,0c-0.033-0.229-0.082-0.555-0.147-0.978
				c0.619,0.032,1.222,0.049,1.809,0.049c0.65,0.065,0.96-0.244,0.928-0.928v-8.014H450.131z"/>
		</g>
	</g>
	<g>
		<g>
			<path d="M572.159,605.051c0.228-0.325,0.603-0.911,1.124-1.759h-3.176v-0.879h3.713c0.391-0.685,0.765-1.4,1.124-2.15
				l0.928,0.392c-0.163,0.228-0.391,0.619-0.684,1.172c-0.163,0.262-0.277,0.457-0.342,0.587h6.986v0.879h-2.541
				c-0.423,1.271-1.107,2.297-2.052,3.078c0.261,0.098,0.636,0.262,1.124,0.489c0.586,0.261,1.466,0.635,2.639,1.123l-0.489,0.88
				c-0.326-0.131-0.766-0.342-1.319-0.636c-1.205-0.554-2.134-0.96-2.784-1.221c-1.238,0.781-3.029,1.433-5.375,1.954
				c-0.033-0.065-0.082-0.163-0.146-0.293c-0.065-0.098-0.18-0.326-0.342-0.685c2.117-0.293,3.762-0.765,4.935-1.417
				c-0.521-0.228-1.336-0.602-2.443-1.123C572.647,605.28,572.354,605.149,572.159,605.051z M575.091,597.723l0.83-0.489
				c0.065,0.131,0.179,0.311,0.343,0.538c0.325,0.456,0.553,0.814,0.684,1.074l-0.488,0.294h4.837v2.247h-0.929v-1.417h-8.746v1.417
				h-0.928v-2.247h5.276C575.644,598.489,575.35,598.016,575.091,597.723z M573.429,604.758c0.26,0.131,0.7,0.311,1.319,0.538
				c0.684,0.293,1.204,0.521,1.563,0.684c0.977-0.749,1.644-1.645,2.003-2.688h-4.007
				C574.015,603.782,573.722,604.27,573.429,604.758z"/>
			<path d="M588.331,597.234l0.978,0.244c-0.033,0.033-0.065,0.098-0.098,0.196c-0.065,0.065-0.114,0.13-0.146,0.195
				c1.53,1.791,3.306,3.062,5.325,3.811c-0.229,0.359-0.439,0.685-0.635,0.978c-0.424-0.195-0.88-0.439-1.368-0.733v0.831h-3.42
				v1.808h3.859v0.88h-3.859v2.101h4.886v0.782h-10.749v-0.782h4.886v-2.101h-3.811v-0.88h3.811v-1.808h-3.371v-0.782
				c-0.065,0.033-0.163,0.098-0.293,0.195c-0.489,0.294-0.88,0.506-1.173,0.636c-0.163-0.261-0.359-0.554-0.587-0.88
				C585.106,600.655,587.028,599.09,588.331,597.234z M588.526,598.553c-0.977,1.206-2.247,2.329-3.811,3.371h7.671
				C590.823,600.916,589.536,599.792,588.526,598.553z"/>
			<path d="M596.344,602.853v-4.251h0.928v3.371h3.226v-4.446h0.928v4.446h3.225v-3.371h0.929v4.251h-4.153v4.642h3.566v-3.371
				h0.929v4.593h-0.929v-0.391h-8.94v-4.202h0.928v3.371h3.519v-4.642H596.344z"/>
			<path d="M608.755,598.553h9.43v9.919h-0.978v-1.075h-7.476v1.075h-0.977V598.553z M609.731,599.482v7.035h7.476v-7.035H609.731z"
				/>
		</g>
	</g>
	<g>
		<g>
			<path d="M570.177,654.427c0.847-1.368,1.433-2.768,1.759-4.202h-1.515v-0.781h1.515V647h0.831v2.443h1.368v0.781h-1.368v1.026
				l0.488-0.391c0.064,0.065,0.179,0.163,0.342,0.293c0.489,0.457,0.766,0.701,0.831,0.733l-0.636,0.537
				c-0.032-0.032-0.081-0.098-0.146-0.195c-0.391-0.391-0.684-0.667-0.879-0.831v7.183h-0.831v-6.303
				c-0.358,1.238-0.83,2.296-1.417,3.176C570.421,655.063,570.306,654.72,570.177,654.427z M574.818,655.893
				c0.098-0.13,0.293-0.374,0.586-0.732c0.163-0.195,0.294-0.358,0.392-0.489h-1.809v-0.781h2.346
				c0.195-0.293,0.391-0.587,0.586-0.88l0.831,0.343c-0.098,0.163-0.229,0.342-0.391,0.537h4.446v0.781h-1.661
				c-0.326,0.782-0.782,1.45-1.368,2.004c0.228,0.098,0.569,0.228,1.025,0.391c0.456,0.13,1.059,0.358,1.808,0.684l-0.537,0.782
				c-0.717-0.391-1.727-0.848-3.029-1.368c-0.912,0.618-2.28,1.091-4.104,1.417c-0.228-0.457-0.374-0.733-0.439-0.831
				c1.563-0.261,2.769-0.57,3.616-0.928c-0.262-0.098-0.685-0.261-1.271-0.489C575.387,656.137,575.046,655.991,574.818,655.893z
				 M577.506,646.952h0.83v2.834h3.225v0.782h-2.589c0.716,0.781,1.693,1.417,2.932,1.905c0,0.033-0.033,0.065-0.098,0.098
				c-0.229,0.293-0.375,0.506-0.44,0.635c-1.4-0.716-2.41-1.515-3.029-2.394v2.247h-0.83v-2.247c-0.88,1.107-1.89,1.954-3.029,2.541
				c-0.033-0.032-0.082-0.099-0.146-0.196c-0.131-0.162-0.277-0.325-0.44-0.488c1.173-0.554,2.166-1.254,2.98-2.101h-2.345v-0.782
				h2.98V646.952z M574.672,647.978l0.586-0.488c0.521,0.424,1.042,0.896,1.563,1.417l-0.684,0.586
				C575.714,648.972,575.225,648.466,574.672,647.978z M576.089,655.551c0.098,0.033,0.228,0.082,0.391,0.146
				c0.358,0.131,0.831,0.342,1.417,0.635c0.521-0.391,0.96-0.944,1.319-1.661h-2.443c-0.098,0.131-0.244,0.311-0.439,0.538
				C576.235,655.373,576.153,655.486,576.089,655.551z M581.219,647.929c-0.326,0.358-0.863,0.88-1.612,1.563l-0.586-0.537
				c0.13-0.13,0.357-0.343,0.684-0.636c0.391-0.391,0.685-0.684,0.88-0.879L581.219,647.929z"/>
			<path d="M582.538,654.623c0.847-1.335,1.466-2.801,1.856-4.397h-1.466v-0.781h1.466V647h0.88v2.443h1.368v0.781h-1.368v1.368
				l0.293-0.293c0.195,0.163,0.472,0.439,0.83,0.831c0.228,0.228,0.392,0.391,0.489,0.488l-0.636,0.586
				c-0.195-0.26-0.473-0.602-0.83-1.025c-0.065-0.065-0.114-0.114-0.146-0.146v6.547h-0.88v-6.205
				c-0.358,1.205-0.814,2.231-1.368,3.078C582.896,655.128,582.733,654.851,582.538,654.623z M587.082,648.809h1.661
				c0-0.032-0.017-0.065-0.049-0.099c-0.326-0.618-0.619-1.058-0.88-1.318l0.733-0.44c0.488,0.685,0.813,1.157,0.977,1.417
				l-0.684,0.44h1.905c0.195-0.261,0.489-0.717,0.88-1.368c0.13-0.228,0.228-0.392,0.293-0.489l0.88,0.44
				c-0.196,0.228-0.424,0.537-0.685,0.928c-0.163,0.229-0.277,0.391-0.342,0.489h1.808v3.078h-2.883v1.416h3.519
				c0,0.196-0.018,0.457-0.05,0.782c-0.032,0.619-0.098,1.222-0.195,1.808c-0.098,0.848-0.635,1.255-1.612,1.222
				c-0.358,0-0.766,0-1.221,0c-0.033-0.293-0.082-0.603-0.147-0.929c0.163,0,0.392,0,0.685,0c0.293,0.033,0.505,0.049,0.635,0.049
				c0.489,0.033,0.749-0.146,0.782-0.537c0.064-0.293,0.13-0.798,0.195-1.515c0-0.032,0-0.064,0-0.098h-2.59v4.495h-0.83v-3.812
				c-0.912,1.206-2.085,2.199-3.519,2.98c-0.195-0.293-0.407-0.521-0.635-0.684c1.628-0.782,2.883-1.775,3.762-2.98h-2.442
				l0.391-2.98h2.443v-1.515h-2.785V648.809z M587.961,653.303h1.906v-1.416h-1.71L587.961,653.303z M592.75,649.59h-2.053v1.515
				h2.053V649.59z"/>
		</g>
	</g>
	<g>
		<path d="M340.086,103.226c0.228-0.325,0.602-0.912,1.123-1.759h-3.176v-0.879h3.714c0.391-0.684,0.765-1.4,1.123-2.15l0.929,0.391
			c-0.163,0.228-0.391,0.619-0.684,1.173c-0.164,0.261-0.277,0.457-0.343,0.586h6.987v0.879h-2.541
			c-0.424,1.271-1.107,2.296-2.052,3.078c0.26,0.098,0.635,0.261,1.124,0.489c0.586,0.261,1.466,0.635,2.638,1.124l-0.488,0.879
			c-0.326-0.131-0.766-0.342-1.319-0.635c-1.205-0.554-2.134-0.96-2.785-1.222c-1.238,0.782-3.029,1.433-5.374,1.955
			c-0.033-0.066-0.082-0.164-0.146-0.293c-0.065-0.098-0.18-0.326-0.342-0.684c2.116-0.293,3.762-0.765,4.935-1.417
			c-0.521-0.228-1.336-0.603-2.443-1.124C340.574,103.454,340.281,103.323,340.086,103.226z M343.018,95.896l0.83-0.488
			c0.064,0.13,0.179,0.31,0.342,0.537c0.325,0.457,0.554,0.814,0.685,1.075l-0.489,0.293h4.838v2.248h-0.929v-1.417h-8.746v1.417
			h-0.928v-2.248h5.276C343.571,96.662,343.278,96.19,343.018,95.896z M341.356,102.932c0.261,0.131,0.7,0.31,1.319,0.538
			c0.685,0.293,1.205,0.521,1.563,0.684c0.978-0.749,1.645-1.645,2.004-2.688h-4.007
			C341.943,101.955,341.65,102.444,341.356,102.932z"/>
		<path d="M350.444,102.493c0.814-0.879,1.563-2.15,2.248-3.811l0.732,0.439c-0.098,0.196-0.244,0.489-0.439,0.88
			c-0.195,0.326-0.326,0.57-0.391,0.732v6.401h-0.831v-4.984c-0.293,0.424-0.604,0.848-0.929,1.271
			C350.704,103.128,350.573,102.818,350.444,102.493z M350.59,98.73c0.88-0.912,1.612-1.986,2.199-3.225l0.732,0.488
			c-0.717,1.336-1.547,2.525-2.491,3.567C350.9,99.268,350.753,98.992,350.59,98.73z M354.109,104.3l0.635,0.44
			c-0.195,0.293-0.488,0.684-0.88,1.172c-0.163,0.196-0.276,0.342-0.342,0.44c-0.195-0.164-0.407-0.31-0.635-0.44
			c0.293-0.293,0.667-0.765,1.124-1.417C354.042,104.398,354.075,104.333,354.109,104.3z M356.746,102.444l0.587-0.342
			c0.423,0.489,0.911,1.092,1.466,1.808l-0.636,0.439c-0.032-0.065-0.081-0.163-0.146-0.293c-0.098-0.098-0.163-0.179-0.195-0.244
			c-0.424,0-0.912,0.017-1.466,0.049v1.856c0.032,0.847-0.358,1.253-1.173,1.222c-0.488,0-0.798,0-0.928,0
			c-0.033-0.229-0.082-0.521-0.146-0.88c0.325,0.065,0.602,0.098,0.83,0.098c0.456,0.032,0.667-0.164,0.636-0.586v-1.661
			c-0.489,0-0.962,0.033-1.417,0.098c-0.294,0-0.521,0.033-0.685,0.098l-0.244-0.733h0.049c0.13-0.032,0.293-0.114,0.488-0.244
			c0.587-0.293,1.173-0.667,1.76-1.124c-0.489,0-0.945,0.033-1.368,0.098c-0.326,0.033-0.521,0.066-0.587,0.098l-0.293-0.684h0.049
			c0.228-0.098,0.423-0.212,0.586-0.342c0.489-0.358,0.896-0.716,1.222-1.075h-1.515v-0.733h4.495v0.733h-1.954
			c-0.521,0.488-1.059,0.928-1.612,1.319c0.521,0,1.091-0.016,1.71-0.049c0.13-0.098,0.325-0.26,0.586-0.488
			c0.163-0.163,0.276-0.276,0.343-0.342l0.635,0.44c-0.912,0.782-1.938,1.547-3.078,2.296c1.009-0.032,1.873-0.065,2.59-0.098
			c-0.033-0.065-0.098-0.147-0.195-0.245C357.007,102.737,356.876,102.574,356.746,102.444z M355.574,95.604h0.732v2.394h1.026
			v-1.661h0.781v2.345h-4.349v-2.345h0.782v1.661h1.026V95.604z M356.795,104.691l0.636-0.44c0.357,0.391,0.7,0.814,1.025,1.271
			l-0.635,0.439C357.398,105.408,357.056,104.984,356.795,104.691z M359.727,95.604l0.782,0.098
			c-0.195,0.782-0.391,1.482-0.587,2.101h2.395v0.782h-0.586c-0.196,2.443-0.555,4.25-1.075,5.423
			c0.423,0.912,0.977,1.645,1.661,2.199c-0.131,0.26-0.277,0.521-0.439,0.782c-0.782-0.815-1.336-1.531-1.661-2.15
			c-0.424,0.684-1.06,1.449-1.906,2.296c-0.13-0.195-0.293-0.408-0.488-0.635c0.944-0.847,1.612-1.677,2.003-2.492
			c-0.456-1.075-0.766-2.28-0.928-3.616c-0.131,0.359-0.293,0.684-0.489,0.977c-0.163-0.228-0.358-0.423-0.586-0.586
			C358.604,99.382,359.239,97.655,359.727,95.604z M359.58,98.877c0.032,1.661,0.244,3.029,0.636,4.104
			c0.325-0.846,0.553-2.312,0.684-4.397h-1.222C359.613,98.682,359.58,98.779,359.58,98.877z"/>
		<path d="M363.244,97.606h5.668c-0.098-0.129-0.407-0.684-0.929-1.661l0.88-0.439c0.228,0.326,0.554,0.879,0.978,1.661
			l-0.831,0.439h5.57v0.88h-2.199c-0.424,2.28-1.336,4.088-2.735,5.423c1.074,0.814,2.768,1.482,5.081,2.003
			c-0.065,0.13-0.146,0.309-0.244,0.538c-0.131,0.228-0.229,0.391-0.293,0.489c-2.509-0.815-4.268-1.613-5.277-2.395
			c-1.01,0.75-2.753,1.58-5.228,2.492c-0.195-0.359-0.375-0.668-0.538-0.928c2.378-0.684,4.056-1.417,5.033-2.199
			c-1.435-1.466-2.346-3.274-2.736-5.423h-2.199V97.606z M368.961,103.274c1.303-1.271,2.101-2.866,2.395-4.788h-4.984
			C366.73,100.343,367.593,101.939,368.961,103.274z"/>
		<path d="M376.29,96.532h3.664v8.013h-2.834v0.88h-0.83V96.532z M377.12,97.313v2.785h1.955v-2.785H377.12z M377.12,103.714h1.955
			v-2.833h-1.955V103.714z M379.808,107.183c-0.293-0.293-0.555-0.521-0.781-0.684c0.944-0.75,1.579-1.563,1.905-2.443
			c0.325-0.847,0.488-2.101,0.488-3.762v-4.153h5.179v9.332c0.065,1.009-0.488,1.515-1.661,1.515
			c-0.554,0.032-1.123,0.049-1.71,0.049c0-0.066-0.017-0.164-0.049-0.293c-0.065-0.326-0.114-0.57-0.146-0.733
			c0.293,0.032,0.896,0.049,1.808,0.049c0.619,0.032,0.896-0.163,0.831-0.586v-2.296h-3.566
			C381.876,104.61,381.111,105.945,379.808,107.183z M382.3,100.343c0.031,0.75,0,1.417-0.098,2.003h3.469v-2.248H382.3V100.343z
			 M382.3,96.972v2.248h3.371v-2.248H382.3z"/>
		<path d="M390.411,101.906c0.586,0.977,1.351,1.759,2.296,2.345c0.423-0.618,0.685-1.466,0.782-2.541h-4.251v-4.544h4.251v-1.563
			h0.928v1.563h4.25v5.179h-0.928v-0.635h-3.323c-0.098,1.206-0.407,2.215-0.928,3.029c1.433,0.652,3.549,1.042,6.351,1.172
			c-0.195,0.391-0.342,0.733-0.439,1.026c-2.867-0.229-5.049-0.733-6.547-1.515c-0.977,0.782-2.41,1.368-4.299,1.759
			c-0.066-0.229-0.229-0.521-0.489-0.879c1.889-0.359,3.208-0.814,3.958-1.368c-0.978-0.651-1.776-1.482-2.395-2.492
			L390.411,101.906z M390.167,97.998v2.883h3.322v-2.883H390.167z M397.74,97.998h-3.323v2.883h3.323V97.998z"/>
		<path d="M404.531,97.167c-0.555,1.792-0.896,2.899-1.026,3.322c0.716,0.814,1.091,1.776,1.124,2.883
			c0,1.043-0.424,1.629-1.271,1.759c-0.195,0-0.554,0-1.075,0c-0.065-0.325-0.146-0.651-0.244-0.977
			c0.423,0.065,0.782,0.098,1.075,0.098c0.391-0.032,0.603-0.325,0.635-0.879c-0.032-1.075-0.407-1.986-1.123-2.736
			c0.488-1.661,0.813-2.817,0.977-3.469h-1.563v9.87h-0.879v-10.7h3.371V97.167z M406.387,102.688l0.782,0.44
			c-0.033,0.033-0.082,0.114-0.147,0.244c-0.749,1.108-1.336,1.89-1.759,2.345c-0.098-0.032-0.228-0.098-0.391-0.195
			c-0.195-0.13-0.326-0.211-0.391-0.245c0.423-0.456,1.009-1.253,1.759-2.394C406.305,102.786,406.354,102.721,406.387,102.688z
			 M404.873,97.216h1.759c0.065-0.195,0.163-0.472,0.293-0.831c0.13-0.391,0.228-0.667,0.294-0.831l0.879,0.244
			c-0.065,0.13-0.146,0.342-0.244,0.635c-0.131,0.359-0.229,0.619-0.293,0.782h4.544v0.831h-4.837
			c-0.392,1.141-0.75,2.085-1.075,2.834h2.003v-2.052h0.88v2.052h2.932v0.831h-2.932v3.713c0.032,0.911-0.439,1.384-1.417,1.417
			c-0.521,0-1.01,0-1.466,0c-0.033-0.13-0.065-0.293-0.098-0.488c-0.033-0.131-0.065-0.293-0.098-0.489
			c0.228,0.032,0.684,0.049,1.368,0.049c0.586,0.032,0.862-0.244,0.83-0.831v-3.371h-3.029v-0.879
			c0.392-0.782,0.782-1.71,1.173-2.785h-1.466V97.216z M409.807,103.177l0.733-0.538c0.651,0.847,1.253,1.743,1.808,2.687
			l-0.782,0.44c-0.065-0.098-0.179-0.26-0.342-0.489C410.573,104.203,410.1,103.502,409.807,103.177z"/>
		<path d="M413.081,102.395c1.498-1.628,2.492-3.437,2.98-5.423h-2.54v-0.831h6.498v0.831h-3.029
			c-0.033,0.098-0.065,0.212-0.098,0.342c-0.164,0.489-0.359,1.01-0.587,1.563h3.078v0.879c-0.586,3.095-2.296,5.521-5.13,7.28
			c-0.261-0.326-0.473-0.554-0.635-0.684c2.703-1.596,4.315-3.811,4.837-6.645h-2.492c-0.065,0.131-0.163,0.31-0.293,0.538
			c-0.163,0.261-0.277,0.457-0.342,0.586c0.228,0.195,0.293,0.261,0.195,0.195c0.651,0.521,1.155,0.945,1.515,1.271l-0.587,0.732
			c-0.456-0.456-0.993-0.944-1.612-1.465c-0.065,0.098-0.179,0.261-0.342,0.488c-0.098,0.131-0.375,0.473-0.83,1.026
			c-0.066-0.065-0.164-0.179-0.294-0.342C413.244,102.574,413.146,102.46,413.081,102.395z M421.436,104.251h-0.88v-7.231h0.88
			V104.251z M423.146,95.701h0.928v9.723c0.065,1.009-0.423,1.515-1.466,1.515c-0.847,0-1.449,0-1.808,0
			c-0.032-0.359-0.098-0.701-0.195-1.026c0.814,0.032,1.384,0.049,1.71,0.049c0.618,0.032,0.896-0.26,0.831-0.879V95.701z"/>
		<path d="M430.964,101.369c0.032-2.214,0.83-4.299,2.394-6.254h0.88c-1.499,1.955-2.248,4.04-2.248,6.254
			c-0.032,2.248,0.717,4.284,2.248,6.107h-0.929C431.81,105.685,431.028,103.649,430.964,101.369z"/>
		<path d="M438.243,105.326h11.434v0.88h-11.434V105.326z M438.976,96.727h9.918v1.026h-9.918V96.727z M439.513,100.783h8.844v1.026
			h-8.844V100.783z"/>
		<path d="M455.93,101.369c0-2.214-0.75-4.299-2.248-6.254h0.929c1.53,1.955,2.313,4.04,2.345,6.254
			c-0.065,2.28-0.847,4.316-2.345,6.107h-0.88C455.229,105.62,455.963,103.584,455.93,101.369z"/>
	</g>
	<g>
		<path d="M200.743,507.226c0.228-0.325,0.602-0.912,1.123-1.76h-3.176v-0.879h3.714c0.391-0.685,0.765-1.4,1.123-2.15l0.929,0.392
			c-0.163,0.228-0.391,0.619-0.684,1.173c-0.164,0.261-0.277,0.456-0.343,0.586h6.987v0.879h-2.541
			c-0.424,1.271-1.107,2.297-2.052,3.078c0.26,0.099,0.635,0.262,1.124,0.489c0.586,0.261,1.466,0.635,2.638,1.124l-0.488,0.879
			c-0.326-0.131-0.766-0.342-1.319-0.635c-1.205-0.555-2.134-0.961-2.785-1.222c-1.238,0.781-3.029,1.433-5.374,1.954
			c-0.033-0.065-0.082-0.163-0.146-0.293c-0.065-0.098-0.18-0.326-0.342-0.684c2.116-0.294,3.762-0.766,4.935-1.417
			c-0.521-0.228-1.336-0.603-2.443-1.124C201.231,507.454,200.938,507.324,200.743,507.226z M203.675,499.897l0.83-0.488
			c0.064,0.13,0.179,0.31,0.342,0.537c0.325,0.456,0.554,0.814,0.685,1.075l-0.489,0.293h4.838v2.247h-0.929v-1.417h-8.746v1.417
			h-0.928v-2.247h5.276C204.227,500.663,203.934,500.19,203.675,499.897z M202.012,506.932c0.261,0.131,0.7,0.311,1.319,0.538
			c0.685,0.293,1.205,0.521,1.563,0.684c0.978-0.749,1.645-1.645,2.004-2.688h-4.007
			C202.599,505.956,202.306,506.444,202.012,506.932z"/>
		<path d="M211.1,506.493c0.814-0.879,1.563-2.149,2.248-3.811l0.732,0.439c-0.098,0.195-0.244,0.488-0.439,0.88
			c-0.195,0.325-0.326,0.569-0.391,0.732v6.4h-0.831v-4.983c-0.293,0.424-0.604,0.848-0.929,1.271
			C211.361,507.128,211.23,506.819,211.1,506.493z M211.247,502.731c0.88-0.912,1.612-1.986,2.199-3.225l0.732,0.488
			c-0.717,1.336-1.547,2.524-2.491,3.566C211.556,503.268,211.41,502.992,211.247,502.731z M214.765,508.3l0.635,0.44
			c-0.195,0.293-0.488,0.684-0.88,1.172c-0.163,0.196-0.276,0.343-0.342,0.44c-0.195-0.164-0.407-0.311-0.635-0.44
			c0.293-0.293,0.667-0.765,1.124-1.417C214.699,508.398,214.732,508.333,214.765,508.3z M217.403,506.444l0.587-0.342
			c0.423,0.488,0.911,1.092,1.466,1.808l-0.636,0.439c-0.032-0.064-0.081-0.162-0.146-0.293c-0.098-0.098-0.163-0.179-0.195-0.244
			c-0.424,0-0.912,0.017-1.466,0.049v1.856c0.032,0.847-0.358,1.254-1.173,1.222c-0.488,0-0.798,0-0.928,0
			c-0.033-0.229-0.082-0.521-0.146-0.88c0.325,0.065,0.602,0.099,0.83,0.099c0.456,0.031,0.667-0.164,0.636-0.587v-1.661
			c-0.489,0-0.962,0.033-1.417,0.098c-0.294,0-0.521,0.033-0.685,0.098l-0.244-0.732h0.049c0.13-0.032,0.293-0.114,0.488-0.244
			c0.587-0.294,1.173-0.668,1.76-1.124c-0.489,0-0.945,0.032-1.368,0.098c-0.326,0.033-0.521,0.065-0.587,0.098l-0.293-0.684h0.049
			c0.228-0.099,0.423-0.212,0.586-0.343c0.489-0.357,0.896-0.716,1.222-1.074h-1.515v-0.733h4.495v0.733h-1.954
			c-0.521,0.488-1.059,0.928-1.612,1.318c0.521,0,1.091-0.016,1.71-0.049c0.13-0.098,0.325-0.26,0.586-0.488
			c0.163-0.162,0.276-0.276,0.343-0.342l0.635,0.439c-0.912,0.782-1.938,1.548-3.078,2.297c1.009-0.032,1.873-0.065,2.59-0.098
			c-0.033-0.065-0.098-0.147-0.195-0.245C217.664,506.737,217.533,506.575,217.403,506.444z M216.231,499.604h0.732v2.394h1.026
			v-1.661h0.781v2.346h-4.349v-2.346h0.782v1.661h1.026V499.604z M217.452,508.692l0.636-0.44c0.357,0.392,0.7,0.814,1.025,1.271
			l-0.635,0.439C218.054,509.409,217.713,508.985,217.452,508.692z M220.384,499.604l0.782,0.098
			c-0.195,0.781-0.391,1.482-0.587,2.101h2.395v0.782h-0.586c-0.196,2.442-0.555,4.25-1.075,5.423
			c0.423,0.912,0.977,1.646,1.661,2.199c-0.131,0.26-0.277,0.521-0.439,0.781c-0.782-0.814-1.336-1.53-1.661-2.149
			c-0.424,0.684-1.06,1.448-1.906,2.296c-0.13-0.195-0.293-0.407-0.488-0.635c0.944-0.847,1.612-1.678,2.003-2.492
			c-0.456-1.075-0.766-2.279-0.928-3.615c-0.131,0.358-0.293,0.684-0.489,0.977c-0.163-0.228-0.358-0.423-0.586-0.586
			C219.26,503.382,219.895,501.656,220.384,499.604z M220.237,502.877c0.032,1.661,0.244,3.029,0.636,4.104
			c0.325-0.846,0.553-2.312,0.684-4.396h-1.222C220.269,502.682,220.237,502.78,220.237,502.877z"/>
		<path d="M223.901,501.607h5.668c-0.098-0.13-0.407-0.684-0.929-1.661l0.88-0.439c0.228,0.325,0.554,0.879,0.978,1.661
			l-0.831,0.439h5.57v0.88h-2.199c-0.424,2.28-1.336,4.088-2.735,5.423c1.074,0.814,2.768,1.482,5.081,2.003
			c-0.065,0.13-0.146,0.31-0.244,0.538c-0.131,0.228-0.229,0.391-0.293,0.488c-2.509-0.814-4.268-1.612-5.277-2.395
			c-1.01,0.75-2.753,1.58-5.228,2.492c-0.195-0.358-0.375-0.668-0.538-0.928c2.378-0.685,4.056-1.417,5.033-2.199
			c-1.435-1.466-2.346-3.273-2.736-5.423h-2.199V501.607z M229.618,507.275c1.303-1.271,2.101-2.866,2.395-4.788h-4.984
			C227.386,504.343,228.25,505.939,229.618,507.275z"/>
		<path d="M236.947,500.532h3.664v8.013h-2.834v0.88h-0.83V500.532z M237.777,501.314v2.785h1.955v-2.785H237.777z M237.777,507.714
			h1.955v-2.834h-1.955V507.714z M240.465,511.183c-0.293-0.293-0.555-0.521-0.781-0.684c0.944-0.75,1.579-1.563,1.905-2.443
			c0.325-0.847,0.488-2.101,0.488-3.762v-4.153h5.179v9.332c0.065,1.01-0.488,1.515-1.661,1.515
			c-0.554,0.032-1.123,0.049-1.71,0.049c0-0.065-0.017-0.163-0.049-0.293c-0.065-0.326-0.114-0.57-0.146-0.733
			c0.293,0.032,0.896,0.049,1.808,0.049c0.619,0.032,0.896-0.163,0.831-0.586v-2.296h-3.566
			C242.533,508.611,241.767,509.945,240.465,511.183z M242.957,504.343c0.031,0.749,0,1.417-0.098,2.003h3.469v-2.247h-3.371
			V504.343z M242.957,500.972v2.247h3.371v-2.247H242.957z"/>
		<path d="M251.068,505.907c0.586,0.977,1.351,1.759,2.296,2.345c0.423-0.618,0.685-1.466,0.782-2.54h-4.251v-4.544h4.251v-1.563
			h0.928v1.563h4.251v5.179h-0.928v-0.635h-3.323c-0.098,1.205-0.407,2.215-0.928,3.029c1.433,0.651,3.55,1.042,6.352,1.172
			c-0.195,0.392-0.342,0.733-0.439,1.026c-2.867-0.229-5.05-0.732-6.548-1.515c-0.977,0.782-2.41,1.368-4.299,1.759
			c-0.066-0.229-0.229-0.521-0.489-0.879c1.889-0.359,3.208-0.814,3.958-1.368c-0.978-0.651-1.776-1.482-2.395-2.492
			L251.068,505.907z M250.824,501.998v2.883h3.322v-2.883H250.824z M258.397,501.998h-3.323v2.883h3.323V501.998z"/>
		<path d="M265.188,501.167c-0.555,1.791-0.896,2.899-1.026,3.322c0.716,0.814,1.091,1.775,1.124,2.883
			c0,1.043-0.424,1.629-1.271,1.759c-0.195,0-0.554,0-1.075,0c-0.065-0.325-0.146-0.651-0.244-0.978
			c0.423,0.065,0.782,0.098,1.075,0.098c0.391-0.032,0.603-0.325,0.635-0.879c-0.032-1.075-0.407-1.986-1.123-2.736
			c0.488-1.661,0.813-2.817,0.977-3.469h-1.563v9.869h-0.879v-10.7h3.371V501.167z M267.045,506.688l0.782,0.44
			c-0.033,0.032-0.082,0.114-0.147,0.244c-0.749,1.107-1.336,1.89-1.759,2.345c-0.098-0.032-0.228-0.098-0.391-0.195
			c-0.195-0.13-0.326-0.211-0.391-0.244c0.423-0.456,1.009-1.254,1.759-2.395C266.963,506.786,267.011,506.721,267.045,506.688z
			 M265.53,501.216h1.759c0.065-0.195,0.163-0.472,0.293-0.831c0.13-0.391,0.228-0.667,0.294-0.83l0.879,0.244
			c-0.065,0.13-0.146,0.342-0.244,0.635c-0.131,0.359-0.229,0.619-0.293,0.782h4.544v0.83h-4.837
			c-0.392,1.141-0.75,2.085-1.075,2.834h2.003v-2.052h0.88v2.052h2.932v0.831h-2.932v3.713c0.032,0.911-0.439,1.384-1.417,1.417
			c-0.521,0-1.01,0-1.466,0c-0.033-0.131-0.065-0.293-0.098-0.488c-0.033-0.131-0.065-0.294-0.098-0.489
			c0.228,0.032,0.684,0.049,1.368,0.049c0.586,0.032,0.862-0.244,0.83-0.83v-3.371h-3.029v-0.88c0.392-0.781,0.782-1.71,1.173-2.785
			h-1.466V501.216z M270.465,507.177l0.733-0.538c0.651,0.848,1.253,1.743,1.808,2.688l-0.782,0.439
			c-0.065-0.098-0.179-0.26-0.342-0.488C271.23,508.203,270.758,507.502,270.465,507.177z"/>
		<path d="M273.738,506.395c1.498-1.628,2.492-3.437,2.98-5.423h-2.54v-0.831h6.498v0.831h-3.029
			c-0.033,0.098-0.065,0.212-0.098,0.342c-0.164,0.488-0.359,1.01-0.587,1.563h3.078v0.879c-0.586,3.096-2.296,5.521-5.13,7.28
			c-0.261-0.326-0.473-0.554-0.635-0.684c2.703-1.596,4.315-3.812,4.837-6.646h-2.492c-0.065,0.131-0.163,0.311-0.293,0.538
			c-0.163,0.261-0.277,0.456-0.342,0.586c0.228,0.195,0.293,0.261,0.195,0.195c0.651,0.521,1.155,0.945,1.515,1.271l-0.587,0.732
			c-0.456-0.455-0.993-0.944-1.612-1.465c-0.065,0.098-0.179,0.261-0.342,0.488c-0.098,0.131-0.375,0.473-0.83,1.026
			c-0.066-0.065-0.164-0.179-0.294-0.343C273.901,506.575,273.803,506.46,273.738,506.395z M282.094,508.251h-0.88v-7.23h0.88
			V508.251z M283.803,499.702h0.928v9.723c0.065,1.01-0.423,1.515-1.466,1.515c-0.847,0-1.449,0-1.808,0
			c-0.032-0.358-0.098-0.701-0.195-1.026c0.814,0.032,1.384,0.049,1.71,0.049c0.618,0.032,0.896-0.26,0.831-0.879V499.702z"/>
		<path d="M291.621,505.369c0.032-2.214,0.83-4.299,2.394-6.254h0.88c-1.499,1.955-2.248,4.04-2.248,6.254
			c-0.032,2.248,0.717,4.284,2.248,6.107h-0.929C292.468,509.685,291.685,507.649,291.621,505.369z"/>
		<path d="M298.9,508.838h11.385v0.879H298.9V508.838z M299.78,501.07h9.674v1.025h-9.674V501.07z"/>
		<path d="M316.588,505.369c0-2.214-0.75-4.299-2.248-6.254h0.929c1.53,1.955,2.313,4.04,2.345,6.254
			c-0.065,2.28-0.847,4.316-2.345,6.107h-0.88C315.886,509.62,316.62,507.584,316.588,505.369z"/>
	</g>
	<g>
		<path d="M510.139,505.568c0.228-0.325,0.602-0.912,1.123-1.76h-3.176v-0.879h3.714c0.391-0.685,0.765-1.4,1.123-2.15l0.929,0.392
			c-0.163,0.228-0.391,0.619-0.684,1.173c-0.164,0.261-0.277,0.456-0.343,0.586h6.987v0.879h-2.541
			c-0.424,1.271-1.107,2.297-2.052,3.078c0.26,0.099,0.635,0.262,1.124,0.489c0.586,0.261,1.466,0.635,2.638,1.124l-0.488,0.879
			c-0.326-0.131-0.766-0.342-1.319-0.635c-1.205-0.555-2.134-0.961-2.785-1.222c-1.238,0.781-3.029,1.433-5.374,1.954
			c-0.033-0.065-0.082-0.163-0.146-0.293c-0.065-0.098-0.18-0.326-0.342-0.684c2.116-0.294,3.762-0.766,4.935-1.417
			c-0.521-0.228-1.336-0.603-2.443-1.124C510.628,505.795,510.335,505.666,510.139,505.568z M513.071,498.239l0.83-0.488
			c0.064,0.13,0.179,0.31,0.342,0.537c0.325,0.456,0.554,0.814,0.685,1.075l-0.489,0.293h4.838v2.247h-0.929v-1.417h-8.746v1.417
			h-0.928v-2.247h5.276C513.624,499.004,513.331,498.532,513.071,498.239z M511.409,505.274c0.261,0.131,0.7,0.311,1.319,0.538
			c0.685,0.293,1.205,0.521,1.563,0.684c0.978-0.749,1.645-1.645,2.004-2.688h-4.007
			C511.996,504.297,511.703,504.786,511.409,505.274z"/>
		<path d="M520.497,504.834c0.814-0.879,1.563-2.149,2.248-3.811l0.732,0.439c-0.098,0.195-0.244,0.488-0.439,0.88
			c-0.195,0.325-0.326,0.569-0.391,0.732v6.4h-0.831v-4.983c-0.293,0.424-0.604,0.848-0.929,1.271
			C520.758,505.47,520.627,505.161,520.497,504.834z M520.643,501.073c0.88-0.912,1.612-1.986,2.199-3.225l0.732,0.488
			c-0.717,1.336-1.547,2.524-2.491,3.566C520.953,501.61,520.806,501.333,520.643,501.073z M524.162,506.642l0.635,0.44
			c-0.195,0.293-0.488,0.684-0.88,1.172c-0.163,0.196-0.276,0.343-0.342,0.44c-0.195-0.164-0.407-0.311-0.635-0.44
			c0.293-0.293,0.667-0.765,1.124-1.417C524.095,506.74,524.129,506.675,524.162,506.642z M526.8,504.786l0.587-0.342
			c0.423,0.488,0.911,1.092,1.466,1.808l-0.636,0.439c-0.032-0.064-0.081-0.162-0.146-0.293c-0.098-0.098-0.163-0.179-0.195-0.244
			c-0.424,0-0.912,0.017-1.466,0.049v1.856c0.032,0.847-0.358,1.254-1.173,1.222c-0.488,0-0.798,0-0.928,0
			c-0.033-0.229-0.082-0.521-0.146-0.88c0.325,0.065,0.602,0.099,0.83,0.099c0.456,0.031,0.667-0.164,0.636-0.587v-1.661
			c-0.489,0-0.962,0.033-1.417,0.098c-0.294,0-0.521,0.033-0.685,0.098l-0.244-0.732h0.049c0.13-0.032,0.293-0.114,0.488-0.244
			c0.587-0.294,1.173-0.668,1.76-1.124c-0.489,0-0.945,0.032-1.368,0.098c-0.326,0.033-0.521,0.065-0.587,0.098l-0.293-0.684h0.049
			c0.228-0.099,0.423-0.212,0.586-0.343c0.489-0.357,0.896-0.716,1.222-1.074h-1.515v-0.733h4.495v0.733h-1.954
			c-0.521,0.488-1.059,0.928-1.612,1.318c0.521,0,1.091-0.016,1.71-0.049c0.13-0.098,0.325-0.26,0.586-0.488
			c0.163-0.162,0.276-0.276,0.343-0.342l0.635,0.439c-0.912,0.782-1.938,1.548-3.078,2.297c1.009-0.032,1.873-0.065,2.59-0.098
			c-0.033-0.065-0.098-0.147-0.195-0.245C527.06,505.079,526.929,504.917,526.8,504.786z M525.628,497.946h0.732v2.394h1.026v-1.661
			h0.781v2.346h-4.349v-2.346h0.782v1.661h1.026V497.946z M526.848,507.034l0.636-0.44c0.357,0.392,0.7,0.814,1.025,1.271
			l-0.635,0.439C527.451,507.75,527.109,507.327,526.848,507.034z M529.78,497.946l0.782,0.098
			c-0.195,0.781-0.391,1.482-0.587,2.101h2.395v0.782h-0.586c-0.196,2.442-0.555,4.25-1.075,5.423
			c0.423,0.912,0.977,1.646,1.661,2.199c-0.131,0.26-0.277,0.521-0.439,0.781c-0.782-0.814-1.336-1.53-1.661-2.149
			c-0.424,0.684-1.06,1.448-1.906,2.296c-0.13-0.195-0.293-0.407-0.488-0.635c0.944-0.847,1.612-1.678,2.003-2.492
			c-0.456-1.075-0.766-2.279-0.928-3.615c-0.131,0.358-0.293,0.684-0.489,0.977c-0.163-0.228-0.358-0.423-0.586-0.586
			C528.657,501.724,529.292,499.998,529.78,497.946z M529.634,501.219c0.032,1.661,0.244,3.029,0.636,4.104
			c0.325-0.846,0.553-2.312,0.684-4.396h-1.222C529.666,501.024,529.634,501.122,529.634,501.219z"/>
		<path d="M533.298,499.949h5.668c-0.098-0.13-0.407-0.684-0.929-1.661l0.88-0.439c0.228,0.325,0.554,0.879,0.978,1.661
			l-0.831,0.439h5.57v0.88h-2.199c-0.424,2.28-1.336,4.088-2.735,5.423c1.074,0.814,2.768,1.482,5.081,2.003
			c-0.065,0.13-0.146,0.31-0.244,0.538c-0.131,0.228-0.229,0.391-0.293,0.488c-2.509-0.814-4.268-1.612-5.277-2.395
			c-1.01,0.75-2.753,1.58-5.228,2.492c-0.195-0.358-0.375-0.668-0.538-0.928c2.378-0.685,4.056-1.417,5.033-2.199
			c-1.435-1.466-2.346-3.273-2.736-5.423h-2.199V499.949z M539.014,505.617c1.303-1.271,2.101-2.866,2.395-4.788h-4.984
			C536.783,502.685,537.646,504.281,539.014,505.617z"/>
		<path d="M546.344,498.874h3.664v8.013h-2.834v0.88h-0.83V498.874z M547.174,499.656v2.785h1.955v-2.785H547.174z M547.174,506.056
			h1.955v-2.834h-1.955V506.056z M549.861,509.525c-0.293-0.293-0.555-0.521-0.781-0.684c0.944-0.75,1.579-1.563,1.905-2.443
			c0.325-0.847,0.488-2.101,0.488-3.762v-4.153h5.179v9.332c0.065,1.01-0.488,1.515-1.661,1.515
			c-0.554,0.032-1.123,0.049-1.71,0.049c0-0.065-0.017-0.163-0.049-0.293c-0.065-0.326-0.114-0.57-0.146-0.733
			c0.293,0.032,0.896,0.049,1.808,0.049c0.619,0.032,0.896-0.163,0.831-0.586v-2.296h-3.566
			C551.929,506.953,551.164,508.287,549.861,509.525z M552.353,502.685c0.031,0.749,0,1.417-0.098,2.003h3.469v-2.247h-3.371
			V502.685z M552.353,499.314v2.247h3.371v-2.247H552.353z"/>
		<path d="M560.465,504.249c0.586,0.977,1.351,1.759,2.296,2.345c0.423-0.618,0.685-1.466,0.782-2.54h-4.251v-4.544h4.251v-1.563
			h0.928v1.563h4.251v5.179h-0.928v-0.635h-3.323c-0.098,1.205-0.407,2.215-0.928,3.029c1.433,0.651,3.55,1.042,6.352,1.172
			c-0.195,0.392-0.342,0.733-0.439,1.026c-2.867-0.229-5.05-0.732-6.548-1.515c-0.977,0.782-2.41,1.368-4.299,1.759
			c-0.066-0.229-0.229-0.521-0.489-0.879c1.889-0.359,3.208-0.814,3.958-1.368c-0.978-0.651-1.776-1.482-2.395-2.492
			L560.465,504.249z M560.22,500.339v2.883h3.322v-2.883H560.22z M567.794,500.339h-3.323v2.883h3.323V500.339z"/>
		<path d="M574.585,499.509c-0.555,1.791-0.896,2.899-1.026,3.322c0.716,0.814,1.091,1.775,1.124,2.883
			c0,1.043-0.424,1.629-1.271,1.759c-0.195,0-0.554,0-1.075,0c-0.065-0.325-0.146-0.651-0.244-0.978
			c0.423,0.065,0.782,0.098,1.075,0.098c0.391-0.032,0.603-0.325,0.635-0.879c-0.032-1.075-0.407-1.986-1.123-2.736
			c0.488-1.661,0.813-2.817,0.977-3.469h-1.563v9.869h-0.879v-10.7h3.371V499.509z M576.441,505.03l0.782,0.44
			c-0.033,0.032-0.082,0.114-0.147,0.244c-0.749,1.107-1.336,1.89-1.759,2.345c-0.098-0.032-0.228-0.098-0.391-0.195
			c-0.195-0.13-0.326-0.211-0.391-0.244c0.423-0.456,1.009-1.254,1.759-2.395C576.359,505.127,576.408,505.063,576.441,505.03z
			 M574.927,499.558h1.759c0.065-0.195,0.163-0.472,0.293-0.831c0.13-0.391,0.228-0.667,0.294-0.83l0.879,0.244
			c-0.065,0.13-0.146,0.342-0.244,0.635c-0.131,0.359-0.229,0.619-0.293,0.782h4.544v0.83h-4.837
			c-0.392,1.141-0.75,2.085-1.075,2.834h2.003v-2.052h0.88v2.052h2.932v0.831h-2.932v3.713c0.032,0.911-0.439,1.384-1.417,1.417
			c-0.521,0-1.01,0-1.466,0c-0.033-0.131-0.065-0.293-0.098-0.488c-0.033-0.131-0.065-0.294-0.098-0.489
			c0.228,0.032,0.684,0.049,1.368,0.049c0.586,0.032,0.862-0.244,0.83-0.83v-3.371h-3.029v-0.88c0.392-0.781,0.782-1.71,1.173-2.785
			h-1.466V499.558z M579.861,505.519l0.733-0.538c0.651,0.848,1.253,1.743,1.808,2.688l-0.782,0.439
			c-0.065-0.098-0.179-0.26-0.342-0.488C580.627,506.544,580.154,505.844,579.861,505.519z"/>
		<path d="M583.135,504.737c1.498-1.628,2.492-3.437,2.98-5.423h-2.54v-0.831h6.498v0.831h-3.029
			c-0.033,0.098-0.065,0.212-0.098,0.342c-0.164,0.488-0.359,1.01-0.587,1.563h3.078v0.879c-0.586,3.096-2.296,5.521-5.13,7.28
			c-0.261-0.326-0.473-0.554-0.635-0.684c2.703-1.596,4.315-3.812,4.837-6.646h-2.492c-0.065,0.131-0.163,0.311-0.293,0.538
			c-0.163,0.261-0.277,0.456-0.342,0.586c0.228,0.195,0.293,0.261,0.195,0.195c0.651,0.521,1.155,0.945,1.515,1.271l-0.587,0.732
			c-0.456-0.455-0.993-0.944-1.612-1.465c-0.065,0.098-0.179,0.261-0.342,0.488c-0.098,0.131-0.375,0.473-0.83,1.026
			c-0.066-0.065-0.164-0.179-0.294-0.343C583.298,504.917,583.2,504.802,583.135,504.737z M591.49,506.593h-0.88v-7.23h0.88V506.593
			z M593.2,498.043h0.928v9.723c0.065,1.01-0.423,1.515-1.466,1.515c-0.847,0-1.449,0-1.808,0c-0.032-0.358-0.098-0.701-0.195-1.026
			c0.814,0.032,1.384,0.049,1.71,0.049c0.618,0.032,0.896-0.26,0.831-0.879V498.043z"/>
		<path d="M601.017,503.71c0.032-2.214,0.83-4.299,2.394-6.254h0.88c-1.499,1.955-2.248,4.04-2.248,6.254
			c-0.032,2.248,0.717,4.284,2.248,6.107h-0.929C601.864,508.027,601.082,505.991,601.017,503.71z"/>
		<path d="M609.079,498.776h10.162v10.651h-0.928v-0.732h-8.307v0.732h-0.928V498.776z M616.75,504.688c0.554,0,0.993,0,1.319,0
			l-0.146,0.929h-1.271c-1.141,0.032-1.694-0.505-1.661-1.612v-4.349h-1.71c0,0.521,0,1.01,0,1.466
			c-0.033,1.563-0.213,2.687-0.538,3.371c-0.293,0.684-0.945,1.352-1.954,2.003c-0.195-0.228-0.424-0.472-0.684-0.732
			c0.944-0.554,1.53-1.107,1.759-1.661c0.293-0.554,0.455-1.547,0.488-2.98c0-0.456,0-0.944,0-1.466h-2.346v8.257h8.307v-8.257
			h-2.395v4.3C615.853,504.509,616.131,504.753,616.75,504.688z"/>
		<path d="M625.984,503.71c0-2.214-0.75-4.299-2.248-6.254h0.929c1.53,1.955,2.313,4.04,2.345,6.254
			c-0.065,2.28-0.847,4.316-2.345,6.107h-0.88C625.283,507.961,626.016,505.926,625.984,503.71z"/>
	</g>
	<g>
		<path d="M349.552,299.021h4.593v-2.589h0.977v2.589h4.593v5.375h-0.928v-0.635h-3.665v4.349h-0.977v-4.349h-3.665v0.635h-0.928
			V299.021z M350.48,299.901v2.98h3.665v-2.98H350.48z M358.787,299.901h-3.665v2.98h3.665V299.901z"/>
		<path d="M367.044,296.579l0.88-0.195c0.031,0.13,0.098,0.342,0.195,0.635c0.13,0.359,0.228,0.635,0.293,0.831h4.397v0.782h-9.675
			v2.882c0,1.792-0.081,3.111-0.244,3.958c-0.13,0.815-0.439,1.662-0.928,2.541c-0.229-0.261-0.473-0.489-0.733-0.684
			c0.423-0.716,0.7-1.449,0.831-2.199c0.13-0.782,0.195-2.003,0.195-3.665v-3.615h5.228
			C367.353,297.458,367.207,297.035,367.044,296.579z M364.454,303.712c0.228,0.586,0.489,1.075,0.782,1.466
			c0.293-0.651,0.488-1.335,0.586-2.052h-2.003v-0.684l1.856-2.052h-1.808v-0.831h2.883v0.831l-1.759,1.954h1.661v0.782
			c-0.195,1.238-0.489,2.15-0.88,2.736c0.685,0.586,1.727,0.896,3.127,0.928c0.814,0,1.531,0,2.15,0
			c0.684,0,1.351-0.017,2.003-0.049c-0.033,0.228-0.131,0.521-0.293,0.879c-1.271,0-2.574,0-3.909,0
			c-1.466,0-2.639-0.359-3.518-1.075c-0.391,0.456-0.945,0.96-1.661,1.515c-0.098-0.131-0.293-0.342-0.587-0.635
			c0.032-0.033,0.098-0.098,0.196-0.195c0.716-0.554,1.204-0.993,1.466-1.319c-0.392-0.489-0.718-1.107-0.978-1.856L364.454,303.712
			z M367.093,304.885h2.297v-1.906h-2.004v-0.782h2.004v-1.661c-0.652,0.033-1.319,0.049-2.004,0.049
			c0-0.26-0.032-0.521-0.098-0.782c1.954-0.065,3.567-0.146,4.837-0.244l0.146,0.782c-0.228,0-0.554,0.017-0.977,0.049
			c-0.457,0.033-0.799,0.065-1.026,0.098v1.71h2.052v0.782h-2.052v1.906h2.297v0.782h-5.473V304.885z"/>
	</g>
</g>
</svg>
