<svg xmlns="http://www.w3.org/2000/svg" viewBox="0 0 488.18 665.66"><defs><style>.cls-1{fill:#d6aea1;stroke:#0f0e0e;}.cls-1,.cls-11,.cls-4,.cls-5,.cls-6,.cls-7,.cls-8,.cls-9{stroke-miterlimit:10;}.cls-2,.cls-3{fill:#9e9e9f;}.cls-13,.cls-2{fill-rule:evenodd;}.cls-4{fill:#b595c6;}.cls-4,.cls-5,.cls-6,.cls-7,.cls-8,.cls-9{stroke:#fff;}.cls-5{fill:#85937b;}.cls-6{fill:#adaebf;}.cls-7{fill:#b5c69e;}.cls-8{fill:#8cafa8;}.cls-9{fill:#9e8f74;}.cls-10{fill:#fff;}.cls-11{fill:none;stroke:#2d52ea;}.cls-12{fill:#2d52ea;}.cls-14{font-size:28px;}.cls-14,.cls-15{font-family:FZLTHK--GBK1-0, FZLanTingHei-R-GBK;}.cls-15{font-size:12.51px;}</style></defs><title>安徽博物院 五层</title><g id="图层_1" data-name="图层 1"><rect class="cls-1" x="0.5" y="47.59" width="487.18" height="511.37"/><path class="cls-2" d="M191.13,618.83a2,2,0,1,0-2-2,2,2,0,0,0,2,2Zm11.92,13.76-3.46-5.92a1.22,1.22,0,0,0-1-.57h-5.18v-1.81h3.73a.91.91,0,0,0,.91-.89,1,1,0,0,0-.91-1h-3.81l-.13-1.41a2,2,0,0,0-2.07-1.82,2,2,0,0,0-1.85,2l.35,6.11a2.15,2.15,0,0,0,2.07,2h6.59l2.7,4.46a1.22,1.22,0,0,0,1.63.4,1.17,1.17,0,0,0,.4-1.61Zm-10.62,3.51a6,6,0,0,1-6-6,5.93,5.93,0,0,1,2.12-4.52l-.11-1.87a7.52,7.52,0,0,0-3.61,6.39,7.64,7.64,0,0,0,14.6,3.08l-1.07-1.84a6,6,0,0,1-5.89,4.74Z" transform="translate(-154.73 -26.7)"/><path class="cls-2" d="M204.47,642.48H181.54c-2.55,0-4.63-2.63-4.63-5.86V615.87c0-3.23,2.08-5.87,4.63-5.87h22.93c2.55,0,4.63,2.64,4.63,5.87v20.75c0,3.23-2.08,5.86-4.63,5.86Zm-22.93-31.29c-2,0-3.7,2.1-3.7,4.68v20.75c0,2.58,1.66,4.68,3.7,4.68h22.93c2,0,3.69-2.1,3.69-4.68V615.87c0-2.58-1.66-4.68-3.69-4.68Z" transform="translate(-154.73 -26.7)"/><path class="cls-2" d="M406.62,641.77l-25.41.27a5.4,5.4,0,0,1-5.19-5.57l-.21-19.89a5.4,5.4,0,0,1,5.06-5.68l25.42-.27a5.41,5.41,0,0,1,5.19,5.57l.21,19.89a5.4,5.4,0,0,1-5.07,5.68ZM380.89,612a4.32,4.32,0,0,0-4.05,4.54l.21,19.89a4.31,4.31,0,0,0,4.15,4.45l25.41-.27a4.32,4.32,0,0,0,4.05-4.54l-.21-19.88a4.33,4.33,0,0,0-4.15-4.46l-25.41.27Z" transform="translate(-154.73 -26.7)"/><path class="cls-2" d="M397.74,631l2,0,.06,6.27c0,.42.5.85.87.75a.85.85,0,0,0,.65-.87l0-6.17h.45l.07,6.26a.6.6,0,0,0,.2.54.78.78,0,0,0,.66.13.72.72,0,0,0,.47-.68l-.07-6.27,2,0-2-7.51a.46.46,0,0,1,0-.38.48.48,0,0,1,.19-.21l.19,0a.69.69,0,0,1,.26.17l1.29,4.58a.69.69,0,0,0,.29.27.58.58,0,0,0,.72-.08.83.83,0,0,0,.14-.79l-1.47-4.88a3.26,3.26,0,0,0-.72-1.07,2.58,2.58,0,0,0-1.8-.66l-2.05.22a3.12,3.12,0,0,0-.9.22,1.73,1.73,0,0,0-.91,1,2.92,2.92,0,0,0-.22.71l-1.2,4.7a.71.71,0,0,0,.06.62.54.54,0,0,0,1-.14l1.38-4.51c0-.1.07-.17.16-.2s.24,0,.29.08a.44.44,0,0,1,0,.3l-2,7.66Z" transform="translate(-154.73 -26.7)"/><path class="cls-2" d="M383.12,628.88l-.06-5.68h.54l.14,13.79a1,1,0,0,0,.45.75.81.81,0,0,0,.93-.06,1,1,0,0,0,.4-.8l-.08-8H386l.09,8a1.06,1.06,0,0,0,.42.82.78.78,0,0,0,1-.06,1.09,1.09,0,0,0,.39-.78l-.15-13.59h.54l.06,5.47h1.24l-.06-5.77a2.47,2.47,0,0,0-.55-1.56,2.24,2.24,0,0,0-1.44-.77l-3.74,0a2,2,0,0,0-1,.34,2.25,2.25,0,0,0-.8.9,2.31,2.31,0,0,0-.3.93l.06,6.07Z" transform="translate(-154.73 -26.7)"/><path class="cls-2" d="M385.62,620.14a1.8,1.8,0,0,0,1.58-1.27,2.13,2.13,0,0,0-.64-2.27,1.58,1.58,0,0,0-2.25.26,2,2,0,0,0-.18,2.4,1.75,1.75,0,0,0,1.49.88Z" transform="translate(-154.73 -26.7)"/><path class="cls-2" d="M401.18,620.08a1.6,1.6,0,0,0,1.52-1,1.78,1.78,0,0,0-.61-2.17,1.48,1.48,0,0,0-2,.23,1.88,1.88,0,0,0-.15,2.29,1.49,1.49,0,0,0,1.29.69Z" transform="translate(-154.73 -26.7)"/><polygon class="cls-2" points="237.41 587.34 238.44 587.33 238.71 612.26 237.68 612.27 237.41 587.34 237.41 587.34"/><path class="cls-2" d="M205.74,691.46l-22.92.24c-2.55,0-4.66-2.58-4.69-5.82l-.22-20.74c0-3.24,2-5.89,4.56-5.92L205.4,659c2.55,0,4.66,2.58,4.69,5.82l.22,20.74c0,3.23-2,5.89-4.57,5.92ZM182.49,660.4c-2,0-3.68,2.14-3.65,4.73l.22,20.74c0,2.59,1.71,4.67,3.75,4.65l22.92-.24c2,0,3.68-2.15,3.65-4.73l-.22-20.74c0-2.59-1.71-4.67-3.75-4.65l-22.92.24Z" transform="translate(-154.73 -26.7)"/><path class="cls-3" d="M193.7,667.32a1.57,1.57,0,1,1-1.59-1.52A1.55,1.55,0,0,1,193.7,667.32Z" transform="translate(-154.73 -26.7)"/><path class="cls-3" d="M193.71,671.27v-.66a1.54,1.54,0,0,0-3.07,0l0,3.51v.14Z" transform="translate(-154.73 -26.7)"/><path class="cls-3" d="M203.86,667.89a2.28,2.28,0,1,1,0,4.55l-2.71,0L190.65,683a2.43,2.43,0,0,1-.53.48,2.38,2.38,0,0,1-1.24.46l-.33,0-4,.05a2.3,2.3,0,1,1,0-4.55l3.19,0,10.78-10.74,0,0h0l.15-.14.07-.05.11-.08.15-.09,0,0a2.45,2.45,0,0,1,1.17-.3l3.62,0m0-1-3.61,0a3.73,3.73,0,0,0-1.67.43l-.06,0-.21.12-.13.09,0,0h0l-.08.07-.21.18h0l-.08.07-10.47,10.43-2.76,0a3.32,3.32,0,1,0,.07,6.6l4,0,.43,0a3.55,3.55,0,0,0,1.74-.64,3.64,3.64,0,0,0,.71-.64l10.2-10.16,2.27,0a3.3,3.3,0,1,0-.07-6.6Z" transform="translate(-154.73 -26.7)"/><path class="cls-2" d="M556.4,692.1H533.47c-2.55,0-4.62-2.63-4.62-5.86V665.49c0-3.23,2.07-5.87,4.62-5.87H556.4c2.55,0,4.63,2.64,4.63,5.87v20.75c0,3.23-2.08,5.86-4.63,5.86Zm-22.92-31.3c-2,0-3.7,2.11-3.7,4.69v20.75c0,2.58,1.66,4.68,3.7,4.68H556.4c2,0,3.7-2.1,3.7-4.68V665.49c0-2.58-1.66-4.69-3.7-4.69Z" transform="translate(-154.73 -26.7)"/><path class="cls-3" d="M539.29,667.28a1.82,1.82,0,1,0-1.95-1.82A1.89,1.89,0,0,0,539.29,667.28Z" transform="translate(-154.73 -26.7)"/><path class="cls-3" d="M537.11,671.15v5.58h0s0,.1,0,.16v8.41c0,.43.16.78.36.78h1.27c.19,0,.35-.35.35-.78v-8.57h.41v2.47l1.94,4.22c.22.15,1.57-.31,1.61-.76-.51-.92-1.07-2.55-1.57-3.46v-2.31c0-.06,0-.11,0-.16h0v-5.58h.3v5c0,.3.17.55.36.55h1.27c.19,0,.35-.25.35-.55v-6.84a1.51,1.51,0,0,0-1.5-1.51h-5.93a1.52,1.52,0,0,0-1.51,1.51v6.84c0,.3.16.55.35.55h1.27c.2,0,.36-.25.36-.55v-5Z" transform="translate(-154.73 -26.7)"/><polygon class="cls-3" points="402.33 645.68 399.33 645.68 397.36 645.68 397.36 647.51 397.36 648.46 396.34 648.46 394.36 648.46 394.36 650.29 394.36 651.23 393.35 651.23 391.36 651.23 391.36 653.06 391.36 654 390.35 654 388.37 654 388.37 655.84 388.37 656.77 387.37 656.77 385.38 656.77 385.38 658.6 385.38 659.54 382.39 659.54 382.39 661.38 385.38 661.38 386.12 661.38 387.37 661.38 387.37 658.6 388.37 658.6 390.35 658.6 390.35 656.77 390.35 655.84 391.36 655.84 393.34 655.84 393.35 655.84 393.35 653.06 394.36 653.06 396.34 653.06 396.34 651.23 396.34 650.29 397.36 650.29 399.33 650.29 399.33 648.46 399.33 647.51 402.33 647.51 402.33 645.68"/><path class="cls-2" d="M405.64,692.36H382.71c-2.55,0-4.62-2.63-4.62-5.87V665.75c0-3.23,2.07-5.87,4.62-5.87h22.93c2.55,0,4.63,2.64,4.63,5.87v20.74c0,3.24-2.08,5.87-4.63,5.87Zm-22.92-31.3c-2,0-3.7,2.11-3.7,4.69v20.74c0,2.59,1.66,4.69,3.7,4.69h22.92c2,0,3.7-2.1,3.7-4.69V665.75c0-2.58-1.66-4.69-3.7-4.69Z" transform="translate(-154.73 -26.7)"/><polygon class="cls-2" points="238.49 636.68 238.5 637.65 239.2 636.86 239.2 639.11 239.69 639.1 239.71 636.95 240.41 637.67 240.41 636.63 239.46 635.75 238.49 636.68"/><path class="cls-2" d="M390.22,671.62a1.27,1.27,0,0,1,.92-.81,10.94,10.94,0,0,1,4.15,0,1,1,0,0,1,.8.73l.77,2.16,2.23-1.42c.58-.25.94.28.54.73l-2.47,1.51a.78.78,0,0,1-1.1-.19l-.64-1.57a.59.59,0,0,0-.47,0v11.27c-.21.49-1.14.49-1.29,0v-6.37a1.14,1.14,0,0,0-.75,0V684a.71.71,0,0,1-1.24.06V672.8a.67.67,0,0,0-.5,0l-.05,4.93a.61.61,0,0,1-.87,0l0-6.09Zm3.06-3.81A1.15,1.15,0,1,1,392,669,1.21,1.21,0,0,1,393.28,667.81Z" transform="translate(-154.73 -26.7)"/><polygon class="cls-2" points="238.49 662.17 238.5 661.2 239.2 661.99 239.2 659.73 239.69 659.75 239.71 661.89 240.41 661.17 240.41 662.22 239.46 663.09 238.49 662.17"/><rect class="cls-3" x="250.93" y="638.02" width="0.66" height="23.02"/><rect class="cls-3" x="227.32" y="638.24" width="0.66" height="23.02"/><path class="cls-2" d="M385.82,666.21h16.72V686H385.82V666.21Zm.33.32v19.18h16.06V666.53Z" transform="translate(-154.73 -26.7)"/><path class="cls-2" d="M556.16,642.48H533.23c-2.55,0-4.63-2.63-4.63-5.86V615.87c0-3.23,2.08-5.87,4.63-5.87h22.93c2.55,0,4.63,2.64,4.63,5.87v20.75c0,3.23-2.08,5.86-4.63,5.86Zm-22.93-31.29c-2,0-3.7,2.1-3.7,4.68v20.75c0,2.58,1.66,4.68,3.7,4.68h22.93c2,0,3.69-2.1,3.69-4.68V615.87c0-2.58-1.66-4.68-3.69-4.68Z" transform="translate(-154.73 -26.7)"/><path class="cls-3" d="M542.86,623.73a1,1,0,0,1-1.15-.82,1.13,1.13,0,0,1,.7-1.34,1,1,0,0,1,1.15.82A1.14,1.14,0,0,1,542.86,623.73Z" transform="translate(-154.73 -26.7)"/><path class="cls-3" d="M540.26,627.15h1.62v-2.82l2.6-.87,1.74.07,2,1.66s.41.59-.06.92-1-.2-1.13-.33l-1.39-1.2-.37.07,0,.24,2,3,.64,2.52h3c.68-.19.93,1.37.12,1.61l-3.82.06s-.41.09-.61-.68a21.15,21.15,0,0,0-.82-2.22,13.25,13.25,0,0,0-1.12,1.71c-.18,1.63,0,3.86-.12,4.26a.64.64,0,0,1-1,.49,1,1,0,0,1-.33-1l-.16-4,1.16-1.83-1.45-2.2v1.81h0v0l-.89,0h-1.76a.57.57,0,0,1-.52-.61A.57.57,0,0,1,540.26,627.15Z" transform="translate(-154.73 -26.7)"/><rect class="cls-3" x="381.17" y="590.07" width="17.59" height="1.46"/><rect class="cls-3" x="381.17" y="591.02" width="2.9" height="17.58"/><rect class="cls-3" x="396.94" y="591.44" width="1.82" height="17.58"/><rect class="cls-4" x="1.5" y="48.59" width="134.86" height="106"/><rect class="cls-5" x="361.17" y="48.59" width="125.51" height="106"/><rect class="cls-6" x="375.91" y="254.31" width="110.77" height="101.28"/><rect class="cls-7" x="379.69" y="431.39" width="106.99" height="126.19"/><rect class="cls-8" x="179.13" y="448.59" width="101.56" height="86.4"/><rect class="cls-9" x="1.5" y="264.59" width="86.18" height="270.4"/><rect class="cls-10" x="156.8" y="203.16" width="165" height="153.43"/><polyline class="cls-11" points="133.47 221.99 114.69 221.99 114.69 477.45 70.96 477.45"/><polygon class="cls-12" points="128.79 132.56 133.77 147.22 123.8 147.22 128.79 132.56"/><polygon class="cls-12" points="114.69 186.69 119.67 172.02 109.7 172.02 114.69 186.69"/><polygon class="cls-12" points="56.97 477.45 71.63 482.43 71.63 472.46 56.97 477.45"/><path class="cls-13" d="M468.28,490.13a1.15,1.15,0,1,0-1.16-1.15,1.16,1.16,0,0,0,1.16,1.15ZM475.1,498l-2-3.39a.69.69,0,0,0-.56-.32h-3v-1h2.13a.51.51,0,0,0,.53-.5.56.56,0,0,0-.53-.56h-2.17l-.08-.81a1.12,1.12,0,0,0-2.24.13l.2,3.49a1.23,1.23,0,0,0,1.19,1.14h3.77l1.54,2.55a.7.7,0,0,0,.93.23.67.67,0,0,0,.23-.92ZM469,500a3.4,3.4,0,0,1-2.25-6l-.06-1.07a4.31,4.31,0,0,0,2.31,8,4.37,4.37,0,0,0,4-2.57l-.62-1A3.43,3.43,0,0,1,469,500Z" transform="translate(-154.73 -26.7)"/><path class="cls-13" d="M475.91,503.66H462.8c-1.46,0-2.65-1.51-2.65-3.36V488.44c0-1.85,1.19-3.36,2.65-3.36h13.11c1.46,0,2.65,1.51,2.65,3.36V500.3c0,1.85-1.19,3.36-2.65,3.36Zm-13.11-17.9a2.44,2.44,0,0,0-2.11,2.68V500.3A2.44,2.44,0,0,0,462.8,503h13.11A2.45,2.45,0,0,0,478,500.3V488.44a2.45,2.45,0,0,0-2.11-2.68Z" transform="translate(-154.73 -26.7)"/><path class="cls-13" d="M520.31,524.46a1.16,1.16,0,1,0-1.16-1.15,1.16,1.16,0,0,0,1.16,1.15Zm6.82,7.87-2-3.39a.68.68,0,0,0-.56-.32h-3v-1h2.13a.52.52,0,0,0,.53-.51.56.56,0,0,0-.53-.55h-2.17l-.08-.81a1.13,1.13,0,0,0-1.18-1,1.12,1.12,0,0,0-1.06,1.17l.2,3.49a1.23,1.23,0,0,0,1.18,1.14h3.78L526,533a.7.7,0,0,0,.93.23.67.67,0,0,0,.23-.92Zm-6.07,2a3.4,3.4,0,0,1-2.25-6l-.06-1.07a4.31,4.31,0,0,0,2.31,8,4.38,4.38,0,0,0,4-2.57l-.62-1a3.43,3.43,0,0,1-3.36,2.71Z" transform="translate(-154.73 -26.7)"/><path class="cls-13" d="M527.94,538H514.83c-1.46,0-2.65-1.5-2.65-3.35V522.77c0-1.85,1.19-3.36,2.65-3.36h13.11c1.45,0,2.64,1.51,2.64,3.36v11.86c0,1.85-1.19,3.35-2.64,3.35Zm-13.11-17.89a2.45,2.45,0,0,0-2.12,2.68v11.86a2.45,2.45,0,0,0,2.12,2.68h13.11a2.45,2.45,0,0,0,2.11-2.68V522.77a2.45,2.45,0,0,0-2.11-2.68Z" transform="translate(-154.73 -26.7)"/><path class="cls-13" d="M507.5,538l-14.87,0a3.21,3.21,0,0,1-3-3.39l0-11.95a3.21,3.21,0,0,1,3-3.38l14.87,0a3.22,3.22,0,0,1,3,3.39l0,12a3.22,3.22,0,0,1-3,3.38ZM492.68,519.9a2.57,2.57,0,0,0-2.41,2.7l0,11.95a2.57,2.57,0,0,0,2.4,2.71l14.86,0a2.57,2.57,0,0,0,2.4-2.7l0-12a2.57,2.57,0,0,0-2.39-2.71l-14.86,0Z" transform="translate(-154.73 -26.7)"/><path class="cls-13" d="M502.38,531.41h1.15v3.76c0,.26.29.52.5.47a.52.52,0,0,0,.39-.53l.06-3.7h.26v3.77a.35.35,0,0,0,.12.32.46.46,0,0,0,.39.08.43.43,0,0,0,.27-.4v-3.77h1.15l-1.14-4.53a.3.3,0,0,1,0-.23.43.43,0,0,1,.11-.12.22.22,0,0,1,.11,0,.4.4,0,0,1,.15.1l.72,2.76a.46.46,0,0,0,.17.17.33.33,0,0,0,.42,0,.51.51,0,0,0,.09-.48l-.82-2.94a2.07,2.07,0,0,0-.42-.65,1.42,1.42,0,0,0-1-.41l-1.2.11a2,2,0,0,0-.53.13,1,1,0,0,0-.54.56,2.16,2.16,0,0,0-.14.43l-.73,2.82a.4.4,0,0,0,0,.37.31.31,0,0,0,.37.16.34.34,0,0,0,.22-.23l.84-2.71c0-.06,0-.1.1-.11a.12.12,0,0,1,.17,0,.28.28,0,0,1,0,.18l-1.21,4.58Z" transform="translate(-154.73 -26.7)"/><path class="cls-13" d="M493.85,530v-3.41h.31l0,8.29a.62.62,0,0,0,.26.46.47.47,0,0,0,.54,0,.65.65,0,0,0,.25-.48v-4.82h.31v4.82a.65.65,0,0,0,.24.5.47.47,0,0,0,.58,0,.68.68,0,0,0,.23-.47V526.7h.32V530h.73v-3.47a1.47,1.47,0,0,0-.3-.94,1.26,1.26,0,0,0-.84-.47h-2.19a1.1,1.1,0,0,0-.6.2,1.35,1.35,0,0,0-.47.53,1.43,1.43,0,0,0-.19.56V530Z" transform="translate(-154.73 -26.7)"/><path class="cls-13" d="M495.38,524.81a1,1,0,0,0,.93-.75,1.29,1.29,0,0,0-.35-1.37.91.91,0,0,0-1.32.14,1.27,1.27,0,0,0-.13,1.44,1,1,0,0,0,.87.54Z" transform="translate(-154.73 -26.7)"/><path class="cls-13" d="M504.48,524.89a.92.92,0,0,0,.9-.61A1.09,1.09,0,0,0,505,523a.86.86,0,0,0-1.2.12,1.16,1.16,0,0,0-.11,1.38.86.86,0,0,0,.75.42Z" transform="translate(-154.73 -26.7)"/><polygon class="cls-13" points="344.51 494.49 345.12 494.49 345.08 509.48 344.48 509.48 344.51 494.49 344.51 494.49"/><path class="cls-13" d="M212.11,193a1.15,1.15,0,1,0-1.16-1.15,1.16,1.16,0,0,0,1.16,1.15Zm6.82,7.87-2-3.38a.67.67,0,0,0-.56-.33h-3v-1h2.13a.51.51,0,0,0,.52-.5.56.56,0,0,0-.52-.56h-2.18l-.07-.81a1.14,1.14,0,0,0-1.19-1,1.12,1.12,0,0,0-1.06,1.17l.21,3.5a1.22,1.22,0,0,0,1.18,1.13h3.77l1.54,2.55a.7.7,0,0,0,.93.23.67.67,0,0,0,.23-.92Zm-6.07,2a3.42,3.42,0,0,1-3.45-3.41,3.39,3.39,0,0,1,1.21-2.59l-.06-1.07a4.3,4.3,0,0,0-2.07,3.66,4.37,4.37,0,0,0,8.35,1.76l-.61-1.06a3.44,3.44,0,0,1-3.37,2.71Z" transform="translate(-154.73 -26.7)"/><path class="cls-13" d="M219.74,206.53H206.63c-1.46,0-2.64-1.51-2.64-3.36V191.31c0-1.85,1.18-3.36,2.64-3.36h13.11c1.46,0,2.65,1.51,2.65,3.36v11.86c0,1.85-1.19,3.36-2.65,3.36Zm-13.11-17.9a2.45,2.45,0,0,0-2.11,2.68v11.86a2.45,2.45,0,0,0,2.11,2.68h13.11a2.45,2.45,0,0,0,2.12-2.68V191.31a2.45,2.45,0,0,0-2.12-2.68Z" transform="translate(-154.73 -26.7)"/><path class="cls-13" d="M199.3,206.52l-14.86,0a3.21,3.21,0,0,1-3-3.39l0-12a3.22,3.22,0,0,1,3-3.38l14.87,0a3.2,3.2,0,0,1,3,3.39l0,11.95a3.21,3.21,0,0,1-3,3.38Zm-14.82-18.08a2.57,2.57,0,0,0-2.4,2.7l0,12a2.55,2.55,0,0,0,2.39,2.7l14.87,0a2.57,2.57,0,0,0,2.4-2.7l0-12a2.56,2.56,0,0,0-2.39-2.7l-14.87,0Z" transform="translate(-154.73 -26.7)"/><path class="cls-13" d="M194.19,200h1.15v3.77c0,.25.28.52.5.46a.52.52,0,0,0,.39-.52l.05-3.71h.27v3.77a.37.37,0,0,0,.11.32.5.5,0,0,0,.39.09.43.43,0,0,0,.28-.41V200h1.15l-1.14-4.53a.24.24,0,0,1,0-.23.25.25,0,0,1,.11-.12.18.18,0,0,1,.1,0,.54.54,0,0,1,.16.1l.72,2.77a.35.35,0,0,0,.16.16.35.35,0,0,0,.43,0,.52.52,0,0,0,.09-.47l-.83-3a2,2,0,0,0-.41-.65,1.5,1.5,0,0,0-1.05-.41l-1.2.12a1.65,1.65,0,0,0-.53.13,1,1,0,0,0-.54.55,2.13,2.13,0,0,0-.13.43l-.74,2.82a.48.48,0,0,0,0,.37.31.31,0,0,0,.37.16.35.35,0,0,0,.23-.23l.84-2.71c0-.05,0-.1.09-.11a.13.13,0,0,1,.17.05.23.23,0,0,1,0,.18L194.19,200Z" transform="translate(-154.73 -26.7)"/><path class="cls-13" d="M185.66,198.58v-3.41H186l0,8.3a.56.56,0,0,0,.26.45.47.47,0,0,0,.54,0,.64.64,0,0,0,.24-.48v-4.82h.32v4.82a.6.6,0,0,0,.23.5.47.47,0,0,0,.58,0,.66.66,0,0,0,.23-.46l0-8.18h.31v3.29h.73v-3.47a1.48,1.48,0,0,0-.31-.94,1.3,1.3,0,0,0-.83-.47h-2.2a1.18,1.18,0,0,0-.59.19,1.33,1.33,0,0,0-.48.54,1.55,1.55,0,0,0-.18.55v3.65Z" transform="translate(-154.73 -26.7)"/><path class="cls-13" d="M187.18,193.35a1,1,0,0,0,.94-.75,1.3,1.3,0,0,0-.36-1.37.91.91,0,0,0-1.32.14,1.25,1.25,0,0,0-.12,1.44,1,1,0,0,0,.86.54Z" transform="translate(-154.73 -26.7)"/><path class="cls-13" d="M196.29,193.43a.92.92,0,0,0,.89-.6,1.1,1.1,0,0,0-.34-1.32.85.85,0,0,0-1.2.13,1.16,1.16,0,0,0-.1,1.37.84.84,0,0,0,.75.42Z" transform="translate(-154.73 -26.7)"/><polygon class="cls-13" points="36.32 163.03 36.92 163.04 36.89 178.03 36.28 178.03 36.32 163.03 36.32 163.03"/><path class="cls-13" d="M296.94,280.76l-16.64.18c-1.86,0-3.38-1.88-3.41-4.23l-.16-15.06c0-2.35,1.46-4.27,3.32-4.29l16.64-.18c1.86,0,3.39,1.88,3.41,4.22l.16,15.07c0,2.35-1.46,4.27-3.32,4.29Zm-16.88-22.55c-1.48,0-2.67,1.56-2.65,3.44l.16,15.06c0,1.87,1.24,3.39,2.72,3.37l16.64-.17c1.48,0,2.67-1.56,2.65-3.44l-.16-15.06c0-1.88-1.24-3.39-2.72-3.37l-16.64.17Z" transform="translate(-154.73 -26.7)"/><path d="M288.2,263.23a1.14,1.14,0,1,1-1.15-1.1A1.13,1.13,0,0,1,288.2,263.23Z" transform="translate(-154.73 -26.7)"/><path d="M288.2,266.1v-.48a1.12,1.12,0,0,0-2.23,0l0,2.55s0,.06,0,.1Z" transform="translate(-154.73 -26.7)"/><path d="M295.57,263.65a1.65,1.65,0,1,1,0,3.3l-2,0L286,274.6a1.88,1.88,0,0,1-.39.35,1.71,1.71,0,0,1-.9.33l-.24,0-2.89,0a1.67,1.67,0,1,1,0-3.3l2.32,0,7.83-7.79,0,0h0l.11-.1a.1.1,0,0,0,.05,0l.08,0,.11-.07h0a1.73,1.73,0,0,1,.85-.22l2.62,0m0-.74-2.62,0a2.82,2.82,0,0,0-1.21.31l-.05,0-.15.09-.09.07h0l-.06.05a.87.87,0,0,0-.15.13h0l-.06,0-7.6,7.58-2,0a2.41,2.41,0,1,0,.05,4.8l2.89,0a1.78,1.78,0,0,0,.31,0,2.67,2.67,0,0,0,1.78-.93l7.4-7.37,1.66,0a2.4,2.4,0,1,0-.06-4.79Z" transform="translate(-154.73 -26.7)"/><path class="cls-13" d="M221.28,276.48H205.77c-1.72,0-3.12-1.78-3.12-4v-14c0-2.18,1.4-4,3.12-4h15.51c1.73,0,3.13,1.78,3.13,4v14c0,2.19-1.4,4-3.13,4Zm-15.5-21.17c-1.38,0-2.5,1.43-2.5,3.17v14c0,1.75,1.12,3.18,2.5,3.18h15.5c1.38,0,2.5-1.43,2.5-3.18v-14c0-1.74-1.12-3.17-2.5-3.17Z" transform="translate(-154.73 -26.7)"/><path d="M209.71,259.69a1.23,1.23,0,1,0-1.32-1.23A1.29,1.29,0,0,0,209.71,259.69Z" transform="translate(-154.73 -26.7)"/><path d="M208.24,262.31v3.77h0v5.8c0,.29.1.53.24.53h.85c.14,0,.24-.24.24-.53v-5.8h.28v1.68l1.31,2.85c.15.1,1.06-.21,1.09-.52-.34-.61-.72-1.72-1.06-2.33v-1.57s0-.07,0-.11h0v-3.77h.2v3.4c0,.21.12.37.25.37h.85c.13,0,.24-.16.24-.37v-4.62a1,1,0,0,0-1-1h-4a1,1,0,0,0-1,1v4.62c0,.21.11.37.24.37h.86c.13,0,.24-.16.24-.37v-3.4Z" transform="translate(-154.73 -26.7)"/><polygon points="67 236.44 64.97 236.44 63.63 236.44 63.63 237.68 63.63 238.32 62.95 238.32 61.61 238.32 61.61 239.56 61.61 240.19 60.92 240.19 59.58 240.19 59.58 241.43 59.58 242.07 58.9 242.07 57.56 242.07 57.56 243.31 57.56 243.94 56.88 243.94 55.53 243.94 55.53 245.18 55.53 245.82 53.51 245.82 53.51 247.06 55.53 247.06 56.04 247.06 56.88 247.06 56.88 245.18 57.56 245.18 58.9 245.18 58.9 243.94 58.9 243.31 59.58 243.31 60.92 243.31 60.92 243.31 60.92 241.43 61.61 241.43 62.95 241.43 62.95 240.19 62.95 239.56 63.63 239.56 64.97 239.56 64.97 238.32 64.97 237.68 67 237.68 67 236.44"/><path class="cls-13" d="M455.73,504.15h-13.4c-1.49,0-2.7-1.54-2.7-3.43V488.59c0-1.89,1.21-3.43,2.7-3.43h13.4c1.49,0,2.71,1.54,2.71,3.43v12.13c0,1.89-1.22,3.43-2.71,3.43Zm-13.4-18.3a2.51,2.51,0,0,0-2.16,2.74v12.13a2.51,2.51,0,0,0,2.16,2.74h13.4a2.51,2.51,0,0,0,2.16-2.74V488.59a2.51,2.51,0,0,0-2.16-2.74Z" transform="translate(-154.73 -26.7)"/><polygon class="cls-13" points="293.74 460.5 293.75 461.07 294.16 460.61 294.16 461.93 294.44 461.92 294.45 460.67 294.87 461.09 294.86 460.48 294.31 459.96 293.74 460.5"/><path class="cls-13" d="M446.72,492a.73.73,0,0,1,.53-.47,6.41,6.41,0,0,1,2.43,0,.58.58,0,0,1,.47.43l.45,1.26,1.3-.83c.34-.15.55.16.32.43l-1.45.88a.46.46,0,0,1-.64-.11l-.37-.92a.34.34,0,0,0-.28,0v6.58c-.12.29-.67.29-.75,0v-3.72a.66.66,0,0,0-.44,0v3.71a.42.42,0,0,1-.73,0v-6.61a.39.39,0,0,0-.3,0l0,2.88a.36.36,0,0,1-.51,0V492Zm1.79-2.22a.67.67,0,1,1-.74.67A.7.7,0,0,1,448.51,489.8Z" transform="translate(-154.73 -26.7)"/><polygon class="cls-13" points="293.74 475.4 293.75 474.84 294.16 475.3 294.16 473.98 294.44 473.99 294.45 475.24 294.87 474.82 294.86 475.43 294.31 475.94 293.74 475.4"/><rect x="301.01" y="461.29" width="0.38" height="13.45"/><rect x="287.22" y="461.42" width="0.38" height="13.45"/><path class="cls-13" d="M444.15,488.86h9.77v11.59h-9.77V488.86Zm.19.19v11.21h9.39V489.05Z" transform="translate(-154.73 -26.7)"/><path class="cls-13" d="M252.61,231.62h-13.4c-1.49,0-2.7-1.57-2.7-3.49V215.78c0-1.93,1.21-3.5,2.7-3.5h13.4c1.49,0,2.71,1.57,2.71,3.5v12.35c0,1.92-1.22,3.49-2.71,3.49ZM239.22,213c-1.2,0-2.17,1.25-2.17,2.79v12.35c0,1.54,1,2.79,2.17,2.79h13.39c1.19,0,2.16-1.25,2.16-2.79V215.78c0-1.54-1-2.79-2.16-2.79Z" transform="translate(-154.73 -26.7)"/><polygon class="cls-13" points="90.63 187.66 90.63 188.24 91.04 187.77 91.04 189.11 91.33 189.11 91.34 187.83 91.75 188.26 91.75 187.63 91.19 187.12 90.63 187.66"/><path class="cls-13" d="M243.6,219.27a.76.76,0,0,1,.54-.48,6.41,6.41,0,0,1,2.43,0,.58.58,0,0,1,.46.44l.45,1.28,1.3-.84c.34-.15.55.16.32.43l-1.44.9a.46.46,0,0,1-.65-.11l-.37-.93a.29.29,0,0,0-.27,0v6.7c-.13.3-.67.3-.76,0v-3.8a.66.66,0,0,0-.44,0v3.79a.42.42,0,0,1-.73,0V220a.37.37,0,0,0-.29,0l0,2.93a.36.36,0,0,1-.51,0v-3.63Zm1.79-2.27a.72.72,0,0,1,.74.69.74.74,0,0,1-1.48,0A.72.72,0,0,1,245.39,217Z" transform="translate(-154.73 -26.7)"/><polygon class="cls-13" points="90.63 202.84 90.63 202.26 91.04 202.73 91.04 201.39 91.33 201.4 91.34 202.68 91.75 202.25 91.75 202.87 91.19 203.39 90.63 202.84"/><rect x="97.9" y="188.46" width="0.38" height="13.7"/><rect x="84.1" y="188.6" width="0.38" height="13.7"/><path class="cls-13" d="M241,216.05h9.77v11.8H241v-11.8Zm.19.19v11.42h9.39V216.24Z" transform="translate(-154.73 -26.7)"/><path class="cls-13" d="M231.87,231.62H218.31c-1.5,0-2.73-1.57-2.73-3.49V215.78c0-1.93,1.23-3.5,2.73-3.5h13.56c1.5,0,2.73,1.57,2.73,3.5v12.35c0,1.92-1.23,3.49-2.73,3.49ZM218.32,213a2.55,2.55,0,0,0-2.19,2.79v12.35a2.55,2.55,0,0,0,2.19,2.79h13.55c1.2,0,2.18-1.25,2.18-2.79V215.78c0-1.54-1-2.79-2.18-2.79Z" transform="translate(-154.73 -26.7)"/><path d="M224,220.45a.56.56,0,0,1-.68-.48.67.67,0,0,1,.41-.8.56.56,0,0,1,.68.48A.67.67,0,0,1,224,220.45Z" transform="translate(-154.73 -26.7)"/><path d="M222.47,222.49h1v-1.68l1.53-.52,1,.05,1.19,1s.24.35,0,.54-.58-.12-.67-.2l-.82-.71-.22,0,0,.14,1.19,1.78.38,1.5h1.8c.41-.11.55.82.07,1l-2.26,0s-.23.05-.36-.41a13.87,13.87,0,0,0-.48-1.32,8.79,8.79,0,0,0-.66,1c-.11,1,0,2.3-.07,2.53a.38.38,0,0,1-.58.3.59.59,0,0,1-.2-.63l-.09-2.39.68-1.1-.85-1.3v1.07h0v0h-1.57a.37.37,0,0,1,0-.73Z" transform="translate(-154.73 -26.7)"/><rect x="65.17" y="189.61" width="10.4" height="0.87"/><rect x="65.17" y="190.18" width="1.71" height="10.47"/><rect x="74.49" y="190.43" width="1.08" height="10.47"/><path class="cls-13" d="M527.08,485H513.53c-1.51,0-2.73-1.57-2.73-3.5V469.11c0-1.92,1.22-3.49,2.73-3.49h13.55c1.51,0,2.74,1.57,2.74,3.49v12.35c0,1.93-1.23,3.5-2.74,3.5Zm-13.55-18.64c-1.2,0-2.18,1.26-2.18,2.79v12.35c0,1.54,1,2.79,2.18,2.79h13.55a2.55,2.55,0,0,0,2.19-2.79V469.11c0-1.53-1-2.79-2.19-2.79Z" transform="translate(-154.73 -26.7)"/><path d="M519.22,473.79a.56.56,0,0,1-.68-.48.68.68,0,0,1,.42-.8.56.56,0,0,1,.68.48A.68.68,0,0,1,519.22,473.79Z" transform="translate(-154.73 -26.7)"/><path d="M517.69,475.83h.95v-1.68l1.53-.52,1,0,1.19,1s.24.35,0,.55-.58-.12-.67-.2l-.83-.72-.21,0,0,.14,1.19,1.78.38,1.5h1.8c.4-.11.55.82.07,1l-2.26,0s-.24.06-.36-.4A13.87,13.87,0,0,0,521,477a8.79,8.79,0,0,0-.66,1c-.11,1,0,2.29-.07,2.53a.38.38,0,0,1-.58.29.56.56,0,0,1-.2-.62l-.09-2.4.68-1.09-.86-1.31v1.08h0v0h-1.56a.35.35,0,0,1-.31-.37A.34.34,0,0,1,517.69,475.83Z" transform="translate(-154.73 -26.7)"/><rect x="360.38" y="442.95" width="10.4" height="0.87"/><rect x="360.38" y="443.52" width="1.71" height="10.47"/><rect x="369.7" y="443.76" width="1.08" height="10.47"/><path class="cls-13" d="M509.12,204.31H495.57c-1.51,0-2.74-1.56-2.74-3.49V188.47c0-1.92,1.23-3.49,2.74-3.49h13.55c1.5,0,2.73,1.57,2.73,3.49v12.35c0,1.93-1.23,3.49-2.73,3.49Zm-13.55-18.63a2.55,2.55,0,0,0-2.19,2.79v12.35a2.55,2.55,0,0,0,2.19,2.79h13.55c1.2,0,2.18-1.25,2.18-2.79V188.47c0-1.54-1-2.79-2.18-2.79Z" transform="translate(-154.73 -26.7)"/><path d="M501.26,193.15a.57.57,0,0,1-.68-.49.68.68,0,0,1,.41-.8.56.56,0,0,1,.68.49A.67.67,0,0,1,501.26,193.15Z" transform="translate(-154.73 -26.7)"/><path d="M499.72,195.19h1v-1.68l1.53-.52,1,0,1.19,1s.24.35,0,.54-.58-.11-.67-.19l-.82-.72-.22,0,0,.14,1.18,1.78.38,1.49h1.8c.41-.11.56.82.07,1l-2.26,0s-.23.06-.35-.4a12.1,12.1,0,0,0-.49-1.32,7.66,7.66,0,0,0-.66,1c-.1,1,0,2.3-.07,2.54a.38.38,0,0,1-.58.29.57.57,0,0,1-.19-.62l-.1-2.4.68-1.09-.85-1.31v1.08h0v0h-1.57a.36.36,0,0,1,0-.72Z" transform="translate(-154.73 -26.7)"/><rect x="342.42" y="162.3" width="10.4" height="0.87"/><rect x="342.42" y="162.87" width="1.71" height="10.47"/><rect x="351.74" y="163.12" width="1.08" height="10.47"/><polyline class="cls-11" points="70.36 524.99 392.36 524.99 392.36 135.99 156.8 135.99 156.8 173.09 128.69 173.09 128.69 140.32"/><line class="cls-11" x1="114.69" y1="139.89" x2="114.69" y2="176.91"/></g><g id="图层_2" data-name="图层 2"><text class="cls-14" transform="translate(204.74 24.06) scale(1.07 1)">五层</text><text class="cls-15" transform="translate(227.66 282.99)">中庭</text><text class="cls-15" transform="translate(409.88 110.99)">江淮撷珍</text><text class="cls-15" transform="translate(396.82 308.95)">临时展厅（二）</text><text class="cls-15" transform="translate(26.16 103.59)">临时展厅（一）</text><text class="cls-15" transform="translate(397.57 498.95)">临时展厅（三）</text><text class="cls-15" transform="translate(193.57 498.95)">欧豪年美术馆</text><text class="cls-15" transform="translate(6.57 396.49)">安徽文房四宝</text><text class="cls-15" transform="matrix(1, -0.01, 0.01, 1, 66.15, 652.56)">扶梯</text><text class="cls-15" transform="translate(63.82 603.56)">无障碍通道</text><text class="cls-15" transform="translate(266.33 653.69)">电梯</text><text class="cls-15" transform="translate(268 603.56)">洗手间</text><text class="cls-15" transform="translate(417.34 603.81)">安全出口</text><text class="cls-15" transform="translate(417.41 653.43)">楼梯</text></g></svg>