<svg xmlns="http://www.w3.org/2000/svg" viewBox="0 0 688.21 682.99"><defs><style>.cls-1,.cls-16,.cls-2{fill:#9e9e9f;}.cls-1,.cls-13,.cls-14{fill-rule:evenodd;}.cls-3{fill:#aac8ce;}.cls-11,.cls-3{stroke:#000;}.cls-11,.cls-19,.cls-3,.cls-4,.cls-5,.cls-6,.cls-7,.cls-8,.cls-9{stroke-miterlimit:10;}.cls-4{fill:#8a8db7;}.cls-4,.cls-5,.cls-6,.cls-7,.cls-8,.cls-9{stroke:#e5e5e5;}.cls-5{fill:#a8ad9c;}.cls-6{fill:#a8a658;}.cls-7{fill:#a27baf;}.cls-8{fill:#8e6579;}.cls-9{fill:#9394af;}.cls-10{fill:#f9f9f9;}.cls-11,.cls-18,.cls-19{fill:none;}.cls-12,.cls-13,.cls-17{fill:#0f0f0f;}.cls-14,.cls-15{fill:#e52828;}.cls-16{font-size:22.02px;}.cls-16,.cls-17{font-family:FZLTCHJW--GB1-0, FZLanTingHeiS-B-GB;}.cls-17{font-size:9.28px;}.cls-19{stroke:#2d52ea;}.cls-20{fill:#2d52ea;}.cls-21{font-size:11.67px;}.cls-21,.cls-22,.cls-23{font-family:FZLTHK--GBK1-0, FZLanTingHei-R-GBK;}.cls-22{font-size:28px;}.cls-23{font-size:12.51px;}</style></defs><title>安徽博物院平面图 二层</title><g id="图层_1" data-name="图层 1"><path class="cls-1" d="M503.78,637.47a2,2,0,1,0-2-2,2,2,0,0,0,2,2Zm11.92,13.76-3.46-5.92a1.21,1.21,0,0,0-1-.57h-5.18v-1.81h3.72a.91.91,0,0,0,.92-.89,1,1,0,0,0-.92-1H506l-.13-1.41a2,2,0,0,0-3.93.23l.36,6.1a2.15,2.15,0,0,0,2.07,2H511l2.7,4.46a1.22,1.22,0,0,0,1.63.4,1.17,1.17,0,0,0,.4-1.61Zm-10.62,3.51a6,6,0,0,1-6-6,5.93,5.93,0,0,1,2.12-4.52l-.11-1.87a7.52,7.52,0,0,0-3.61,6.39,7.64,7.64,0,0,0,14.6,3.08L511,650a6,6,0,0,1-5.89,4.74Z" transform="translate(-48.36 -24.01)"/><path class="cls-1" d="M517.11,661.12H494.19c-2.55,0-4.63-2.63-4.63-5.87V634.51c0-3.23,2.08-5.87,4.63-5.87h22.92c2.55,0,4.63,2.64,4.63,5.87v20.74c0,3.24-2.08,5.87-4.63,5.87Zm-22.92-31.3c-2,0-3.7,2.11-3.7,4.69v20.74c0,2.59,1.66,4.69,3.7,4.69h22.92c2,0,3.7-2.1,3.7-4.69V634.51c0-2.58-1.66-4.69-3.7-4.69Z" transform="translate(-48.36 -24.01)"/><path class="cls-1" d="M644.25,660.45H618.84a5.4,5.4,0,0,1-5.13-5.62V634.94a5.41,5.41,0,0,1,5.13-5.63h25.41a5.41,5.41,0,0,1,5.13,5.63v19.89a5.4,5.4,0,0,1-5.13,5.62Zm-25.41-30a4.32,4.32,0,0,0-4.1,4.5v19.89a4.31,4.31,0,0,0,4.1,4.49h25.41a4.31,4.31,0,0,0,4.1-4.49V634.94a4.32,4.32,0,0,0-4.1-4.5Z" transform="translate(-48.36 -24.01)"/><path class="cls-1" d="M635.48,649.56h2v6.27c0,.42.49.86.86.76a.86.86,0,0,0,.66-.87l.08-6.16h.46v6.27a.57.57,0,0,0,.2.53.78.78,0,0,0,.66.14.72.72,0,0,0,.47-.68v-6.26h2l-2-7.54a.42.42,0,0,1,0-.38.61.61,0,0,1,.19-.2.44.44,0,0,1,.19,0,.62.62,0,0,1,.26.17l1.24,4.59a.75.75,0,0,0,.28.28.59.59,0,0,0,.73-.08.81.81,0,0,0,.15-.78l-1.42-4.9a3.28,3.28,0,0,0-.71-1.07,2.57,2.57,0,0,0-1.79-.69l-2.05.2a2.89,2.89,0,0,0-.91.22,1.74,1.74,0,0,0-.92.93,2.92,2.92,0,0,0-.22.71l-1.25,4.69a.71.71,0,0,0,0,.62.55.55,0,0,0,.64.27.61.61,0,0,0,.38-.4l1.42-4.5c0-.09.07-.16.16-.19a.22.22,0,0,1,.29.08.39.39,0,0,1,0,.3l-2,7.64Z" transform="translate(-48.36 -24.01)"/><path class="cls-1" d="M620.89,647.31v-5.67h.54v13.79a1,1,0,0,0,.44.75.78.78,0,0,0,.92,0,1,1,0,0,0,.42-.79v-8h.53v8a1,1,0,0,0,.42.82.8.8,0,0,0,1,0,1.07,1.07,0,0,0,.39-.77v-13.6h.54v5.47h1.24v-5.77a2.5,2.5,0,0,0-.53-1.57,2.25,2.25,0,0,0-1.43-.78H621.6a2,2,0,0,0-1,.33,2.27,2.27,0,0,0-.82.89,2.44,2.44,0,0,0-.31.93v6.07Z" transform="translate(-48.36 -24.01)"/><path class="cls-1" d="M623.48,638.6a1.78,1.78,0,0,0,1.59-1.25,2.1,2.1,0,0,0-.61-2.28,1.59,1.59,0,0,0-2.25.23,2,2,0,0,0-.21,2.4,1.75,1.75,0,0,0,1.48.9Z" transform="translate(-48.36 -24.01)"/><path class="cls-1" d="M639,638.7a1.6,1.6,0,0,0,1.53-1,1.79,1.79,0,0,0-.59-2.19,1.49,1.49,0,0,0-2.05.21,1.9,1.9,0,0,0-.17,2.29,1.48,1.48,0,0,0,1.28.7Z" transform="translate(-48.36 -24.01)"/><polygon class="cls-1" points="581.71 608.56 582.74 608.56 582.74 633.49 581.71 633.49 581.71 608.56 581.71 608.56"/><path class="cls-1" d="M139.44,661.12H116.51c-2.55,0-4.62-2.63-4.62-5.87V634.51c0-3.23,2.07-5.87,4.62-5.87h22.93c2.55,0,4.63,2.64,4.63,5.87v20.74c0,3.24-2.08,5.87-4.63,5.87Zm-22.93-31.3c-2,0-3.69,2.11-3.69,4.69v20.74c0,2.59,1.66,4.69,3.69,4.69h22.93c2,0,3.7-2.1,3.7-4.69V634.51c0-2.58-1.66-4.69-3.7-4.69Z" transform="translate(-48.36 -24.01)"/><path class="cls-2" d="M124.83,634.33a3.15,3.15,0,1,0,3.15-3.15,3.15,3.15,0,0,0-3.15,3.15Zm0,0" transform="translate(-48.36 -24.01)"/><path class="cls-2" d="M130.09,638.86H126a5.18,5.18,0,0,0-3.51,1.31v8.11h3.08l.66,9.52H130l.64-9.52h3.12v-8a5.17,5.17,0,0,0-3.66-1.46Zm0,0" transform="translate(-48.36 -24.01)"/><path class="cls-1" d="M323.43,707H300.51c-2.55,0-4.63-2.63-4.63-5.87V680.39c0-3.23,2.08-5.87,4.63-5.87h22.92c2.55,0,4.63,2.64,4.63,5.87v20.74c0,3.24-2.08,5.87-4.63,5.87Zm-22.92-31.3c-2,0-3.7,2.11-3.7,4.69v20.74c0,2.59,1.66,4.69,3.7,4.69h22.92c2,0,3.7-2.1,3.7-4.69V680.39c0-2.58-1.66-4.69-3.7-4.69Z" transform="translate(-48.36 -24.01)"/><path class="cls-2" d="M311.65,682.73a1.57,1.57,0,1,1-1.57-1.53A1.56,1.56,0,0,1,311.65,682.73Z" transform="translate(-48.36 -24.01)"/><path class="cls-2" d="M311.61,686.69V686a1.54,1.54,0,0,0-3.07,0v3.52a.66.66,0,0,0,0,.14Z" transform="translate(-48.36 -24.01)"/><path class="cls-2" d="M321.8,683.42a2.28,2.28,0,1,1,0,4.55h-2.71l-10.65,10.38a2.58,2.58,0,0,1-.55.49,2.45,2.45,0,0,1-1.24.44l-.33,0h-4a2.3,2.3,0,1,1,0-4.55h3.19l10.9-10.63,0,0h0l.16-.14.07-.05.11-.07a.6.6,0,0,1,.15-.09l0,0a2.57,2.57,0,0,1,1.18-.28h3.61m0-1h-3.61a3.6,3.6,0,0,0-1.68.41l-.06,0a1.57,1.57,0,0,0-.21.12l-.13.09,0,0h0l-.09.06-.21.18h0l-.08.07L305.1,693.72h-2.76a3.32,3.32,0,1,0,0,6.6h4l.43,0a3.55,3.55,0,0,0,1.75-.62,4,4,0,0,0,.72-.64l10.3-10h2.28a3.3,3.3,0,1,0,0-6.6Z" transform="translate(-48.36 -24.01)"/><rect class="cls-3" x="90.08" y="47.4" width="503.45" height="529.58"/><rect class="cls-4" x="277.7" y="48.4" width="313.74" height="112.17"/><rect class="cls-5" x="469.57" y="259.56" width="121.95" height="315.42"/><rect class="cls-6" x="276.66" y="459.63" width="103.19" height="115.91"/><rect class="cls-7" x="202.65" y="100.97" width="48.99" height="84.65"/><rect class="cls-8" x="91.08" y="48.4" width="39.93" height="39.93"/><rect class="cls-9" x="116.14" y="414.93" width="55.24" height="22.93"/><rect class="cls-10" x="220.37" y="221.86" width="188.66" height="169.1"/><rect class="cls-11" x="90.08" y="278.81" width="15.63" height="69.14"/><rect class="cls-11" x="220.37" y="563.17" width="35.44" height="13.33"/><path class="cls-2" d="M48.36,690.76a.74.74,0,0,0,.65.81H59.54l-4.89,6a.78.78,0,0,0-.09,1,.67.67,0,0,0,1,.13l6-7.41a.77.77,0,0,0,.14-.25h0a.35.35,0,0,0,0-.12,0,0,0,0,0,0,0,.76.76,0,0,0,0-.15h0a.86.86,0,0,0,0-.16,0,0,0,0,0,0,0,.53.53,0,0,0,0-.12h0a.82.82,0,0,0-.14-.26L55.74,683a.76.76,0,0,0-1.09-.2.89.89,0,0,0,0,1.13l4.89,6H49a.74.74,0,0,0-.65.8Zm0,0" transform="translate(-48.36 -24.01)"/><path class="cls-2" d="M76,675.25H61a3.12,3.12,0,0,0-3.11,3.1V683a.78.78,0,0,0,.78.78.77.77,0,0,0,.77-.78v-4.61A1.56,1.56,0,0,1,61,676.8H76a1.55,1.55,0,0,1,1.55,1.55v24.82A1.54,1.54,0,0,1,76,704.72H61a1.55,1.55,0,0,1-1.56-1.55V699a.77.77,0,0,0-.77-.77.78.78,0,0,0-.78.77v4.15a3.11,3.11,0,0,0,3.11,3.1H76a3.1,3.1,0,0,0,3.1-3.1V678.35a3.11,3.11,0,0,0-3.1-3.1Zm0,0" transform="translate(-48.36 -24.01)"/><path class="cls-12" d="M165.13,325.61a.34.34,0,0,0,.3.37h4.91l-2.28,2.82a.35.35,0,0,0,0,.47.31.31,0,0,0,.47.06l2.8-3.46a.23.23,0,0,0,.06-.12h0s0,0,0-.05v0a.17.17,0,0,0,0-.07h0a.22.22,0,0,0,0-.08h0s0,0,0-.06h0a.34.34,0,0,0-.06-.12L168.57,322a.35.35,0,0,0-.51-.09.41.41,0,0,0,0,.53l2.28,2.81h-4.91a.34.34,0,0,0-.3.38Zm0,0" transform="translate(-48.36 -24.01)"/><path class="cls-12" d="M178,318.37h-7a1.46,1.46,0,0,0-1.45,1.45V322a.37.37,0,0,0,.37.36.36.36,0,0,0,.36-.36v-2.15a.72.72,0,0,1,.72-.72h7a.72.72,0,0,1,.72.72V331.4a.72.72,0,0,1-.72.72h-7a.72.72,0,0,1-.72-.72v-1.94a.36.36,0,0,0-.36-.36.37.37,0,0,0-.37.36v1.94a1.46,1.46,0,0,0,1.45,1.44h7a1.46,1.46,0,0,0,1.45-1.44V319.82a1.46,1.46,0,0,0-1.45-1.45Zm0,0" transform="translate(-48.36 -24.01)"/><path class="cls-2" d="M185.89,690.76a.74.74,0,0,0-.65-.8H174.71l4.89-6a.89.89,0,0,0,0-1.13.75.75,0,0,0-1.08.2l-5.84,7.2a.82.82,0,0,0-.14.26h0l0,.12v0a.86.86,0,0,0,0,.16h0a.76.76,0,0,0,0,.15v0l0,.12h0a.77.77,0,0,0,.14.25l6,7.41a.67.67,0,0,0,1-.13.77.77,0,0,0-.09-1l-4.89-6h10.53a.74.74,0,0,0,.65-.81Zm0,0" transform="translate(-48.36 -24.01)"/><path class="cls-2" d="M200.1,675.25h-15a3.12,3.12,0,0,0-3.1,3.1V683a.78.78,0,0,0,.78.78.77.77,0,0,0,.77-.78v-4.61a1.56,1.56,0,0,1,1.55-1.55h15a1.55,1.55,0,0,1,1.55,1.55v24.82a1.54,1.54,0,0,1-1.55,1.55h-15a1.55,1.55,0,0,1-1.55-1.55V699a.77.77,0,0,0-.77-.77.78.78,0,0,0-.78.77v4.15a3.11,3.11,0,0,0,3.1,3.1h15a3.1,3.1,0,0,0,3.1-3.1V678.35a3.11,3.11,0,0,0-3.1-3.1Zm0,0" transform="translate(-48.36 -24.01)"/><path class="cls-12" d="M280.42,84.21a.33.33,0,0,0,.29.36h4.74l-2.2,2.72a.33.33,0,0,0,0,.45c.11.14.34.2.45.06l2.7-3.33a.34.34,0,0,0,.06-.12h0a.43.43,0,0,1,0,0v0a.17.17,0,0,0,0-.07h0a.15.15,0,0,0,0-.07v0s0,0,0-.05h0a.34.34,0,0,0-.06-.12l-2.62-3.24a.35.35,0,0,0-.49-.09.39.39,0,0,0,0,.51l2.2,2.72h-4.74a.33.33,0,0,0-.29.36Zm0,0" transform="translate(-48.36 -24.01)"/><path class="cls-12" d="M274,77.23a1.4,1.4,0,0,0-1.39,1.4V89.79a1.4,1.4,0,0,0,1.39,1.4h6.75a1.4,1.4,0,0,0,1.4-1.4V87.93a.35.35,0,1,0-.7,0v1.86a.7.7,0,0,1-.7.7H274a.69.69,0,0,1-.69-.7V78.63a.69.69,0,0,1,.69-.7h6.75a.7.7,0,0,1,.7.7V80.7a.35.35,0,0,0,.7,0V78.63a1.4,1.4,0,0,0-1.4-1.4Zm0,0" transform="translate(-48.36 -24.01)"/><path class="cls-1" d="M695.82,707H672.89c-2.55,0-4.62-2.63-4.62-5.87V680.39c0-3.23,2.07-5.87,4.62-5.87h22.93c2.55,0,4.63,2.64,4.63,5.87v20.74c0,3.24-2.08,5.87-4.63,5.87ZM672.9,675.7c-2,0-3.7,2.11-3.7,4.69v20.74c0,2.59,1.66,4.69,3.7,4.69h22.92c2,0,3.7-2.1,3.7-4.69V680.39c0-2.58-1.66-4.69-3.7-4.69Z" transform="translate(-48.36 -24.01)"/><path class="cls-2" d="M678.71,682.17a1.82,1.82,0,1,0-2-1.81A1.89,1.89,0,0,0,678.71,682.17Z" transform="translate(-48.36 -24.01)"/><path class="cls-2" d="M676.53,686.05v5.57h0a.86.86,0,0,0,0,.16v8.42c0,.43.16.78.36.78h1.26c.2,0,.36-.35.36-.78v-8.42a.86.86,0,0,0,0-.16h.42s0,.11,0,.16v2.32l1.94,4.22c.22.15,1.58-.32,1.62-.76-.51-.92-1.07-2.55-1.58-3.46v-2.48h0v-5.57h.31v5c0,.3.17.54.36.54h1.26c.19,0,.36-.24.36-.54v-6.84a1.51,1.51,0,0,0-1.5-1.51h-5.93a1.52,1.52,0,0,0-1.51,1.51v6.84c0,.3.15.54.35.54h1.27c.2,0,.36-.24.36-.54v-5Z" transform="translate(-48.36 -24.01)"/><polygon class="cls-2" points="648.12 663.27 645.12 663.27 643.14 663.27 643.14 665.1 643.14 666.05 642.13 666.05 640.15 666.05 640.15 667.88 640.15 668.82 639.13 668.82 637.15 668.82 637.15 670.65 637.15 671.59 636.13 671.59 634.15 671.59 634.15 673.42 634.15 674.36 633.15 674.36 631.16 674.36 631.16 676.19 631.16 677.13 628.17 677.13 628.17 678.97 631.16 678.97 631.91 678.97 633.15 678.97 633.15 676.19 634.15 676.19 636.13 676.19 636.13 674.36 636.13 673.42 637.15 673.42 639.13 673.42 639.13 673.42 639.13 670.65 640.15 670.65 642.13 670.65 642.13 668.82 642.13 667.88 643.14 667.88 645.12 667.88 645.12 666.05 645.12 665.1 648.12 665.1 648.12 663.27"/><path class="cls-13" d="M195,258.84H181.29c-1.52,0-2.76-1.57-2.76-3.5V243c0-1.93,1.24-3.5,2.76-3.5H195c1.53,0,2.77,1.57,2.77,3.5v12.39c0,1.93-1.24,3.5-2.77,3.5Zm-13.69-18.69a2.56,2.56,0,0,0-2.2,2.8v12.39a2.56,2.56,0,0,0,2.2,2.8H195a2.56,2.56,0,0,0,2.21-2.8V243a2.56,2.56,0,0,0-2.21-2.8Z" transform="translate(-48.36 -24.01)"/><path class="cls-12" d="M184.77,244a1.09,1.09,0,1,0-1.17-1.09A1.14,1.14,0,0,0,184.77,244Z" transform="translate(-48.36 -24.01)"/><path class="cls-12" d="M183.47,246.33v3.33h0v5.12c0,.26.09.47.21.47h.75c.12,0,.22-.21.22-.47v-5a.31.31,0,0,0,0-.1h.25v1.48l1.16,2.52c.13.09.94-.19,1-.46-.3-.54-.64-1.52-.94-2.06v-1.48h0v-3.33h.18v3c0,.18.1.32.22.32h.75c.12,0,.22-.14.22-.32v-4.09a.91.91,0,0,0-.9-.9H183a.91.91,0,0,0-.91.9v4.09c0,.18.1.32.22.32h.75c.12,0,.22-.14.22-.32v-3Z" transform="translate(-48.36 -24.01)"/><polygon class="cls-12" points="147.02 223.06 145.23 223.06 144.04 223.06 144.04 224.15 144.04 224.72 143.44 224.72 142.26 224.72 142.26 225.81 142.26 226.37 141.65 226.37 140.47 226.37 140.47 227.46 140.47 228.02 139.86 228.02 138.68 228.02 138.68 229.12 138.68 229.68 138.08 229.68 136.89 229.68 136.89 230.78 136.89 231.34 135.11 231.34 135.11 232.43 136.89 232.43 137.34 232.43 138.08 232.43 138.08 230.78 138.68 230.78 139.86 230.78 139.86 229.68 139.86 229.12 140.47 229.12 141.65 229.12 141.65 229.12 141.65 227.46 142.26 227.46 143.44 227.46 143.44 226.37 143.44 225.81 144.04 225.81 145.23 225.81 145.23 224.72 145.23 224.15 147.02 224.15 147.02 223.06"/><path class="cls-13" d="M197.17,98.53h-10.1a2.36,2.36,0,0,1-2-2.59V86.8a2.36,2.36,0,0,1,2-2.59h10.1a2.37,2.37,0,0,1,2.05,2.59v9.14a2.37,2.37,0,0,1-2.05,2.59Zm-10.1-13.8a1.89,1.89,0,0,0-1.63,2.07v9.14A1.89,1.89,0,0,0,187.07,98h10.1a1.89,1.89,0,0,0,1.63-2.07V86.8a1.89,1.89,0,0,0-1.63-2.07Z" transform="translate(-48.36 -24.01)"/><path class="cls-12" d="M189.63,87.58a.8.8,0,1,0-.86-.8A.84.84,0,0,0,189.63,87.58Z" transform="translate(-48.36 -24.01)"/><path class="cls-12" d="M188.67,89.29v2.46h0a.15.15,0,0,0,0,.07v3.71c0,.19.07.34.16.34h.56c.08,0,.15-.15.15-.34V91.75h.19a.15.15,0,0,0,0,.07v1l.86,1.86c.09.07.69-.14.71-.34-.22-.4-.47-1.12-.7-1.52V91.75h0V89.29h.14v2.22c0,.13.07.24.16.24h.56c.08,0,.15-.11.15-.24v-3a.67.67,0,0,0-.66-.66h-2.61a.67.67,0,0,0-.67.66v3c0,.13.07.24.16.24h.56c.08,0,.15-.11.15-.24V89.29Z" transform="translate(-48.36 -24.01)"/><polygon class="cls-12" points="149.1 65.83 147.78 65.83 146.91 65.83 146.91 66.63 146.91 67.05 146.46 67.05 145.59 67.05 145.59 67.86 145.59 68.27 145.15 68.27 144.27 68.27 144.27 69.08 144.27 69.49 143.82 69.49 142.95 69.49 142.95 70.3 142.95 70.71 142.51 70.71 141.63 70.71 141.63 71.52 141.63 71.94 140.31 71.94 140.31 72.75 141.63 72.75 141.96 72.75 142.51 72.75 142.51 71.52 142.95 71.52 143.82 71.52 143.82 70.71 143.82 70.3 144.27 70.3 145.14 70.3 145.15 70.3 145.15 69.08 145.59 69.08 146.46 69.08 146.46 68.27 146.46 67.86 146.91 67.86 147.78 67.86 147.78 67.05 147.78 66.63 149.1 66.63 149.1 65.83"/><path class="cls-14" d="M265.33,661.12H242.4c-2.55,0-4.62-2.63-4.62-5.87V634.51c0-3.23,2.07-5.87,4.62-5.87h22.93c2.55,0,4.63,2.64,4.63,5.87v20.74c0,3.24-2.08,5.87-4.63,5.87Zm-22.92-31.3c-2,0-3.7,2.11-3.7,4.69v20.74c0,2.59,1.66,4.69,3.7,4.69h22.92c2,0,3.7-2.1,3.7-4.69V634.51c0-2.58-1.66-4.69-3.7-4.69Z" transform="translate(-48.36 -24.01)"/><rect class="cls-15" x="193.93" y="616.74" width="23.15" height="8.27"/><rect class="cls-15" x="242.29" y="640.75" width="23.15" height="8.27" transform="translate(-439.37 874.74) rotate(-90)"/><path class="cls-14" d="M208,434.61h-9.66a2.26,2.26,0,0,1-2-2.47V423.4a2.26,2.26,0,0,1,2-2.48H208a2.27,2.27,0,0,1,2,2.48v8.74a2.26,2.26,0,0,1-2,2.47Zm-9.66-13.19a1.81,1.81,0,0,0-1.56,2v8.74a1.81,1.81,0,0,0,1.56,2H208a1.81,1.81,0,0,0,1.56-2V423.4a1.81,1.81,0,0,0-1.56-2Z" transform="translate(-48.36 -24.01)"/><rect class="cls-15" x="149.96" y="402.02" width="9.76" height="3.49"/><rect class="cls-15" x="198.32" y="426.02" width="9.76" height="3.49" transform="translate(-272.93 606.96) rotate(-90)"/><path class="cls-1" d="M391.22,661.12H368.3c-2.55,0-4.63-2.63-4.63-5.87V634.51c0-3.23,2.08-5.87,4.63-5.87h22.92c2.55,0,4.63,2.64,4.63,5.87v20.74c0,3.24-2.08,5.87-4.63,5.87Zm-22.92-31.3c-2,0-3.7,2.11-3.7,4.69v20.74c0,2.59,1.66,4.69,3.7,4.69h22.92c2,0,3.7-2.1,3.7-4.69V634.51c0-2.58-1.66-4.69-3.7-4.69Z" transform="translate(-48.36 -24.01)"/><text class="cls-16" transform="translate(325.39 627.82)">？</text><path class="cls-13" d="M191.26,434.61H181.6a2.26,2.26,0,0,1-1.95-2.47V423.4a2.26,2.26,0,0,1,1.95-2.48h9.66a2.27,2.27,0,0,1,2,2.48v8.74a2.26,2.26,0,0,1-2,2.47Zm-9.66-13.19a1.81,1.81,0,0,0-1.56,2v8.74a1.81,1.81,0,0,0,1.56,2h9.66a1.81,1.81,0,0,0,1.56-2V423.4a1.81,1.81,0,0,0-1.56-2Z" transform="translate(-48.36 -24.01)"/><text class="cls-17" transform="translate(135.54 406.69)">？</text><path class="cls-1" d="M447.56,707H424.64c-2.55,0-4.63-2.63-4.63-5.87V680.39c0-3.23,2.08-5.87,4.63-5.87h22.92c2.55,0,4.63,2.64,4.63,5.87v20.74c0,3.24-2.08,5.87-4.63,5.87Zm-22.92-31.3c-2,0-3.7,2.11-3.7,4.69v20.74c0,2.59,1.66,4.69,3.7,4.69h22.92c2,0,3.7-2.1,3.7-4.69V680.39c0-2.58-1.66-4.69-3.7-4.69Z" transform="translate(-48.36 -24.01)"/><polygon class="cls-1" points="386.78 654.01 386.79 654.98 387.49 654.19 387.49 656.44 387.98 656.43 387.99 654.28 388.7 655 388.7 653.96 387.74 653.09 386.78 654.01"/><path class="cls-1" d="M432.15,686.25a1.25,1.25,0,0,1,.91-.8,10.8,10.8,0,0,1,4.16,0,1,1,0,0,1,.79.73l.77,2.16L441,687c.58-.26.94.28.55.73l-2.48,1.51A.78.78,0,0,1,438,689l-.64-1.57a.57.57,0,0,0-.46,0v11.26c-.21.5-1.14.49-1.29,0v-6.38a1.2,1.2,0,0,0-.75,0v6.36a.72.72,0,0,1-1.25.06v-11.3a.67.67,0,0,0-.5,0l-.05,4.93a.61.61,0,0,1-.87,0v-6.1Zm3.05-3.8a1.15,1.15,0,1,1-1.26,1.15A1.21,1.21,0,0,1,435.2,682.45Z" transform="translate(-48.36 -24.01)"/><polygon class="cls-1" points="386.78 679.5 386.79 678.53 387.49 679.32 387.49 677.07 387.98 677.08 387.99 679.22 388.7 678.5 388.7 679.55 387.74 680.42 386.78 679.5"/><rect class="cls-2" x="399.22" y="655.35" width="0.66" height="23.02"/><rect class="cls-2" x="375.61" y="655.57" width="0.66" height="23.02"/><path class="cls-1" d="M427.74,680.85h16.72v19.82H427.74V680.85Zm.33.32v19.18h16.06V681.17Z" transform="translate(-48.36 -24.01)"/><path class="cls-13" d="M443.08,499.31h-9.65a2.26,2.26,0,0,1-1.94-2.47v-8.73a2.26,2.26,0,0,1,1.94-2.47h9.65a2.26,2.26,0,0,1,1.95,2.47v8.73a2.26,2.26,0,0,1-1.95,2.47Zm-9.64-13.17a1.8,1.8,0,0,0-1.56,2v8.73a1.8,1.8,0,0,0,1.56,2h9.64a1.8,1.8,0,0,0,1.56-2v-8.73a1.8,1.8,0,0,0-1.56-2Z" transform="translate(-48.36 -24.01)"/><polygon class="cls-13" points="389.5 463.1 389.5 463.51 389.79 463.18 389.79 464.13 390 464.12 390.01 463.22 390.3 463.52 390.3 463.08 389.9 462.71 389.5 463.1"/><path class="cls-13" d="M436.6,490.58a.51.51,0,0,1,.38-.34,4.48,4.48,0,0,1,1.75,0c.17.05.32.17.33.31l.33.91.94-.59c.24-.11.39.11.22.3l-1,.64a.34.34,0,0,1-.46-.08l-.27-.66a.25.25,0,0,0-.19,0v4.74c-.09.21-.48.21-.54,0v-2.68a.58.58,0,0,0-.32,0v2.68a.3.3,0,0,1-.52,0v-4.76a.38.38,0,0,0-.21,0l0,2.08a.26.26,0,0,1-.37,0v-2.56Zm1.28-1.6a.51.51,0,0,1,.53.48.53.53,0,0,1-1.06,0A.51.51,0,0,1,437.88,489Z" transform="translate(-48.36 -24.01)"/><polygon class="cls-13" points="389.5 473.83 389.5 473.42 389.79 473.75 389.79 472.81 390 472.81 390.01 473.71 390.3 473.41 390.3 473.85 389.9 474.22 389.5 473.83"/><rect class="cls-12" x="394.73" y="463.67" width="0.28" height="9.68"/><rect class="cls-12" x="384.79" y="463.76" width="0.28" height="9.68"/><path class="cls-13" d="M434.74,488.3h7v8.34h-7V488.3Zm.14.14v8.07h6.76v-8.07Z" transform="translate(-48.36 -24.01)"/><path class="cls-13" d="M220.26,220.44h-9.65a2.25,2.25,0,0,1-2-2.46v-8.73a2.26,2.26,0,0,1,2-2.47h9.65a2.26,2.26,0,0,1,1.94,2.47V218a2.25,2.25,0,0,1-1.94,2.46Zm-9.65-13.17a1.8,1.8,0,0,0-1.55,2V218a1.8,1.8,0,0,0,1.55,2h9.65a1.81,1.81,0,0,0,1.55-2v-8.73a1.81,1.81,0,0,0-1.55-2Z" transform="translate(-48.36 -24.01)"/><polygon class="cls-13" points="166.67 184.24 166.67 184.65 166.97 184.32 166.97 185.26 167.17 185.26 167.18 184.36 167.48 184.66 167.48 184.22 167.08 183.85 166.67 184.24"/><path class="cls-13" d="M213.77,211.71a.54.54,0,0,1,.38-.33,4.48,4.48,0,0,1,1.75,0,.42.42,0,0,1,.34.31l.32.91.94-.6c.24-.11.39.12.23.31l-1,.63a.32.32,0,0,1-.46-.08l-.27-.66a.28.28,0,0,0-.2,0V217c-.09.21-.48.21-.54,0v-2.68a.42.42,0,0,0-.31,0v2.67a.31.31,0,0,1-.53,0v-4.76a.26.26,0,0,0-.21,0l0,2.07a.27.27,0,0,1-.37,0v-2.57Zm1.29-1.6a.51.51,0,0,1,.53.49.54.54,0,0,1-1.07,0A.52.52,0,0,1,215.06,210.11Z" transform="translate(-48.36 -24.01)"/><polygon class="cls-13" points="166.67 194.97 166.67 194.56 166.97 194.89 166.97 193.94 167.17 193.95 167.18 194.85 167.48 194.55 167.48 194.99 167.08 195.35 166.67 194.97"/><rect class="cls-12" x="171.9" y="184.81" width="0.28" height="9.68"/><rect class="cls-12" x="161.97" y="184.9" width="0.28" height="9.68"/><path class="cls-13" d="M211.92,209.44h7v8.34h-7v-8.34Zm.13.14v8.07h6.76v-8.07Z" transform="translate(-48.36 -24.01)"/><path class="cls-1" d="M571.69,707H548.76c-2.55,0-4.62-2.63-4.62-5.87V680.39c0-3.23,2.07-5.87,4.62-5.87h22.93c2.55,0,4.63,2.64,4.63,5.87v20.74c0,3.24-2.08,5.87-4.63,5.87Zm-22.92-31.3c-2,0-3.7,2.11-3.7,4.69v20.74c0,2.59,1.66,4.69,3.7,4.69h22.92c2,0,3.7-2.1,3.7-4.69V680.39c0-2.58-1.66-4.69-3.7-4.69Z" transform="translate(-48.36 -24.01)"/><path class="cls-2" d="M558.39,688.24a1,1,0,0,1-1.15-.81,1.14,1.14,0,0,1,.7-1.34,1,1,0,0,1,1.16.81A1.14,1.14,0,0,1,558.39,688.24Z" transform="translate(-48.36 -24.01)"/><path class="cls-2" d="M555.79,691.67h1.62l0-2.82L560,688l1.75.07,2,1.66s.41.59,0,.91-1-.19-1.14-.33l-1.39-1.2-.37.08,0,.23,2,3,.65,2.52h3c.69-.18.94,1.38.12,1.62l-3.82.05s-.4.1-.61-.68a21.61,21.61,0,0,0-.82-2.21,14,14,0,0,0-1.11,1.7c-.18,1.64,0,3.87-.12,4.26a.65.65,0,0,1-1,.5,1,1,0,0,1-.33-1l-.16-4,1.15-1.83-1.45-2.2v1.81h0v0l-.88,0h-1.77a.62.62,0,0,1,0-1.22Z" transform="translate(-48.36 -24.01)"/><rect class="cls-2" x="503.07" y="657.28" width="17.59" height="1.46"/><rect class="cls-2" x="503.07" y="658.23" width="2.9" height="17.58"/><rect class="cls-2" x="518.84" y="658.65" width="1.82" height="17.58"/><path class="cls-13" d="M233.77,462.06H224.1a2.26,2.26,0,0,1-1.95-2.47v-8.75a2.26,2.26,0,0,1,1.95-2.47h9.67a2.26,2.26,0,0,1,1.95,2.47v8.75a2.26,2.26,0,0,1-1.95,2.47Zm-9.66-13.2a1.81,1.81,0,0,0-1.56,2v8.75a1.81,1.81,0,0,0,1.56,2h9.66a1.81,1.81,0,0,0,1.56-2v-8.75a1.81,1.81,0,0,0-1.56-2Z" transform="translate(-48.36 -24.01)"/><path class="cls-12" d="M228.17,454.15a.4.4,0,0,1-.49-.34.49.49,0,0,1,.3-.57.4.4,0,0,1,.48.35A.48.48,0,0,1,228.17,454.15Z" transform="translate(-48.36 -24.01)"/><path class="cls-12" d="M227.07,455.6h.68v-1.19l1.09-.37.74,0,.85.7s.17.25,0,.39-.41-.09-.47-.14l-.59-.51-.16,0,0,.1.85,1.26.27,1.06h1.28c.29-.08.4.58.06.68l-1.62,0s-.17,0-.25-.29-.35-.93-.35-.93a6.46,6.46,0,0,0-.47.72c-.07.69,0,1.63,0,1.79a.27.27,0,0,1-.41.21.39.39,0,0,1-.14-.44l-.07-1.7.49-.77-.61-.93v.76h0v0h-1.12a.24.24,0,0,1-.22-.26A.24.24,0,0,1,227.07,455.6Z" transform="translate(-48.36 -24.01)"/><rect class="cls-12" x="176.87" y="427.21" width="7.42" height="0.61"/><rect class="cls-12" x="176.87" y="427.61" width="1.22" height="7.41"/><rect class="cls-12" x="183.52" y="427.79" width="0.77" height="7.41"/><path class="cls-13" d="M204.93,220.47h-9.66a2.26,2.26,0,0,1-2-2.47v-8.75a2.26,2.26,0,0,1,2-2.47h9.66a2.26,2.26,0,0,1,2,2.47V218a2.26,2.26,0,0,1-2,2.47Zm-9.66-13.19a1.8,1.8,0,0,0-1.56,2V218a1.81,1.81,0,0,0,1.56,2h9.66a1.81,1.81,0,0,0,1.56-2v-8.75a1.8,1.8,0,0,0-1.56-2Z" transform="translate(-48.36 -24.01)"/><path class="cls-12" d="M199.33,212.56a.4.4,0,0,1-.49-.34.47.47,0,0,1,.3-.56.39.39,0,0,1,.48.34A.48.48,0,0,1,199.33,212.56Z" transform="translate(-48.36 -24.01)"/><path class="cls-12" d="M198.23,214h.68v-1.19l1.09-.37.74,0,.85.7s.17.25,0,.39-.41-.08-.47-.14l-.59-.51-.16,0,0,.1.85,1.26.27,1.06h1.28c.29-.08.4.58.06.68l-1.62,0s-.17,0-.25-.29-.35-.93-.35-.93a6.46,6.46,0,0,0-.47.72c-.07.69,0,1.63,0,1.8a.26.26,0,0,1-.41.2.39.39,0,0,1-.14-.44l-.07-1.7.49-.77-.61-.93v.77h-1.12a.24.24,0,0,1-.22-.25A.24.24,0,0,1,198.23,214Z" transform="translate(-48.36 -24.01)"/><rect class="cls-12" x="148.03" y="185.62" width="7.42" height="0.61"/><rect class="cls-12" x="148.03" y="186.03" width="1.22" height="7.41"/><rect class="cls-12" x="154.68" y="186.2" width="0.77" height="7.41"/><path class="cls-13" d="M384.59,480.47h-9.66A2.26,2.26,0,0,1,373,478v-8.75a2.26,2.26,0,0,1,1.95-2.47h9.66a2.26,2.26,0,0,1,2,2.47V478a2.26,2.26,0,0,1-2,2.47Zm-9.66-13.2a1.81,1.81,0,0,0-1.56,2V478a1.8,1.8,0,0,0,1.56,2h9.66a1.8,1.8,0,0,0,1.56-2v-8.75a1.81,1.81,0,0,0-1.56-2Z" transform="translate(-48.36 -24.01)"/><path class="cls-12" d="M379,472.56a.4.4,0,0,1-.49-.34.49.49,0,0,1,.3-.57.4.4,0,0,1,.48.35A.47.47,0,0,1,379,472.56Z" transform="translate(-48.36 -24.01)"/><path class="cls-12" d="M377.89,474h.68v-1.19l1.09-.37.74,0,.85.7s.17.25,0,.39-.42-.09-.48-.14l-.59-.51-.15,0v.1l.85,1.26.27,1.06h1.29c.29-.07.39.59.05.68l-1.62,0s-.16,0-.25-.29a9.61,9.61,0,0,0-.35-.93,6.46,6.46,0,0,0-.47.72c-.07.69,0,1.63-.05,1.79a.27.27,0,0,1-.41.21.39.39,0,0,1-.14-.44l-.07-1.7.49-.77-.61-.93v.76h0v0h-1.12a.24.24,0,0,1-.22-.26A.24.24,0,0,1,377.89,474Z" transform="translate(-48.36 -24.01)"/><rect class="cls-12" x="327.69" y="445.62" width="7.42" height="0.61"/><rect class="cls-12" x="327.69" y="446.02" width="1.22" height="7.41"/><rect class="cls-12" x="334.34" y="446.2" width="0.77" height="7.41"/><path class="cls-13" d="M509.51,479.42h-9.66a2.26,2.26,0,0,1-2-2.47V468.2a2.26,2.26,0,0,1,2-2.47h9.66a2.26,2.26,0,0,1,2,2.47V477a2.26,2.26,0,0,1-2,2.47Zm-9.66-13.19a1.8,1.8,0,0,0-1.56,2V477a1.81,1.81,0,0,0,1.56,2h9.66a1.81,1.81,0,0,0,1.56-2V468.2a1.8,1.8,0,0,0-1.56-2Z" transform="translate(-48.36 -24.01)"/><path class="cls-12" d="M503.91,471.51a.4.4,0,0,1-.49-.34.47.47,0,0,1,.3-.56.39.39,0,0,1,.48.34A.47.47,0,0,1,503.91,471.51Z" transform="translate(-48.36 -24.01)"/><path class="cls-12" d="M502.81,473h.68v-1.19l1.09-.37.74,0,.85.7s.17.25,0,.39-.42-.09-.48-.14l-.59-.51-.15,0v.1l.85,1.26.27,1.06h1.29c.29-.08.39.58.05.68l-1.61,0s-.17,0-.26-.29-.35-.93-.35-.93a6.46,6.46,0,0,0-.47.72c-.07.69,0,1.63-.05,1.79a.27.27,0,0,1-.41.21.39.39,0,0,1-.14-.44l-.07-1.7.49-.77-.61-.93v.77h-1.12a.24.24,0,0,1-.22-.25A.24.24,0,0,1,502.81,473Z" transform="translate(-48.36 -24.01)"/><rect class="cls-12" x="452.61" y="444.57" width="7.42" height="0.61"/><rect class="cls-12" x="452.61" y="444.97" width="1.22" height="7.41"/><rect class="cls-12" x="459.26" y="445.15" width="0.77" height="7.41"/><path class="cls-13" d="M521.39,209.63h-9.67a2.26,2.26,0,0,1-2-2.48v-8.74a2.26,2.26,0,0,1,2-2.48h9.67a2.27,2.27,0,0,1,2,2.48v8.74a2.27,2.27,0,0,1-2,2.48Zm-9.67-13.2a1.81,1.81,0,0,0-1.56,2v8.74a1.81,1.81,0,0,0,1.56,2h9.67a1.81,1.81,0,0,0,1.56-2v-8.74a1.81,1.81,0,0,0-1.56-2Z" transform="translate(-48.36 -24.01)"/><path class="cls-12" d="M515.78,201.72a.41.41,0,0,1-.49-.34.48.48,0,0,1,.3-.57.41.41,0,0,1,.49.34A.48.48,0,0,1,515.78,201.72Z" transform="translate(-48.36 -24.01)"/><path class="cls-12" d="M514.68,203.16h.68V202l1.1-.37.73,0,.85.7s.17.25,0,.38-.41-.08-.48-.14l-.59-.5-.15,0,0,.1.84,1.26.27,1.06h1.29c.29-.08.39.58,0,.68l-1.61,0s-.17,0-.26-.29a8,8,0,0,0-.34-.93,5.48,5.48,0,0,0-.48.71c-.07.69,0,1.63,0,1.8a.28.28,0,0,1-.42.21.42.42,0,0,1-.14-.44l-.06-1.7.48-.78-.61-.92v.76h-1.12a.26.26,0,0,1,0-.52Z" transform="translate(-48.36 -24.01)"/><rect class="cls-12" x="464.48" y="174.78" width="7.42" height="0.61"/><rect class="cls-12" x="464.48" y="175.18" width="1.22" height="7.41"/><rect class="cls-12" x="471.14" y="175.36" width="0.77" height="7.41"/><line class="cls-18" x1="162.84" y1="317.7" x2="201.38" y2="317.7"/><path class="cls-13" d="M453.14,489.36a.85.85,0,1,0-.86-.85.86.86,0,0,0,.86.85Zm5,5.79-1.46-2.49a.52.52,0,0,0-.41-.25h-2.18v-.76h1.57a.39.39,0,0,0,.39-.37.41.41,0,0,0-.39-.41h-1.6l-.05-.59a.84.84,0,0,0-.88-.77.82.82,0,0,0-.78.86l.15,2.57a.92.92,0,0,0,.87.84h2.78l1.13,1.87a.51.51,0,0,0,.69.17.5.5,0,0,0,.17-.67Zm-4.47,1.47A2.51,2.51,0,0,1,452,492.2l-.05-.78a3.17,3.17,0,0,0,1.7,5.87,3.21,3.21,0,0,0,2.93-1.89l-.45-.77a2.54,2.54,0,0,1-2.48,2Z" transform="translate(-48.36 -24.01)"/><path class="cls-13" d="M458.75,499.31h-9.64a2.26,2.26,0,0,1-1.95-2.47v-8.73a2.26,2.26,0,0,1,1.95-2.47h9.64a2.26,2.26,0,0,1,1.95,2.47v8.73a2.26,2.26,0,0,1-1.95,2.47Zm-9.64-13.17a1.8,1.8,0,0,0-1.56,2v8.73a1.8,1.8,0,0,0,1.56,2h9.64a1.8,1.8,0,0,0,1.56-2v-8.73a1.8,1.8,0,0,0-1.56-2Z" transform="translate(-48.36 -24.01)"/><path class="cls-13" d="M501.18,534.51a.85.85,0,1,0-.86-.84.85.85,0,0,0,.86.84Zm5,5.8-1.45-2.5a.51.51,0,0,0-.42-.24h-2.18v-.76h1.57a.38.38,0,0,0,.38-.37.41.41,0,0,0-.38-.41h-1.6l-.06-.59a.83.83,0,0,0-1.65.09l.15,2.57a.92.92,0,0,0,.87.84h2.77l1.14,1.87a.51.51,0,0,0,.68.17.48.48,0,0,0,.17-.67Zm-4.46,1.47a2.53,2.53,0,0,1-2.55-2.51,2.5,2.5,0,0,1,.89-1.91l0-.78a3.15,3.15,0,0,0-1.52,2.69,3.21,3.21,0,0,0,6.14,1.29l-.45-.78a2.52,2.52,0,0,1-2.47,2Z" transform="translate(-48.36 -24.01)"/><path class="cls-13" d="M506.79,544.47h-9.65a2.26,2.26,0,0,1-1.95-2.47v-8.73a2.26,2.26,0,0,1,1.95-2.47h9.65a2.26,2.26,0,0,1,1.95,2.47V542a2.26,2.26,0,0,1-1.95,2.47Zm-9.65-13.17a1.79,1.79,0,0,0-1.55,2V542a1.79,1.79,0,0,0,1.55,2h9.65a1.79,1.79,0,0,0,1.55-2v-8.73a1.79,1.79,0,0,0-1.55-2Z" transform="translate(-48.36 -24.01)"/><path class="cls-1" d="M304.78,282.05H286.31c-2.05,0-3.72-2-3.72-4.45V261.86c0-2.46,1.67-4.46,3.72-4.46h18.47c2.05,0,3.73,2,3.73,4.46V277.6c0,2.46-1.68,4.45-3.73,4.45ZM286.32,258.3a3.3,3.3,0,0,0-3,3.56V277.6a3.31,3.31,0,0,0,3,3.56h18.46a3.31,3.31,0,0,0,3-3.56V261.86a3.3,3.3,0,0,0-3-3.56Z" transform="translate(-48.36 -24.01)"/><path class="cls-2" d="M293,261.71a2.54,2.54,0,1,0,2.54-2.38,2.47,2.47,0,0,0-2.54,2.38Zm0,0" transform="translate(-48.36 -24.01)"/><path class="cls-2" d="M297.25,265.16H294a4.33,4.33,0,0,0-2.82,1v6.15h2.48l.53,7.23h3l.51-7.23h2.52v-6a4.33,4.33,0,0,0-2.95-1.1Zm0,0" transform="translate(-48.36 -24.01)"/><path class="cls-13" d="M474.08,297.57h-12c-1.34,0-2.43-1.38-2.43-3.07V283.62c0-1.7,1.09-3.08,2.43-3.08h12c1.34,0,2.43,1.38,2.43,3.08V294.5c0,1.69-1.09,3.07-2.43,3.07Zm-12-16.41a2.25,2.25,0,0,0-1.94,2.46V294.5a2.24,2.24,0,0,0,1.94,2.45h12A2.24,2.24,0,0,0,476,294.5V283.62a2.25,2.25,0,0,0-1.94-2.46Z" transform="translate(-48.36 -24.01)"/><path class="cls-12" d="M467.9,284.85a.82.82,0,1,1-.82-.81A.81.81,0,0,1,467.9,284.85Z" transform="translate(-48.36 -24.01)"/><path class="cls-12" d="M467.88,286.92v-.35a.81.81,0,0,0-1.61,0v1.85a.2.2,0,0,0,0,.07Z" transform="translate(-48.36 -24.01)"/><path class="cls-12" d="M473.22,285.21a1.19,1.19,0,1,1,0,2.38H471.8L466.22,293a1.41,1.41,0,0,1-.29.25,1.19,1.19,0,0,1-.65.23H463a1.2,1.2,0,1,1,0-2.38h1.68l5.71-5.57,0,0h0l.08-.07,0,0,.05,0,.09,0h0a1.32,1.32,0,0,1,.62-.15h1.89m0-.54h-1.89a1.93,1.93,0,0,0-.88.21l0,0-.11.07-.07,0h0l-.05,0-.11.1h0l0,0-5.55,5.41H463a1.74,1.74,0,1,0,0,3.46h2.31a1.9,1.9,0,0,0,.92-.33,2,2,0,0,0,.38-.33l5.4-5.27h1.19a1.73,1.73,0,1,0,0-3.46Z" transform="translate(-48.36 -24.01)"/><path class="cls-13" d="M491.28,544.22H480.54a2.28,2.28,0,0,1-2.17-2.38v-8.41a2.28,2.28,0,0,1,2.17-2.38h10.74a2.29,2.29,0,0,1,2.18,2.38v8.41a2.29,2.29,0,0,1-2.18,2.38Zm-10.74-12.69a1.82,1.82,0,0,0-1.73,1.9v8.41a1.82,1.82,0,0,0,1.73,1.9h10.74a1.83,1.83,0,0,0,1.74-1.9v-8.41a1.83,1.83,0,0,0-1.74-1.9Z" transform="translate(-48.36 -24.01)"/><path class="cls-13" d="M487.58,539.61h.83v2.65c0,.18.2.37.36.32a.35.35,0,0,0,.28-.36l0-2.61h.19v2.65a.25.25,0,0,0,.09.23.35.35,0,0,0,.28.06.32.32,0,0,0,.2-.29v-2.65h.83l-.83-3.19c0-.06,0-.09,0-.16s0-.06.08-.08H490a.21.21,0,0,1,.11.07l.53,1.94a.28.28,0,0,0,.12.12.26.26,0,0,0,.31,0,.35.35,0,0,0,.06-.33l-.6-2.07a1.35,1.35,0,0,0-.3-.46,1.13,1.13,0,0,0-.76-.29l-.87.09a1.24,1.24,0,0,0-.38.09.74.74,0,0,0-.39.39,1.14,1.14,0,0,0-.09.3l-.53,2a.3.3,0,0,0,0,.26.25.25,0,0,0,.27.11.23.23,0,0,0,.16-.17l.6-1.9s0-.07.07-.08a.09.09,0,0,1,.12,0,.12.12,0,0,1,0,.13l-.86,3.23Z" transform="translate(-48.36 -24.01)"/><path class="cls-13" d="M481.41,538.66v-2.4h.22v5.83a.4.4,0,0,0,.19.32.33.33,0,0,0,.39,0,.45.45,0,0,0,.18-.34v-3.39h.22v3.39a.42.42,0,0,0,.18.35.33.33,0,0,0,.41,0,.45.45,0,0,0,.17-.33V536.3h.22v2.32h.53v-2.44a1.12,1.12,0,0,0-.22-.67,1,1,0,0,0-.61-.33h-1.58a.84.84,0,0,0-.43.14.92.92,0,0,0-.35.38,1.12,1.12,0,0,0-.13.39v2.57Z" transform="translate(-48.36 -24.01)"/><path class="cls-13" d="M482.5,535a.77.77,0,0,0,.68-.53.91.91,0,0,0-.26-1,.68.68,0,0,0-1,.1.89.89,0,0,0-.09,1,.76.76,0,0,0,.63.38Z" transform="translate(-48.36 -24.01)"/><path class="cls-13" d="M489.08,535a.67.67,0,0,0,.65-.43.76.76,0,0,0-.25-.92.62.62,0,0,0-.87.09.78.78,0,0,0-.07,1,.63.63,0,0,0,.54.3Z" transform="translate(-48.36 -24.01)"/><polygon class="cls-13" points="436.93 508.42 437.36 508.42 437.36 518.96 436.93 518.96 436.93 508.42 436.93 508.42"/><path class="cls-13" d="M199.74,193.31a.85.85,0,1,0-.85-.84.85.85,0,0,0,.85.84Zm5,5.79-1.46-2.49a.5.5,0,0,0-.41-.24h-2.18v-.76h1.57a.38.38,0,0,0,.38-.37.41.41,0,0,0-.38-.41h-1.61l-.05-.6a.84.84,0,0,0-.87-.77.83.83,0,0,0-.78.87l.15,2.57a.91.91,0,0,0,.87.83h2.77l1.14,1.88a.51.51,0,0,0,.68.17.49.49,0,0,0,.17-.68Zm-4.47,1.48a2.53,2.53,0,0,1-2.54-2.52,2.5,2.5,0,0,1,.89-1.9l0-.79a3.17,3.17,0,0,0-1.52,2.69,3.21,3.21,0,0,0,6.14,1.3l-.45-.78a2.53,2.53,0,0,1-2.48,2Z" transform="translate(-48.36 -24.01)"/><path class="cls-13" d="M205.36,203.26h-9.65a2.26,2.26,0,0,1-2-2.47v-8.72a2.26,2.26,0,0,1,2-2.47h9.65a2.26,2.26,0,0,1,1.95,2.47v8.72a2.26,2.26,0,0,1-1.95,2.47Zm-9.65-13.17a1.8,1.8,0,0,0-1.55,2v8.72a1.8,1.8,0,0,0,1.55,2h9.65a1.81,1.81,0,0,0,1.55-2v-8.72a1.81,1.81,0,0,0-1.55-2Z" transform="translate(-48.36 -24.01)"/><path class="cls-13" d="M189.85,203H179.11a2.28,2.28,0,0,1-2.17-2.38v-8.41a2.28,2.28,0,0,1,2.17-2.38h10.74a2.28,2.28,0,0,1,2.17,2.38v8.41a2.28,2.28,0,0,1-2.17,2.38Zm-10.74-12.7a1.83,1.83,0,0,0-1.74,1.91v8.41a1.83,1.83,0,0,0,1.74,1.9h10.74a1.83,1.83,0,0,0,1.74-1.9v-8.41a1.83,1.83,0,0,0-1.74-1.91Z" transform="translate(-48.36 -24.01)"/><path class="cls-13" d="M186.15,198.41H187v2.65a.34.34,0,0,0,.36.32.37.37,0,0,0,.28-.37l0-2.6h.19v2.65a.25.25,0,0,0,.09.23.34.34,0,0,0,.28.05.29.29,0,0,0,.2-.28v-2.65h.83l-.83-3.19c0-.06,0-.1,0-.16s0-.06.07-.09l.08,0a.21.21,0,0,1,.11.07l.53,1.94a.34.34,0,0,0,.12.12.26.26,0,0,0,.3,0,.35.35,0,0,0,.07-.34l-.6-2.07a1.32,1.32,0,0,0-.3-.45,1.08,1.08,0,0,0-.76-.29l-.87.08a1.26,1.26,0,0,0-.38.1.71.71,0,0,0-.39.39,1,1,0,0,0-.09.3l-.53,2a.32.32,0,0,0,0,.27.23.23,0,0,0,.43-.06l.6-1.9s0-.07.07-.08a.09.09,0,0,1,.12,0,.15.15,0,0,1,0,.13l-.86,3.23Z" transform="translate(-48.36 -24.01)"/><path class="cls-13" d="M180,197.46v-2.4h.23v5.83a.4.4,0,0,0,.19.32.35.35,0,0,0,.39,0,.44.44,0,0,0,.17-.34v-3.39h.23v3.39a.42.42,0,0,0,.18.35.33.33,0,0,0,.41,0,.47.47,0,0,0,.17-.33V195.1h.22v2.31h.53V195a1.06,1.06,0,0,0-.23-.66.89.89,0,0,0-.6-.33h-1.58a.81.81,0,0,0-.43.14.92.92,0,0,0-.35.38,1.06,1.06,0,0,0-.13.39v2.57Z" transform="translate(-48.36 -24.01)"/><path class="cls-13" d="M181.07,193.78a.75.75,0,0,0,.67-.54.86.86,0,0,0-.26-1,.67.67,0,0,0-.95.1.87.87,0,0,0-.09,1,.77.77,0,0,0,.63.39Z" transform="translate(-48.36 -24.01)"/><path class="cls-13" d="M187.65,193.82a.69.69,0,0,0,.65-.43.77.77,0,0,0-.25-.93.64.64,0,0,0-.87.09.8.8,0,0,0-.07,1,.66.66,0,0,0,.54.3Z" transform="translate(-48.36 -24.01)"/><polygon class="cls-13" points="135.5 167.22 135.93 167.22 135.93 177.76 135.5 177.76 135.5 167.22 135.5 167.22"/><polyline class="cls-19" points="166.7 323.37 205.51 323.37 205.51 402.02 520.66 402.02 520.66 191.03 402.12 191.03 402.12 132.23"/><polygon class="cls-20" points="402.19 121.07 397.21 135.73 407.18 135.73 402.19 121.07"/><polygon class="cls-20" points="419.71 254.76 414.73 240.09 424.7 240.09 419.71 254.76"/><polyline class="cls-19" points="372.59 132.23 372.59 205.48 419.54 205.48 419.54 245.72"/></g><g id="图层_3" data-name="图层 3"><text class="cls-21" transform="translate(102.83 625.59) scale(1.07 1)">您的位置 </text><text class="cls-22" transform="translate(316.24 24.06) scale(1.07 1)">二层</text><text class="cls-21" transform="translate(39.13 671.71) scale(1.07 1)">入口 </text><text class="cls-21" transform="translate(229.01 625.59) scale(1.07 1)">急救中心</text><text class="cls-21" transform="translate(165.35 671.71) scale(1.07 1)">出口</text><text class="cls-21" transform="translate(354.57 625.02) scale(1.07 1)">服务台</text><text class="cls-21" transform="translate(289.64 671.71) scale(1.07 1)">扶梯</text><text class="cls-21" transform="translate(482.14 625.59) scale(1.07 1)">无障碍通道</text><text class="cls-21" transform="translate(413.92 671.71) scale(1.07 1)">电梯</text><text class="cls-21" transform="translate(611.22 625.59) scale(1.07 1)">洗手间</text><text class="cls-21" transform="translate(538.54 671.71) scale(1.07 1)">安全出口</text><text class="cls-21" transform="translate(663.19 671.02) scale(1.07 1)">楼梯</text><text class="cls-23" transform="translate(96.44 72.37)">餐厅 </text><text class="cls-23" transform="translate(411.22 106.25)">临时展厅</text><text class="cls-21" transform="translate(214.22 146.74) scale(1.07 1)">书店</text><text class="cls-21" transform="translate(300.91 305.19) scale(1.07 1)">中庭</text><text class="cls-21" transform="translate(113.64 323.37) scale(1.07 1)">入口</text><text class="cls-21" transform="translate(241.33 64.75) scale(1.07 1)">出口</text><text class="cls-21" transform="translate(479.5 422.93) scale(1.07 1)">安徽文明史陈列(一)</text><text class="cls-21" transform="translate(289.27 520.26) scale(1.07 1)">多媒体放映厅</text></g></svg>